# Blender 4.0.2
# www.blender.org
mtllib level2collider.mtl
o Fried_Foods.003
v -0.365137 -199.175171 0.558628
v -0.365137 -199.175171 -0.558596
v 0.365141 -199.175171 0.558628
v -0.507288 -199.175171 0.558628
v -0.365137 -199.175171 0.763441
v -0.365136 0.824821 0.763426
v 0.365141 -199.175171 0.763441
v -0.507288 -199.175171 0.763441
v -0.507287 0.824819 0.763426
v -0.507287 0.824820 0.558613
v -0.507287 0.824820 -0.558611
v -0.365136 0.824821 0.558613
v 0.365141 0.824821 0.558613
v -0.365136 0.824821 -0.558611
v 0.365141 0.824821 -0.558611
v -0.365136 0.824821 -0.775034
v 0.365141 0.824821 -0.775034
v -0.365137 -199.175171 -0.775021
v -0.507287 0.824819 -0.775034
v -0.507288 -199.175171 -0.775021
v -0.507288 -199.175171 -0.558596
v 0.365141 -199.175171 -0.775021
v 0.507291 -199.175171 -0.775021
v 0.365141 -199.175171 -0.558596
v 0.507291 -199.175171 -0.558596
v 0.507291 -199.175171 0.558628
v 0.507291 0.824820 -0.558611
v 0.507291 0.824820 0.558613
v 0.507291 0.824820 -0.775034
v 0.507291 0.824820 0.763426
v 0.507291 -199.175171 0.763441
v 0.365141 0.824821 0.763426
v -0.365137 -198.975662 -2.160078
v -0.365137 -198.975662 -3.277302
v 0.365140 -198.975662 -2.160078
v -0.365137 -198.975662 -1.999176
v -0.526952 -198.975662 -2.160078
v -0.526952 -198.975662 -3.277302
v -0.526951 1.024319 -2.160095
v -0.526952 -198.975662 -1.999176
v -0.526951 1.024319 -1.999193
v -0.365137 1.024319 -1.999193
v 0.365140 1.024319 -1.999193
v -0.365137 1.024319 -2.160095
v 0.365140 1.024319 -2.160095
v -0.365137 1.024319 -3.277319
v 0.365140 1.024319 -3.277319
v -0.365137 1.024319 -3.414095
v -0.526951 1.024319 -3.277319
v -0.526951 1.024319 -3.414095
v -0.526952 -198.975662 -3.414078
v -0.365137 -198.975662 -3.414078
v 0.365140 -198.975662 -3.414078
v 0.365140 1.024319 -3.414095
v 0.365140 -198.975662 -3.277302
v 0.606280 -198.975662 -3.414078
v 0.606280 1.024319 -3.414095
v 0.606280 -198.975662 -3.277302
v 0.606280 -198.975662 -2.160078
v 0.606280 1.024319 -3.277319
v 0.606280 1.024319 -2.160095
v 0.606280 1.024319 -1.999193
v 0.606280 -198.975662 -1.999176
v 0.365140 -198.975662 -1.999176
v 0.944937 -198.513611 -4.181872
v 0.944937 -198.513611 -5.299097
v 1.675215 -198.513611 -4.181872
v 0.944937 -198.513611 -4.020972
v 0.783123 -198.513611 -4.181872
v 0.783123 -198.513611 -5.299097
v 0.783123 1.486380 -4.181887
v 0.783123 -198.513611 -4.020972
v 0.783123 1.486380 -4.020985
v 0.944937 1.486380 -4.020985
v 1.675215 1.486380 -4.020985
v 0.944937 1.486380 -4.181887
v 1.675215 1.486380 -4.181887
v 0.944937 1.486380 -5.299110
v 1.675215 1.486380 -5.299110
v 0.944937 1.486380 -5.435886
v 0.783123 1.486380 -5.299110
v 0.783123 1.486380 -5.435886
v 0.783123 -198.513611 -5.435871
v 0.944937 -198.513611 -5.435871
v 1.675215 -198.513611 -5.435871
v 1.675215 1.486380 -5.435886
v 1.675215 -198.513611 -5.299097
v 1.916355 -198.513611 -5.435871
v 1.916355 1.486380 -5.435886
v 1.916355 -198.513611 -5.299097
v 1.916355 -198.513611 -4.181872
v 1.916355 1.486380 -5.299110
v 1.916355 1.486380 -4.181887
v 1.916355 1.486380 -4.020985
v 1.916355 -198.513611 -4.020972
v 1.675215 -198.513611 -4.020972
v -0.154273 -198.108475 -6.474307
v -0.154273 -198.108475 -7.591531
v 0.576004 -198.108475 -6.474307
v -0.154273 -198.108475 -6.313406
v -0.316088 -198.108475 -6.474307
v -0.316088 -198.108475 -7.591531
v -0.316087 1.891531 -6.474322
v -0.316088 -198.108475 -6.313406
v -0.316087 1.891531 -6.313419
v -0.154272 1.891531 -6.313419
v 0.576005 1.891531 -6.313419
v -0.154272 1.891531 -6.474322
v 0.576005 1.891531 -6.474322
v -0.154272 1.891530 -7.591546
v 0.576005 1.891530 -7.591546
v -0.154272 1.891530 -7.728322
v -0.316087 1.891530 -7.591546
v -0.316087 1.891530 -7.728322
v -0.316088 -198.108475 -7.728307
v -0.154273 -198.108475 -7.728307
v 0.576004 -198.108475 -7.728307
v 0.576005 1.891530 -7.728322
v 0.576004 -198.108475 -7.591531
v 0.817145 -198.108475 -7.728307
v 0.817145 1.891530 -7.728322
v 0.817145 -198.108475 -7.591531
v 0.817145 -198.108475 -6.474307
v 0.817145 1.891530 -7.591546
v 0.817145 1.891531 -6.474322
v 0.817145 1.891531 -6.313419
v 0.817145 -198.108475 -6.313406
v 0.576004 -198.108475 -6.313406
v -0.154272 -199.806015 -10.684019
v -0.154273 -199.806015 -11.801243
v 0.576005 -199.806015 -10.684019
v -0.154272 -199.806015 -10.523117
v -0.316087 -199.806015 -10.684019
v -0.316088 -199.806015 -11.801243
v -0.316087 0.193991 -10.684033
v -0.316087 -199.806015 -10.523117
v -0.316087 0.193991 -10.523131
v -0.154272 0.193991 -10.523131
v 0.576004 0.193991 -10.523131
v -0.154272 0.193991 -10.684033
v 0.576004 0.193991 -10.684033
v -0.154273 0.193990 -11.801257
v 0.576003 0.193990 -11.801257
v -0.154273 0.193990 -11.938032
v -0.316088 0.193990 -11.801257
v -0.316088 0.193990 -11.938032
v -0.316088 -199.806015 -11.938017
v -0.154273 -199.806015 -11.938017
v 0.576004 -199.806015 -11.938017
v 0.576003 0.193990 -11.938032
v 0.576004 -199.806015 -11.801243
v 0.817144 -199.806015 -11.938017
v 0.817144 0.193990 -11.938032
v 0.817144 -199.806015 -11.801243
v 0.817145 -199.806015 -10.684019
v 0.817144 0.193990 -11.801257
v 0.817145 0.193991 -10.684033
v 0.817145 0.193991 -10.523131
v 0.817145 -199.806015 -10.523117
v 0.576005 -199.806015 -10.523117
v -0.154273 -199.806015 -13.072509
v -0.154273 -199.806015 -14.189734
v 0.576004 -199.806015 -13.072509
v -0.154273 -199.806015 -12.911608
v -0.316088 -199.806015 -13.072509
v -0.316087 -199.806015 -14.189734
v -0.316088 0.193990 -13.072524
v -0.316088 -199.806015 -12.911608
v -0.316088 0.193990 -12.911622
v -0.154273 0.193990 -12.911622
v 0.576004 0.193990 -12.911622
v -0.154273 0.193990 -13.072524
v 0.576004 0.193990 -13.072524
v -0.154273 0.193990 -14.189748
v -0.316088 0.193990 -14.189748
v 0.576004 0.193990 -14.189748
v -0.154273 0.193990 -14.326522
v 0.576004 0.193990 -14.326522
v -0.154273 -199.806015 -14.326508
v -0.316088 0.193990 -14.326522
v -0.316087 -199.806015 -14.326508
v 0.576004 -199.806015 -14.326508
v 0.576004 -199.806015 -14.189734
v 0.817144 -199.806015 -14.326508
v 0.817144 0.193990 -14.326522
v 0.817144 -199.806015 -14.189734
v 0.817144 -199.806015 -13.072509
v 0.817144 0.193990 -14.189748
v 0.817144 0.193990 -13.072524
v 0.817144 0.193990 -12.911622
v 0.817144 -199.806015 -12.911608
v 0.576004 -199.806015 -12.911608
v 0.138377 0.041625 -17.028196
v 0.138377 0.041625 -19.028196
v 0.212942 0.041625 -17.028196
v 0.138377 0.041625 -14.091352
v 0.055351 0.041625 -17.028196
v 0.055351 0.041625 -19.028196
v 0.055351 0.041625 -14.091352
v 0.055351 0.041625 -16.840324
v 0.055351 0.041625 -18.840324
v 0.055351 0.041624 -20.488358
v 0.055351 -0.041627 -18.840324
v 0.055351 -0.041628 -20.488358
v 0.055351 -0.041627 -16.840324
v 0.055351 -0.041627 -19.028196
v 0.055351 -0.041628 -20.676229
v 0.055351 0.041624 -20.676229
v 0.138377 -0.041628 -20.676229
v 0.212942 -0.041628 -20.676229
v 0.138377 -0.041627 -19.028196
v 0.138377 0.041624 -20.676229
v 0.212942 0.041624 -20.676229
v 0.212942 0.041625 -19.028196
v 0.294355 0.041624 -20.676229
v 0.294355 -0.041628 -20.676229
v 0.294355 0.041625 -19.028196
v 0.294355 -0.041627 -19.028196
v 0.294355 0.041625 -17.028196
v 0.294355 0.041625 -14.091352
v 0.294355 -0.041627 -17.028196
v 0.294355 -0.041627 -14.091352
v 0.212942 -0.041627 -17.028196
v 0.212942 -0.041627 -14.091352
v 0.212942 -0.041627 -19.028196
v 0.138377 -0.041627 -17.028196
v 0.138377 -0.041627 -14.091352
v 0.055351 -0.041627 -17.028196
v 0.055351 -0.041627 -14.091352
v 0.055351 -0.041627 -13.903480
v 0.055351 0.041625 -13.903480
v 0.212942 0.041625 -14.091352
v -7.009124 -0.041628 -22.403217
v -7.009124 0.041624 -22.403217
v -7.009124 -0.041628 -22.319580
v -1.270967 -0.041628 -22.403217
v -1.270967 -0.041628 -22.319580
v -1.270967 0.041624 -22.403217
v -1.270967 0.041624 -22.319580
v -7.009124 0.041624 -22.319580
v -1.270967 0.041624 -22.131708
v -7.009124 0.041624 -22.131708
v -1.270967 -0.041628 -22.131708
v -7.009124 -0.041628 -22.131708
v -8.376637 -199.779251 -21.982370
v -9.493858 -199.779251 -21.982370
v -8.376637 -199.779251 -22.712648
v -8.376637 -199.779251 -21.840219
v -8.171822 -199.779251 -21.982370
v -8.171837 0.220737 -21.982372
v -8.171822 -199.779251 -22.712648
v -8.171822 -199.779251 -21.840219
v -8.171837 0.220737 -21.840221
v -8.376652 0.220737 -21.840221
v -9.493874 0.220737 -21.840221
v -8.376652 0.220737 -21.982372
v -8.376652 0.220737 -22.712648
v -9.493874 0.220737 -21.982372
v -9.493874 0.220737 -22.712648
v -9.710297 0.220737 -21.982372
v -9.710297 0.220737 -22.712648
v -9.710285 -199.779251 -21.982370
v -9.710297 0.220737 -21.840221
v -9.710285 -199.779251 -21.840219
v -9.493858 -199.779251 -21.840219
v -9.710285 -199.779251 -22.712648
v -9.710285 -199.779251 -22.854797
v -9.493858 -199.779251 -22.712648
v -9.493858 -199.779251 -22.854797
v -8.376637 -199.779251 -22.854797
v -9.493874 0.220737 -22.854799
v -8.376652 0.220737 -22.854799
v -9.710297 0.220737 -22.854797
v -8.171837 0.220737 -22.854799
v -8.171822 -199.779251 -22.854797
v -8.171837 0.220737 -22.712648
vn -0.0000 1.0000 -0.0000
vn -0.0000 -0.0000 -1.0000
vn 1.0000 -0.0000 -0.0000
vn -0.0000 -1.0000 -0.0000
vn -0.0000 -0.0000 1.0000
vn -1.0000 -0.0000 -0.0000
vn -0.0000 -0.0000 -0.0000
vt 0.000000 0.000000
s 0
usemtl Material.002
f 1/1/1 2/1/1 21/1/1 4/1/1
f 1/1/1 3/1/1 24/1/1 2/1/1
f 3/1/1 1/1/1 5/1/1 7/1/1
f 1/1/1 4/1/1 8/1/1 5/1/1
f 6/1/2 5/1/2 8/1/2 9/1/2
f 5/1/2 6/1/2 32/1/2 7/1/2
f 4/1/3 10/1/3 9/1/3 8/1/3
f 10/1/4 12/1/4 6/1/4 9/1/4
f 21/1/3 11/1/3 10/1/3 4/1/3
f 14/1/4 12/1/4 10/1/4 11/1/4
f 12/1/4 13/1/4 32/1/4 6/1/4
f 13/1/4 12/1/4 14/1/4 15/1/4
f 15/1/4 14/1/4 16/1/4 17/1/4
f 14/1/4 11/1/4 19/1/4 16/1/4
f 22/1/5 17/1/5 16/1/5 18/1/5
f 18/1/5 16/1/5 19/1/5 20/1/5
f 11/1/3 21/1/3 20/1/3 19/1/3
f 21/1/1 2/1/1 18/1/1 20/1/1
f 2/1/1 24/1/1 22/1/1 18/1/1
f 17/1/5 22/1/5 23/1/5 29/1/5
f 24/1/1 25/1/1 23/1/1 22/1/1
f 24/1/1 3/1/1 26/1/1 25/1/1
f 26/1/6 28/1/6 27/1/6 25/1/6
f 25/1/6 27/1/6 29/1/6 23/1/6
f 13/1/4 15/1/4 27/1/4 28/1/4
f 27/1/4 15/1/4 17/1/4 29/1/4
f 28/1/6 26/1/6 31/1/6 30/1/6
f 13/1/4 28/1/4 30/1/4 32/1/4
f 32/1/2 30/1/2 31/1/2 7/1/2
f 26/1/1 3/1/1 7/1/1 31/1/1
f 33/1/1 34/1/1 38/1/1 37/1/1
f 33/1/1 35/1/1 55/1/1 34/1/1
f 35/1/1 33/1/1 36/1/1 64/1/1
f 36/1/1 33/1/1 37/1/1 40/1/1
f 38/1/3 49/1/3 39/1/3 37/1/3
f 37/1/3 39/1/3 41/1/3 40/1/3
f 42/1/2 36/1/2 40/1/2 41/1/2
f 44/1/4 42/1/4 41/1/4 39/1/4
f 36/1/2 42/1/2 43/1/2 64/1/2
f 44/1/4 45/1/4 43/1/4 42/1/4
f 45/1/4 44/1/4 46/1/4 47/1/4
f 46/1/4 44/1/4 39/1/4 49/1/4
f 47/1/4 46/1/4 48/1/4 54/1/4
f 48/1/4 46/1/4 49/1/4 50/1/4
f 49/1/3 38/1/3 51/1/3 50/1/3
f 52/1/5 48/1/5 50/1/5 51/1/5
f 34/1/1 52/1/1 51/1/1 38/1/1
f 53/1/5 54/1/5 48/1/5 52/1/5
f 34/1/1 55/1/1 53/1/1 52/1/1
f 54/1/5 53/1/5 56/1/5 57/1/5
f 53/1/1 55/1/1 58/1/1 56/1/1
f 60/1/6 57/1/6 56/1/6 58/1/6
f 55/1/1 35/1/1 59/1/1 58/1/1
f 59/1/6 61/1/6 60/1/6 58/1/6
f 45/1/4 47/1/4 60/1/4 61/1/4
f 47/1/4 54/1/4 57/1/4 60/1/4
f 61/1/6 59/1/6 63/1/6 62/1/6
f 43/1/4 45/1/4 61/1/4 62/1/4
f 64/1/2 43/1/2 62/1/2 63/1/2
f 35/1/1 64/1/1 63/1/1 59/1/1
f 65/1/1 66/1/1 70/1/1 69/1/1
f 65/1/1 67/1/1 87/1/1 66/1/1
f 67/1/1 65/1/1 68/1/1 96/1/1
f 68/1/1 65/1/1 69/1/1 72/1/1
f 70/1/3 81/1/3 71/1/3 69/1/3
f 69/1/3 71/1/3 73/1/3 72/1/3
f 74/1/2 68/1/2 72/1/2 73/1/2
f 76/1/4 74/1/4 73/1/4 71/1/4
f 68/1/2 74/1/2 75/1/2 96/1/2
f 76/1/4 77/1/4 75/1/4 74/1/4
f 78/1/4 76/1/4 71/1/4 81/1/4
f 77/1/4 76/1/4 78/1/4 79/1/4
f 79/1/4 78/1/4 80/1/4 86/1/4
f 80/1/4 78/1/4 81/1/4 82/1/4
f 81/1/3 70/1/3 83/1/3 82/1/3
f 84/1/5 80/1/5 82/1/5 83/1/5
f 66/1/1 84/1/1 83/1/1 70/1/1
f 85/1/5 86/1/5 80/1/5 84/1/5
f 66/1/1 87/1/1 85/1/1 84/1/1
f 86/1/5 85/1/5 88/1/5 89/1/5
f 85/1/1 87/1/1 90/1/1 88/1/1
f 90/1/6 92/1/6 89/1/6 88/1/6
f 87/1/1 67/1/1 91/1/1 90/1/1
f 91/1/6 93/1/6 92/1/6 90/1/6
f 77/1/4 79/1/4 92/1/4 93/1/4
f 79/1/4 86/1/4 89/1/4 92/1/4
f 93/1/6 91/1/6 95/1/6 94/1/6
f 75/1/4 77/1/4 93/1/4 94/1/4
f 75/1/2 94/1/2 95/1/2 96/1/2
f 67/1/1 96/1/1 95/1/1 91/1/1
f 97/1/1 98/1/1 102/1/1 101/1/1
f 97/1/1 99/1/1 119/1/1 98/1/1
f 99/1/1 97/1/1 100/1/1 128/1/1
f 100/1/1 97/1/1 101/1/1 104/1/1
f 102/1/3 113/1/3 103/1/3 101/1/3
f 101/1/3 103/1/3 105/1/3 104/1/3
f 106/1/2 100/1/2 104/1/2 105/1/2
f 108/1/4 106/1/4 105/1/4 103/1/4
f 106/1/2 107/1/2 128/1/2 100/1/2
f 108/1/4 109/1/4 107/1/4 106/1/4
f 109/1/4 108/1/4 110/1/4 111/1/4
f 110/1/4 108/1/4 103/1/4 113/1/4
f 111/1/4 110/1/4 112/1/4 118/1/4
f 112/1/4 110/1/4 113/1/4 114/1/4
f 113/1/3 102/1/3 115/1/3 114/1/3
f 116/1/5 112/1/5 114/1/5 115/1/5
f 98/1/1 116/1/1 115/1/1 102/1/1
f 117/1/5 118/1/5 112/1/5 116/1/5
f 98/1/1 119/1/1 117/1/1 116/1/1
f 118/1/5 117/1/5 120/1/5 121/1/5
f 117/1/1 119/1/1 122/1/1 120/1/1
f 122/1/6 124/1/6 121/1/6 120/1/6
f 123/1/6 125/1/6 124/1/6 122/1/6
f 119/1/1 99/1/1 123/1/1 122/1/1
f 109/1/4 111/1/4 124/1/4 125/1/4
f 111/1/4 118/1/4 121/1/4 124/1/4
f 125/1/6 123/1/6 127/1/6 126/1/6
f 107/1/4 109/1/4 125/1/4 126/1/4
f 107/1/2 126/1/2 127/1/2 128/1/2
f 99/1/1 128/1/1 127/1/1 123/1/1
f 129/1/1 131/1/1 151/1/1 130/1/1
f 129/1/1 130/1/1 134/1/1 133/1/1
f 131/1/1 129/1/1 132/1/1 160/1/1
f 132/1/1 129/1/1 133/1/1 136/1/1
f 134/1/3 145/1/3 135/1/3 133/1/3
f 133/1/3 135/1/3 137/1/3 136/1/3
f 138/1/2 132/1/2 136/1/2 137/1/2
f 140/1/4 138/1/4 137/1/4 135/1/4
f 132/1/2 138/1/2 139/1/2 160/1/2
f 140/1/4 141/1/4 139/1/4 138/1/4
f 141/1/4 140/1/4 142/1/4 143/1/4
f 142/1/4 140/1/4 135/1/4 145/1/4
f 143/1/4 142/1/4 144/1/4 150/1/4
f 144/1/4 142/1/4 145/1/4 146/1/4
f 145/1/3 134/1/3 147/1/3 146/1/3
f 148/1/5 144/1/5 146/1/5 147/1/5
f 130/1/1 148/1/1 147/1/1 134/1/1
f 149/1/5 150/1/5 144/1/5 148/1/5
f 130/1/1 151/1/1 149/1/1 148/1/1
f 150/1/5 149/1/5 152/1/5 153/1/5
f 149/1/1 151/1/1 154/1/1 152/1/1
f 154/1/6 156/1/6 153/1/6 152/1/6
f 155/1/6 157/1/6 156/1/6 154/1/6
f 151/1/1 131/1/1 155/1/1 154/1/1
f 141/1/4 143/1/4 156/1/4 157/1/4
f 143/1/4 150/1/4 153/1/4 156/1/4
f 139/1/4 141/1/4 157/1/4 158/1/4
f 157/1/6 155/1/6 159/1/6 158/1/6
f 160/1/2 139/1/2 158/1/2 159/1/2
f 131/1/1 160/1/1 159/1/1 155/1/1
f 163/1/1 183/1/1 162/1/1 161/1/1
f 161/1/1 162/1/1 166/1/1 165/1/1
f 163/1/1 161/1/1 164/1/1 192/1/1
f 164/1/1 161/1/1 165/1/1 168/1/1
f 166/1/3 175/1/3 167/1/3 165/1/3
f 165/1/3 167/1/3 169/1/3 168/1/3
f 170/1/2 164/1/2 168/1/2 169/1/2
f 172/1/4 170/1/4 169/1/4 167/1/4
f 164/1/2 170/1/2 171/1/2 192/1/2
f 172/1/4 173/1/4 171/1/4 170/1/4
f 174/1/4 172/1/4 167/1/4 175/1/4
f 173/1/4 172/1/4 174/1/4 176/1/4
f 177/1/4 174/1/4 175/1/4 180/1/4
f 176/1/4 174/1/4 177/1/4 178/1/4
f 182/1/5 178/1/5 177/1/5 179/1/5
f 179/1/5 177/1/5 180/1/5 181/1/5
f 175/1/3 166/1/3 181/1/3 180/1/3
f 162/1/1 179/1/1 181/1/1 166/1/1
f 162/1/1 183/1/1 182/1/1 179/1/1
f 178/1/5 182/1/5 184/1/5 185/1/5
f 182/1/1 183/1/1 186/1/1 184/1/1
f 186/1/6 188/1/6 185/1/6 184/1/6
f 183/1/1 163/1/1 187/1/1 186/1/1
f 187/1/6 189/1/6 188/1/6 186/1/6
f 173/1/4 176/1/4 188/1/4 189/1/4
f 176/1/4 178/1/4 185/1/4 188/1/4
f 189/1/6 187/1/6 191/1/6 190/1/6
f 171/1/4 173/1/4 189/1/4 190/1/4
f 171/1/2 190/1/2 191/1/2 192/1/2
f 163/1/1 192/1/1 191/1/1 187/1/1
f 195/1/4 193/1/4 194/1/4 214/1/4
f 194/1/4 193/1/4 197/1/4 198/1/4
f 232/1/4 196/1/4 193/1/4 195/1/4
f 193/1/4 196/1/4 199/1/4 197/1/4
f 197/1/4 201/1/4 198/1/4
f 199/1/1 200/1/1 197/1/1
f 197/1/7 200/1/7 201/1/7
f 203/1/3 201/1/3 200/1/3 205/1/3
f 198/1/7 201/1/7 202/1/7
f 204/1/3 202/1/3 201/1/3 203/1/3
f 207/1/7 204/1/7 203/1/7
f 206/1/7 203/1/7 205/1/7
f 207/1/4 203/1/4 206/1/4
f 211/1/1 209/1/1 207/1/1 206/1/1
f 207/1/3 208/1/3 202/1/3 204/1/3
f 209/1/5 212/1/5 208/1/5 207/1/5
f 209/1/5 210/1/5 213/1/5 212/1/5
f 210/1/1 209/1/1 211/1/1 225/1/1
f 212/1/4 213/1/4 214/1/4 194/1/4
f 212/1/4 194/1/4 198/1/4 208/1/4
f 210/1/5 216/1/5 215/1/5 213/1/5
f 214/1/4 213/1/4 215/1/4 217/1/4
f 215/1/6 216/1/6 218/1/6 217/1/6
f 221/1/6 219/1/6 217/1/6 218/1/6
f 195/1/4 214/1/4 217/1/4 219/1/4
f 232/1/4 195/1/4 219/1/4 220/1/4
f 222/1/6 220/1/6 219/1/6 221/1/6
f 223/1/1 224/1/1 222/1/1 221/1/1
f 225/1/1 223/1/1 221/1/1 218/1/1
f 227/1/1 224/1/1 223/1/1 226/1/1
f 226/1/1 223/1/1 225/1/1 211/1/1
f 226/1/1 211/1/1 206/1/1 228/1/1
f 227/1/1 226/1/1 228/1/1 229/1/1
f 206/1/4 205/1/4 228/1/4
f 228/1/4 230/1/4 229/1/4
f 228/1/7 205/1/7 230/1/7
f 231/1/3 230/1/3 205/1/3 200/1/3
f 199/1/6 229/1/6 230/1/6 231/1/6
f 199/1/7 231/1/7 200/1/7
f 196/1/2 227/1/2 229/1/2 199/1/2
f 227/1/5 224/1/5 232/1/5 196/1/5
f 210/1/1 225/1/1 218/1/1 216/1/1
f 224/1/2 232/1/2 220/1/2 222/1/2
f 198/1/4 202/1/4 208/1/4
f 233/1/3 234/1/3 240/1/3 235/1/3
f 234/1/5 233/1/5 236/1/5 238/1/5
f 233/1/1 235/1/1 237/1/1 236/1/1
f 239/1/6 238/1/6 236/1/6 237/1/6
f 240/1/4 234/1/4 238/1/4 239/1/4
f 240/1/4 239/1/4 241/1/4 242/1/4
f 239/1/6 237/1/6 243/1/6 241/1/6
f 244/1/2 242/1/2 241/1/2 243/1/2
f 237/1/1 235/1/1 244/1/1 243/1/1
f 235/1/3 240/1/3 242/1/3 244/1/3
f 245/1/1 246/1/1 265/1/1 248/1/1
f 245/1/1 247/1/1 268/1/1 246/1/1
f 247/1/1 245/1/1 249/1/1 251/1/1
f 245/1/1 248/1/1 252/1/1 249/1/1
f 250/1/6 249/1/6 252/1/6 253/1/6
f 249/1/6 250/1/6 276/1/6 251/1/6
f 248/1/2 254/1/2 253/1/2 252/1/2
f 254/1/4 256/1/4 250/1/4 253/1/4
f 265/1/2 255/1/2 254/1/2 248/1/2
f 258/1/4 256/1/4 254/1/4 255/1/4
f 256/1/4 257/1/4 276/1/4 250/1/4
f 257/1/4 256/1/4 258/1/4 259/1/4
f 259/1/4 258/1/4 260/1/4 261/1/4
f 258/1/4 255/1/4 263/1/4 260/1/4
f 266/1/3 261/1/3 260/1/3 262/1/3
f 262/1/3 260/1/3 263/1/3 264/1/3
f 255/1/2 265/1/2 264/1/2 263/1/2
f 265/1/1 246/1/1 262/1/1 264/1/1
f 246/1/1 268/1/1 266/1/1 262/1/1
f 261/1/3 266/1/3 267/1/3 273/1/3
f 268/1/1 269/1/1 267/1/1 266/1/1
f 268/1/1 247/1/1 270/1/1 269/1/1
f 270/1/5 272/1/5 271/1/5 269/1/5
f 269/1/5 271/1/5 273/1/5 267/1/5
f 257/1/4 259/1/4 271/1/4 272/1/4
f 271/1/4 259/1/4 261/1/4 273/1/4
f 272/1/5 270/1/5 275/1/5 274/1/5
f 257/1/4 272/1/4 274/1/4 276/1/4
f 276/1/6 274/1/6 275/1/6 251/1/6
f 270/1/1 247/1/1 251/1/1 275/1/1
