# Blender 5.2.0 LTS
# www.blender.org
mtllib hand.mtl
o Cube
v -0.315002 -1.230007 0.754407
v -0.315002 1.472097 1.000000
v -0.315002 -1.230007 -0.763904
v -0.315002 1.472097 -1.000000
v 0.315002 -1.230007 0.754407
v 0.315002 1.472097 1.000000
v 0.315002 -1.230007 -0.763904
v 0.288089 1.472097 -1.000000
v -0.315002 1.228878 1.000000
v -0.315002 1.228878 -1.000000
v 0.349311 1.228878 -1.000000
v 0.353031 1.228878 1.000000
v -0.315002 -0.741923 -1.000000
v 0.349311 -0.741923 -1.000000
v 0.353031 -0.741923 1.000000
v -0.315002 -0.741923 1.000000
v -0.230584 -0.480454 1.567945
v -0.230584 0.143201 1.218765
v 0.230584 0.143201 1.218765
v 0.230584 -0.480454 1.567945
v -0.178565 0.605254 2.026217
v -0.178565 1.088217 1.755811
v 0.178565 1.088217 1.755811
v 0.178565 0.605254 2.026217
v -0.315002 -1.230007 -0.441610
v -0.315002 1.472097 -0.575457
v 0.315002 -1.230007 -0.441610
v 0.315002 1.472097 -0.575457
v 0.315002 1.228878 -0.575457
v -0.315002 1.228878 -0.575457
v -0.315002 -0.741923 -0.575457
v 0.315002 -0.741923 -0.575457
v -0.315002 -1.230007 -0.022471
v 0.315002 1.472097 -0.023345
v 0.350628 1.228878 -0.023345
v 0.350628 -0.741923 -0.023345
v -0.315002 1.472097 -0.023345
v 0.315002 -1.230007 -0.022471
v -0.315002 1.228878 -0.023345
v -0.315002 -0.741923 -0.023345
v -0.315002 -1.230007 0.374996
v 0.315002 1.472097 0.500220
v 0.315002 1.228878 0.500220
v 0.315002 -0.741923 0.500220
v -0.315002 1.472097 0.500220
v 0.315002 -1.230007 0.374996
v -0.315002 1.228878 0.500220
v -0.315002 -0.741923 0.500220
v -0.315002 1.899430 -0.575457
v -0.315002 1.899430 -1.000000
v 0.224334 1.899430 -1.000000
v 0.251247 1.899430 -0.575457
v -1.002113 1.459454 -0.548603
v -1.002113 1.459454 -0.948528
v -0.926032 1.862008 -0.548603
v -0.926032 1.862008 -0.948528
v -0.491740 1.899430 -0.575457
v -0.512031 1.459454 -0.548603
v -0.491740 1.899430 -1.000000
v -0.512031 1.459454 -0.948528
v -1.002113 0.828315 -0.548603
v -1.002113 0.828315 -0.948528
v -0.512031 0.828315 -0.548603
v -0.512031 0.828315 -0.948528
v -0.315002 2.036246 -0.023345
v -0.315002 2.036246 -0.575457
v 0.232600 2.036246 -0.575457
v 0.232600 2.036246 -0.023345
v 0.315002 1.590102 -0.023345
v -0.315002 1.590102 -0.023345
v -0.315002 1.590102 -0.575457
v 0.315002 1.590102 -0.575457
v -0.998966 1.990890 -0.028506
v -0.998966 1.990890 -0.548603
v -1.075047 1.570617 -0.028506
v -1.075047 1.570617 -0.548603
v -0.606676 1.570617 -0.028506
v -0.606676 1.570617 -0.548603
v -0.592212 2.036246 -0.575457
v -0.592212 2.036246 -0.023345
v -1.075047 0.494113 -0.028506
v -1.075047 0.494113 -0.548603
v -0.606676 0.494113 -0.028506
v -0.606676 0.494113 -0.548603
v -0.134762 4.104705 0.442215
v -0.134762 4.104705 0.034660
v 0.202701 4.104705 0.034660
v 0.202701 4.104705 0.442215
v 0.239798 2.016619 0.500220
v 0.239798 2.016619 1.000000
v -0.315002 2.016619 1.000000
v -0.315002 2.016619 0.500220
v 0.315002 1.608227 0.500220
v 0.315002 1.608227 1.000000
v -0.315002 1.608227 1.000000
v -0.315002 1.608227 0.500220
v -1.015952 1.972402 0.935500
v -1.015952 1.972402 0.464700
v -1.092033 1.587691 0.935500
v -1.092033 1.587691 0.464700
v -0.536352 2.016619 1.000000
v -0.554055 1.587691 0.935500
v -0.536352 2.016619 0.500220
v -0.554055 1.587691 0.464700
v -1.092033 0.552692 0.935500
v -1.092033 0.552692 0.464700
v -0.554055 0.552692 0.935500
v -0.554055 0.552692 0.464700
v 0.262277 2.416620 -0.008145
v 0.262277 2.416620 0.485020
v -0.192601 2.416620 0.485020
v -0.192601 2.416620 -0.008145
v 0.239701 3.351096 -0.004011
v -0.165578 3.351096 0.480886
v 0.239701 3.351096 0.480886
v -0.165578 3.351096 -0.004011
v 0.278060 2.133879 0.489570
v -0.229242 2.133879 -0.012695
v 0.278060 2.133879 -0.012695
v -0.229242 2.133879 0.489570
v 0.332524 2.147113 -0.067750
v 0.313281 2.403387 -0.062203
v -0.285992 2.147113 0.544625
v -0.241319 2.403387 0.539078
v 0.313281 2.403387 0.539078
v -0.241319 2.403387 -0.062203
v 0.332524 2.147113 0.544625
v -0.285992 2.147113 -0.067750
v -5.933001 -3.058200 0.397795
v -5.933001 -3.058200 0.799120
v -5.947105 -3.460365 -0.806888
v -5.933001 -3.058200 -0.806888
v -5.947105 -3.460365 -0.465978
v -5.947105 -3.460365 0.799120
v -5.933001 -3.058200 -0.465978
v -5.947105 -3.460365 -0.022630
v -5.933001 -3.058200 -0.022630
v -5.947105 -3.460365 0.397795
v -0.044140 -1.804471 -0.374199
v -0.044140 -1.804471 -0.644997
v -0.044140 -1.804471 -0.022031
v -0.044140 -1.804471 0.311929
v -5.305680 -3.678459 0.331084
v -5.305680 -3.678459 -0.681112
v -0.044140 -1.804471 0.630717
v -5.305680 -3.678459 -0.394674
v -5.305680 -3.678459 -0.022165
v -5.305680 -3.678459 0.668285
vn -1.0000 -0.0000 -0.0000
vn -0.0000 -0.0000 -1.0000
vn 0.9852 0.1540 -0.0750
vn -0.0000 -0.0000 1.0000
vn -0.3094 0.9509 -0.0000
vn 0.9835 0.1811 -0.0000
vn -0.0000 0.1975 0.9803
vn 0.9971 -0.0000 -0.0759
vn -0.0000 -0.4355 -0.9002
vn 1.0000 -0.0000 -0.0000
vn -0.0000 -0.4495 0.8933
vn 0.9984 0.0273 0.0487
vn -0.0000 -0.9084 0.4182
vn -0.9329 -0.0000 0.3600
vn 0.9812 0.0942 0.1682
vn -0.0000 0.4885 0.8725
vn -0.9984 0.0273 0.0487
vn -0.0000 -0.3889 0.9213
vn -0.0000 0.4941 -0.8694
vn 0.9968 -0.0000 0.0806
vn 0.0077 -0.0003 -1.0000
vn 0.9668 0.2434 0.0781
vn 0.9973 -0.0728 -0.0000
vn 0.9979 -0.0000 -0.0644
vn 0.1032 -0.2706 0.9571
vn 0.9874 0.1446 -0.0637
vn 0.9977 -0.0000 0.0679
vn 0.9988 0.0490 -0.0000
vn -0.3219 -0.9468 -0.0000
vn 0.9872 0.1446 0.0672
vn -0.0000 1.0000 -0.0000
vn 0.9871 0.1473 -0.0626
vn -0.9826 0.1857 -0.0000
vn -0.0858 0.9963 -0.0000
vn -0.1076 -0.1106 -0.9880
vn 0.0640 -0.9979 -0.0000
vn 0.1314 0.0544 0.9898
vn -0.0000 -1.0000 -0.0000
vn 0.9834 0.1816 -0.0000
vn -0.9840 0.1781 -0.0000
vn -0.0596 -0.0556 -0.9967
vn -0.1108 0.9938 -0.0000
vn -0.0170 -0.0106 0.9998
vn 0.0667 -0.9978 -0.0000
vn -0.9992 0.0409 -0.0000
vn -0.0000 0.0512 -0.9987
vn -0.0000 0.0512 0.9987
vn -0.9810 0.1940 -0.0000
vn -0.0918 0.9958 -0.0000
vn 0.0663 0.0796 -0.9946
vn 0.0856 -0.9963 -0.0000
vn -0.2474 -0.1341 0.9596
vn 0.2361 -0.9717 -0.0000
vn -0.0000 -0.9723 -0.2337
vn -0.0000 0.9713 0.2378
vn -0.2621 0.9650 -0.0000
vn -0.0000 0.0044 1.0000
vn -0.0000 0.0044 -1.0000
vn -0.9996 0.0289 -0.0000
vn 0.9997 0.0242 -0.0000
vn 0.9984 0.0557 -0.0000
vn -0.9917 0.1285 -0.0000
vn -0.0000 0.0161 -0.9999
vn -0.0000 0.0161 0.9999
vn -0.0000 0.0216 0.9998
vn -0.0000 0.0216 -0.9998
vn -0.9851 0.1717 -0.0000
vn 0.9972 0.0749 -0.0000
vn 0.2511 0.9679 -0.0000
vn -0.0000 0.9713 -0.2378
vn -0.0000 -0.9723 0.2337
vn -0.2271 -0.9739 -0.0000
vn -0.9994 0.0351 -0.0000
vn 0.8479 -0.5301 -0.0000
vn -0.0000 0.0200 0.9998
vn 0.3355 -0.9420 -0.0000
vn 0.0995 -0.2610 -0.9602
vn -0.0000 -0.4354 -0.9002
vn 0.9963 -0.0395 -0.0758
vn -0.9910 0.0656 0.1171
vn 0.8726 -0.0000 0.4884
vn 0.9963 -0.0311 0.0805
vn 0.0566 0.0582 0.9967
vn -0.0000 0.0193 -0.9998
vn 0.9980 -0.0000 -0.0633
vn 0.9978 -0.0177 -0.0644
vn 0.9975 -0.0174 0.0679
vn -0.2454 -0.1015 -0.9641
vn -0.0115 -0.0107 0.9999
vn -0.0879 -0.0546 -0.9946
vn -0.1190 -0.1428 0.9826
vn 0.1402 0.0760 -0.9872
vn 0.2511 0.9680 -0.0000
vn 0.0081 -0.0003 1.0000
vt 0.064695 0.073618
vt 0.088106 0.000018
vt 0.088106 0.073635
vt 0.119218 0.589778
vt 0.223801 0.566314
vt 0.234417 0.589778
vt 0.561458 0.260214
vt 0.584868 0.346858
vt 0.561012 0.346798
vt 0.453577 0.531754
vt 0.430116 0.641007
vt 0.430116 0.525161
vt 0.324787 0.260341
vt 0.324788 0.169553
vt 0.597971 0.260184
vt 0.638160 0.346973
vt 0.597971 0.346847
vt 0.324788 0.546204
vt 0.371321 0.346953
vt 0.371766 0.260370
vt 0.234416 0.779904
vt 0.119217 0.779904
vt 0.277807 0.000161
vt 0.277807 0.073779
vt 0.324788 0.000196
vt 0.324788 0.073814
vt 0.228467 0.826990
vt 0.119217 0.826990
vt 0.324788 0.347071
vt 0.324788 0.260408
vt 0.952080 0.250549
vt 0.999160 0.359796
vt 0.952080 0.359800
vt 0.457950 0.385074
vt 0.503032 0.525161
vt 0.397922 0.445672
vt 0.404760 0.891662
vt 0.503656 0.796853
vt 0.503656 0.876824
vt 0.277807 0.346970
vt 0.191629 0.385005
vt 0.088106 0.346826
vt 0.333624 0.775818
vt 0.395312 0.823152
vt 0.333381 0.823152
vt 0.146551 0.525089
vt 0.100063 0.478164
vt 0.324788 0.926612
vt 0.404760 0.926612
vt 0.899478 0.093132
vt 0.971520 -0.000000
vt 0.979446 0.093132
vt 0.324788 0.000266
vt 0.371766 0.073844
vt 0.324788 0.073883
vt 0.277807 0.169517
vt 0.088106 0.169374
vt 0.561056 -0.000000
vt 0.371364 0.000156
vt 0.819126 0.387344
vt 0.857956 0.459134
vt 0.819126 0.472331
vt 0.585183 0.000109
vt 0.561458 0.073689
vt 0.064695 0.169356
vt 0.064695 0.260145
vt 0.088106 0.260162
vt 0.277807 0.260306
vt 0.371349 0.169507
vt 0.324788 0.169621
vt 0.760574 0.634412
vt 0.803609 0.539447
vt 0.803609 0.634409
vt 0.584868 0.169407
vt 0.561040 0.169352
vt 0.324787 0.347005
vt 0.064695 0.346809
vt 0.733771 0.419767
vt 0.656412 0.346798
vt 0.727083 0.346798
vt 0.648998 0.086673
vt 0.648998 0.000015
vt 0.308127 0.528075
vt 0.236656 0.623252
vt 0.234417 0.525088
vt 0.119218 0.566314
vt 0.212745 0.525088
vt 0.626746 0.073769
vt 0.584868 0.073670
vt 0.820420 0.353201
vt 0.861640 0.255003
vt 0.861640 0.353198
vt 0.733871 0.915109
vt 0.803100 0.875478
vt 0.803219 0.915109
vt 0.237355 0.653891
vt 0.303753 0.727747
vt 0.234417 0.729329
vt 0.465508 0.961010
vt 0.404760 0.891711
vt 0.465508 0.891662
vt 0.084986 0.567528
vt 0.013194 0.528693
vt 0.088570 0.525088
vt 0.119219 0.525088
vt 0.465508 0.896302
vt 0.499684 0.961005
vt 0.465508 0.969914
vt 0.310259 0.621573
vt 0.861640 0.383846
vt 0.654325 0.875505
vt 0.584982 0.960480
vt 0.584982 0.875495
vt 0.733825 0.975860
vt -0.000000 0.628415
vt 0.000000 0.567528
vt 0.758247 0.387349
vt 0.899353 0.620117
vt 0.803608 0.525161
vt 0.899353 0.525161
vt 0.551018 0.685024
vt 0.654870 0.766245
vt 0.551018 0.766245
vt 0.549141 0.634411
vt 0.506101 0.539450
vt 0.549141 0.525161
vt 0.596226 0.073660
vt 0.640133 0.169535
vt 0.596226 0.169398
vt 0.560525 0.634411
vt 0.560525 0.525161
vt 0.053336 0.073609
vt 0.749191 0.525162
vt 0.749191 0.634413
vt 0.803726 0.780107
vt 0.893796 0.738771
vt 0.893913 0.780107
vt 0.510473 0.753051
vt 0.506101 0.682482
vt 0.803608 0.668186
vt 0.894696 0.738771
vt 0.804503 0.738771
vt 0.758709 0.684997
vt 0.799248 0.753022
vt 0.758709 0.766219
vt 0.803609 0.682480
vt 0.803608 0.620117
vt 0.506101 0.634411
vt 0.899778 0.883726
vt 0.950373 0.974826
vt 0.899778 0.979458
vt 0.899478 0.093143
vt 0.980698 0.183312
vt 0.899478 0.183324
vt 0.803648 0.883726
vt 0.654870 0.685006
vt 0.984100 0.738845
vt 0.893914 0.842385
vt 0.893914 0.738771
vt 0.234417 0.963163
vt 0.292935 0.892487
vt 0.292935 0.963163
vt 0.235149 0.802225
vt 0.312522 0.729329
vt 0.319233 0.802225
vt 0.510782 0.838952
vt 0.574596 0.766245
vt 0.581062 0.838952
vt 0.729061 0.839027
vt 0.665226 0.766227
vt 0.723747 0.766227
vt 0.949360 0.342566
vt 0.865445 0.243950
vt 0.952079 0.246400
vt 0.466708 0.641004
vt 0.506101 0.544791
vt 0.506101 0.641000
vt 0.464905 0.682518
vt 0.502014 0.762613
vt 0.464905 0.775810
vt 0.797645 0.109250
vt 0.758247 0.013041
vt 0.797645 -0.000000
vt 0.810778 0.109250
vt 0.810778 0.000000
vt 0.051592 0.260135
vt 0.453576 0.641005
vt 0.584868 0.260195
vt 0.106301 0.864903
vt 0.187819 0.826990
vt 0.187940 0.864903
vt 0.948275 0.380933
vt 0.870468 0.461981
vt 0.861640 0.378483
vt 0.106226 0.964528
vt 0.799630 0.150659
vt 0.762516 0.230756
vt 0.758247 0.147634
vt 0.758247 0.109249
vt 0.187940 0.913648
vt 0.229410 0.838201
vt 0.229411 0.919834
vt 0.862725 0.340116
vt 0.506101 0.679385
vt 0.980986 0.624859
vt 0.899353 0.718138
vt 0.899353 0.624848
vt 0.980991 0.525228
vt 0.899353 0.624781
vt 0.899353 0.525161
vt 0.899478 0.243950
vt 0.799630 0.243950
vt 0.365070 0.682526
vt 0.009525 0.836447
vt 0.106181 0.827005
vt 0.096613 0.836459
vt 0.009525 0.924418
vt -0.000000 0.826990
vt 0.890949 0.893101
vt 0.803609 0.883726
vt 0.899778 0.883726
vt 0.812072 0.978623
vt 0.812072 0.893101
vt 0.654870 0.929177
vt 0.733751 0.929177
vt 0.584982 0.929102
vt 0.234417 0.892487
vt 0.319934 0.892487
vt 0.648998 0.509976
vt 0.734514 0.509976
vt 0.648998 0.258373
vt -0.000000 0.258417
vt -0.000000 0.171322
vt 0.648826 0.766246
vt 0.584982 0.860637
vt 0.584982 0.772665
vt 0.733751 0.766227
vt 0.797616 0.860611
vt 0.733751 0.875478
vt 0.950373 0.883726
vt 0.975108 0.983241
vt 0.950373 0.990985
vt 0.317658 0.892487
vt 0.292934 0.992005
vt 0.292935 0.895831
vt 0.977265 0.465988
vt 0.952079 0.360830
vt 0.977265 0.359800
vt 0.975108 0.883726
vt 1.000000 0.988972
vt 0.975108 0.989914
vt 0.899778 0.987998
vt 0.890949 0.978623
vt 0.803609 0.987998
vt 0.096613 0.924430
vt 0.106181 0.934261
vt -0.000000 0.934247
vt 0.758247 -0.000000
vt 0.758247 0.086658
vt 0.648998 0.346798
vt 0.758247 0.273171
vt 0.758247 0.346783
vt 0.648998 0.273186
vt 0.758247 0.177439
vt 0.648998 0.177455
vt 0.064695 -0.000000
vt 0.638160 0.260309
vt 0.324788 0.626177
vt 0.999160 0.243950
vt 0.549518 0.478234
vt 0.404760 0.775818
vt 0.251660 0.445600
vt 0.395555 0.775818
vt 0.909593 -0.000000
vt 0.760574 0.525161
vt 0.649688 0.419767
vt 0.627062 0.000209
vt 0.820420 0.243950
vt 0.733751 0.875478
vt 0.310958 0.652212
vt 0.404760 0.961059
vt 0.499685 0.891661
vt 0.654325 0.960490
vt 0.803173 0.975860
vt 0.084986 0.628415
vt 0.758247 0.472336
vt 0.654870 0.685025
vt 0.640133 0.073798
vt 0.053336 0.169348
vt 0.803609 0.738771
vt 0.899353 0.668186
vt 0.950373 0.884645
vt 0.980698 0.093132
vt 0.893835 0.883726
vt 0.654870 0.766227
vt 0.984100 0.842459
vt 0.234417 0.892487
vt 0.241850 0.729329
vt 0.516077 0.766245
vt 0.658781 0.839027
vt 0.466708 0.531753
vt 0.051592 0.346799
vt 0.106181 0.826990
vt 0.952079 0.464289
vt 0.187865 0.964528
vt 0.187940 0.826990
vt 0.980986 0.718150
vt 0.980991 0.624848
vt 0.899478 0.150659
vt 0.365070 0.775818
vt 0.506101 0.929102
vt 0.648998 0.171279
vt 0.648826 0.875495
vt 0.797616 0.772638
vt 0.975108 0.887066
vt 0.317658 0.999744
vt 0.952079 0.465095
vt 1.000000 0.884708
s 0
usemtl Material.001
f 26/1/1 10/2/1 30/3/1
f 10/4/2 8/5/2 11/6/2
f 43/7/3 6/8/3 12/9/3
f 6/10/4 9/11/4 12/12/4
f 41/13/5 137/14/5 129/13/5
f 93/15/6 90/16/6 94/17/6
f 9/11/7 19/18/7 12/12/7
f 43/7/8 15/19/8 44/20/8
f 10/4/2 14/21/2 13/22/2
f 30/3/1 13/23/1 31/24/1
f 31/24/1 3/25/1 25/26/1
f 13/22/9 7/27/9 3/28/9
f 44/20/10 5/29/10 46/30/10
f 5/31/11 16/32/11 1/33/11
f 19/34/12 24/35/12 20/36/12
f 16/37/13 20/38/13 17/39/13
f 16/40/14 18/41/14 9/42/14
f 15/19/15 19/34/15 20/36/15
f 23/43/16 21/44/16 24/45/16
f 18/41/17 21/46/17 22/47/17
f 20/48/18 21/44/18 17/49/18
f 18/50/19 23/51/19 19/52/19
f 7/53/10 32/54/10 27/55/10
f 40/56/1 25/26/1 33/14/1
f 39/57/1 31/24/1 40/56/1
f 11/58/20 32/54/20 14/59/20
f 58/60/4 55/61/4 53/62/4
f 3/28/21 131/27/21 132/28/21
f 8/63/22 29/64/22 11/58/22
f 37/65/1 30/3/1 39/57/1
f 45/66/1 39/57/1 47/67/1
f 47/67/1 40/56/1 48/68/1
f 41/13/1 40/56/1 33/14/1
f 27/55/23 36/69/23 38/70/23
f 29/64/24 36/69/24 32/54/24
f 70/71/4 68/72/4 65/73/4
f 5/31/25 148/31/25 145/31/25
f 29/64/26 34/74/26 35/75/26
f 1/76/1 48/68/1 41/13/1
f 9/42/1 48/68/1 16/40/1
f 2/77/1 47/67/1 9/42/1
f 36/69/23 46/30/23 38/70/23
f 35/75/27 44/20/27 36/69/27
f 115/78/28 87/79/28 88/80/28
f 138/81/29 148/82/29 134/82/29
f 34/74/30 43/7/30 35/75/30
f 51/83/31 49/84/31 52/85/31
f 4/86/2 51/87/2 8/5/2
f 8/63/32 52/88/32 28/89/32
f 26/90/4 52/91/4 49/92/4
f 53/93/33 56/94/33 54/95/33
f 57/96/34 56/97/34 55/98/34
f 58/99/10 64/100/10 60/101/10
f 60/102/35 56/103/35 59/104/35
f 4/86/2 59/104/2 50/105/2
f 26/106/36 60/107/36 4/108/36
f 50/109/31 57/96/31 49/84/31
f 26/90/37 57/110/37 58/60/37
f 63/111/38 62/112/38 64/113/38
f 54/95/1 61/114/1 53/93/1
f 60/102/2 62/115/2 54/116/2
f 53/62/4 63/117/4 58/60/4
f 66/118/31 68/119/31 67/120/31
f 78/121/2 82/122/2 76/123/2
f 71/124/2 67/125/2 72/126/2
f 72/127/39 68/128/39 69/129/39
f 28/89/10 69/129/10 34/74/10
f 26/130/2 72/126/2 28/131/2
f 37/65/1 71/132/1 26/1/1
f 34/133/4 70/71/4 37/134/4
f 75/135/40 74/136/40 76/137/40
f 78/121/41 74/138/41 79/139/41
f 80/140/42 74/141/42 73/142/42
f 77/143/4 73/144/4 75/145/4
f 70/71/43 80/146/43 77/143/43
f 66/118/31 80/140/31 65/147/31
f 71/124/2 79/139/2 66/148/2
f 70/149/44 78/150/44 71/151/44
f 83/152/38 82/153/38 84/154/38
f 76/137/1 81/155/1 75/135/1
f 75/145/4 83/156/4 77/143/4
f 77/157/10 84/158/10 78/159/10
f 86/160/31 88/161/31 87/162/31
f 114/163/45 86/164/45 116/165/45
f 116/166/46 87/167/46 113/168/46
f 114/169/47 88/170/47 85/171/47
f 92/172/31 90/173/31 89/174/31
f 95/175/4 90/176/4 91/177/4
f 102/178/4 97/179/4 99/180/4
f 96/181/2 89/182/2 93/183/2
f 45/184/2 93/183/2 42/185/2
f 2/77/1 96/186/1 45/66/1
f 6/10/4 95/175/4 2/187/4
f 42/188/10 94/17/10 6/8/10
f 99/189/48 98/190/48 100/191/48
f 103/192/49 97/193/49 101/194/49
f 100/191/1 105/195/1 99/189/1
f 104/196/50 98/197/50 103/198/50
f 96/181/2 103/198/2 92/199/2
f 96/200/51 102/201/51 104/202/51
f 92/172/31 101/194/31 91/203/31
f 95/175/52 101/204/52 102/178/52
f 107/205/38 106/206/38 108/207/38
f 102/208/10 108/209/10 104/210/10
f 104/196/2 106/211/2 100/212/2
f 99/180/4 107/213/4 102/178/4
f 119/214/53 127/215/53 117/216/53
f 118/217/54 121/218/54 119/214/54
f 110/219/55 124/220/55 125/221/55
f 112/222/56 124/220/56 111/223/56
f 110/224/57 114/169/57 111/225/57
f 109/226/58 116/166/58 113/168/58
f 111/227/59 116/165/59 112/228/59
f 109/229/60 115/78/60 110/230/60
f 34/74/61 117/231/61 42/188/61
f 37/65/62 120/232/62 118/233/62
f 34/234/63 118/235/63 119/236/63
f 42/237/64 120/238/64 45/239/64
f 127/240/65 124/241/65 123/242/65
f 121/243/66 126/244/66 122/245/66
f 123/246/67 126/247/67 128/248/67
f 121/249/68 125/250/68 127/251/68
f 110/219/69 122/252/69 109/253/69
f 109/253/70 126/254/70 112/222/70
f 120/255/71 127/215/71 123/256/71
f 118/217/72 123/256/72 128/257/72
f 138/81/73 130/258/73 129/259/73
f 131/260/73 135/261/73 132/262/73
f 133/263/73 137/264/73 135/261/73
f 136/265/73 129/259/73 137/264/73
f 38/70/74 142/30/74 141/70/74
f 25/26/5 137/14/5 33/14/5
f 27/55/74 140/53/74 7/53/74
f 1/33/75 134/31/75 5/31/75
f 3/25/5 135/26/5 25/26/5
f 1/76/5 129/13/5 130/76/5
f 142/30/76 147/70/76 141/70/76
f 140/53/76 146/55/76 144/53/76
f 139/55/76 147/70/76 146/55/76
f 145/29/76 143/30/76 142/30/76
f 136/265/29 143/81/29 138/81/29
f 38/70/74 139/55/74 27/55/74
f 136/265/29 146/263/29 147/265/29
f 133/263/29 144/260/29 146/263/29
f 7/27/77 144/27/77 131/27/77
f 46/30/74 145/29/74 142/30/74
f 26/1/1 4/266/1 10/2/1
f 10/4/2 4/86/2 8/5/2
f 43/7/10 42/188/10 6/8/10
f 6/10/4 2/187/4 9/11/4
f 41/13/5 33/14/5 137/14/5
f 93/15/6 89/267/6 90/16/6
f 9/11/7 18/268/7 19/18/7
f 43/7/8 12/9/8 15/19/8
f 10/4/2 11/6/2 14/21/2
f 30/3/1 10/2/1 13/23/1
f 31/24/1 13/23/1 3/25/1
f 13/22/78 14/21/78 7/27/78
f 44/20/79 15/19/79 5/29/79
f 5/31/11 15/269/11 16/32/11
f 19/34/12 23/270/12 24/35/12
f 16/37/13 15/271/13 20/38/13
f 16/40/80 17/272/80 18/41/80
f 15/19/81 12/9/81 19/34/81
f 23/43/16 22/273/16 21/44/16
f 18/41/17 17/272/17 21/46/17
f 20/48/18 24/45/18 21/44/18
f 18/50/19 22/274/19 23/51/19
f 7/53/82 14/59/82 32/54/82
f 40/56/1 31/24/1 25/26/1
f 39/57/1 30/3/1 31/24/1
f 11/58/20 29/64/20 32/54/20
f 58/60/83 57/110/83 55/61/83
f 3/28/84 7/27/84 131/27/84
f 8/63/85 28/89/85 29/64/85
f 37/65/1 26/1/1 30/3/1
f 45/66/1 37/65/1 39/57/1
f 47/67/1 39/57/1 40/56/1
f 41/13/1 48/68/1 40/56/1
f 27/55/86 32/54/86 36/69/86
f 29/64/24 35/75/24 36/69/24
f 70/71/4 69/275/4 68/72/4
f 5/31/25 134/31/25 148/31/25
f 29/64/10 28/89/10 34/74/10
f 1/76/1 16/40/1 48/68/1
f 9/42/1 47/67/1 48/68/1
f 2/77/1 45/66/1 47/67/1
f 36/69/87 44/20/87 46/30/87
f 35/75/27 43/7/27 44/20/27
f 115/78/28 113/276/28 87/79/28
f 138/81/29 143/81/29 148/82/29
f 34/74/10 42/188/10 43/7/10
f 51/83/31 50/109/31 49/84/31
f 4/86/2 50/105/2 51/87/2
f 8/63/32 51/277/32 52/88/32
f 26/90/4 28/278/4 52/91/4
f 53/93/33 55/279/33 56/94/33
f 57/96/34 59/280/34 56/97/34
f 58/99/10 63/281/10 64/100/10
f 60/102/2 54/116/2 56/103/2
f 4/86/88 60/102/88 59/104/88
f 26/106/36 58/282/36 60/107/36
f 50/109/31 59/280/31 57/96/31
f 26/90/4 49/92/4 57/110/4
f 63/111/38 61/283/38 62/112/38
f 54/95/1 62/284/1 61/114/1
f 60/102/2 64/285/2 62/115/2
f 53/62/4 61/286/4 63/117/4
f 66/118/31 65/147/31 68/119/31
f 78/121/2 84/287/2 82/122/2
f 71/124/2 66/148/2 67/125/2
f 72/127/39 67/288/39 68/128/39
f 28/89/10 72/127/10 69/129/10
f 26/130/2 71/124/2 72/126/2
f 37/65/1 70/289/1 71/132/1
f 34/133/4 69/275/4 70/71/4
f 75/135/40 73/290/40 74/136/40
f 78/121/2 76/123/2 74/138/2
f 80/140/42 79/291/42 74/141/42
f 77/143/89 80/146/89 73/144/89
f 70/71/4 65/73/4 80/146/4
f 66/118/31 79/291/31 80/140/31
f 71/124/90 78/121/90 79/139/90
f 70/149/44 77/292/44 78/150/44
f 83/152/38 81/293/38 82/153/38
f 76/137/1 82/294/1 81/155/1
f 75/145/4 81/295/4 83/156/4
f 77/157/10 83/296/10 84/158/10
f 86/160/31 85/297/31 88/161/31
f 114/163/45 85/298/45 86/164/45
f 116/166/46 86/299/46 87/167/46
f 114/169/47 115/300/47 88/170/47
f 92/172/31 91/203/31 90/173/31
f 95/175/4 94/301/4 90/176/4
f 102/178/91 101/204/91 97/179/91
f 96/181/2 92/199/2 89/182/2
f 45/184/2 96/181/2 93/183/2
f 2/77/1 95/302/1 96/186/1
f 6/10/4 94/301/4 95/175/4
f 42/188/10 93/15/10 94/17/10
f 99/189/48 97/303/48 98/190/48
f 103/192/49 98/304/49 97/193/49
f 100/191/1 106/305/1 105/195/1
f 104/196/2 100/212/2 98/197/2
f 96/181/92 104/196/92 103/198/92
f 96/200/51 95/306/51 102/201/51
f 92/172/31 103/192/31 101/194/31
f 95/175/4 91/177/4 101/204/4
f 107/205/38 105/307/38 106/206/38
f 102/208/10 107/308/10 108/209/10
f 104/196/2 108/309/2 106/211/2
f 99/180/4 105/310/4 107/213/4
f 119/214/53 121/218/53 127/215/53
f 118/217/54 128/257/54 121/218/54
f 110/219/55 111/223/55 124/220/55
f 112/222/56 126/254/56 124/220/56
f 110/224/57 115/300/57 114/169/57
f 109/226/58 112/311/58 116/166/58
f 111/227/59 114/163/59 116/165/59
f 109/229/60 113/276/60 115/78/60
f 34/74/61 119/312/61 117/231/61
f 37/65/62 45/66/62 120/232/62
f 34/234/63 37/313/63 118/235/63
f 42/237/64 117/314/64 120/238/64
f 127/240/65 125/315/65 124/241/65
f 121/243/66 128/316/66 126/244/66
f 123/246/67 124/317/67 126/247/67
f 121/249/68 122/318/68 125/250/68
f 110/219/93 125/221/93 122/252/93
f 109/253/70 122/252/70 126/254/70
f 120/255/71 117/216/71 127/215/71
f 118/217/72 120/255/72 123/256/72
f 138/81/73 134/82/73 130/258/73
f 131/260/73 133/263/73 135/261/73
f 133/263/73 136/265/73 137/264/73
f 136/265/73 138/81/73 129/259/73
f 38/70/74 46/30/74 142/30/74
f 25/26/5 135/26/5 137/14/5
f 27/55/74 139/55/74 140/53/74
f 1/33/94 130/33/94 134/31/94
f 3/25/5 132/25/5 135/26/5
f 1/76/5 41/13/5 129/13/5
f 142/30/76 143/30/76 147/70/76
f 140/53/76 139/55/76 146/55/76
f 139/55/76 141/70/76 147/70/76
f 145/29/76 148/29/76 143/30/76
f 136/265/29 147/265/29 143/81/29
f 38/70/74 141/70/74 139/55/74
f 136/265/29 133/263/29 146/263/29
f 133/263/29 131/260/29 144/260/29
f 7/27/77 140/27/77 144/27/77
f 46/30/74 5/29/74 145/29/74
