# Blender 5.2.0 LTS
# www.blender.org
mtllib heaven_sword.mtl
o Cube
v 0.013672 28.976452 -1.535825
v 0.013672 -5.579617 -1.535825
v 0.013672 28.976452 1.535825
v 0.013672 -5.579617 1.535825
v -0.013672 28.976452 -1.535825
v -0.013672 -5.579617 -1.535825
v -0.013672 28.976452 1.535825
v -0.013672 -5.579617 1.535825
v 0.013672 1.885713 -1.535825
v -0.013672 1.885713 1.535825
v 0.013672 1.885713 1.535825
v -0.013672 1.885713 -1.535825
v 0.004616 -10.726585 0.000000
v 0.394039 28.976452 0.000000
v -0.394039 28.976452 0.000000
v -0.004616 -10.726585 0.000000
v 0.394039 1.885713 0.000000
v -0.394039 1.885713 0.000000
v 0.341809 28.976452 1.535825
v -0.341809 28.976452 1.535825
v 0.394039 28.976452 0.000000
v -0.394039 28.976452 0.000000
v -0.341809 28.976452 -1.535825
v 0.341809 28.976452 -1.535825
v 0.341809 32.769402 0.772345
v -0.341809 32.769402 0.772345
v 0.394039 32.769402 0.000000
v -0.394039 32.769402 0.000000
v -0.341809 32.769402 -0.772345
v 0.341809 32.769402 -0.772345
v 0.341809 40.554771 0.772345
v -0.341809 40.554771 0.772345
v 0.394039 40.554771 0.000000
v -0.394039 40.554771 0.000000
v -0.341809 40.554771 -0.772345
v 0.341809 40.554771 -0.772345
v 0.341809 29.084965 5.263268
v -0.341809 29.084965 5.263268
v -0.341809 29.084965 -5.263268
v 0.341809 29.084965 -5.263268
v -0.341809 30.408108 5.263268
v 0.341809 30.408108 5.263268
v -0.341809 30.408108 -5.263268
v 0.341809 30.408108 -5.263268
v 0.732087 28.976452 0.000000
v 0.635049 28.976452 1.535825
v -0.732087 28.976452 0.000000
v -0.635049 28.976452 -1.535825
v 0.635049 28.976452 -1.535825
v -0.635049 28.976452 1.535825
v -0.635049 32.769402 1.535825
v 0.732087 32.769402 0.000000
v 0.635049 32.769402 1.535825
v -0.732087 32.769402 0.000000
v -0.635049 32.769402 -1.535825
v 0.635049 32.769402 -1.535825
v -0.635049 29.084965 5.263268
v -0.635049 30.408108 5.263268
v -0.635049 29.084965 -5.263268
v -0.635049 30.408108 -5.263268
v 0.635049 30.408108 -5.263268
v 0.635049 29.084965 -5.263268
v 0.635049 30.408108 5.263268
v 0.635049 29.084965 5.263268
v 0.423794 40.818710 0.957596
v -0.423794 40.818710 0.957596
v 0.488551 40.818710 0.000000
v -0.488551 40.818710 0.000000
v -0.423794 40.818710 -0.957596
v 0.423794 40.818710 -0.957596
v 0.423794 42.760735 -0.957596
v 0.423794 42.760735 0.957596
v -0.423794 42.760735 0.957596
v 0.488551 42.760735 0.000000
v -0.488551 42.760735 0.000000
v -0.423794 42.760735 -0.957596
vn -0.0000 1.0000 -0.0000
vn -0.0000 -0.0000 1.0000
vn -0.9707 -0.0000 -0.2404
vn -0.0000 -0.2859 0.9582
vn 0.9707 -0.0000 0.2404
vn -0.0000 -0.0000 -1.0000
vn 0.9951 -0.0315 0.0936
vn -0.9951 -0.0315 -0.0936
vn -0.9951 -0.0315 0.0936
vn 0.9951 -0.0315 -0.0936
vn 0.9707 -0.0000 -0.2404
vn -0.0000 0.2859 0.9582
vn -0.9707 -0.0000 0.2404
vn -0.0000 -0.9996 -0.0291
vn -0.0000 -1.0000 -0.0000
vn -0.9977 -0.0000 0.0675
vn -0.0000 -0.9996 0.0291
vn 0.9977 -0.0000 0.0675
vn 0.9977 -0.0000 -0.0675
vn -0.9977 -0.0000 -0.0675
vn -0.0000 0.8851 -0.4654
vn 0.7713 0.5634 -0.2962
vn -0.0000 0.8851 0.4654
vn -1.0000 -0.0000 -0.0000
vn -0.9980 -0.0000 0.0631
vn 0.9980 -0.0000 0.0631
vn 0.9980 -0.0000 -0.0631
vn -0.9980 -0.0000 -0.0631
vn 1.0000 -0.0000 -0.0000
vn -0.7713 0.5634 0.2962
vn -0.0000 0.8448 -0.5351
vn -0.0000 0.8448 0.5351
vn 0.9396 -0.3364 0.0635
vn -0.0000 -0.5745 -0.8185
vn -0.9396 -0.3364 0.0635
vn -0.0000 -0.5745 0.8185
vn -0.9396 -0.3364 -0.0635
vn 0.9396 -0.3364 -0.0635
vn -0.0000 0.2859 -0.9582
vn -0.0000 -0.2859 -0.9582
vn -0.7713 0.5634 -0.2962
vn 0.7713 0.5634 0.2962
vt 0.333496 0.416980
vt 0.336686 0.498582
vt 0.939519 0.541902
vt 0.947101 0.713225
vt 0.939519 0.713225
vt 0.516960 0.194812
vt 0.491106 0.211406
vt 0.491059 0.194887
vt 0.851387 0.840736
vt 0.848876 0.731469
vt 0.856459 0.731469
vt 0.498592 0.194055
vt 0.524534 0.177600
vt 0.524493 0.194119
vt 0.864041 0.902792
vt 0.856459 0.902792
vt 0.864041 0.950004
vt 0.856459 0.950004
vt 0.531671 0.177618
vt 0.536551 0.194149
vt 0.531590 0.210656
vt 0.536470 0.227187
vt 0.947101 0.760436
vt 0.939519 0.760436
vt 0.531509 0.243694
vt 0.498552 0.210575
vt 0.524452 0.210638
vt 0.853947 0.840736
vt 0.492168 0.227570
vt 0.518068 0.227633
vt 0.406016 0.748916
vt 0.193646 0.426111
vt 0.211029 0.394557
vt 0.210092 0.422365
vt 0.345858 0.429378
vt 0.372538 0.508219
vt 0.340071 0.508219
vt 0.286589 0.465574
vt 0.283217 0.368387
vt 0.236309 0.416980
vt 0.314961 0.498582
vt 0.312197 0.429378
vt 0.347924 0.781135
vt 0.314799 0.653597
vt 0.347924 0.653597
vt 0.095653 0.866811
vt 0.062529 0.829842
vt 0.095653 0.829842
vt 0.305762 0.436554
vt 0.350970 0.442923
vt 0.305587 0.441224
vt 0.346004 0.498582
vt 0.375185 0.416980
vt 0.263148 0.381524
vt 0.284102 0.381524
vt 0.199786 0.437263
vt 0.154577 0.430893
vt 0.199961 0.432593
vt 0.128778 0.829842
vt 0.095653 0.792873
vt 0.128778 0.792873
vt 0.128778 0.866811
vt 0.095653 0.829842
vt 0.062529 0.792873
vt 0.095653 0.792873
vt 0.381048 0.781135
vt 0.347924 0.653597
vt 0.381048 0.653597
vt 0.199611 0.441933
vt 0.305587 0.441224
vt 0.305412 0.445894
vt 0.226247 0.427211
vt 0.319131 0.486640
vt 0.224351 0.483445
vt 0.332951 0.381524
vt 0.297759 0.429378
vt 0.194620 0.416980
vt 0.264382 0.508219
vt 0.239651 0.508109
vt 0.191751 0.482345
vt 0.098866 0.422916
vt 0.193865 0.409109
vt 0.088567 0.404349
vt 0.193970 0.399581
vt 0.237372 0.400060
vt 0.237267 0.409588
vt 0.237161 0.419116
vt 0.280669 0.410067
vt 0.280564 0.419595
vt 0.193759 0.418636
vt 0.280774 0.400540
vt 0.088462 0.413877
vt 0.193865 0.409109
vt 0.386045 0.407635
vt 0.386009 0.410958
vt 0.385940 0.417162
vt 0.385903 0.420486
vt 0.154402 0.435564
vt 0.199786 0.437263
vt 0.178347 0.401447
vt 0.206969 0.514999
vt 0.207906 0.487191
vt 0.321027 0.430406
vt 0.243173 0.403632
vt 0.321840 0.406284
vt 0.305643 0.498582
vt 0.350795 0.447593
vt 0.360297 0.429378
vt 0.174824 0.505924
vt 0.096970 0.479150
vt 0.096157 0.503272
vt 0.825211 0.230259
vt 0.880160 0.270951
vt 0.812032 0.252994
vt 0.935109 0.040692
vt 0.948289 0.252994
vt 0.935109 0.230259
vt 0.825211 0.040692
vt 0.880160 0.000000
vt 0.880160 0.026208
vt 0.812032 0.017957
vt 0.948289 0.017957
vt 0.880160 0.244743
vt 0.606583 0.526874
vt 0.592007 0.530034
vt 0.591914 0.527390
vt 0.621159 0.523714
vt 0.606490 0.524230
vt 0.550768 0.519444
vt 0.496810 0.536027
vt 0.492428 0.521494
vt 0.546386 0.504911
vt 0.495779 0.506689
vt 0.600925 0.504885
vt 0.550412 0.509308
vt 0.550319 0.506663
vt 0.621252 0.526359
vt 0.606676 0.529519
vt 0.642613 0.528256
vt 0.592100 0.532678
vt 0.591821 0.524745
vt 0.286589 0.368387
vt 0.947101 0.541902
vt 0.517007 0.211331
vt 0.498633 0.177536
vt 0.864041 0.731469
vt 0.848876 0.950004
vt 0.283217 0.465574
vt 0.314799 0.781135
vt 0.062529 0.866811
vt 0.351145 0.438253
vt 0.154402 0.435564
vt 0.095653 0.866811
vt 0.347924 0.781135
vt 0.318318 0.510762
vt 0.088531 0.407672
vt 0.088425 0.417200
vt 0.154228 0.440234
vt 0.099679 0.398794
vt 0.231916 0.508219
vt 0.350970 0.442923
vt 0.353905 0.381524
vt 0.547417 0.534249
vt 0.601018 0.507529
vt 0.621345 0.529003
vt 0.642706 0.530900
s 0
usemtl Material
f 15/1/1 20/2/1 22/1/1
f 3/3/2 10/4/2 11/5/2
f 15/6/3 12/7/3 18/8/3
f 13/9/4 4/10/4 8/11/4
f 14/12/5 11/13/5 17/14/5
f 5/11/6 9/15/6 12/16/6
f 12/16/6 2/17/6 6/18/6
f 17/14/7 4/19/7 16/20/7
f 18/8/8 6/21/8 13/22/8
f 11/5/2 8/23/2 4/24/2
f 8/25/9 18/8/9 13/22/9
f 2/21/10 17/14/10 16/20/10
f 1/26/11 17/14/11 9/27/11
f 6/18/12 16/28/12 13/9/12
f 7/29/13 18/8/13 10/30/13
f 7/31/1 19/31/1 20/31/1
f 25/32/1 52/33/1 27/34/1
f 23/35/14 59/36/14 39/37/14
f 5/38/15 22/1/15 23/35/15
f 3/39/15 21/40/15 19/41/15
f 14/40/1 24/42/1 21/40/1
f 1/31/1 23/31/1 24/31/1
f 29/43/6 36/44/6 30/45/6
f 26/46/16 34/47/16 28/48/16
f 44/49/6 62/50/6 40/51/6
f 22/1/15 50/52/15 47/53/15
f 19/41/17 64/54/17 37/55/17
f 39/56/6 60/57/6 43/58/6
f 27/59/18 31/60/18 25/61/18
f 30/62/19 33/63/19 27/59/19
f 28/48/20 35/64/20 29/65/20
f 25/66/2 32/67/2 26/68/2
f 39/56/6 44/49/6 40/51/6
f 37/69/2 41/70/2 38/71/2
f 30/72/21 43/73/21 29/74/21
f 19/41/17 38/75/17 20/2/17
f 21/40/15 49/76/15 45/77/15
f 23/35/14 40/78/14 24/42/14
f 43/73/22 55/79/22 29/74/22
f 26/80/23 42/81/23 25/32/23
f 50/82/24 58/83/24 51/84/24
f 50/82/25 54/85/25 47/86/25
f 45/87/26 53/88/26 46/89/26
f 49/90/27 52/86/27 45/87/27
f 47/86/28 55/91/28 48/88/28
f 49/90/29 61/92/29 56/93/29
f 48/88/24 60/94/24 59/95/24
f 46/89/29 63/96/29 64/97/29
f 37/69/2 63/98/2 42/99/2
f 42/81/30 53/100/30 25/32/30
f 29/74/1 54/101/1 28/102/1
f 40/78/14 49/76/14 24/42/14
f 44/103/31 56/104/31 61/105/31
f 21/40/15 46/106/15 19/41/15
f 41/70/2 57/107/2 38/71/2
f 30/72/1 52/33/1 56/104/1
f 38/75/17 50/52/17 20/2/17
f 22/1/15 48/108/15 23/35/15
f 26/80/1 54/101/1 51/109/1
f 41/110/32 51/109/32 58/111/32
f 31/112/33 67/113/33 65/114/33
f 35/115/34 70/116/34 36/117/34
f 32/118/35 68/119/35 34/120/35
f 31/112/36 66/121/36 32/118/36
f 35/115/37 68/119/37 69/122/37
f 36/117/38 67/113/38 33/123/38
f 68/124/20 76/125/20 69/126/20
f 70/127/19 74/124/19 67/128/19
f 75/129/1 72/130/1 74/131/1
f 76/132/1 74/131/1 71/133/1
f 65/134/2 73/135/2 66/136/2
f 66/137/16 75/138/16 68/124/16
f 69/139/6 71/140/6 70/125/6
f 67/128/18 72/126/18 65/141/18
f 15/1/15 7/142/15 20/2/15
f 3/3/2 7/143/2 10/4/2
f 15/6/3 5/144/3 12/7/3
f 13/9/39 16/28/39 4/10/39
f 14/12/5 3/145/5 11/13/5
f 5/11/6 1/146/6 9/15/6
f 12/16/6 9/15/6 2/17/6
f 17/14/5 11/13/5 4/19/5
f 18/8/3 12/7/3 6/21/3
f 11/5/2 10/4/2 8/23/2
f 8/25/13 10/30/13 18/8/13
f 2/21/11 9/27/11 17/14/11
f 1/26/11 14/12/11 17/14/11
f 6/18/40 2/147/40 16/28/40
f 7/29/13 15/6/13 18/8/13
f 7/31/1 3/31/1 19/31/1
f 25/32/1 53/100/1 52/33/1
f 23/35/14 48/108/14 59/36/14
f 5/38/1 15/1/1 22/1/1
f 3/39/1 14/40/1 21/40/1
f 14/40/15 1/148/15 24/42/15
f 1/31/1 5/31/1 23/31/1
f 29/43/6 35/149/6 36/44/6
f 26/46/16 32/150/16 34/47/16
f 44/49/6 61/151/6 62/50/6
f 22/1/15 20/2/15 50/52/15
f 19/41/17 46/106/17 64/54/17
f 39/56/6 59/152/6 60/57/6
f 27/59/18 33/63/18 31/60/18
f 30/62/19 36/153/19 33/63/19
f 28/48/20 34/47/20 35/64/20
f 25/66/2 31/154/2 32/67/2
f 39/56/6 43/58/6 44/49/6
f 37/69/2 42/99/2 41/70/2
f 30/72/21 44/103/21 43/73/21
f 19/41/17 37/55/17 38/75/17
f 21/40/15 24/42/15 49/76/15
f 23/35/14 39/37/14 40/78/14
f 43/73/31 60/155/31 55/79/31
f 26/80/23 41/110/23 42/81/23
f 50/82/24 57/156/24 58/83/24
f 50/82/25 51/84/25 54/85/25
f 45/87/26 52/86/26 53/88/26
f 49/90/27 56/93/27 52/86/27
f 47/86/28 54/85/28 55/91/28
f 49/90/29 62/157/29 61/92/29
f 48/88/24 55/91/24 60/94/24
f 46/89/29 53/88/29 63/96/29
f 37/69/2 64/158/2 63/98/2
f 42/81/32 63/159/32 53/100/32
f 29/74/1 55/79/1 54/101/1
f 40/78/14 62/160/14 49/76/14
f 44/103/41 30/72/41 56/104/41
f 21/40/15 45/77/15 46/106/15
f 41/70/2 58/161/2 57/107/2
f 30/72/1 27/34/1 52/33/1
f 38/75/17 57/162/17 50/52/17
f 22/1/15 47/53/15 48/108/15
f 26/80/1 28/102/1 54/101/1
f 41/110/42 26/80/42 51/109/42
f 31/112/33 33/123/33 67/113/33
f 35/115/34 69/122/34 70/116/34
f 32/118/35 66/121/35 68/119/35
f 31/112/36 65/114/36 66/121/36
f 35/115/37 34/120/37 68/119/37
f 36/117/38 70/116/38 67/113/38
f 68/124/20 75/138/20 76/125/20
f 70/127/19 71/137/19 74/124/19
f 75/129/1 73/163/1 72/130/1
f 76/132/1 75/129/1 74/131/1
f 65/134/2 72/164/2 73/135/2
f 66/137/16 73/165/16 75/138/16
f 69/139/6 76/166/6 71/140/6
f 67/128/18 74/124/18 72/126/18
