# Blender 5.2.0 LTS
# www.blender.org
mtllib wand.mtl
o Cube.001
v -0.057086 1.717072 0.048722
v -0.110647 -1.871445 0.094436
v -0.057086 1.717072 -0.048722
v -0.110647 -1.871445 -0.094436
v 0.057086 1.717072 0.048722
v 0.110647 -1.871445 0.094436
v 0.057086 1.717072 -0.048722
v 0.110647 -1.871445 -0.094436
v -0.058920 1.189508 0.050287
v -0.058920 1.189508 -0.050287
v 0.058920 1.189508 -0.050287
v 0.058920 1.189508 0.050287
v -0.109569 -0.824411 0.094104
v -0.109569 -0.824411 -0.039573
v 0.049251 -0.824411 -0.039573
v 0.049251 -0.824411 0.094104
v -0.026652 0.244128 -0.091440
v 0.119697 0.244128 -0.091440
v 0.119697 0.244128 0.033467
v -0.026652 0.244128 0.033467
v -0.043075 0.725275 -0.070496
v 0.088765 0.725275 -0.070496
v 0.088765 0.725275 0.042027
v -0.043075 0.725275 0.042027
v -0.047719 0.861351 -0.064572
v 0.080017 0.861351 -0.064572
v 0.080017 0.861351 0.044449
v -0.047719 0.861351 0.044449
v -0.024888 0.854382 0.143536
v -0.021821 0.776720 0.188761
v 0.065237 0.776720 0.188761
v 0.059460 0.854382 0.143536
v -0.024888 0.987837 0.242010
v -0.021821 0.978579 0.331401
v 0.065237 0.978579 0.331401
v 0.059460 0.987837 0.242010
v -0.024888 1.284584 0.272746
v -0.021821 1.275325 0.362137
v 0.065237 1.275325 0.362137
v 0.059460 1.284584 0.272746
vn -1.0000 0.0010 -0.0000
vn -0.0000 0.0523 -0.9986
vn 0.9983 0.0585 -0.0000
vn -0.0000 0.0003 1.0000
vn -0.0000 1.0000 -0.0000
vn -0.0000 -1.0000 -0.0000
vn -0.0000 0.0030 1.0000
vn 1.0000 0.0035 -0.0000
vn -0.0000 0.0030 -1.0000
vn -1.0000 0.0035 -0.0000
vn -0.0000 0.0567 0.9984
vn 0.9978 -0.0658 -0.0000
vn -0.0000 -0.0485 -0.9988
vn -0.9970 0.0774 -0.0000
vn -0.9994 -0.0341 -0.0000
vn -0.0000 0.0435 -0.9991
vn 0.9979 0.0642 -0.0000
vn -0.0000 -0.0178 0.9998
vn -0.9908 0.0369 0.1306
vn 0.9976 0.0415 -0.0562
vn 0.9766 0.0591 0.2068
vn -0.0000 -0.9437 0.3309
vn -0.0000 0.9975 0.0702
vn 0.9979 0.0066 -0.0638
vn -0.9992 -0.0226 0.0319
vn -0.0000 0.5937 -0.8047
vn -0.0000 -0.5771 0.8167
vn -0.0000 0.9947 0.1030
vn -0.9994 -0.0035 0.0339
vn -0.0000 0.1030 -0.9947
vn -0.0000 -0.1030 0.9947
vn -0.9744 -0.0372 0.2219
vn 0.9973 0.0424 -0.0601
vn 0.9845 0.1371 0.1098
vn -0.9993 -0.0221 0.0299
vt 0.264124 0.611676
vt 0.417150 0.942463
vt 0.415967 0.611134
vt 0.414959 0.609135
vt 0.262937 0.279346
vt 0.264117 0.609674
vt 0.498999 0.154847
vt 0.334334 0.460537
vt 0.498999 0.460537
vt 0.262122 0.611683
vt 0.111462 0.943555
vt 0.263305 0.943013
vt 0.501001 0.616386
vt 0.665666 0.768230
vt 0.665666 0.616386
vt 0.001001 0.001001
vt 0.332332 0.306691
vt 0.332332 0.001001
vt 0.917668 0.001001
vt 0.998999 0.152845
vt 0.998999 0.001001
vt 0.571814 0.610577
vt 0.647323 0.774973
vt 0.646735 0.610310
vt 0.917668 0.616386
vt 0.998999 0.768230
vt 0.998999 0.616386
vt 0.647546 0.276971
vt 0.723055 0.441367
vt 0.722467 0.276704
vt 0.167668 0.616386
vt 0.332332 0.768230
vt 0.332332 0.616386
vt 0.667668 0.154847
vt 0.832332 0.306691
vt 0.832332 0.154847
vt 0.498999 0.616386
vt 0.334334 0.768230
vt 0.498999 0.768230
vt 0.832332 0.308693
vt 0.667668 0.460537
vt 0.832332 0.460537
vt 0.917668 0.154847
vt 0.998999 0.306691
vt 0.998999 0.154847
vt 0.571219 0.443912
vt 0.646728 0.608308
vt 0.646139 0.443644
vt 0.915666 0.001001
vt 0.834334 0.152845
vt 0.915666 0.152845
vt 0.647330 0.776975
vt 0.572997 0.941906
vt 0.647918 0.941639
vt 0.667668 0.616386
vt 0.832332 0.768230
vt 0.832332 0.616386
vt 0.415956 0.608131
vt 0.263934 0.278341
vt 0.414776 0.277803
vt 0.915666 0.154847
vt 0.834334 0.306691
vt 0.915666 0.306691
vt 0.327870 0.572027
vt 0.269433 0.743237
vt 0.343994 0.735900
vt 0.917668 0.462539
vt 0.998999 0.614384
vt 0.998999 0.462539
vt 0.594433 0.504226
vt 0.647093 0.610714
vt 0.643606 0.502640
vt 0.834334 0.308693
vt 0.915666 0.460537
vt 0.915666 0.308693
vt 0.570028 0.110580
vt 0.645537 0.274976
vt 0.644949 0.110313
vt 0.915666 0.462539
vt 0.834334 0.614384
vt 0.915666 0.614384
vt 0.113997 0.799518
vt 0.052670 0.969713
vt 0.127344 0.963640
vt 0.853358 0.616386
vt 0.896642 0.768230
vt 0.896642 0.616386
vt 0.332332 0.847155
vt 0.167668 0.922076
vt 0.332332 0.922076
vt 0.501001 0.154847
vt 0.665666 0.460537
vt 0.665666 0.154847
vt 0.667668 0.462539
vt 0.832332 0.614384
vt 0.832332 0.462539
vt 0.723062 0.443369
vt 0.648729 0.608300
vt 0.723650 0.608033
vt 0.284453 0.295222
vt 0.385835 0.345387
vt 0.384113 0.292006
vt 0.507533 0.943723
vt 0.603706 0.832434
vt 0.504046 0.835649
vt 0.665666 0.001001
vt 0.334334 0.152845
vt 0.665666 0.152845
vt 0.832332 0.001001
vt 0.667668 0.152845
vt 0.832332 0.152845
vt 0.915666 0.922076
vt 0.834334 0.770232
vt 0.834334 0.922076
vt 0.690564 0.391622
vt 0.644878 0.501283
vt 0.694051 0.499697
vt 0.998999 0.770232
vt 0.917668 0.922076
vt 0.998999 0.922076
vt 0.265307 0.943005
vt 0.334334 0.154847
vt 0.110279 0.612226
vt 0.501001 0.768230
vt 0.001001 0.306691
vt 0.917668 0.152845
vt 0.572402 0.775241
vt 0.917668 0.768230
vt 0.648134 0.441635
vt 0.167668 0.768230
vt 0.667668 0.306691
vt 0.334334 0.616386
vt 0.667668 0.308693
vt 0.917668 0.306691
vt 0.571807 0.608575
vt 0.834334 0.001001
vt 0.572409 0.777243
vt 0.667668 0.768230
vt 0.834334 0.154847
vt 0.253309 0.579363
vt 0.917668 0.614384
vt 0.597920 0.612301
vt 0.834334 0.460537
vt 0.570616 0.275244
vt 0.834334 0.462539
vt 0.039322 0.805590
vt 0.853358 0.768230
vt 0.167668 0.847155
vt 0.501001 0.460537
vt 0.667668 0.614384
vt 0.648141 0.443637
vt 0.286175 0.348602
vt 0.607193 0.940508
vt 0.334334 0.001001
vt 0.667668 0.001001
vt 0.915666 0.770232
vt 0.641391 0.393209
vt 0.917668 0.770232
s 0
usemtl Material.001
f 2/1/1 13/3/1 14/2/1
f 4/4/2 14/6/2 15/5/2
f 15/7/3 16/9/3 6/8/3
f 16/10/4 13/12/4 2/11/4
f 7/13/5 3/15/5 1/14/5
f 4/16/6 8/18/6 6/17/6
f 12/19/7 5/21/7 1/20/7
f 11/22/8 7/24/8 5/23/8
f 10/25/9 3/27/9 7/26/9
f 9/28/10 1/30/10 3/29/10
f 16/31/11 19/33/11 20/32/11
f 15/34/12 18/36/12 19/35/12
f 17/37/13 18/39/13 15/38/13
f 20/40/14 17/42/14 14/41/14
f 20/43/15 24/45/15 21/44/15
f 17/46/16 21/48/16 22/47/16
f 22/49/17 23/51/17 19/50/17
f 23/52/18 24/54/18 20/53/18
f 19/55/6 20/57/6 17/56/6
f 4/58/2 15/60/2 8/59/2
f 24/61/19 30/63/19 29/62/19
f 26/64/17 27/66/17 23/65/17
f 21/67/16 25/69/16 26/68/16
f 24/70/15 28/72/15 25/71/15
f 28/73/15 9/75/15 10/74/15
f 25/76/16 10/78/16 11/77/16
f 11/79/17 12/81/17 27/80/17
f 12/82/18 9/84/18 28/83/18
f 31/85/20 32/87/20 36/86/20
f 23/88/21 27/90/21 32/89/21
f 24/91/22 23/93/22 31/92/22
f 27/94/23 28/96/23 29/95/23
f 35/97/24 36/99/24 40/98/24
f 30/100/25 34/102/25 33/101/25
f 32/103/26 29/105/26 33/104/26
f 30/106/27 31/108/27 35/107/27
f 40/109/28 37/111/28 38/110/28
f 34/112/29 38/114/29 37/113/29
f 36/115/30 33/117/30 37/116/30
f 34/118/31 35/120/31 39/119/31
f 2/1/1 14/2/1 4/121/1
f 15/7/3 6/8/3 8/122/3
f 16/10/4 2/11/4 6/123/4
f 7/13/5 1/14/5 5/124/5
f 4/16/6 6/17/6 2/125/6
f 12/19/7 1/20/7 9/126/7
f 11/22/8 5/23/8 12/127/8
f 10/25/9 7/26/9 11/128/9
f 9/28/10 3/29/10 10/129/10
f 16/31/11 20/32/11 13/130/11
f 15/34/12 19/35/12 16/131/12
f 17/37/13 15/38/13 14/132/13
f 20/40/14 14/41/14 13/133/14
f 20/43/15 21/44/15 17/134/15
f 17/46/16 22/47/16 18/135/16
f 22/49/17 19/50/17 18/136/17
f 23/52/18 20/53/18 19/137/18
f 19/55/6 17/56/6 18/138/6
f 24/61/32 29/62/32 28/139/32
f 26/64/17 23/65/17 22/140/17
f 21/67/16 26/68/16 22/141/16
f 24/70/15 25/71/15 21/142/15
f 28/73/15 10/74/15 25/143/15
f 25/76/16 11/77/16 26/144/16
f 11/79/17 27/80/17 26/145/17
f 12/82/18 28/83/18 27/146/18
f 31/85/33 36/86/33 35/147/33
f 23/88/34 32/89/34 31/148/34
f 24/91/22 31/92/22 30/149/22
f 27/94/23 29/95/23 32/150/23
f 35/97/24 40/98/24 39/151/24
f 30/100/35 33/101/35 29/152/35
f 32/103/26 33/104/26 36/153/26
f 30/106/27 35/107/27 34/154/27
f 40/109/28 38/110/28 39/155/28
f 34/112/29 37/113/29 33/156/29
f 36/115/30 37/116/30 40/157/30
f 34/118/31 39/119/31 38/158/31
