# Blender 4.0.2
# www.blender.org
mtllib level2.mtl
o Fried_Foods.003
v -0.365137 -199.175171 0.558613
v -0.365137 -199.175171 -0.558611
v 0.365141 -199.175171 0.558613
v -0.507288 -199.175171 0.558613
v -0.365137 -199.175171 0.763426
v -0.365136 0.824821 0.763426
v 0.365141 -199.175171 0.763426
v -0.507288 -199.175171 0.763426
v -0.507287 0.824819 0.763426
v -0.507287 0.824820 0.558613
v -0.507287 0.824820 -0.558611
v -0.365136 0.824821 0.558613
v 0.365141 0.824821 0.558613
v -0.365136 0.824821 -0.558611
v 0.365141 0.824821 -0.558611
v -0.365136 0.824821 -0.775034
v 0.365141 0.824821 -0.775034
v -0.365137 -199.175171 -0.775036
v -0.507287 0.824819 -0.775034
v -0.507288 -199.175171 -0.775036
v -0.507288 -199.175171 -0.558611
v 0.365141 -199.175171 -0.775036
v 0.507291 -199.175171 -0.775036
v 0.365141 -199.175171 -0.558611
v 0.507291 -199.175171 -0.558611
v 0.507291 -199.175171 0.558613
v 0.507291 0.824820 -0.558611
v 0.507291 0.824820 0.558613
v 0.507291 0.824820 -0.775034
v 0.507291 0.824820 0.763426
v 0.507291 -199.175171 0.763426
v 0.365141 0.824821 0.763426
v -8.435652 -199.806015 -22.042494
v -9.552876 -199.806015 -22.042494
v -8.435652 -199.806015 -22.772772
v -8.435652 -199.806015 -21.881592
v -8.194510 -199.806015 -22.042494
v -8.194510 0.193991 -22.042494
v -8.194510 -199.806015 -22.772772
v -8.194510 -199.806015 -21.881592
v -8.194510 0.193991 -21.881592
v -8.435651 0.193991 -21.881592
v -9.552876 0.193991 -21.881592
v -8.435651 0.193991 -22.909546
v -8.194510 0.193991 -22.909546
v -8.435652 -199.806015 -22.909546
v -9.552876 0.193991 -22.909546
v -8.194510 0.193991 -22.772772
v -9.552876 -199.806015 -22.909546
v -9.714689 0.193991 -22.909546
v -9.714689 0.193991 -22.772772
v -9.714689 0.193991 -22.042494
v -9.714690 -199.806015 -22.042494
v -9.714689 0.193991 -21.881592
v -9.714690 -199.806015 -21.881592
v -9.552876 -199.806015 -21.881592
v -9.714690 -199.806015 -22.772772
v -9.714690 -199.806015 -22.909546
v -9.552876 -199.806015 -22.772772
v -8.194510 -199.806015 -22.909546
v -0.365137 -198.975662 -2.160093
v -0.365137 -198.975662 -3.277317
v 0.365140 -198.975662 -2.160093
v -0.365137 -198.975662 -1.999191
v -0.526952 -198.975662 -2.160093
v -0.526952 -198.975662 -3.277317
v -0.526951 1.024319 -2.160095
v -0.526952 -198.975662 -1.999191
v -0.526951 1.024319 -1.999193
v -0.365137 1.024319 -1.999193
v 0.365140 1.024319 -1.999193
v -0.365137 1.024319 -2.160095
v 0.365140 1.024319 -2.160095
v -0.365137 1.024319 -3.277319
v 0.365140 1.024319 -3.277319
v -0.365137 1.024319 -3.414095
v -0.526951 1.024319 -3.277319
v -0.526951 1.024319 -3.414095
v -0.526952 -198.975662 -3.414093
v -0.365137 -198.975662 -3.414093
v 0.365140 -198.975662 -3.414093
v 0.365140 1.024319 -3.414095
v 0.365140 -198.975662 -3.277317
v 0.606280 -198.975662 -3.414093
v 0.606280 1.024319 -3.414095
v 0.606280 -198.975662 -3.277317
v 0.606280 -198.975662 -2.160093
v 0.606280 1.024319 -3.277319
v 0.606280 1.024319 -2.160095
v 0.606280 1.024319 -1.999193
v 0.606280 -198.975662 -1.999191
v 0.365140 -198.975662 -1.999191
v 0.944937 -198.513611 -4.181887
v 0.944937 -198.513611 -5.299112
v 1.675215 -198.513611 -4.181887
v 0.944937 -198.513611 -4.020987
v 0.783123 -198.513611 -4.181887
v 0.783123 -198.513611 -5.299112
v 0.783123 1.486380 -4.181887
v 0.783123 -198.513611 -4.020987
v 0.783123 1.486380 -4.020985
v 0.944937 1.486380 -4.020985
v 1.675215 1.486380 -4.020985
v 0.944937 1.486380 -4.181887
v 1.675215 1.486380 -4.181887
v 0.944937 1.486380 -5.299110
v 1.675215 1.486380 -5.299110
v 0.944937 1.486380 -5.435886
v 0.783123 1.486380 -5.299110
v 0.783123 1.486380 -5.435886
v 0.783123 -198.513611 -5.435886
v 0.944937 -198.513611 -5.435886
v 1.675215 -198.513611 -5.435886
v 1.675215 1.486380 -5.435886
v 1.675215 -198.513611 -5.299112
v 1.916355 -198.513611 -5.435886
v 1.916355 1.486380 -5.435886
v 1.916355 -198.513611 -5.299112
v 1.916355 -198.513611 -4.181887
v 1.916355 1.486380 -5.299110
v 1.916355 1.486380 -4.181887
v 1.916355 1.486380 -4.020985
v 1.916355 -198.513611 -4.020987
v 1.675215 -198.513611 -4.020987
v -0.154273 -198.108475 -6.474322
v -0.154273 -198.108475 -7.591546
v 0.576004 -198.108475 -6.474322
v -0.154273 -198.108475 -6.313421
v -0.316088 -198.108475 -6.474322
v -0.316088 -198.108475 -7.591546
v -0.316087 1.891531 -6.474322
v -0.316088 -198.108475 -6.313421
v -0.316087 1.891531 -6.313419
v -0.154272 1.891531 -6.313419
v 0.576005 1.891531 -6.313419
v -0.154272 1.891531 -6.474322
v 0.576005 1.891531 -6.474322
v -0.154272 1.891531 -7.591546
v 0.576005 1.891531 -7.591546
v -0.154272 1.891531 -7.728322
v -0.316087 1.891531 -7.591546
v -0.316087 1.891531 -7.728322
v -0.316088 -198.108475 -7.728322
v -0.154273 -198.108475 -7.728322
v 0.576004 -198.108475 -7.728322
v 0.576005 1.891531 -7.728322
v 0.576004 -198.108475 -7.591546
v 0.817145 -198.108475 -7.728322
v 0.817145 1.891531 -7.728322
v 0.817145 -198.108475 -7.591546
v 0.817145 -198.108475 -6.474322
v 0.817145 1.891531 -7.591546
v 0.817145 1.891531 -6.474322
v 0.817145 1.891531 -6.313419
v 0.817145 -198.108475 -6.313421
v 0.576004 -198.108475 -6.313421
v -0.154272 -199.806015 -10.684034
v -0.154273 -199.806015 -11.801258
v 0.576005 -199.806015 -10.684034
v -0.154272 -199.806015 -10.523132
v -0.316087 -199.806015 -10.684034
v -0.316088 -199.806015 -11.801258
v -0.316087 0.193992 -10.684033
v -0.316087 -199.806015 -10.523132
v -0.316087 0.193992 -10.523131
v -0.154272 0.193992 -10.523131
v 0.576004 0.193992 -10.523131
v -0.154272 0.193992 -10.684033
v 0.576004 0.193992 -10.684033
v -0.154273 0.193991 -11.801257
v 0.576003 0.193991 -11.801257
v -0.154273 0.193991 -11.938032
v -0.316088 0.193991 -11.801257
v -0.316088 0.193991 -11.938032
v -0.316088 -199.806015 -11.938032
v -0.154273 -199.806015 -11.938032
v 0.576004 -199.806015 -11.938032
v 0.576003 0.193991 -11.938032
v 0.576004 -199.806015 -11.801258
v 0.817144 -199.806015 -11.938032
v 0.817144 0.193991 -11.938032
v 0.817144 -199.806015 -11.801258
v 0.817145 -199.806015 -10.684034
v 0.817144 0.193991 -11.801257
v 0.817145 0.193992 -10.684033
v 0.817145 0.193992 -10.523131
v 0.817145 -199.806015 -10.523132
v 0.576005 -199.806015 -10.523132
v -0.154273 -199.806015 -13.072524
v -0.154273 -199.806015 -14.189749
v 0.576004 -199.806015 -13.072524
v -0.154273 -199.806015 -12.911623
v -0.316088 -199.806015 -13.072524
v -0.316087 -199.806015 -14.189749
v -0.316088 0.193991 -13.072524
v -0.316088 -199.806015 -12.911623
v -0.316088 0.193991 -12.911622
v -0.154273 0.193991 -12.911622
v 0.576004 0.193991 -12.911622
v -0.154273 0.193991 -13.072524
v 0.576004 0.193991 -13.072524
v -0.154273 0.193991 -14.189748
v -0.316088 0.193991 -14.189748
v 0.576004 0.193991 -14.189748
v -0.154273 0.193991 -14.326522
v 0.576004 0.193991 -14.326522
v -0.154273 -199.806015 -14.326523
v -0.316088 0.193991 -14.326522
v -0.316087 -199.806015 -14.326523
v 0.576004 -199.806015 -14.326523
v 0.576004 -199.806015 -14.189749
v 0.817144 -199.806015 -14.326523
v 0.817144 0.193991 -14.326522
v 0.817144 -199.806015 -14.189749
v 0.817144 -199.806015 -13.072524
v 0.817144 0.193991 -14.189748
v 0.817144 0.193991 -13.072524
v 0.817144 0.193991 -12.911622
v 0.817144 -199.806015 -12.911623
v 0.576004 -199.806015 -12.911623
v 0.138377 0.041626 -17.028196
v 0.138377 0.041626 -19.028196
v 0.212942 0.041626 -17.028196
v 0.138377 0.041626 -14.091352
v 0.055351 0.041626 -17.028196
v 0.055351 0.041626 -19.028196
v 0.055351 0.041626 -14.091352
v 0.055351 0.041626 -16.840324
v 0.055351 0.041626 -18.840324
v 0.055351 0.041626 -20.488358
v 0.055351 -0.041626 -18.840324
v 0.055351 -0.041626 -20.488358
v 0.055351 -0.041626 -16.840324
v 0.055351 -0.041626 -19.028196
v 0.055351 -0.041626 -20.676229
v 0.055351 0.041626 -20.676229
v 0.138377 -0.041626 -20.676229
v 0.212942 -0.041626 -20.676229
v 0.138377 -0.041626 -19.028196
v 0.138377 0.041626 -20.676229
v 0.212942 0.041626 -20.676229
v 0.212942 0.041626 -19.028196
v 0.294355 0.041626 -20.676229
v 0.294355 -0.041626 -20.676229
v 0.294355 0.041626 -19.028196
v 0.294355 -0.041626 -19.028196
v 0.294355 0.041626 -17.028196
v 0.294355 0.041626 -14.091352
v 0.294355 -0.041626 -17.028196
v 0.294355 -0.041626 -14.091352
v 0.212942 -0.041626 -17.028196
v 0.212942 -0.041626 -14.091352
v 0.212942 -0.041626 -19.028196
v 0.138377 -0.041626 -17.028196
v 0.138377 -0.041626 -14.091352
v 0.055351 -0.041626 -17.028196
v 0.055351 -0.041626 -14.091352
v 0.055351 -0.041626 -13.903480
v 0.055351 0.041626 -13.903480
v 0.212942 0.041626 -14.091352
v -7.009124 -0.041626 -22.403217
v -7.009124 0.041626 -22.403217
v -7.009124 -0.041626 -22.319580
v -1.270967 -0.041626 -22.403217
v -1.270967 -0.041626 -22.319580
v -1.270967 0.041626 -22.403217
v -1.270967 0.041626 -22.319580
v -7.009124 0.041626 -22.319580
v -1.270967 0.041626 -22.131708
v -7.009124 0.041626 -22.131708
v -1.270967 -0.041626 -22.131708
v -7.009124 -0.041626 -22.131708
v -8.834599 0.198852 -22.298058
v -8.834599 0.256335 -22.298058
v -9.037822 0.198852 -22.298058
v -9.037822 0.256335 -22.298058
v -8.834599 0.198852 -22.437851
v -8.834599 0.256335 -22.437851
v -9.037822 0.198852 -22.437851
v -9.037822 0.256335 -22.437851
v -9.107980 0.227594 -22.481798
v -9.107980 0.227594 -22.254110
v -8.764443 0.227594 -22.254110
v -8.764443 0.227594 -22.481798
v -9.039762 0.230968 -22.469694
v -8.832660 0.230968 -22.469694
v -9.039762 0.221813 -22.266214
v -8.832660 0.221813 -22.266214
vn -0.0000 -1.0000 -0.0000
vn -0.0000 -0.0000 1.0000
vn -1.0000 -0.0000 -0.0000
vn -0.0000 1.0000 -0.0000
vn -0.0000 -0.0000 -1.0000
vn 1.0000 -0.0000 -0.0000
vn -0.0095 1.0000 -0.0000
vn 0.0493 -0.9988 -0.0000
vn -0.0058 -1.0000 -0.0000
vn 0.0059 -1.0000 -0.0000
vn 0.0101 0.9999 -0.0000
vn -0.0375 -0.9993 -0.0000
vn -0.0493 -0.9988 -0.0000
vn -0.1275 0.9537 -0.2723
vn -0.7064 0.0075 0.7078
vn -0.1127 0.9364 0.3323
vn -0.1162 -0.9408 -0.3183
vn -0.7066 -0.0044 -0.7076
vn 0.0914 0.0754 -0.9930
vn 0.1275 0.9537 -0.2723
vn -0.0914 0.0754 -0.9930
vn 0.1127 0.9364 0.3323
vn -0.0859 -0.1293 0.9879
vn 0.7064 0.0075 0.7078
vn 0.7066 -0.0044 -0.7076
vn 0.1162 -0.9408 -0.3183
vn 0.1322 -0.9583 0.2532
vn -0.1322 -0.9583 0.2532
vn 0.0859 -0.1293 0.9879
vt 0.485762 0.409253
vt 0.514238 0.434497
vt 0.514238 0.409253
vt 0.037486 0.159253
vt 0.065963 0.184497
vt 0.065963 0.159253
vt 0.003003 0.159253
vt 0.031480 0.184497
vt 0.031480 0.159253
vt 0.037486 0.128003
vt 0.065963 0.153247
vt 0.065963 0.128003
vt 0.824583 0.940503
vt 0.554727 0.965747
vt 0.824583 0.965747
vt 0.968520 0.253003
vt 0.996997 0.496997
vt 0.996997 0.253003
vt 0.548721 0.940503
vt 0.278865 0.965747
vt 0.548721 0.965747
vt 0.003003 0.128003
vt 0.031480 0.153247
vt 0.031480 0.128003
vt 0.968520 0.003003
vt 0.996997 0.246997
vt 0.996997 0.003003
vt 0.106451 0.159253
vt 0.134928 0.184497
vt 0.134928 0.159253
vt 0.071969 0.159253
vt 0.100445 0.184497
vt 0.100445 0.159253
vt 0.106451 0.128003
vt 0.134928 0.153247
vt 0.134928 0.128003
vt 0.071969 0.128003
vt 0.100445 0.153247
vt 0.100445 0.128003
vt 0.037486 0.221753
vt 0.065963 0.246997
vt 0.065963 0.221753
vt 0.272859 0.940503
vt 0.003003 0.965747
vt 0.272859 0.965747
vt 0.934038 0.503003
vt 0.962514 0.746997
vt 0.962514 0.503003
vt 0.824583 0.909253
vt 0.554727 0.934497
vt 0.824583 0.934497
vt 0.003003 0.221753
vt 0.031480 0.246997
vt 0.031480 0.221753
vt 0.037486 0.190503
vt 0.065963 0.215747
vt 0.065963 0.190503
vt 0.934038 0.253003
vt 0.962514 0.496997
vt 0.962514 0.253003
vt 0.003003 0.190503
vt 0.031480 0.215747
vt 0.031480 0.190503
vt 0.106451 0.221753
vt 0.134928 0.246997
vt 0.134928 0.221753
vt 0.548721 0.909253
vt 0.278865 0.934497
vt 0.548721 0.934497
vt 0.796106 0.003003
vt 0.824583 0.246997
vt 0.824583 0.003003
vt 0.071969 0.221753
vt 0.100445 0.246997
vt 0.100445 0.221753
vt 0.106451 0.190503
vt 0.134928 0.215747
vt 0.134928 0.190503
vt 0.410790 0.378003
vt 0.140934 0.403247
vt 0.410790 0.403247
vt 0.071969 0.190503
vt 0.100445 0.215747
vt 0.100445 0.190503
vt 0.445273 0.128003
vt 0.416796 0.371997
vt 0.445273 0.371997
vt 0.451279 0.034253
vt 0.479756 0.059497
vt 0.479756 0.034253
vt 0.416796 0.034253
vt 0.445273 0.059497
vt 0.445273 0.034253
vt 0.451279 0.003003
vt 0.479756 0.028247
vt 0.479756 0.003003
vt 0.416796 0.003003
vt 0.445273 0.028247
vt 0.445273 0.003003
vt 0.548721 0.034253
vt 0.520244 0.059497
vt 0.548721 0.059497
vt 0.410790 0.409253
vt 0.140934 0.434497
vt 0.410790 0.434497
vt 0.451279 0.128003
vt 0.479756 0.371997
vt 0.479756 0.128003
vt 0.410790 0.440503
vt 0.140934 0.465747
vt 0.410790 0.465747
vt 0.485762 0.128003
vt 0.514238 0.371997
vt 0.514238 0.128003
vt 0.410790 0.471753
vt 0.140934 0.496997
vt 0.410790 0.496997
vt 0.548721 0.128003
vt 0.520244 0.371997
vt 0.548721 0.371997
vt 0.272859 0.503003
vt 0.003003 0.528247
vt 0.272859 0.528247
vt 0.583204 0.003003
vt 0.554727 0.246997
vt 0.583204 0.246997
vt 0.548721 0.503003
vt 0.278865 0.528247
vt 0.548721 0.528247
vt 0.554727 0.253003
vt 0.583204 0.496997
vt 0.583204 0.253003
vt 0.485762 0.036940
vt 0.509781 0.034253
vt 0.514238 0.036940
vt 0.272859 0.534253
vt 0.003003 0.559497
vt 0.272859 0.559497
vt 0.520244 0.003003
vt 0.548721 0.028247
vt 0.548721 0.003003
vt 0.485762 0.003003
vt 0.514238 0.028247
vt 0.514238 0.003003
vt 0.589210 0.003003
vt 0.617687 0.246997
vt 0.617687 0.003003
vt 0.451279 0.096753
vt 0.479756 0.121997
vt 0.479756 0.096753
vt 0.416796 0.096753
vt 0.445273 0.121997
vt 0.445273 0.096753
vt 0.451279 0.065503
vt 0.479756 0.090747
vt 0.479756 0.065503
vt 0.416796 0.065503
vt 0.445273 0.090747
vt 0.445273 0.065503
vt 0.520244 0.096753
vt 0.548721 0.121997
vt 0.548721 0.096753
vt 0.485762 0.096753
vt 0.514238 0.121997
vt 0.514238 0.096753
vt 0.520244 0.065503
vt 0.548721 0.090747
vt 0.548721 0.065503
vt 0.548721 0.534253
vt 0.278865 0.559497
vt 0.548721 0.559497
vt 0.617687 0.253003
vt 0.589210 0.496997
vt 0.617687 0.496997
vt 0.272859 0.565503
vt 0.003003 0.590747
vt 0.272859 0.590747
vt 0.485762 0.065503
vt 0.514238 0.090747
vt 0.514238 0.065503
vt 0.623693 0.003003
vt 0.652169 0.246997
vt 0.652169 0.003003
vt 0.175417 0.034253
vt 0.203894 0.059497
vt 0.203894 0.034253
vt 0.140934 0.034253
vt 0.169411 0.059497
vt 0.169411 0.034253
vt 0.175417 0.003003
vt 0.203894 0.028247
vt 0.203894 0.003003
vt 0.140934 0.003003
vt 0.169411 0.028247
vt 0.169411 0.003003
vt 0.244382 0.034253
vt 0.272859 0.059497
vt 0.272859 0.034253
vt 0.548721 0.590747
vt 0.278865 0.565503
vt 0.278865 0.590747
vt 0.623693 0.253003
vt 0.652169 0.496997
vt 0.652169 0.253003
vt 0.209900 0.034253
vt 0.238376 0.059497
vt 0.238376 0.034253
vt 0.272859 0.596753
vt 0.003003 0.621997
vt 0.272859 0.621997
vt 0.244382 0.003003
vt 0.272859 0.028247
vt 0.272859 0.003003
vt 0.658175 0.003003
vt 0.686652 0.246997
vt 0.686652 0.003003
vt 0.209900 0.003003
vt 0.238376 0.028247
vt 0.238376 0.003003
vt 0.548721 0.621997
vt 0.278865 0.596753
vt 0.278865 0.621997
vt 0.175417 0.096753
vt 0.203894 0.121997
vt 0.203894 0.096753
vt 0.658175 0.253003
vt 0.686652 0.496997
vt 0.686652 0.253003
vt 0.140934 0.096753
vt 0.169411 0.121997
vt 0.169411 0.096753
vt 0.175417 0.065503
vt 0.203894 0.090747
vt 0.203894 0.065503
vt 0.272859 0.628003
vt 0.003003 0.653247
vt 0.272859 0.653247
vt 0.140934 0.065503
vt 0.169411 0.090747
vt 0.169411 0.065503
vt 0.692658 0.003003
vt 0.721135 0.246997
vt 0.721135 0.003003
vt 0.244382 0.096753
vt 0.272859 0.121997
vt 0.272859 0.096753
vt 0.209900 0.096753
vt 0.238376 0.121997
vt 0.238376 0.096753
vt 0.244382 0.065503
vt 0.272859 0.090747
vt 0.272859 0.065503
vt 0.209900 0.065503
vt 0.238376 0.090747
vt 0.238376 0.065503
vt 0.175417 0.159253
vt 0.203894 0.184497
vt 0.203894 0.159253
vt 0.548721 0.628003
vt 0.278865 0.653247
vt 0.548721 0.653247
vt 0.692658 0.253003
vt 0.721135 0.496997
vt 0.721135 0.253003
vt 0.272859 0.659253
vt 0.003003 0.684497
vt 0.272859 0.684497
vt 0.140934 0.159253
vt 0.169411 0.184497
vt 0.169411 0.159253
vt 0.727141 0.003003
vt 0.755618 0.246997
vt 0.755618 0.003003
vt 0.175417 0.128003
vt 0.203894 0.153247
vt 0.203894 0.128003
vt 0.140934 0.128003
vt 0.169411 0.153247
vt 0.169411 0.128003
vt 0.244382 0.159253
vt 0.272859 0.184497
vt 0.272859 0.159253
vt 0.209900 0.159253
vt 0.238376 0.184497
vt 0.238376 0.159253
vt 0.244382 0.128003
vt 0.272859 0.153247
vt 0.272859 0.128003
vt 0.548721 0.684497
vt 0.278865 0.659253
vt 0.278865 0.684497
vt 0.727141 0.253003
vt 0.755618 0.496997
vt 0.755618 0.253003
vt 0.209900 0.128003
vt 0.238376 0.153247
vt 0.238376 0.128003
vt 0.272859 0.690503
vt 0.003003 0.715747
vt 0.272859 0.715747
vt 0.175417 0.221753
vt 0.203894 0.246997
vt 0.203894 0.221753
vt 0.761624 0.003003
vt 0.790100 0.246997
vt 0.790100 0.003003
vt 0.140934 0.221753
vt 0.169411 0.246997
vt 0.169411 0.221753
vt 0.548721 0.690503
vt 0.278865 0.715747
vt 0.548721 0.715747
vt 0.175417 0.190503
vt 0.203894 0.215747
vt 0.203894 0.190503
vt 0.761624 0.253003
vt 0.790100 0.496997
vt 0.790100 0.253003
vt 0.140934 0.190503
vt 0.169411 0.215747
vt 0.169411 0.190503
vt 0.244382 0.221753
vt 0.272859 0.246997
vt 0.272859 0.221753
vt 0.272859 0.996997
vt 0.003003 0.971753
vt 0.003003 0.996997
vt 0.209900 0.221753
vt 0.238376 0.246997
vt 0.238376 0.221753
vt 0.824583 0.253003
vt 0.796106 0.496997
vt 0.824583 0.496997
vt 0.244382 0.190503
vt 0.272859 0.215747
vt 0.272859 0.190503
vt 0.209900 0.190503
vt 0.238376 0.215747
vt 0.238376 0.190503
vt 0.037486 0.284253
vt 0.065963 0.309497
vt 0.065963 0.284253
vt 0.003003 0.284253
vt 0.031480 0.309497
vt 0.031480 0.284253
vt 0.037486 0.253003
vt 0.065963 0.278247
vt 0.065963 0.253003
vt 0.272859 0.721753
vt 0.003003 0.746997
vt 0.272859 0.746997
vt 0.554727 0.503003
vt 0.583204 0.746997
vt 0.583204 0.503003
vt 0.548721 0.721753
vt 0.278865 0.746997
vt 0.548721 0.746997
vt 0.003003 0.253003
vt 0.031480 0.278247
vt 0.031480 0.253003
vt 0.617687 0.503003
vt 0.589210 0.746997
vt 0.617687 0.746997
vt 0.106451 0.284253
vt 0.134928 0.309497
vt 0.134928 0.284253
vt 0.071969 0.284253
vt 0.100445 0.309497
vt 0.100445 0.284253
vt 0.106451 0.253003
vt 0.134928 0.278247
vt 0.134928 0.253003
vt 0.071969 0.253003
vt 0.100445 0.278247
vt 0.100445 0.253003
vt 0.037486 0.346753
vt 0.065963 0.371997
vt 0.065963 0.346753
vt 0.272859 0.753003
vt 0.003003 0.778247
vt 0.272859 0.778247
vt 0.623693 0.503003
vt 0.652169 0.746997
vt 0.652169 0.503003
vt 0.003003 0.346753
vt 0.031480 0.371997
vt 0.031480 0.346753
vt 0.548721 0.753003
vt 0.278865 0.778247
vt 0.548721 0.778247
vt 0.037486 0.315503
vt 0.065963 0.340747
vt 0.065963 0.315503
vt 0.658175 0.503003
vt 0.686652 0.746997
vt 0.686652 0.503003
vt 0.003003 0.315503
vt 0.031480 0.340747
vt 0.031480 0.315503
vt 0.824583 0.753003
vt 0.554727 0.778247
vt 0.824583 0.778247
vt 0.692658 0.503003
vt 0.721135 0.746997
vt 0.721135 0.503003
vt 0.106451 0.346753
vt 0.134928 0.371997
vt 0.134928 0.346753
vt 0.071969 0.346753
vt 0.100445 0.371997
vt 0.100445 0.346753
vt 0.106451 0.315503
vt 0.134928 0.340747
vt 0.134928 0.315503
vt 0.272859 0.809497
vt 0.003003 0.784253
vt 0.003003 0.809497
vt 0.071969 0.315503
vt 0.100445 0.340747
vt 0.100445 0.315503
vt 0.755618 0.746997
vt 0.727141 0.503003
vt 0.727141 0.746997
vt 0.313348 0.034253
vt 0.341825 0.059497
vt 0.341825 0.034253
vt 0.278865 0.034253
vt 0.307342 0.059497
vt 0.307342 0.034253
vt 0.313348 0.003003
vt 0.341825 0.028247
vt 0.341825 0.003003
vt 0.278865 0.003003
vt 0.307342 0.028247
vt 0.307342 0.003003
vt 0.382313 0.034253
vt 0.410790 0.059497
vt 0.410790 0.034253
vt 0.548721 0.784253
vt 0.278865 0.809497
vt 0.548721 0.809497
vt 0.761624 0.503003
vt 0.790100 0.746997
vt 0.790100 0.503003
vt 0.824583 0.784253
vt 0.554727 0.809497
vt 0.824583 0.809497
vt 0.347831 0.034253
vt 0.376307 0.059497
vt 0.376307 0.034253
vt 0.796106 0.503003
vt 0.824583 0.746997
vt 0.824583 0.503003
vt 0.382313 0.003003
vt 0.410790 0.028247
vt 0.410790 0.003003
vt 0.347831 0.003003
vt 0.376307 0.028247
vt 0.376307 0.003003
vt 0.313348 0.096753
vt 0.341825 0.121997
vt 0.341825 0.096753
vt 0.278865 0.096753
vt 0.307342 0.121997
vt 0.307342 0.096753
vt 0.313348 0.065503
vt 0.341825 0.090747
vt 0.341825 0.065503
vt 0.272859 0.815503
vt 0.003003 0.840747
vt 0.272859 0.840747
vt 0.830589 0.003003
vt 0.859066 0.246997
vt 0.859066 0.003003
vt 0.278865 0.065503
vt 0.307342 0.090747
vt 0.307342 0.065503
vt 0.548721 0.840747
vt 0.278865 0.815503
vt 0.278865 0.840747
vt 0.382313 0.096753
vt 0.410790 0.121997
vt 0.410790 0.096753
vt 0.830589 0.253003
vt 0.859066 0.496997
vt 0.859066 0.253003
vt 0.347831 0.096753
vt 0.376307 0.121997
vt 0.376307 0.096753
vt 0.824583 0.815503
vt 0.554727 0.840747
vt 0.824583 0.840747
vt 0.830589 0.503003
vt 0.859066 0.746997
vt 0.859066 0.503003
vt 0.382313 0.065503
vt 0.410790 0.090747
vt 0.410790 0.065503
vt 0.347831 0.065503
vt 0.376307 0.090747
vt 0.376307 0.065503
vt 0.313348 0.159253
vt 0.341825 0.184497
vt 0.341825 0.159253
vt 0.278865 0.159253
vt 0.307342 0.184497
vt 0.307342 0.159253
vt 0.272859 0.871997
vt 0.003003 0.846753
vt 0.003003 0.871997
vt 0.865072 0.003003
vt 0.893549 0.246997
vt 0.893549 0.003003
vt 0.313348 0.128003
vt 0.341825 0.153247
vt 0.341825 0.128003
vt 0.307342 0.128003
vt 0.278865 0.153247
vt 0.307342 0.153247
vt 0.410790 0.159253
vt 0.382313 0.184497
vt 0.410790 0.184497
vt 0.347831 0.159253
vt 0.376307 0.184497
vt 0.376307 0.159253
vt 0.382313 0.128003
vt 0.410790 0.153247
vt 0.410790 0.128003
vt 0.548721 0.846753
vt 0.278865 0.871997
vt 0.548721 0.871997
vt 0.865072 0.253003
vt 0.893549 0.496997
vt 0.893549 0.253003
vt 0.824583 0.846753
vt 0.554727 0.871997
vt 0.824583 0.871997
vt 0.347831 0.128003
vt 0.376307 0.153247
vt 0.376307 0.128003
vt 0.865072 0.503003
vt 0.893549 0.746997
vt 0.893549 0.503003
vt 0.313348 0.221753
vt 0.341825 0.246997
vt 0.341825 0.221753
vt 0.278865 0.221753
vt 0.307342 0.246997
vt 0.307342 0.221753
vt 0.313348 0.190503
vt 0.341825 0.215747
vt 0.341825 0.190503
vt 0.278865 0.190503
vt 0.307342 0.215747
vt 0.307342 0.190503
vt 0.382313 0.221753
vt 0.410790 0.246997
vt 0.410790 0.221753
vt 0.272859 0.878003
vt 0.003003 0.903247
vt 0.272859 0.903247
vt 0.899555 0.003003
vt 0.928032 0.246997
vt 0.928032 0.003003
vt 0.548721 0.878003
vt 0.278865 0.903247
vt 0.548721 0.903247
vt 0.347831 0.221753
vt 0.376307 0.246997
vt 0.376307 0.221753
vt 0.382313 0.190503
vt 0.410790 0.215747
vt 0.410790 0.190503
vt 0.899555 0.253003
vt 0.928032 0.496997
vt 0.928032 0.253003
vt 0.347831 0.190503
vt 0.376307 0.215747
vt 0.376307 0.190503
vt 0.824583 0.878003
vt 0.554727 0.903247
vt 0.824583 0.903247
vt 0.175417 0.284253
vt 0.203894 0.309497
vt 0.203894 0.284253
vt 0.899555 0.503003
vt 0.928032 0.746997
vt 0.928032 0.503003
vt 0.140934 0.284253
vt 0.169411 0.309497
vt 0.169411 0.284253
vt 0.175417 0.253003
vt 0.203894 0.278247
vt 0.203894 0.253003
vt 0.272859 0.934497
vt 0.003003 0.909253
vt 0.003003 0.934497
vt 0.140934 0.253003
vt 0.169411 0.278247
vt 0.169411 0.253003
vt 0.962514 0.003003
vt 0.934038 0.246997
vt 0.962514 0.246997
vt 0.244382 0.284253
vt 0.272859 0.309497
vt 0.272859 0.284253
vt 0.209900 0.284253
vt 0.238376 0.309497
vt 0.238376 0.284253
vt 0.244382 0.253003
vt 0.272859 0.278247
vt 0.272859 0.253003
vt 0.548721 0.403247
vt 0.485762 0.378003
vt 0.485762 0.403247
vt 0.106451 0.003003
vt 0.134928 0.059497
vt 0.134928 0.003003
vt 0.031480 0.006006
vt 0.006006 0.028247
vt 0.031480 0.028247
vt 0.065963 0.037256
vt 0.040489 0.059497
vt 0.065963 0.059497
vt 0.003003 0.003003
vt 0.028477 0.003003
vt 0.003003 0.025244
vt 0.209900 0.253003
vt 0.238376 0.278247
vt 0.238376 0.253003
vt 0.100445 0.465747
vt 0.074972 0.465747
vt 0.100445 0.443506
vt 0.203894 0.346753
vt 0.175417 0.371997
vt 0.203894 0.371997
vt 0.065963 0.006006
vt 0.040489 0.028247
vt 0.065963 0.028247
vt 0.031480 0.037256
vt 0.006006 0.059497
vt 0.031480 0.059497
vt 0.062960 0.003003
vt 0.037486 0.003003
vt 0.037486 0.025244
vt 0.140934 0.346753
vt 0.169411 0.371997
vt 0.169411 0.346753
vt 0.175417 0.315503
vt 0.203894 0.340747
vt 0.203894 0.315503
vt 0.140934 0.315503
vt 0.169411 0.340747
vt 0.169411 0.315503
vt 0.244382 0.346753
vt 0.272859 0.371997
vt 0.272859 0.346753
vt 0.209900 0.346753
vt 0.238376 0.371997
vt 0.238376 0.346753
vt 0.244382 0.315503
vt 0.272859 0.340747
vt 0.272859 0.315503
vt 0.209900 0.315503
vt 0.238376 0.340747
vt 0.238376 0.315503
vt 0.313348 0.284253
vt 0.341825 0.309497
vt 0.341825 0.284253
vt 0.278865 0.284253
vt 0.307342 0.309497
vt 0.307342 0.284253
vt 0.313348 0.253003
vt 0.341825 0.278247
vt 0.341825 0.253003
vt 0.278865 0.253003
vt 0.307342 0.278247
vt 0.307342 0.253003
vt 0.382313 0.284253
vt 0.410790 0.309497
vt 0.410790 0.284253
vt 0.071969 0.003003
vt 0.100445 0.059497
vt 0.100445 0.003003
vt 0.065963 0.065503
vt 0.037486 0.121997
vt 0.065963 0.121997
vt 0.003003 0.065503
vt 0.031480 0.121997
vt 0.031480 0.065503
vt 0.347831 0.284253
vt 0.376307 0.309497
vt 0.376307 0.284253
vt 0.134928 0.065503
vt 0.106451 0.121997
vt 0.134928 0.121997
vt 0.382313 0.253003
vt 0.410790 0.278247
vt 0.410790 0.253003
vt 0.347831 0.253003
vt 0.376307 0.278247
vt 0.376307 0.253003
vt 0.071969 0.065503
vt 0.100445 0.121997
vt 0.100445 0.065503
vt 0.028477 0.034253
vt 0.003003 0.034253
vt 0.003003 0.056494
vt 0.419799 0.434497
vt 0.445273 0.434497
vt 0.445273 0.381006
vt 0.416796 0.431494
vt 0.442270 0.378003
vt 0.416796 0.378003
vt 0.479756 0.378003
vt 0.451279 0.434497
vt 0.479756 0.434497
vt 0.313348 0.346753
vt 0.341825 0.371997
vt 0.341825 0.346753
vt 0.037486 0.034253
vt 0.062960 0.034253
vt 0.037486 0.056494
vt 0.278865 0.346753
vt 0.307342 0.371997
vt 0.307342 0.346753
vt 0.313348 0.315503
vt 0.341825 0.340747
vt 0.341825 0.315503
vt 0.278865 0.315503
vt 0.307342 0.340747
vt 0.307342 0.315503
vt 0.382313 0.346753
vt 0.410790 0.371997
vt 0.410790 0.346753
vt 0.071969 0.462744
vt 0.097442 0.440503
vt 0.071969 0.440503
vt 0.347831 0.346753
vt 0.376307 0.371997
vt 0.376307 0.346753
vt 0.928032 0.753003
vt 0.899555 0.871997
vt 0.928032 0.871997
vt 0.962514 0.903247
vt 0.830589 0.878003
vt 0.830589 0.903247
vt 0.382313 0.315503
vt 0.410790 0.340747
vt 0.410790 0.315503
vt 0.893549 0.753003
vt 0.865072 0.871997
vt 0.893549 0.871997
vt 0.548721 0.471753
vt 0.416796 0.496997
vt 0.548721 0.496997
vt 0.347831 0.315503
vt 0.376307 0.340747
vt 0.376307 0.315503
vt 0.859066 0.753003
vt 0.830589 0.871997
vt 0.859066 0.871997
vt 0.548721 0.440503
vt 0.416796 0.465747
vt 0.548721 0.465747
vt 0.065963 0.409253
vt 0.037486 0.434497
vt 0.065963 0.434497
vt 0.031480 0.409253
vt 0.003003 0.434497
vt 0.031480 0.434497
vt 0.065963 0.378003
vt 0.037486 0.403247
vt 0.065963 0.403247
vt 0.031480 0.378003
vt 0.003003 0.403247
vt 0.031480 0.403247
vt 0.106451 0.409253
vt 0.134928 0.434497
vt 0.134928 0.409253
vt 0.074972 0.496997
vt 0.100445 0.496997
vt 0.100445 0.474756
vt 0.006006 0.465747
vt 0.031480 0.465747
vt 0.031480 0.443506
vt 0.100445 0.409253
vt 0.071969 0.434497
vt 0.100445 0.434497
vt 0.134928 0.378003
vt 0.106451 0.403247
vt 0.134928 0.403247
vt 0.109454 0.465747
vt 0.134928 0.465747
vt 0.134928 0.443506
vt 0.109454 0.496997
vt 0.134928 0.496997
vt 0.134928 0.474756
vt 0.071969 0.378003
vt 0.100445 0.403247
vt 0.100445 0.378003
vt 0.106451 0.462744
vt 0.106451 0.440503
vt 0.131925 0.440503
vt 0.071969 0.493994
vt 0.071969 0.471753
vt 0.097442 0.471753
vt 0.065963 0.471753
vt 0.037486 0.496997
vt 0.065963 0.496997
vt 0.106451 0.493994
vt 0.106451 0.471753
vt 0.131925 0.471753
vt 0.003003 0.462744
vt 0.003003 0.440503
vt 0.028477 0.440503
vt 0.003003 0.471753
vt 0.031480 0.496997
vt 0.031480 0.471753
vt 0.037486 0.440503
vt 0.065963 0.465747
vt 0.065963 0.440503
vt 0.485762 0.434497
vt 0.037486 0.184497
vt 0.003003 0.184497
vt 0.037486 0.153247
vt 0.554727 0.940503
vt 0.968520 0.496997
vt 0.278865 0.940503
vt 0.003003 0.153247
vt 0.968520 0.246997
vt 0.106451 0.184497
vt 0.071969 0.184497
vt 0.106451 0.153247
vt 0.071969 0.153247
vt 0.037486 0.246997
vt 0.003003 0.940503
vt 0.934038 0.746997
vt 0.554727 0.909253
vt 0.003003 0.246997
vt 0.037486 0.215747
vt 0.934038 0.496997
vt 0.003003 0.215747
vt 0.106451 0.246997
vt 0.278865 0.909253
vt 0.796106 0.246997
vt 0.071969 0.246997
vt 0.106451 0.215747
vt 0.140934 0.378003
vt 0.071969 0.215747
vt 0.416796 0.128003
vt 0.451279 0.059497
vt 0.416796 0.059497
vt 0.451279 0.028247
vt 0.416796 0.028247
vt 0.520244 0.034253
vt 0.140934 0.409253
vt 0.451279 0.371997
vt 0.140934 0.440503
vt 0.485762 0.371997
vt 0.140934 0.471753
vt 0.520244 0.128003
vt 0.003003 0.503003
vt 0.554727 0.003003
vt 0.278865 0.503003
vt 0.554727 0.496997
vt 0.489551 0.059497
vt 0.485762 0.059497
vt 0.485762 0.055493
vt 0.485762 0.034253
vt 0.489551 0.034253
vt 0.509781 0.059497
vt 0.514238 0.055493
vt 0.514238 0.059497
vt 0.514238 0.034253
vt 0.003003 0.534253
vt 0.520244 0.028247
vt 0.485762 0.028247
vt 0.589210 0.246997
vt 0.451279 0.121997
vt 0.416796 0.121997
vt 0.451279 0.090747
vt 0.416796 0.090747
vt 0.520244 0.121997
vt 0.485762 0.121997
vt 0.520244 0.090747
vt 0.278865 0.534253
vt 0.589210 0.253003
vt 0.003003 0.565503
vt 0.485762 0.090747
vt 0.623693 0.246997
vt 0.175417 0.059497
vt 0.140934 0.059497
vt 0.175417 0.028247
vt 0.140934 0.028247
vt 0.244382 0.059497
vt 0.548721 0.565503
vt 0.623693 0.496997
vt 0.209900 0.059497
vt 0.003003 0.596753
vt 0.244382 0.028247
vt 0.658175 0.246997
vt 0.209900 0.028247
vt 0.548721 0.596753
vt 0.175417 0.121997
vt 0.658175 0.496997
vt 0.140934 0.121997
vt 0.175417 0.090747
vt 0.003003 0.628003
vt 0.140934 0.090747
vt 0.692658 0.246997
vt 0.244382 0.121997
vt 0.209900 0.121997
vt 0.244382 0.090747
vt 0.209900 0.090747
vt 0.175417 0.184497
vt 0.278865 0.628003
vt 0.692658 0.496997
vt 0.003003 0.659253
vt 0.140934 0.184497
vt 0.727141 0.246997
vt 0.175417 0.153247
vt 0.140934 0.153247
vt 0.244382 0.184497
vt 0.209900 0.184497
vt 0.244382 0.153247
vt 0.548721 0.659253
vt 0.727141 0.496997
vt 0.209900 0.153247
vt 0.003003 0.690503
vt 0.175417 0.246997
vt 0.761624 0.246997
vt 0.140934 0.246997
vt 0.278865 0.690503
vt 0.175417 0.215747
vt 0.761624 0.496997
vt 0.140934 0.215747
vt 0.244382 0.246997
vt 0.272859 0.971753
vt 0.209900 0.246997
vt 0.796106 0.253003
vt 0.244382 0.215747
vt 0.209900 0.215747
vt 0.037486 0.309497
vt 0.003003 0.309497
vt 0.037486 0.278247
vt 0.003003 0.721753
vt 0.554727 0.746997
vt 0.278865 0.721753
vt 0.003003 0.278247
vt 0.589210 0.503003
vt 0.106451 0.309497
vt 0.071969 0.309497
vt 0.106451 0.278247
vt 0.071969 0.278247
vt 0.037486 0.371997
vt 0.003003 0.753003
vt 0.623693 0.746997
vt 0.003003 0.371997
vt 0.278865 0.753003
vt 0.037486 0.340747
vt 0.658175 0.746997
vt 0.003003 0.340747
vt 0.554727 0.753003
vt 0.692658 0.746997
vt 0.106451 0.371997
vt 0.071969 0.371997
vt 0.106451 0.340747
vt 0.272859 0.784253
vt 0.071969 0.340747
vt 0.755618 0.503003
vt 0.313348 0.059497
vt 0.278865 0.059497
vt 0.313348 0.028247
vt 0.278865 0.028247
vt 0.382313 0.059497
vt 0.278865 0.784253
vt 0.761624 0.746997
vt 0.554727 0.784253
vt 0.347831 0.059497
vt 0.796106 0.746997
vt 0.382313 0.028247
vt 0.347831 0.028247
vt 0.313348 0.121997
vt 0.278865 0.121997
vt 0.313348 0.090747
vt 0.003003 0.815503
vt 0.830589 0.246997
vt 0.278865 0.090747
vt 0.548721 0.815503
vt 0.382313 0.121997
vt 0.830589 0.496997
vt 0.347831 0.121997
vt 0.554727 0.815503
vt 0.830589 0.746997
vt 0.382313 0.090747
vt 0.347831 0.090747
vt 0.313348 0.184497
vt 0.278865 0.184497
vt 0.272859 0.846753
vt 0.865072 0.246997
vt 0.313348 0.153247
vt 0.278865 0.128003
vt 0.382313 0.159253
vt 0.347831 0.184497
vt 0.382313 0.153247
vt 0.278865 0.846753
vt 0.865072 0.496997
vt 0.554727 0.846753
vt 0.347831 0.153247
vt 0.865072 0.746997
vt 0.313348 0.246997
vt 0.278865 0.246997
vt 0.313348 0.215747
vt 0.278865 0.215747
vt 0.382313 0.246997
vt 0.003003 0.878003
vt 0.899555 0.246997
vt 0.278865 0.878003
vt 0.347831 0.246997
vt 0.382313 0.215747
vt 0.899555 0.496997
vt 0.347831 0.215747
vt 0.554727 0.878003
vt 0.175417 0.309497
vt 0.899555 0.746997
vt 0.140934 0.309497
vt 0.175417 0.278247
vt 0.272859 0.909253
vt 0.140934 0.278247
vt 0.934038 0.003003
vt 0.244382 0.309497
vt 0.209900 0.309497
vt 0.244382 0.278247
vt 0.548721 0.378003
vt 0.106451 0.059497
vt 0.209900 0.278247
vt 0.175417 0.346753
vt 0.140934 0.371997
vt 0.175417 0.340747
vt 0.140934 0.340747
vt 0.244382 0.371997
vt 0.209900 0.371997
vt 0.244382 0.340747
vt 0.209900 0.340747
vt 0.313348 0.309497
vt 0.278865 0.309497
vt 0.313348 0.278247
vt 0.278865 0.278247
vt 0.382313 0.309497
vt 0.071969 0.059497
vt 0.037486 0.065503
vt 0.003003 0.121997
vt 0.347831 0.309497
vt 0.106451 0.065503
vt 0.382313 0.278247
vt 0.347831 0.278247
vt 0.071969 0.121997
vt 0.451279 0.378003
vt 0.313348 0.371997
vt 0.278865 0.371997
vt 0.313348 0.340747
vt 0.278865 0.340747
vt 0.382313 0.371997
vt 0.347831 0.371997
vt 0.899555 0.753003
vt 0.962514 0.878003
vt 0.382313 0.340747
vt 0.865072 0.753003
vt 0.416796 0.471753
vt 0.347831 0.340747
vt 0.830589 0.753003
vt 0.416796 0.440503
vt 0.037486 0.409253
vt 0.003003 0.409253
vt 0.037486 0.378003
vt 0.003003 0.378003
vt 0.106451 0.434497
vt 0.071969 0.409253
vt 0.106451 0.378003
vt 0.071969 0.403247
vt 0.037486 0.471753
vt 0.003003 0.496997
vt 0.037486 0.465747
s 1
usemtl Fried_Foods.002
f 280/769/14 282/770/15 276/771/16
f 279/772/17 282/773/15 281/774/18
f 285/775/19 278/776/20 286/777/21
f 274/778/22 280/779/14 276/780/16
f 280/781/14 285/782/19 281/783/18
f 274/784/22 288/785/23 283/786/24
f 278/787/20 283/788/24 284/789/25
f 277/790/26 283/791/24 273/792/27
f 277/793/26 286/794/21 284/795/25
f 275/796/28 287/797/29 282/798/15
f 288/799/23 275/800/28 273/801/27
f 281/802/18 285/803/19 279/804/17
f 284/805/25 286/806/21 278/807/20
f 285/808/19 277/809/26 279/810/17
f 283/811/24 288/812/23 273/813/27
f 282/814/15 287/815/29 276/816/16
f 274/817/22 287/818/29 288/819/23
f 277/820/26 275/821/28 279/822/17
f 280/769/14 281/1075/18 282/770/15
f 279/772/17 275/1076/28 282/773/15
f 285/775/19 280/1077/14 278/776/20
f 274/778/22 278/1078/20 280/779/14
f 278/787/20 274/1079/22 283/788/24
f 277/790/26 284/1080/25 283/791/24
f 288/799/23 287/1081/29 275/800/28
f 285/808/19 286/1082/21 277/809/26
f 274/817/22 276/1083/16 287/818/29
f 277/820/26 273/1084/27 275/821/28
s 0
usemtl Material.002
f 4/1/1 2/2/1 1/3/1
f 2/4/1 3/5/1 1/6/1
f 7/7/1 1/8/1 3/9/1
f 5/10/1 4/11/1 1/12/1
f 9/13/2 5/14/2 6/15/2
f 7/16/2 6/17/2 5/18/2
f 8/19/3 10/20/3 4/21/3
f 9/22/4 12/23/4 10/24/4
f 4/25/3 11/26/3 21/27/3
f 11/28/4 12/29/4 14/30/4
f 6/31/4 13/32/4 12/33/4
f 15/34/4 12/35/4 13/36/4
f 17/37/4 14/38/4 15/39/4
f 16/40/4 11/41/4 14/42/4
f 18/43/5 17/44/5 22/45/5
f 20/46/5 16/47/5 18/48/5
f 19/49/3 21/50/3 11/51/3
f 20/52/1 2/53/1 21/54/1
f 18/55/1 24/56/1 2/57/1
f 29/58/5 22/59/5 17/60/5
f 22/61/1 25/62/1 24/63/1
f 25/64/1 3/65/1 24/66/1
f 25/67/6 28/68/6 26/69/6
f 23/70/6 27/71/6 25/72/6
f 28/73/4 15/74/4 13/75/4
f 29/76/4 15/77/4 27/78/4
f 30/79/6 26/80/6 28/81/6
f 32/82/4 28/83/4 13/84/4
f 7/85/2 30/86/2 32/87/2
f 31/88/1 3/89/1 26/90/1
f 36/91/1 34/92/1 33/93/1
f 34/94/1 35/95/1 33/96/1
f 39/97/1 33/98/1 35/99/1
f 33/100/1 40/101/1 36/102/1
f 41/103/6 37/104/6 38/105/6
f 39/106/6 38/107/6 37/108/6
f 40/109/2 42/110/2 36/111/2
f 36/112/2 43/113/2 56/114/2
f 45/115/5 46/116/5 44/117/5
f 46/118/5 47/119/5 44/120/5
f 60/121/6 48/122/6 39/123/6
f 49/124/5 50/125/5 47/126/5
f 53/127/3 51/128/3 57/129/3
f 55/130/3 52/131/3 53/132/3
f 47/133/4 52/134/4 43/135/4
f 54/136/2 56/137/2 43/138/2
f 55/139/1 34/140/1 56/141/1
f 53/142/1 59/143/1 34/144/1
f 50/145/3 57/146/3 51/147/3
f 57/148/1 49/149/1 59/150/1
f 49/151/1 35/152/1 59/153/1
f 60/154/1 35/155/1 46/156/1
f 65/157/1 62/158/1 61/159/1
f 62/160/1 63/161/1 61/162/1
f 92/163/1 61/164/1 63/165/1
f 68/166/1 61/167/1 64/168/1
f 65/169/3 77/170/3 66/171/3
f 65/172/3 69/173/3 67/174/3
f 69/175/2 64/176/2 70/177/2
f 67/178/4 70/179/4 72/180/4
f 92/181/2 70/182/2 64/183/2
f 70/184/4 73/185/4 72/186/4
f 75/187/4 72/188/4 73/189/4
f 77/190/4 72/191/4 74/192/4
f 82/193/4 74/194/4 75/195/4
f 78/196/4 74/197/4 76/198/4
f 77/199/3 79/200/3 66/201/3
f 79/202/5 76/203/5 80/204/5
f 66/205/1 80/206/1 62/207/1
f 80/208/5 82/209/5 81/210/5
f 80/211/1 83/212/1 62/213/1
f 85/214/5 81/215/5 82/216/5
f 84/217/1 83/218/1 81/219/1
f 86/220/6 85/221/6 88/222/6
f 86/223/1 63/224/1 83/225/1
f 86/226/6 89/227/6 87/228/6
f 89/229/4 75/230/4 73/231/4
f 88/232/4 82/233/4 75/234/4
f 90/235/6 87/236/6 89/237/6
f 90/238/4 73/239/4 71/240/4
f 91/241/2 71/242/2 92/243/2
f 87/244/1 92/245/1 63/246/1
f 97/247/1 94/248/1 93/249/1
f 94/250/1 95/251/1 93/252/1
f 124/253/1 93/254/1 95/255/1
f 100/256/1 93/257/1 96/258/1
f 97/259/3 109/260/3 98/261/3
f 100/262/3 99/263/3 97/264/3
f 101/265/2 96/266/2 102/267/2
f 99/268/4 102/269/4 104/270/4
f 124/271/2 102/272/2 96/273/2
f 102/274/4 105/275/4 104/276/4
f 109/277/4 104/278/4 106/279/4
f 107/280/4 104/281/4 105/282/4
f 114/283/4 106/284/4 107/285/4
f 110/286/4 106/287/4 108/288/4
f 109/289/3 111/290/3 98/291/3
f 111/292/5 108/293/5 112/294/5
f 98/295/1 112/296/1 94/297/1
f 112/298/5 114/299/5 113/300/5
f 112/301/1 115/302/1 94/303/1
f 117/304/5 113/305/5 114/306/5
f 116/307/1 115/308/1 113/309/1
f 116/310/6 120/311/6 118/312/6
f 118/313/1 95/314/1 115/315/1
f 118/316/6 121/317/6 119/318/6
f 121/319/4 107/320/4 105/321/4
f 120/322/4 114/323/4 107/324/4
f 121/325/6 123/326/6 119/327/6
f 122/328/4 105/329/4 103/330/4
f 124/331/2 122/332/2 103/333/2
f 119/334/1 124/335/1 95/336/1
f 129/337/1 126/338/1 125/339/1
f 126/340/1 127/341/1 125/342/1
f 156/343/1 125/344/1 127/345/1
f 132/346/1 125/347/1 128/348/1
f 129/349/3 141/350/3 130/351/3
f 132/352/3 131/353/3 129/354/3
f 133/355/2 128/356/2 134/357/2
f 131/358/4 134/359/4 136/360/4
f 128/361/2 135/362/2 134/363/2
f 134/364/4 137/365/4 136/366/4
f 139/367/4 136/368/4 137/369/4
f 141/370/4 136/371/4 138/372/4
f 146/373/4 138/374/4 139/375/4
f 142/376/4 138/377/4 140/378/4
f 142/379/3 130/380/3 141/381/3
f 143/382/5 140/383/5 144/384/5
f 130/385/1 144/386/1 126/387/1
f 144/388/5 146/389/5 145/390/5
f 144/391/1 147/392/1 126/393/1
f 149/394/5 145/395/5 146/396/5
f 148/397/1 147/398/1 145/399/1
f 148/400/6 152/401/6 150/402/6
f 150/403/6 153/404/6 151/405/6
f 150/406/1 127/407/1 147/408/1
f 153/409/4 139/410/4 137/411/4
f 152/412/4 146/413/4 139/414/4
f 153/415/6 155/416/6 151/417/6
f 154/418/4 137/419/4 135/420/4
f 135/421/2 155/422/2 154/423/2
f 151/424/1 156/425/1 127/426/1
f 158/427/1 159/428/1 157/429/1
f 161/430/1 158/431/1 157/432/1
f 188/433/1 157/434/1 159/435/1
f 164/436/1 157/437/1 160/438/1
f 161/439/3 173/440/3 162/441/3
f 164/442/3 163/443/3 161/444/3
f 165/445/2 160/446/2 166/447/2
f 163/448/4 166/449/4 168/450/4
f 188/451/2 166/452/2 160/453/2
f 166/454/4 169/455/4 168/456/4
f 171/457/4 168/458/4 169/459/4
f 173/460/4 168/461/4 170/462/4
f 178/463/4 170/464/4 171/465/4
f 174/466/4 170/467/4 172/468/4
f 174/469/3 162/470/3 173/471/3
f 175/472/5 172/473/5 176/474/5
f 162/475/1 176/476/1 158/477/1
f 177/478/5 172/479/5 178/480/5
f 176/481/1 179/482/1 158/483/1
f 181/484/5 177/485/5 178/486/5
f 180/487/1 179/488/1 177/489/1
f 180/490/6 184/491/6 182/492/6
f 182/493/6 185/494/6 183/495/6
f 182/496/1 159/497/1 179/498/1
f 185/499/4 171/500/4 169/501/4
f 184/502/4 178/503/4 171/504/4
f 186/505/4 169/506/4 167/507/4
f 185/508/6 187/509/6 183/510/6
f 187/511/2 167/512/2 188/513/2
f 183/514/1 188/515/1 159/516/1
f 191/517/1 190/518/1 211/519/1
f 189/520/1 194/521/1 190/522/1
f 220/523/1 189/524/1 191/525/1
f 196/526/1 189/527/1 192/528/1
f 193/529/3 203/530/3 194/531/3
f 196/532/3 195/533/3 193/534/3
f 197/535/2 192/536/2 198/537/2
f 195/538/4 198/539/4 200/540/4
f 220/541/2 198/542/2 192/543/2
f 198/544/4 201/545/4 200/546/4
f 203/547/4 200/548/4 202/549/4
f 204/550/4 200/551/4 201/552/4
f 208/553/4 202/554/4 205/555/4
f 206/556/4 202/557/4 204/558/4
f 207/559/5 206/560/5 210/561/5
f 209/562/5 205/563/5 207/564/5
f 208/565/3 194/566/3 203/567/3
f 194/568/1 207/569/1 190/570/1
f 207/571/1 211/572/1 190/573/1
f 213/574/5 210/575/5 206/576/5
f 212/577/1 211/578/1 210/579/1
f 212/580/6 216/581/6 214/582/6
f 214/583/1 191/584/1 211/585/1
f 214/586/6 217/587/6 215/588/6
f 217/589/4 204/590/4 201/591/4
f 216/592/4 206/593/4 204/594/4
f 217/595/6 219/596/6 215/597/6
f 218/598/4 201/599/4 199/600/4
f 220/601/2 218/602/2 199/603/2
f 215/604/1 220/605/1 191/606/1
f 242/607/4 221/608/4 223/609/4
f 226/610/4 221/611/4 222/612/4
f 223/613/4 224/614/4 260/615/4
f 225/616/4 224/617/4 221/618/4
f 225/619/7 226/620/7 229/621/7
f 227/622/8 225/623/8 228/624/8
f 225/625/6 229/626/6 228/627/6
f 233/628/3 229/629/3 231/630/3
f 226/631/3 230/632/3 229/633/3
f 232/634/3 229/635/3 230/636/3
f 235/637/9 231/638/9 232/639/9
f 234/640/10 233/641/10 231/642/10
f 235/643/11 234/644/11 231/645/11
f 234/646/1 237/647/1 239/648/1
f 232/649/3 236/650/3 235/651/3
f 235/652/5 240/653/5 237/654/5
f 240/655/5 238/656/5 237/657/5
f 253/658/1 237/659/1 238/660/1
f 222/661/4 241/662/4 240/663/4
f 236/664/4 222/665/4 240/666/4
f 241/667/5 244/668/5 238/669/5
f 245/670/4 241/671/4 242/672/4
f 245/673/6 244/674/6 243/675/6
f 246/676/6 247/677/6 249/678/6
f 247/679/4 242/680/4 223/681/4
f 248/682/4 223/683/4 260/684/4
f 249/685/6 248/686/6 250/687/6
f 249/688/1 252/689/1 251/690/1
f 246/691/1 251/692/1 253/693/1
f 254/694/1 252/695/1 255/696/1
f 239/697/1 251/698/1 254/699/1
f 256/700/1 239/701/1 254/702/1
f 257/703/1 254/704/1 255/705/1
f 234/706/12 256/707/12 233/708/12
f 256/709/13 257/710/13 258/711/13
f 256/712/3 258/713/3 233/714/3
f 228/715/3 258/716/3 259/717/3
f 259/718/6 257/719/6 227/720/6
f 227/721/3 228/722/3 259/723/3
f 227/724/2 255/725/2 224/726/2
f 224/727/5 252/728/5 255/729/5
f 244/730/1 253/731/1 238/732/1
f 250/733/2 260/734/2 252/735/2
f 226/736/6 236/737/6 230/738/6
f 263/739/3 262/740/3 261/741/3
f 266/742/5 261/743/5 262/744/5
f 264/745/1 263/746/1 261/747/1
f 265/748/6 266/749/6 267/750/6
f 267/751/4 262/752/4 268/753/4
f 270/754/4 267/755/4 268/756/4
f 269/757/6 265/758/6 267/759/6
f 271/760/2 270/761/2 272/762/2
f 271/763/1 263/764/1 265/765/1
f 263/766/3 270/767/3 268/768/3
f 4/1/1 21/823/1 2/2/1
f 2/4/1 24/824/1 3/5/1
f 7/7/1 5/825/1 1/8/1
f 5/10/1 8/826/1 4/11/1
f 9/13/2 8/827/2 5/14/2
f 7/16/2 32/828/2 6/17/2
f 8/19/3 9/829/3 10/20/3
f 9/22/4 6/830/4 12/23/4
f 4/25/3 10/831/3 11/26/3
f 11/28/4 10/832/4 12/29/4
f 6/31/4 32/833/4 13/32/4
f 15/34/4 14/834/4 12/35/4
f 17/37/4 16/835/4 14/38/4
f 16/40/4 19/836/4 11/41/4
f 18/43/5 16/837/5 17/44/5
f 20/46/5 19/838/5 16/47/5
f 19/49/3 20/839/3 21/50/3
f 20/52/1 18/840/1 2/53/1
f 18/55/1 22/841/1 24/56/1
f 29/58/5 23/842/5 22/59/5
f 22/61/1 23/843/1 25/62/1
f 25/64/1 26/844/1 3/65/1
f 25/67/6 27/845/6 28/68/6
f 23/70/6 29/846/6 27/71/6
f 28/73/4 27/847/4 15/74/4
f 29/76/4 17/848/4 15/77/4
f 30/79/6 31/849/6 26/80/6
f 32/82/4 30/850/4 28/83/4
f 7/85/2 31/851/2 30/86/2
f 31/88/1 7/852/1 3/89/1
f 36/91/1 56/853/1 34/92/1
f 34/94/1 59/854/1 35/95/1
f 39/97/1 37/855/1 33/98/1
f 33/100/1 37/856/1 40/101/1
f 41/103/6 40/857/6 37/104/6
f 39/106/6 48/858/6 38/107/6
f 40/109/2 41/859/2 42/110/2
f 36/112/2 42/860/2 43/113/2
f 45/115/5 60/861/5 46/116/5
f 46/118/5 49/862/5 47/119/5
f 60/121/6 45/863/6 48/122/6
f 49/124/5 58/864/5 50/125/5
f 53/127/3 52/865/3 51/128/3
f 55/130/3 54/866/3 52/131/3
f 48/867/4 45/868/4 44/869/4
f 47/133/4 50/870/4 51/871/4
f 48/867/4 44/869/4 38/872/4
f 44/869/4 47/133/4 42/873/4
f 38/872/4 44/869/4 42/873/4
f 42/873/4 41/874/4 38/872/4
f 47/133/4 51/871/4 52/134/4
f 52/134/4 54/875/4 43/135/4
f 43/135/4 42/873/4 47/133/4
f 54/136/2 55/876/2 56/137/2
f 55/139/1 53/877/1 34/140/1
f 53/142/1 57/878/1 59/143/1
f 50/145/3 58/879/3 57/146/3
f 57/148/1 58/880/1 49/149/1
f 49/151/1 46/881/1 35/152/1
f 60/154/1 39/882/1 35/155/1
f 65/157/1 66/883/1 62/158/1
f 62/160/1 83/884/1 63/161/1
f 92/163/1 64/885/1 61/164/1
f 68/166/1 65/886/1 61/167/1
f 65/169/3 67/887/3 77/170/3
f 65/172/3 68/888/3 69/173/3
f 69/175/2 68/889/2 64/176/2
f 67/178/4 69/890/4 70/179/4
f 92/181/2 71/891/2 70/182/2
f 70/184/4 71/892/4 73/185/4
f 75/187/4 74/893/4 72/188/4
f 77/190/4 67/894/4 72/191/4
f 82/193/4 76/895/4 74/194/4
f 78/196/4 77/896/4 74/197/4
f 77/199/3 78/897/3 79/200/3
f 79/202/5 78/898/5 76/203/5
f 66/205/1 79/899/1 80/206/1
f 80/208/5 76/900/5 82/209/5
f 80/211/1 81/901/1 83/212/1
f 85/214/5 84/902/5 81/215/5
f 84/217/1 86/903/1 83/218/1
f 86/220/6 84/904/6 85/221/6
f 86/223/1 87/905/1 63/224/1
f 86/226/6 88/906/6 89/227/6
f 89/229/4 88/907/4 75/230/4
f 88/232/4 85/908/4 82/233/4
f 90/235/6 91/909/6 87/236/6
f 90/238/4 89/910/4 73/239/4
f 91/241/2 90/911/2 71/242/2
f 87/244/1 91/912/1 92/245/1
f 97/247/1 98/913/1 94/248/1
f 94/250/1 115/914/1 95/251/1
f 124/253/1 96/915/1 93/254/1
f 100/256/1 97/916/1 93/257/1
f 97/259/3 99/917/3 109/260/3
f 100/262/3 101/918/3 99/263/3
f 101/265/2 100/919/2 96/266/2
f 99/268/4 101/920/4 102/269/4
f 124/271/2 103/921/2 102/272/2
f 102/274/4 103/922/4 105/275/4
f 109/277/4 99/923/4 104/278/4
f 107/280/4 106/924/4 104/281/4
f 114/283/4 108/925/4 106/284/4
f 110/286/4 109/926/4 106/287/4
f 109/289/3 110/927/3 111/290/3
f 111/292/5 110/928/5 108/293/5
f 98/295/1 111/929/1 112/296/1
f 112/298/5 108/930/5 114/299/5
f 112/301/1 113/931/1 115/302/1
f 117/304/5 116/932/5 113/305/5
f 116/307/1 118/933/1 115/308/1
f 116/310/6 117/934/6 120/311/6
f 118/313/1 119/935/1 95/314/1
f 118/316/6 120/936/6 121/317/6
f 121/319/4 120/937/4 107/320/4
f 120/322/4 117/938/4 114/323/4
f 121/325/6 122/939/6 123/326/6
f 122/328/4 121/940/4 105/329/4
f 124/331/2 123/941/2 122/332/2
f 119/334/1 123/942/1 124/335/1
f 129/337/1 130/943/1 126/338/1
f 126/340/1 147/944/1 127/341/1
f 156/343/1 128/945/1 125/344/1
f 132/346/1 129/946/1 125/347/1
f 129/349/3 131/947/3 141/350/3
f 132/352/3 133/948/3 131/353/3
f 133/355/2 132/949/2 128/356/2
f 131/358/4 133/950/4 134/359/4
f 128/361/2 156/951/2 135/362/2
f 134/364/4 135/952/4 137/365/4
f 139/367/4 138/953/4 136/368/4
f 141/370/4 131/954/4 136/371/4
f 146/373/4 140/955/4 138/374/4
f 142/376/4 141/956/4 138/377/4
f 142/379/3 143/957/3 130/380/3
f 143/382/5 142/958/5 140/383/5
f 130/385/1 143/959/1 144/386/1
f 144/388/5 140/960/5 146/389/5
f 144/391/1 145/961/1 147/392/1
f 149/394/5 148/962/5 145/395/5
f 148/397/1 150/963/1 147/398/1
f 148/400/6 149/964/6 152/401/6
f 150/403/6 152/965/6 153/404/6
f 150/406/1 151/966/1 127/407/1
f 153/409/4 152/967/4 139/410/4
f 152/412/4 149/968/4 146/413/4
f 153/415/6 154/969/6 155/416/6
f 154/418/4 153/970/4 137/419/4
f 135/421/2 156/971/2 155/422/2
f 151/424/1 155/972/1 156/425/1
f 158/427/1 179/973/1 159/428/1
f 161/430/1 162/974/1 158/431/1
f 188/433/1 160/975/1 157/434/1
f 164/436/1 161/976/1 157/437/1
f 161/439/3 163/977/3 173/440/3
f 164/442/3 165/978/3 163/443/3
f 165/445/2 164/979/2 160/446/2
f 163/448/4 165/980/4 166/449/4
f 188/451/2 167/981/2 166/452/2
f 166/454/4 167/982/4 169/455/4
f 171/457/4 170/983/4 168/458/4
f 173/460/4 163/984/4 168/461/4
f 178/463/4 172/985/4 170/464/4
f 174/466/4 173/986/4 170/467/4
f 174/469/3 175/987/3 162/470/3
f 175/472/5 174/988/5 172/473/5
f 162/475/1 175/989/1 176/476/1
f 177/478/5 176/990/5 172/479/5
f 176/481/1 177/991/1 179/482/1
f 181/484/5 180/992/5 177/485/5
f 180/487/1 182/993/1 179/488/1
f 180/490/6 181/994/6 184/491/6
f 182/493/6 184/995/6 185/494/6
f 182/496/1 183/996/1 159/497/1
f 185/499/4 184/997/4 171/500/4
f 184/502/4 181/998/4 178/503/4
f 186/505/4 185/999/4 169/506/4
f 185/508/6 186/1000/6 187/509/6
f 187/511/2 186/1001/2 167/512/2
f 183/514/1 187/1002/1 188/515/1
f 191/517/1 189/1003/1 190/518/1
f 189/520/1 193/1004/1 194/521/1
f 220/523/1 192/1005/1 189/524/1
f 196/526/1 193/1006/1 189/527/1
f 193/529/3 195/1007/3 203/530/3
f 196/532/3 197/1008/3 195/533/3
f 197/535/2 196/1009/2 192/536/2
f 195/538/4 197/1010/4 198/539/4
f 220/541/2 199/1011/2 198/542/2
f 198/544/4 199/1012/4 201/545/4
f 203/547/4 195/1013/4 200/548/4
f 204/550/4 202/1014/4 200/551/4
f 208/553/4 203/1015/4 202/554/4
f 206/556/4 205/1016/4 202/557/4
f 207/559/5 205/1017/5 206/560/5
f 209/562/5 208/1018/5 205/563/5
f 208/565/3 209/1019/3 194/566/3
f 194/568/1 209/1020/1 207/569/1
f 207/571/1 210/1021/1 211/572/1
f 213/574/5 212/1022/5 210/575/5
f 212/577/1 214/1023/1 211/578/1
f 212/580/6 213/1024/6 216/581/6
f 214/583/1 215/1025/1 191/584/1
f 214/586/6 216/1026/6 217/587/6
f 217/589/4 216/1027/4 204/590/4
f 216/592/4 213/1028/4 206/593/4
f 217/595/6 218/1029/6 219/596/6
f 218/598/4 217/1030/4 201/599/4
f 220/601/2 219/1031/2 218/602/2
f 215/604/1 219/1032/1 220/605/1
f 242/607/4 222/1033/4 221/608/4
f 226/610/4 225/1034/4 221/611/4
f 223/613/4 221/1035/4 224/614/4
f 225/616/4 227/1036/4 224/617/4
f 233/628/3 228/1037/3 229/629/3
f 232/634/3 231/1038/3 229/635/3
f 234/646/1 235/1039/1 237/647/1
f 232/649/3 230/1040/3 236/650/3
f 235/652/5 236/1041/5 240/653/5
f 240/655/5 241/1042/5 238/656/5
f 253/658/1 239/1043/1 237/659/1
f 222/661/4 242/1044/4 241/662/4
f 236/664/4 226/1045/4 222/665/4
f 241/667/5 243/1046/5 244/668/5
f 245/670/4 243/1047/4 241/671/4
f 245/673/6 246/1048/6 244/674/6
f 246/676/6 245/1049/6 247/677/6
f 247/679/4 245/1050/4 242/680/4
f 248/682/4 247/1051/4 223/683/4
f 249/685/6 247/1052/6 248/686/6
f 249/688/1 250/1053/1 252/689/1
f 246/691/1 249/1054/1 251/692/1
f 254/694/1 251/1055/1 252/695/1
f 239/697/1 253/1056/1 251/698/1
f 256/700/1 234/1057/1 239/701/1
f 257/703/1 256/1058/1 254/704/1
f 228/715/3 233/1059/3 258/716/3
f 259/718/6 258/1060/6 257/719/6
f 227/724/2 257/1061/2 255/725/2
f 224/727/5 260/1062/5 252/728/5
f 244/730/1 246/1063/1 253/731/1
f 250/733/2 248/1064/2 260/734/2
f 263/739/3 268/1065/3 262/740/3
f 266/742/5 264/1066/5 261/743/5
f 264/745/1 265/1067/1 263/746/1
f 265/748/6 264/1068/6 266/749/6
f 267/751/4 266/1069/4 262/752/4
f 270/754/4 269/1070/4 267/755/4
f 269/757/6 271/1071/6 265/758/6
f 271/760/2 269/1072/2 270/761/2
f 271/763/1 272/1073/1 263/764/1
f 263/766/3 272/1074/3 270/767/3
