# Blender 4.0.2
# www.blender.org
mtllib control.mtl
o Cube
v 1.000000 3.000000 -0.215283
v 1.000000 5.000000 -0.215283
v 1.000000 3.000000 0.165283
v 1.000000 5.000000 0.165283
v -1.000000 3.000000 -0.215283
v -1.000000 5.000000 -0.215283
v -1.000000 3.000000 0.165283
v -1.000000 5.000000 0.165283
v -0.622528 3.000000 0.165283
v -0.622528 5.000000 0.165283
v -0.622528 3.000000 -0.215283
v -0.622528 5.000000 -0.215283
v -0.546092 3.000000 0.165283
v -0.546092 5.000000 -0.215283
v -0.546092 5.000000 0.165283
v -0.546092 3.000000 -0.215283
v -0.381306 3.000000 0.165283
v -0.381306 5.000000 -0.215283
v -0.381306 5.000000 0.165283
v -0.381306 3.000000 -0.215283
v -0.308168 3.000000 0.165283
v -0.308168 5.000000 -0.215283
v -0.308168 5.000000 0.165283
v -0.308168 3.000000 -0.215283
v -0.137687 3.000000 0.165283
v -0.137687 5.000000 -0.215283
v -0.137687 5.000000 0.165283
v -0.137687 3.000000 -0.215283
v -0.071540 3.000000 0.165283
v -0.071540 5.000000 -0.215283
v -0.071540 5.000000 0.165283
v -0.071540 3.000000 -0.215283
v 1.000000 4.687827 -0.215283
v 1.000000 4.687827 0.165283
v -1.000000 4.687827 0.165283
v -1.000000 4.687827 -0.215283
v -0.622528 4.687827 -0.215283
v -0.622528 4.687827 0.215283
v -0.546092 4.687827 0.215283
v -0.546092 4.687827 -0.215283
v -0.381306 4.687827 0.215283
v -0.381306 4.687827 -0.215283
v -0.308168 4.687827 0.215283
v -0.308168 4.687827 -0.215283
v -0.137687 4.687827 0.215283
v -0.137687 4.687827 -0.215283
v -0.071540 4.687827 0.215283
v -0.071540 4.687827 -0.215283
v 1.000000 4.541080 0.165283
v -1.000000 4.541080 0.165283
v -1.000000 4.541080 -0.215283
v -0.622528 4.541080 -0.215283
v -0.622528 4.541080 0.215283
v -0.546092 4.541080 0.215283
v -0.546092 4.541080 -0.215283
v -0.381306 4.541080 0.215283
v -0.381306 4.541080 -0.215283
v -0.308168 4.541080 0.215283
v -0.308168 4.541080 -0.215283
v -0.137687 4.541080 0.215283
v -0.137687 4.541080 -0.215283
v -0.071540 4.541080 0.215283
v -0.071540 4.541080 -0.215283
v 1.000000 4.541080 -0.215283
v 1.000000 4.356488 0.165283
v -1.000000 4.356488 0.165283
v -1.000000 4.356488 -0.215283
v -0.622528 4.356488 -0.215283
v -0.622528 4.356488 0.215283
v -0.546092 4.356488 0.215283
v -0.546092 4.356488 -0.215283
v -0.381306 4.356488 0.215283
v -0.381306 4.356488 -0.215283
v -0.308168 4.356488 0.215283
v -0.308168 4.356488 -0.215283
v -0.137687 4.356488 0.215283
v -0.137687 4.356488 -0.215283
v -0.071540 4.356488 0.215283
v -0.071540 4.356488 -0.215283
v 1.000000 4.356488 -0.215283
v 1.000000 4.208576 0.165283
v -1.000000 4.208576 0.165283
v -1.000000 4.208576 -0.215283
v -0.622528 4.208576 -0.215283
v -0.622528 4.208576 0.215283
v -0.546092 4.208576 0.215283
v -0.546092 4.208576 -0.215283
v -0.381306 4.208576 0.215283
v -0.381306 4.208576 -0.215283
v -0.308168 4.208576 0.215283
v -0.308168 4.208576 -0.215283
v -0.137687 4.208576 0.215283
v -0.137687 4.208576 -0.215283
v -0.071540 4.208576 0.215283
v -0.071540 4.208576 -0.215283
v 1.000000 4.208576 -0.215283
v 1.000000 4.002370 0.165283
v -1.000000 4.002370 0.165283
v -1.000000 4.002370 -0.215283
v -0.622528 4.002370 -0.215283
v -0.622528 4.002370 0.215283
v -0.546092 4.002370 0.215283
v -0.546092 4.002370 -0.215283
v -0.381306 4.002370 0.215283
v -0.381306 4.002370 -0.215283
v -0.308168 4.002370 0.215283
v -0.308168 4.002370 -0.215283
v -0.137687 4.002370 0.215283
v -0.137687 4.002370 -0.215283
v -0.071540 4.002370 0.215283
v -0.071540 4.002370 -0.215283
v 1.000000 4.002370 -0.215283
v 1.000000 3.840759 0.165283
v -1.000000 3.840759 0.165283
v -1.000000 3.840759 -0.215283
v -0.622528 3.840759 -0.215283
v -0.622528 3.840759 0.215283
v -0.546092 3.840759 0.215283
v -0.546092 3.840759 -0.215283
v -0.381306 3.840759 0.215283
v -0.381306 3.840759 -0.215283
v -0.308168 3.840759 0.215283
v -0.308168 3.840759 -0.215283
v -0.137687 3.840759 0.215283
v -0.137687 3.840759 -0.215283
v -0.071540 3.840759 0.215283
v -0.071540 3.840759 -0.215283
v 1.000000 3.840759 -0.215283
v 1.000000 3.303377 0.165283
v -1.000000 3.303377 0.165283
v -1.000000 3.303377 -0.215283
v -0.622528 3.303377 -0.215283
v -0.622528 3.303377 0.215283
v -0.546092 3.303377 0.215283
v -0.546092 3.303377 -0.215283
v -0.381306 3.303377 0.215283
v -0.381306 3.303377 -0.215283
v -0.308168 3.303377 0.215283
v -0.308168 3.303377 -0.215283
v -0.137687 3.303377 0.215283
v -0.137687 3.303377 -0.215283
v -0.071540 3.303377 0.215283
v -0.071540 3.303377 -0.215283
v 1.000000 3.303377 -0.215283
v 1.000000 3.425952 -0.215283
v 1.000000 3.425952 0.165283
v -1.000000 3.425952 0.165283
v -1.000000 3.425952 -0.215283
v -0.622528 3.425952 -0.215283
v -0.622528 3.425952 0.215283
v -0.546092 3.425952 0.215283
v -0.546092 3.425952 -0.215283
v -0.381306 3.425952 0.215283
v -0.381306 3.425952 -0.215283
v -0.308168 3.425952 0.215283
v -0.308168 3.425952 -0.215283
v -0.137687 3.425952 0.215283
v -0.137687 3.425952 -0.215283
v -0.071540 3.425952 0.215283
v -0.071540 3.425952 -0.215283
v 0.291945 3.000000 0.165283
v 0.291945 5.000000 -0.215283
v 0.291945 5.000000 0.165283
v 0.291945 3.000000 -0.215283
v 0.291945 4.687827 0.215283
v 0.291945 4.687827 -0.215283
v 0.291945 4.541080 -0.215283
v 0.291945 4.541080 0.215283
v 0.291945 4.356488 0.215283
v 0.291945 4.356488 -0.215283
v 0.291945 4.208576 -0.215283
v 0.291945 4.208576 0.215283
v 0.291945 4.002370 0.215283
v 0.291945 4.002370 -0.215283
v 0.291945 3.840759 -0.215283
v 0.291945 3.840759 0.215283
v 0.291945 3.303377 0.215283
v 0.291945 3.303377 -0.215283
v 0.291945 3.425952 0.215283
v 0.291945 3.425952 -0.215283
v 0.773850 3.000000 0.165283
v 0.773850 5.000000 -0.215283
v 0.773850 4.687827 -0.215283
v 0.773850 4.541080 -0.215283
v 0.773850 4.356488 -0.215283
v 0.773850 4.208576 -0.215283
v 0.773850 4.002370 -0.215283
v 0.773850 3.840759 -0.215283
v 0.773850 3.303377 -0.215283
v 0.773850 3.425952 -0.215283
v 0.773850 5.000000 0.165283
v 0.773850 3.000000 -0.215283
v 0.773850 4.687827 0.215283
v 0.773850 4.541080 0.215283
v 0.773850 4.356488 0.215283
v 0.773850 4.208576 0.215283
v 0.773850 4.002370 0.215283
v 0.773850 3.840759 0.215283
v 0.773850 3.303377 0.215283
v 0.773850 3.425952 0.215283
v -0.622528 4.687827 0.215283
v -0.546092 4.687827 0.215283
v -0.622528 4.541080 0.215283
v -0.546092 4.541080 0.215283
v -0.137687 4.687827 0.265283
v -0.071540 4.687827 0.265283
v -0.137687 4.541080 0.265283
v -0.071540 4.541080 0.265283
v -0.381306 4.356488 0.265283
v -0.308168 4.356488 0.265283
v -0.381306 4.208576 0.265283
v -0.308168 4.208576 0.265283
v -0.622528 4.002370 0.265283
v -0.546092 4.002370 0.265283
v -0.137687 4.002370 0.265283
v -0.071540 4.002370 0.265283
v -0.622528 3.840759 0.265283
v -0.546092 3.840759 0.265283
v -0.137687 3.840759 0.265283
v -0.071540 3.840759 0.265283
v -0.622528 4.687827 0.265283
v -0.546092 4.687827 0.265283
v -0.622528 4.541080 0.265283
v -0.546092 4.541080 0.265283
v -0.381306 4.687827 0.265283
v -0.308168 4.687827 0.265283
v -0.381306 4.541080 0.265283
v -0.308168 4.541080 0.265283
v -0.622528 4.356488 0.265283
v -0.546092 4.356488 0.265283
v -0.137687 4.356488 0.265283
v -0.071540 4.356488 0.265283
v -0.622528 4.208576 0.265283
v -0.546092 4.208576 0.265283
v -0.137687 4.208576 0.265283
v -0.071540 4.208576 0.265283
v -0.381306 4.002370 0.265283
v -0.308168 4.002370 0.265283
v -0.381306 3.840759 0.265283
v -0.308168 3.840759 0.265283
v -0.622528 3.303377 0.265283
v -0.546092 3.303377 0.265283
v -0.381306 3.303377 0.265283
v -0.308168 3.303377 0.265283
v -0.137687 3.303377 0.265283
v -0.071540 3.303377 0.265283
v -0.622528 3.425952 0.265283
v -0.546092 3.425952 0.265283
v -0.381306 3.425952 0.265283
v -0.308168 3.425952 0.265283
v -0.137687 3.425952 0.265283
v -0.071540 3.425952 0.265283
v 0.291945 4.687827 0.265283
v 0.291945 4.541080 0.265283
v 0.291945 4.356488 0.265283
v 0.291945 4.208576 0.265283
v 0.291945 4.002370 0.265283
v 0.291945 3.840759 0.265283
v 0.773850 4.687827 0.265283
v 0.773850 4.541080 0.265283
v 0.773850 4.356488 0.265283
v 0.773850 4.208576 0.265283
v 0.773850 4.002370 0.265283
v 0.773850 3.840759 0.265283
v 1.000000 3.731437 -0.215283
v 1.000000 3.731437 0.165283
v -1.000000 3.731437 0.165283
v -1.000000 3.731437 -0.215283
v -0.622528 3.731437 -0.215283
v -0.622528 3.731437 0.215283
v -0.546092 3.731437 0.215283
v -0.546092 3.731437 -0.215283
v -0.381306 3.731437 0.215283
v -0.381306 3.731437 -0.215283
v -0.308168 3.731437 0.215283
v -0.308168 3.731437 -0.215283
v -0.137687 3.731437 0.215283
v -0.137687 3.731437 -0.215283
v -0.071540 3.731437 0.215283
v -0.071540 3.731437 -0.215283
v 0.291945 3.731437 0.215283
v 0.291945 3.731437 -0.215283
v 0.773850 3.731437 0.215283
v 0.773850 3.731437 -0.215283
v 1.000000 4.774050 -0.215283
v 1.000000 4.774050 0.165283
v -1.000000 4.774050 0.165283
v -1.000000 4.774050 -0.215283
v -0.622528 4.774050 -0.215283
v -0.622528 4.774050 0.215283
v -0.546092 4.774050 0.215283
v -0.546092 4.774050 -0.215283
v -0.381306 4.774050 0.215283
v -0.381306 4.774050 -0.215283
v -0.308168 4.774050 0.215283
v -0.308168 4.774050 -0.215283
v -0.137687 4.774050 0.215283
v -0.137687 4.774050 -0.215283
v -0.071540 4.774050 0.215283
v -0.071540 4.774050 -0.215283
v 0.291945 4.774050 0.215283
v 0.291945 4.774050 -0.215283
v 0.773850 4.774050 0.215283
v 0.773850 4.774050 -0.215283
v -0.010355 5.000000 0.165283
v -0.010355 3.000000 -0.215283
v -0.010355 4.687827 0.215283
v -0.010355 4.541080 0.215283
v -0.010355 4.356488 0.215283
v -0.010355 4.208576 0.215283
v -0.010355 4.002370 0.215283
v -0.010355 3.840759 0.215283
v -0.010355 3.303377 0.215283
v -0.010355 3.425952 0.215283
v -0.010355 3.000000 0.165283
v -0.010355 5.000000 -0.215283
v -0.010355 4.687827 -0.215283
v -0.010355 4.541080 -0.215283
v -0.010355 4.356488 -0.215283
v -0.010355 4.208576 -0.215283
v -0.010355 4.002370 -0.215283
v -0.010355 3.840759 -0.215283
v -0.010355 3.303377 -0.215283
v -0.010355 3.425952 -0.215283
v -0.010355 3.731437 -0.215283
v -0.010355 3.731437 0.215283
v -0.010355 4.774050 -0.215283
v -0.010355 4.774050 0.215283
v -0.685212 5.000000 0.165283
v -0.685212 3.000000 -0.215283
v -0.685212 3.000000 0.165283
v -0.685212 5.000000 -0.215283
v -0.685212 4.687827 -0.215283
v -0.685212 4.687827 0.215283
v -0.685212 4.541080 0.215283
v -0.685212 4.541080 -0.215283
v -0.685212 4.356488 -0.215283
v -0.685212 4.356488 0.215283
v -0.685212 4.208576 0.215283
v -0.685212 4.208576 -0.215283
v -0.685212 4.002370 -0.215283
v -0.685212 4.002370 0.215283
v -0.685212 3.840759 0.215283
v -0.685212 3.840759 -0.215283
v -0.685212 3.303377 -0.215283
v -0.685212 3.303377 0.215283
v -0.685212 3.425952 -0.215283
v -0.685212 3.425952 0.215283
v -0.685212 3.731437 -0.215283
v -0.685212 3.731437 0.215283
v -0.685212 4.774050 -0.215283
v -0.685212 4.774050 0.215283
v 1.000000 3.249221 0.165283
v -1.000000 3.249221 0.165283
v -1.000000 3.249221 -0.215283
v -0.622528 3.249221 -0.215283
v -0.622528 3.249221 0.215283
v -0.546092 3.249221 0.215283
v -0.546092 3.249221 -0.215283
v -0.381306 3.249221 0.215283
v -0.381306 3.249221 -0.215283
v -0.308168 3.249221 0.215283
v -0.308168 3.249221 -0.215283
v -0.137687 3.249221 0.215283
v -0.137687 3.249221 -0.215283
v -0.071540 3.249221 0.215283
v -0.071540 3.249221 -0.215283
v 1.000000 3.249221 -0.215283
v 0.291945 3.249221 -0.215283
v 0.291945 3.249221 0.215283
v 0.773850 3.249221 0.215283
v 0.773850 3.249221 -0.215283
v -0.010355 3.249221 -0.215283
v -0.010355 3.249221 0.215283
v -0.685212 3.249221 0.215283
v -0.685212 3.249221 -0.215283
vn 1.0000 -0.0000 -0.0000
vn -0.0787 0.1096 0.9909
vn -1.0000 -0.0000 -0.0000
vn -0.0000 -0.0000 -1.0000
vn -0.0000 -1.0000 -0.0000
vn -0.0000 1.0000 -0.0000
vn -0.0000 0.2161 0.9764
vn -0.0000 -0.0000 1.0000
vn -0.1569 -0.0000 0.9876
vn 0.1092 0.1093 0.9880
vn 0.2159 -0.0000 0.9764
vn -0.0000 -0.1967 0.9805
vn 0.1093 -0.0992 0.9890
vn -0.0788 -0.0995 0.9919
vt 0.516203 0.355412
vt 0.523249 0.355412
vt 0.523249 0.417785
vt 0.516203 0.417785
vt 0.516203 0.470340
vt 0.523249 0.470340
vt 0.523249 0.480157
vt 0.516203 0.480157
vt 0.523249 0.542530
vt 0.516203 0.542530
vt 0.516203 0.597850
vt 0.523249 0.597850
vt 0.523249 0.604903
vt 0.516203 0.604903
vt 0.451060 0.480157
vt 0.460877 0.480157
vt 0.460877 0.542530
vt 0.451060 0.542530
vt 0.578569 0.480157
vt 0.585622 0.480157
vt 0.585622 0.542530
vt 0.578569 0.542530
vt 0.533066 0.480157
vt 0.535021 0.480157
vt 0.535021 0.542530
vt 0.533066 0.542530
vt 0.446721 0.480157
vt 0.449105 0.480157
vt 0.449105 0.542530
vt 0.446721 0.542530
vt 0.516203 0.552347
vt 0.523249 0.552347
vt 0.523249 0.554302
vt 0.516203 0.554302
vt 0.516203 0.466002
vt 0.523249 0.466002
vt 0.523249 0.468386
vt 0.516203 0.468386
vt 0.516203 0.460863
vt 0.523249 0.460863
vt 0.441582 0.480157
vt 0.441582 0.542530
vt 0.537405 0.480157
vt 0.537405 0.542530
vt 0.523249 0.556686
vt 0.516203 0.556686
vt 0.439301 0.480157
vt 0.439301 0.542530
vt 0.516203 0.458582
vt 0.523249 0.458582
vt 0.542544 0.480157
vt 0.542544 0.542530
vt 0.523249 0.561825
vt 0.516203 0.561825
vt 0.516203 0.453265
vt 0.523249 0.453265
vt 0.433984 0.480157
vt 0.433984 0.542530
vt 0.544825 0.480157
vt 0.544825 0.542530
vt 0.523249 0.564106
vt 0.516203 0.564106
vt 0.431921 0.480157
vt 0.431921 0.542530
vt 0.516203 0.451202
vt 0.523249 0.451202
vt 0.550142 0.480157
vt 0.550142 0.542530
vt 0.523249 0.569423
vt 0.516203 0.569423
vt 0.516203 0.449294
vt 0.523249 0.449294
vt 0.430013 0.480157
vt 0.430013 0.542530
vt 0.552205 0.480157
vt 0.552205 0.542530
vt 0.523249 0.571486
vt 0.516203 0.571486
vt 0.508937 0.569423
vt 0.513514 0.569423
vt 0.513514 0.571486
vt 0.508937 0.571486
vt 0.239079 0.375877
vt 0.243656 0.375877
vt 0.243656 0.377785
vt 0.239079 0.377785
vt 0.508937 0.564106
vt 0.513514 0.564106
vt 0.800622 0.794556
vt 0.800622 0.792493
vt 0.508937 0.561825
vt 0.513514 0.561825
vt 0.239079 0.379848
vt 0.243656 0.379848
vt 0.243656 0.385164
vt 0.239079 0.385164
vt 0.508937 0.556686
vt 0.513514 0.556686
vt 0.578582 0.802415
vt 0.578582 0.804478
vt 0.508937 0.554302
vt 0.513514 0.554302
vt 0.114071 0.518406
vt 0.118648 0.518406
vt 0.118648 0.523545
vt 0.114071 0.523545
vt 0.508937 0.468386
vt 0.508937 0.466002
vt 0.508937 0.552347
vt 0.513514 0.552347
vt 0.508937 0.597850
vt 0.513514 0.597850
vt 0.513514 0.604903
vt 0.508937 0.604903
vt 0.508937 0.480157
vt 0.513514 0.480157
vt 0.513514 0.542530
vt 0.508937 0.542530
vt 0.508937 0.470340
vt 0.513514 0.470340
vt 0.508937 0.355412
vt 0.513514 0.355412
vt 0.513514 0.417785
vt 0.508937 0.417785
vt 0.503181 0.355412
vt 0.503181 0.417785
vt 0.503181 0.470340
vt 0.503181 0.480157
vt 0.503181 0.542530
vt 0.503181 0.597850
vt 0.503181 0.604903
vt 0.503181 0.552347
vt 0.503181 0.554302
vt 0.108315 0.523545
vt 0.114071 0.525929
vt 0.108315 0.525929
vt 0.151968 0.456894
vt 0.157725 0.456894
vt 0.157725 0.462033
vt 0.151968 0.462033
vt 0.503181 0.556686
vt 0.233322 0.385164
vt 0.239079 0.387445
vt 0.233322 0.387445
vt 0.503181 0.561825
vt 0.233322 0.379848
vt 0.503181 0.564106
vt 0.233322 0.377785
vt 0.503181 0.569423
vt 0.233322 0.375877
vt 0.503181 0.571486
vt 0.498568 0.569423
vt 0.498568 0.571486
vt 0.228710 0.375877
vt 0.228710 0.377785
vt 0.498568 0.564106
vt 0.794865 0.807293
vt 0.794865 0.809677
vt 0.498568 0.561825
vt 0.185056 0.461202
vt 0.189669 0.461202
vt 0.189669 0.466519
vt 0.185056 0.466519
vt 0.498568 0.556686
vt 0.200452 0.798525
vt 0.195412 0.798525
vt 0.498568 0.554302
vt 0.228710 0.387445
vt 0.233322 0.392584
vt 0.228710 0.392584
vt 0.588915 0.809794
vt 0.588915 0.812075
vt 0.498568 0.552347
vt 0.498568 0.597850
vt 0.498568 0.604903
vt 0.498568 0.480157
vt 0.498568 0.542530
vt 0.498568 0.470340
vt 0.498568 0.355412
vt 0.498568 0.417785
vt 0.492137 0.355412
vt 0.492137 0.417785
vt 0.492137 0.470340
vt 0.492137 0.480157
vt 0.492137 0.542530
vt 0.492137 0.597850
vt 0.492137 0.604903
vt 0.492137 0.552347
vt 0.492137 0.554302
vt 0.222279 0.392584
vt 0.228710 0.394968
vt 0.222279 0.394968
vt 0.222279 0.387445
vt 0.492137 0.556686
vt 0.178625 0.466519
vt 0.185056 0.468800
vt 0.178625 0.468800
vt 0.492137 0.561825
vt 0.178625 0.461202
vt 0.492137 0.564106
vt 0.222279 0.377785
vt 0.228710 0.379848
vt 0.222279 0.379848
vt 0.492137 0.569423
vt 0.222279 0.375877
vt 0.492137 0.571486
vt 0.487097 0.569423
vt 0.487097 0.571486
vt 0.217239 0.375877
vt 0.217239 0.377785
vt 0.487097 0.564106
vt 0.805199 0.792493
vt 0.487097 0.561825
vt 0.217239 0.379848
vt 0.222279 0.385164
vt 0.217239 0.385164
vt 0.487097 0.556686
vt 0.778782 0.802154
vt 0.778782 0.799873
vt 0.487097 0.554302
vt 0.217239 0.387445
vt 0.217239 0.392584
vt 0.211496 0.806122
vt 0.206883 0.806122
vt 0.487097 0.552347
vt 0.487097 0.597850
vt 0.487097 0.604903
vt 0.487097 0.480157
vt 0.487097 0.542530
vt 0.487097 0.470340
vt 0.487097 0.355412
vt 0.487097 0.417785
vt 0.483687 0.355412
vt 0.483687 0.417785
vt 0.483687 0.470340
vt 0.483687 0.480157
vt 0.483687 0.542530
vt 0.483687 0.597850
vt 0.483687 0.604903
vt 0.483687 0.552347
vt 0.483687 0.554302
vt 0.213829 0.392584
vt 0.217239 0.394968
vt 0.213829 0.394968
vt 0.213829 0.387445
vt 0.483687 0.556686
vt 0.213829 0.385164
vt 0.483687 0.561825
vt 0.213829 0.379848
vt 0.483687 0.564106
vt 0.213829 0.377785
vt 0.483687 0.569423
vt 0.213829 0.375877
vt 0.483687 0.571486
vt 0.468649 0.569423
vt 0.470338 0.569423
vt 0.470338 0.571486
vt 0.468649 0.571486
vt 0.172995 0.504853
vt 0.174684 0.504853
vt 0.174684 0.506761
vt 0.172995 0.506761
vt 0.468649 0.564106
vt 0.470338 0.564106
vt 0.174684 0.508824
vt 0.172995 0.508824
vt 0.468649 0.561825
vt 0.470338 0.561825
vt 0.174684 0.514141
vt 0.172995 0.514141
vt 0.468649 0.556686
vt 0.470338 0.556686
vt 0.174684 0.516422
vt 0.172995 0.516422
vt 0.468649 0.554302
vt 0.470338 0.554302
vt 0.174684 0.521561
vt 0.172995 0.521561
vt 0.174684 0.523945
vt 0.172995 0.523945
vt 0.468649 0.552347
vt 0.470338 0.552347
vt 0.468649 0.597850
vt 0.470338 0.597850
vt 0.470338 0.604903
vt 0.468649 0.604903
vt 0.468649 0.480157
vt 0.470338 0.480157
vt 0.470338 0.542530
vt 0.468649 0.542530
vt 0.468649 0.470340
vt 0.470338 0.470340
vt 0.468649 0.355412
vt 0.470338 0.355412
vt 0.470338 0.417785
vt 0.468649 0.417785
vt 0.474161 0.569423
vt 0.474161 0.571486
vt 0.200480 0.375877
vt 0.204302 0.375877
vt 0.204302 0.377785
vt 0.200480 0.377785
vt 0.474161 0.564106
vt 0.184606 0.111974
vt 0.184606 0.109911
vt 0.474161 0.561825
vt 0.184606 0.124711
vt 0.184606 0.119571
vt 0.474161 0.556686
vt 0.188428 0.127094
vt 0.184606 0.127094
vt 0.474161 0.554302
vt 0.184606 0.117291
vt 0.188428 0.117291
vt 0.188428 0.119571
vt 0.474161 0.552347
vt 0.474161 0.597850
vt 0.474161 0.604903
vt 0.474161 0.480157
vt 0.474161 0.542530
vt 0.474161 0.470340
vt 0.474161 0.355412
vt 0.474161 0.417785
vt 0.470338 0.573394
vt 0.474161 0.573394
vt 0.474161 0.582821
vt 0.470338 0.582821
vt 0.470338 0.424838
vt 0.474161 0.424838
vt 0.474161 0.439866
vt 0.470338 0.439866
vt 0.468649 0.573394
vt 0.468649 0.582821
vt 0.468649 0.424838
vt 0.468649 0.439866
vt 0.483687 0.424838
vt 0.487097 0.424838
vt 0.487097 0.439866
vt 0.483687 0.439866
vt 0.483687 0.573394
vt 0.487097 0.573394
vt 0.487097 0.582821
vt 0.483687 0.582821
vt 0.492137 0.573394
vt 0.492137 0.582821
vt 0.177119 0.486349
vt 0.181732 0.486349
vt 0.187489 0.486349
vt 0.498568 0.573394
vt 0.498568 0.582821
vt 0.503181 0.573394
vt 0.503181 0.582821
vt 0.165648 0.501378
vt 0.165648 0.486349
vt 0.187489 0.501378
vt 0.181732 0.501378
vt 0.508937 0.573394
vt 0.508937 0.582821
vt 0.513514 0.573394
vt 0.513514 0.582821
vt 0.170688 0.486349
vt 0.405557 0.480157
vt 0.420586 0.480157
vt 0.420586 0.542530
vt 0.405557 0.542530
vt 0.516203 0.424838
vt 0.523249 0.424838
vt 0.523249 0.439866
vt 0.516203 0.439866
vt 0.554113 0.480157
vt 0.563540 0.480157
vt 0.563540 0.542530
vt 0.554113 0.542530
vt 0.516203 0.573394
vt 0.523249 0.573394
vt 0.523249 0.582821
vt 0.516203 0.582821
vt 0.398504 0.480157
vt 0.398504 0.542530
vt 0.513514 0.424838
vt 0.508937 0.424838
vt 0.503181 0.424838
vt 0.498568 0.424838
vt 0.492137 0.424838
vt 0.200452 0.796462
vt 0.513514 0.468386
vt 0.513514 0.466002
vt 0.805199 0.794556
vt 0.206883 0.803841
vt 0.211496 0.803841
vt 0.195412 0.796462
vt 0.614089 0.799356
vt 0.619129 0.799356
vt 0.619129 0.801740
vt 0.614089 0.801740
vt 0.217252 0.811261
vt 0.221829 0.811261
vt 0.221829 0.813645
vt 0.217252 0.813645
vt 0.584339 0.809794
vt 0.584339 0.812075
vt 0.573969 0.802415
vt 0.573969 0.804478
vt 0.790253 0.807293
vt 0.790253 0.809677
vt 0.783822 0.799873
vt 0.783822 0.802154
vt 0.188428 0.109911
vt 0.188428 0.111974
vt 0.188428 0.124711
vt 0.170688 0.501378
vt 0.177119 0.501378
vt 0.192065 0.486349
vt 0.192065 0.501378
vt 0.204302 0.379848
vt 0.204302 0.385164
vt 0.204302 0.387445
vt 0.204302 0.392584
vt 0.204302 0.394968
vt 0.513514 0.439866
vt 0.246345 0.375877
vt 0.246345 0.377785
vt 0.246345 0.379848
vt 0.246345 0.385164
vt 0.246345 0.387445
vt 0.243656 0.387445
vt 0.162301 0.456894
vt 0.164990 0.456894
vt 0.164990 0.462033
vt 0.162301 0.462033
vt 0.121337 0.523545
vt 0.121337 0.525929
vt 0.118648 0.525929
vt 0.513514 0.449294
vt 0.483687 0.449294
vt 0.474161 0.449294
vt 0.470338 0.449294
vt 0.468649 0.449294
vt 0.487097 0.449294
vt 0.492137 0.439866
vt 0.492137 0.449294
vt 0.498568 0.439866
vt 0.498568 0.449294
vt 0.503181 0.439866
vt 0.503181 0.449294
vt 0.508937 0.439866
vt 0.508937 0.449294
vt 0.162301 0.464417
vt 0.164990 0.464417
vt 0.164990 0.466372
vt 0.162301 0.466372
vt 0.213829 0.396923
vt 0.204302 0.396923
vt 0.200480 0.394968
vt 0.200480 0.396923
vt 0.174684 0.525899
vt 0.172995 0.525899
vt 0.217239 0.396923
vt 0.222279 0.396923
vt 0.228710 0.396923
vt 0.233322 0.394968
vt 0.233322 0.396923
vt 0.151968 0.464417
vt 0.157725 0.464417
vt 0.157725 0.466372
vt 0.151968 0.466372
vt 0.118648 0.527884
vt 0.114071 0.527884
vt 0.460877 0.552347
vt 0.460877 0.468386
vt 0.468649 0.468386
vt 0.460877 0.470340
vt 0.460877 0.439866
vt 0.460877 0.449294
vt 0.460877 0.571486
vt 0.460877 0.573394
vt 0.460877 0.582821
vt 0.460877 0.597850
vt 0.460877 0.417785
vt 0.460877 0.424838
vt 0.460877 0.355412
vt 0.460877 0.604903
vt 0.460877 0.554302
vt 0.460877 0.466002
vt 0.468649 0.466002
vt 0.460877 0.460863
vt 0.468649 0.460863
vt 0.460877 0.556686
vt 0.460877 0.458582
vt 0.468649 0.458582
vt 0.460877 0.561825
vt 0.460877 0.453265
vt 0.468649 0.453265
vt 0.460877 0.564106
vt 0.460877 0.451202
vt 0.468649 0.451202
vt 0.460877 0.569423
s 0
usemtl Material.001
f 285/1/1 2/2/1 4/3/1 286/4/1
f 352/5/2 329/6/2 8/7/2 287/8/2
f 287/8/3 8/7/3 6/9/3 288/10/3
f 304/11/4 182/12/4 2/13/4 285/14/4
f 331/15/5 7/16/5 5/17/5 330/18/5
f 191/19/6 4/20/6 2/21/6 182/22/6
f 329/23/6 10/24/6 12/25/6 332/26/6
f 13/27/5 9/28/5 11/29/5 16/30/5
f 351/31/4 332/32/4 12/33/4 289/34/4
f 291/35/7 15/36/7 10/37/7 290/38/7
f 293/39/7 19/40/7 15/36/7 291/35/7
f 17/41/5 13/27/5 16/30/5 20/42/5
f 10/24/6 15/43/6 14/44/6 12/25/6
f 289/34/4 12/33/4 14/45/4 292/46/4
f 21/47/5 17/41/5 20/42/5 24/48/5
f 295/49/7 23/50/7 19/40/7 293/39/7
f 15/43/6 19/51/6 18/52/6 14/44/6
f 292/46/4 14/45/4 18/53/4 294/54/4
f 297/55/7 27/56/7 23/50/7 295/49/7
f 25/57/5 21/47/5 24/48/5 28/58/5
f 19/51/6 23/59/6 22/60/6 18/52/6
f 294/54/4 18/53/4 22/61/4 296/62/4
f 29/63/5 25/57/5 28/58/5 32/64/5
f 299/65/7 31/66/7 27/56/7 297/55/7
f 23/59/6 27/67/6 26/68/6 22/60/6
f 296/62/4 22/61/4 26/69/4 298/70/4
f 328/71/7 305/72/7 31/66/7 299/65/7
f 315/73/5 29/63/5 32/64/5 306/74/5
f 27/67/6 31/75/6 30/76/6 26/68/6
f 298/70/4 26/69/4 30/77/4 300/78/4
f 61/79/4 46/80/4 48/81/4 63/82/4
f 308/83/8 307/84/8 47/85/8 62/86/8
f 59/87/4 44/88/4 46/80/4 61/79/4
f 60/89/5 62/90/5 208/90/5 207/89/5
f 57/91/4 42/92/4 44/88/4 59/87/4
f 60/93/8 45/94/8 43/95/8 58/96/8
f 55/97/4 40/98/4 42/92/4 57/91/4
f 78/99/6 76/100/6 231/100/6 232/99/6
f 52/101/4 37/102/4 40/98/4 55/97/4
f 56/103/8 41/104/8 39/105/8 54/106/8
f 53/107/6 54/108/6 204/108/6 203/107/6
f 336/109/4 333/110/4 37/102/4 52/101/4
f 184/111/4 183/112/4 33/113/4 64/114/4
f 50/115/3 35/116/3 36/117/3 51/118/3
f 335/119/9 334/120/9 35/116/9 50/115/9
f 64/121/1 33/122/1 34/123/1 49/124/1
f 80/125/1 64/121/1 49/124/1 65/126/1
f 338/127/9 335/119/9 50/115/9 66/128/9
f 66/128/3 50/115/3 51/118/3 67/129/3
f 185/130/4 184/111/4 64/114/4 80/131/4
f 337/132/4 336/109/4 52/101/4 68/133/4
f 70/134/8 54/106/8 53/135/8 69/136/8
f 72/137/8 56/138/8 54/139/8 70/140/8
f 68/133/4 52/101/4 55/97/4 71/141/4
f 74/142/8 58/96/8 56/143/8 72/144/8
f 71/141/4 55/97/4 57/91/4 73/145/4
f 76/146/8 60/93/8 58/96/8 74/142/8
f 73/145/4 57/91/4 59/87/4 75/147/4
f 78/148/8 62/86/8 60/93/8 76/146/8
f 75/147/4 59/87/4 61/79/4 77/149/4
f 309/150/8 308/83/8 62/86/8 78/148/8
f 77/149/4 61/79/4 63/82/4 79/151/4
f 93/152/4 77/149/4 79/151/4 95/153/4
f 310/154/8 309/150/8 78/148/8 94/155/8
f 91/156/4 75/147/4 77/149/4 93/152/4
f 70/157/6 69/158/6 229/158/6 230/157/6
f 89/159/4 73/145/4 75/147/4 91/156/4
f 92/160/8 76/161/8 74/162/8 90/163/8
f 87/164/4 71/141/4 73/145/4 89/159/4
f 108/165/3 124/166/3 219/166/3 215/165/3
f 84/167/4 68/133/4 71/141/4 87/164/4
f 88/168/8 72/144/8 70/169/8 86/170/8
f 43/171/6 41/172/6 225/172/6 226/171/6
f 340/173/4 337/132/4 68/133/4 84/167/4
f 186/174/4 185/130/4 80/131/4 96/175/4
f 82/176/3 66/128/3 67/129/3 83/177/3
f 339/178/9 338/127/9 66/128/9 82/176/9
f 96/179/1 80/125/1 65/126/1 81/180/1
f 112/181/1 96/179/1 81/180/1 97/182/1
f 342/183/9 339/178/9 82/176/9 98/184/9
f 98/184/3 82/176/3 83/177/3 99/185/3
f 187/186/4 186/174/4 96/175/4 112/187/4
f 341/188/4 340/173/4 84/167/4 100/189/4
f 102/190/8 86/170/8 85/191/8 101/192/8
f 104/193/8 88/168/8 86/170/8 102/190/8
f 100/189/4 84/167/4 87/164/4 103/194/4
f 106/195/8 90/163/8 88/196/8 104/197/8
f 103/194/4 87/164/4 89/159/4 105/198/4
f 108/199/8 92/160/8 90/163/8 106/195/8
f 105/198/4 89/159/4 91/156/4 107/200/4
f 110/201/8 94/155/8 92/202/8 108/203/8
f 107/200/4 91/156/4 93/152/4 109/204/4
f 311/205/8 310/154/8 94/155/8 110/201/8
f 109/204/4 93/152/4 95/153/4 111/206/4
f 125/207/4 109/204/4 111/206/4 127/208/4
f 312/209/8 311/205/8 110/201/8 126/210/8
f 123/211/4 107/200/4 109/204/4 125/207/4
f 62/90/1 47/212/1 206/212/1 208/90/1
f 121/213/4 105/198/4 107/200/4 123/211/4
f 124/214/8 108/203/8 106/215/8 122/216/8
f 119/217/4 103/194/4 105/198/4 121/213/4
f 120/218/5 122/219/5 240/219/5 239/218/5
f 116/220/4 100/189/4 103/194/4 119/217/4
f 120/221/8 104/193/8 102/190/8 118/222/8
f 72/223/3 88/224/3 211/224/3 209/223/3
f 344/225/4 341/188/4 100/189/4 116/220/4
f 188/226/4 187/186/4 112/187/4 128/227/4
f 114/228/3 98/184/3 99/185/3 115/229/3
f 343/230/9 342/183/9 98/184/9 114/228/9
f 128/231/1 112/181/1 97/182/1 113/232/1
f 265/233/1 128/231/1 113/232/1 266/234/1
f 350/235/9 343/230/9 114/228/9 267/236/9
f 267/236/3 114/228/3 115/229/3 268/237/3
f 284/238/4 188/226/4 128/227/4 265/239/4
f 349/240/4 344/225/4 116/220/4 269/241/4
f 271/242/8 118/222/8 117/243/8 270/244/8
f 273/245/8 120/221/8 118/222/8 271/242/8
f 269/241/4 116/220/4 119/217/4 272/246/4
f 275/247/8 122/216/8 120/221/8 273/245/8
f 272/246/4 119/217/4 121/213/4 274/248/4
f 277/249/8 124/214/8 122/216/8 275/247/8
f 274/248/4 121/213/4 123/211/4 276/250/4
f 279/251/8 126/210/8 124/214/8 277/249/8
f 276/250/4 123/211/4 125/207/4 278/252/4
f 326/253/8 312/209/8 126/210/8 279/251/8
f 278/252/4 125/207/4 127/208/4 280/254/4
f 365/255/4 141/256/4 143/257/4 367/258/4
f 374/259/8 313/260/8 142/261/8 366/262/8
f 363/263/4 139/264/4 141/256/4 365/255/4
f 366/262/8 142/261/8 140/265/8 364/266/8
f 361/267/4 137/268/4 139/264/4 363/263/4
f 364/266/8 140/265/8 138/269/8 362/270/8
f 359/271/4 135/272/4 137/268/4 361/267/4
f 362/270/8 138/269/8 136/273/8 360/274/8
f 356/275/4 132/276/4 135/272/4 359/271/4
f 360/274/8 136/273/8 134/277/8 358/278/8
f 358/278/8 134/277/8 133/279/8 357/280/8
f 376/281/4 345/282/4 132/276/4 356/275/4
f 372/283/4 189/284/4 144/285/4 368/286/4
f 354/287/3 130/288/3 131/289/3 355/290/3
f 375/291/9 346/292/9 130/288/9 354/287/9
f 368/293/1 144/294/1 129/295/1 353/296/1
f 141/256/4 158/297/4 160/298/4 143/257/4
f 313/299/8 314/300/8 159/301/8 142/302/8
f 139/264/4 156/303/4 158/297/4 141/256/4
f 140/304/5 142/305/5 246/305/5 245/304/5
f 137/268/4 154/306/4 156/303/4 139/264/4
f 134/307/5 136/308/5 243/308/5 242/307/5
f 135/272/4 152/309/4 154/306/4 137/268/4
f 150/310/3 133/311/3 241/311/3 247/310/3
f 132/276/4 149/312/4 152/309/4 135/272/4
f 138/313/5 140/304/5 245/304/5 244/313/5
f 155/314/6 153/315/6 249/315/6 250/314/6
f 345/282/4 347/316/4 149/312/4 132/276/4
f 189/284/4 190/317/4 145/318/4 144/285/4
f 130/288/3 147/319/3 148/320/3 131/289/3
f 346/292/9 348/321/9 147/319/9 130/288/9
f 144/294/1 145/322/1 146/323/1 129/295/1
f 323/324/4 324/325/4 180/326/4 178/327/4
f 199/328/8 200/329/8 179/330/8 177/331/8
f 373/332/4 323/324/4 178/327/4 369/333/4
f 371/334/8 199/328/8 177/331/8 370/335/8
f 283/336/8 198/337/8 176/338/8 281/339/8
f 325/340/4 322/341/4 175/342/4 282/343/4
f 322/341/4 321/344/4 174/345/4 175/342/4
f 196/346/1 195/347/1 261/347/1 262/346/1
f 195/347/1 194/348/1 260/348/1 261/347/1
f 321/344/4 320/349/4 171/350/4 174/345/4
f 320/349/4 319/351/4 170/352/4 171/350/4
f 176/353/5 198/354/5 264/354/5 258/353/5
f 168/355/3 169/356/3 255/356/3 254/355/3
f 319/351/4 318/357/4 167/358/4 170/352/4
f 318/357/4 317/359/4 166/360/4 167/358/4
f 198/354/1 197/361/1 263/361/1 264/354/1
f 181/362/5 161/363/5 164/364/5 192/365/5
f 303/366/7 191/367/7 163/368/7 301/369/7
f 305/370/6 163/371/6 162/372/6 316/373/6
f 327/374/4 316/375/4 162/376/4 302/377/4
f 286/4/10 4/3/10 191/367/10 303/366/10
f 3/378/5 181/362/5 192/365/5 1/379/5
f 49/124/11 34/123/11 193/380/11 194/381/11
f 65/126/11 49/124/11 194/381/11 195/382/11
f 81/180/11 65/126/11 195/382/11 196/383/11
f 97/182/11 81/180/11 196/383/11 197/384/11
f 113/232/11 97/182/11 197/384/11 198/337/11
f 266/234/11 113/232/11 198/337/11 283/336/11
f 353/296/11 129/295/11 199/328/11 371/334/11
f 129/295/11 146/323/11 200/329/11 199/328/11
f 178/327/4 180/326/4 190/317/4 189/284/4
f 369/333/4 178/327/4 189/284/4 372/283/4
f 282/343/4 175/342/4 188/226/4 284/238/4
f 175/342/4 174/345/4 187/186/4 188/226/4
f 174/345/4 171/350/4 186/174/4 187/186/4
f 171/350/4 170/352/4 185/130/4 186/174/4
f 170/352/4 167/358/4 184/111/4 185/130/4
f 167/358/4 166/360/4 183/112/4 184/111/4
f 163/371/6 191/19/6 182/22/6 162/372/6
f 302/377/4 162/376/4 182/12/4 304/11/4
f 110/385/6 108/165/6 215/165/6 216/385/6
f 38/386/6 53/107/6 203/107/6 201/386/6
f 39/387/6 38/386/6 201/386/6 202/387/6
f 54/108/6 39/387/6 202/387/6 204/108/6
f 208/90/8 206/212/8 205/388/8 207/89/8
f 212/389/8 210/390/8 209/223/8 211/224/8
f 220/391/8 216/385/8 215/165/8 219/166/8
f 218/392/8 214/393/8 213/394/8 217/395/8
f 224/396/8 222/397/8 221/398/8 223/399/8
f 101/394/3 117/395/3 217/395/3 213/394/3
f 90/389/1 74/390/1 210/390/1 212/389/1
f 88/224/5 90/389/5 212/389/5 211/224/5
f 118/392/1 102/393/1 214/393/1 218/392/1
f 126/391/1 110/385/1 216/385/1 220/391/1
f 202/397/6 201/398/6 221/398/6 222/397/6
f 124/166/5 126/391/5 220/391/5 219/166/5
f 117/395/5 118/392/5 218/392/5 217/395/5
f 201/398/3 203/399/3 223/399/3 221/398/3
f 47/212/6 45/388/6 205/388/6 206/212/6
f 204/396/1 202/397/1 222/397/1 224/396/1
f 74/390/6 72/223/6 209/223/6 210/390/6
f 203/399/5 204/396/5 224/396/5 223/399/5
f 102/393/6 101/394/6 213/394/6 214/393/6
f 45/388/3 60/89/3 207/89/3 205/388/3
f 228/400/8 226/171/8 225/172/8 227/401/8
f 236/402/8 232/99/8 231/100/8 235/403/8
f 234/404/8 230/157/8 229/158/8 233/405/8
f 240/219/8 238/406/8 237/407/8 239/218/8
f 41/172/3 56/401/3 227/401/3 225/172/3
f 106/406/6 104/407/6 237/407/6 238/406/6
f 76/100/3 92/403/3 235/403/3 231/100/3
f 69/158/3 85/405/3 233/405/3 229/158/3
f 58/400/1 43/171/1 226/171/1 228/400/1
f 104/407/3 120/218/3 239/218/3 237/407/3
f 56/401/5 58/400/5 228/400/5 227/401/5
f 86/404/1 70/157/1 230/157/1 234/404/1
f 94/402/1 78/99/1 232/99/1 236/402/1
f 92/403/5 94/402/5 236/402/5 235/403/5
f 85/405/5 86/404/5 234/404/5 233/405/5
f 122/219/1 106/406/1 238/406/1 240/219/1
f 246/305/8 252/408/8 251/409/8 245/304/8
f 245/304/8 251/409/8 250/314/8 244/313/8
f 244/313/8 250/314/8 249/315/8 243/308/8
f 243/308/8 249/315/8 248/410/8 242/307/8
f 242/307/8 248/410/8 247/310/8 241/311/8
f 157/409/6 155/314/6 250/314/6 251/409/6
f 133/311/5 134/307/5 242/307/5 241/311/5
f 153/315/6 151/410/6 248/410/6 249/315/6
f 136/308/5 138/313/5 244/313/5 243/308/5
f 142/305/1 159/408/1 252/408/1 246/305/1
f 159/408/6 157/409/6 251/409/6 252/408/6
f 151/410/6 150/310/6 247/310/6 248/410/6
f 264/354/8 263/361/8 257/411/8 258/353/8
f 263/361/8 262/346/8 256/412/8 257/411/8
f 262/346/8 261/347/8 255/356/8 256/412/8
f 261/347/8 260/348/8 254/355/8 255/356/8
f 260/348/8 259/413/8 253/414/8 254/355/8
f 173/411/3 176/353/3 258/353/3 257/411/3
f 197/361/1 196/346/1 262/346/1 263/361/1
f 169/356/3 172/412/3 256/412/3 255/356/3
f 193/413/6 165/414/6 253/414/6 259/413/6
f 194/348/1 193/413/1 259/413/1 260/348/1
f 172/412/3 173/411/3 257/411/3 256/412/3
f 165/414/3 168/355/3 254/355/3 253/414/3
f 180/326/4 282/343/4 284/238/4 190/317/4
f 146/323/11 266/234/11 283/336/11 200/329/11
f 324/325/4 325/340/4 282/343/4 180/326/4
f 200/329/8 283/336/8 281/339/8 179/330/8
f 158/297/4 278/252/4 280/254/4 160/298/4
f 314/300/8 326/253/8 279/251/8 159/301/8
f 156/303/4 276/250/4 278/252/4 158/297/4
f 159/301/8 279/251/8 277/249/8 157/415/8
f 154/306/4 274/248/4 276/250/4 156/303/4
f 157/415/8 277/249/8 275/247/8 155/416/8
f 152/309/4 272/246/4 274/248/4 154/306/4
f 155/416/8 275/247/8 273/245/8 153/417/8
f 149/312/4 269/241/4 272/246/4 152/309/4
f 153/417/8 273/245/8 271/242/8 151/418/8
f 151/418/8 271/242/8 270/244/8 150/419/8
f 347/316/4 349/240/4 269/241/4 149/312/4
f 190/317/4 284/238/4 265/239/4 145/318/4
f 147/319/3 267/236/3 268/237/3 148/320/3
f 348/321/9 350/235/9 267/236/9 147/319/9
f 145/322/1 265/233/1 266/234/1 146/323/1
f 166/360/4 302/377/4 304/11/4 183/112/4
f 34/123/11 286/4/11 303/366/11 193/380/11
f 317/359/4 327/374/4 302/377/4 166/360/4
f 193/380/8 303/366/8 301/369/8 165/420/8
f 46/80/4 298/70/4 300/78/4 48/81/4
f 307/84/8 328/421/8 299/422/8 47/85/8
f 44/88/4 296/62/4 298/70/4 46/80/4
f 47/85/8 299/422/8 297/423/8 45/94/8
f 42/92/4 294/54/4 296/62/4 44/88/4
f 45/94/8 297/423/8 295/424/8 43/95/8
f 40/98/4 292/46/4 294/54/4 42/92/4
f 43/95/8 295/424/8 293/425/8 41/426/8
f 37/102/4 289/34/4 292/46/4 40/98/4
f 41/427/8 293/428/8 291/429/8 39/430/8
f 39/105/8 291/431/8 290/432/8 38/433/8
f 333/110/4 351/31/4 289/34/4 37/102/4
f 183/112/4 304/11/4 285/14/4 33/113/4
f 35/116/3 287/8/3 288/10/3 36/117/3
f 334/120/9 352/5/9 287/8/9 35/116/9
f 33/122/1 285/1/1 286/4/1 34/123/1
f 165/420/8 301/369/8 328/71/8 307/434/8
f 48/81/4 300/78/4 327/374/4 317/359/4
f 179/330/8 281/339/8 326/435/8 314/436/8
f 160/298/4 280/254/4 325/340/4 324/325/4
f 300/78/4 30/77/4 316/375/4 327/374/4
f 31/75/6 305/370/6 316/373/6 30/76/6
f 63/82/4 48/81/4 317/359/4 318/357/4
f 79/151/4 63/82/4 318/357/4 319/351/4
f 95/153/4 79/151/4 319/351/4 320/349/4
f 111/206/4 95/153/4 320/349/4 321/344/4
f 127/208/4 111/206/4 321/344/4 322/341/4
f 280/254/4 127/208/4 322/341/4 325/340/4
f 367/258/4 143/257/4 323/324/4 373/332/4
f 143/257/4 160/298/4 324/325/4 323/324/4
f 177/331/8 179/330/8 314/436/8 313/437/8
f 370/335/8 177/331/8 313/437/8 374/438/8
f 281/339/8 176/338/8 312/439/8 326/435/8
f 176/338/8 173/440/8 311/441/8 312/439/8
f 173/440/8 172/442/8 310/443/8 311/441/8
f 172/442/8 169/444/8 309/445/8 310/443/8
f 169/444/8 168/446/8 308/447/8 309/445/8
f 168/446/8 165/420/8 307/434/8 308/447/8
f 161/363/5 315/73/5 306/74/5 164/364/5
f 301/369/7 163/368/7 305/72/7 328/71/7
f 38/448/8 290/449/8 352/450/8 334/451/8
f 36/117/4 288/10/4 351/31/4 333/110/4
f 150/419/8 270/244/8 350/452/8 348/453/8
f 148/320/4 268/237/4 349/240/4 347/316/4
f 133/454/8 150/419/8 348/453/8 346/455/8
f 131/289/4 148/320/4 347/316/4 345/282/4
f 357/280/8 133/279/8 346/456/8 375/457/8
f 355/290/4 131/289/4 345/282/4 376/281/4
f 268/237/4 115/229/4 344/225/4 349/240/4
f 270/244/8 117/243/8 343/458/8 350/452/8
f 117/243/8 101/192/8 342/459/8 343/458/8
f 115/229/4 99/185/4 341/188/4 344/225/4
f 99/185/4 83/177/4 340/173/4 341/188/4
f 101/192/8 85/191/8 339/460/8 342/459/8
f 85/191/8 69/461/8 338/462/8 339/460/8
f 83/177/4 67/129/4 337/132/4 340/173/4
f 67/129/4 51/118/4 336/109/4 337/132/4
f 69/463/8 53/464/8 335/465/8 338/466/8
f 53/135/8 38/433/8 334/467/8 335/468/8
f 51/118/4 36/117/4 333/110/4 336/109/4
f 288/10/4 6/9/4 332/32/4 351/31/4
f 8/7/6 329/23/6 332/26/6 6/9/6
f 9/28/5 331/15/5 330/18/5 11/29/5
f 290/38/7 10/37/7 329/6/7 352/5/7
f 5/17/4 355/290/4 376/281/4 330/469/4
f 9/470/12 357/471/12 375/291/12 331/472/12
f 161/473/12 370/335/12 374/438/12 315/474/12
f 32/475/4 367/258/4 373/332/4 306/476/4
f 164/477/4 369/333/4 372/283/4 192/478/4
f 3/479/13 353/296/13 371/334/13 181/480/13
f 181/480/12 371/334/12 370/335/12 161/473/12
f 306/476/4 373/332/4 369/333/4 164/477/4
f 1/481/1 368/293/1 353/296/1 3/479/1
f 331/472/14 375/291/14 354/287/14 7/16/14
f 7/16/3 354/287/3 355/290/3 5/17/3
f 192/478/4 372/283/4 368/286/4 1/482/4
f 330/469/4 376/281/4 356/275/4 11/483/4
f 13/484/12 358/485/12 357/471/12 9/470/12
f 17/486/12 360/487/12 358/485/12 13/484/12
f 11/483/4 356/275/4 359/271/4 16/488/4
f 21/489/12 362/490/12 360/487/12 17/486/12
f 16/488/4 359/271/4 361/267/4 20/491/4
f 25/492/12 364/493/12 362/490/12 21/489/12
f 20/491/4 361/267/4 363/263/4 24/494/4
f 29/495/12 366/496/12 364/493/12 25/492/12
f 24/494/4 363/263/4 365/255/4 28/497/4
f 315/474/12 374/438/12 366/496/12 29/495/12
f 28/497/4 365/255/4 367/258/4 32/475/4
