# Blender 4.0.2
# www.blender.org
mtllib data.mtl
o Cube
v 0.358162 0.166823 -0.442517
v 0.623946 -0.166823 -0.760548
v 0.358162 0.166823 0.442271
v 0.623946 -0.166823 0.760548
v -0.367709 0.166823 -0.442517
v -0.623946 -0.166823 -0.760548
v -0.367709 0.166823 0.442271
v -0.623946 -0.166823 0.760548
v -0.166597 -0.166823 -0.760548
v -0.101679 0.166823 0.442271
v -0.166597 -0.166823 0.760548
v -0.101679 0.166823 -0.442517
v 0.098129 -0.166823 0.760548
v 0.052306 0.166823 -0.442517
v 0.098129 -0.166823 -0.760548
v 0.052306 0.166823 0.442271
v -0.623946 -0.166823 0.255783
v 0.358162 0.166823 0.148660
v -0.367709 0.166823 0.148660
v 0.623946 -0.166823 0.255783
v -0.166597 -0.166823 0.255783
v -0.166597 0.166823 0.255783
v 0.098129 0.166823 0.255783
v 0.098129 -0.166823 0.255783
v -0.367709 0.166823 -0.149934
v 0.623946 -0.166823 -0.257549
v -0.623946 -0.166823 -0.257549
v 0.358162 0.166823 -0.149934
v -0.166597 -0.166823 -0.257549
v -0.166597 0.166823 -0.257549
v 0.098129 0.166823 -0.257549
v 0.098129 -0.166823 -0.257549
v -0.166597 2.063186 0.255783
v 0.098129 2.063186 0.255783
v -0.166597 2.063186 -0.257549
v 0.098129 2.063186 -0.257549
v -0.166597 2.970002 0.255783
v -0.166597 2.970002 -0.257549
v 0.310573 1.729443 0.627765
v 0.310573 1.729443 -0.629531
v -0.229301 3.560966 0.627765
v -0.229301 3.560966 -0.629531
v 0.338834 1.718423 0.642320
v 0.338834 1.718423 -0.644086
v -0.216053 3.601371 0.642320
v -0.216053 3.601371 -0.644086
v -0.076085 2.659956 -0.257549
v -0.076085 2.659956 0.255783
v -0.007613 2.801575 -0.629531
v -0.007613 2.801575 0.627765
v 0.010768 2.824397 -0.644086
v 0.010768 2.824397 0.642320
v -0.166597 2.703601 0.255783
v -0.166597 2.703601 -0.257549
v -0.024905 2.484639 -0.257549
v -0.024905 2.484639 0.255783
v 0.117742 2.372174 -0.629531
v 0.117742 2.372174 0.627765
v 0.139026 2.385054 -0.644086
v 0.139026 2.385054 0.642320
v -0.194894 3.236691 -0.425416
v -0.194894 3.236691 0.423650
v 0.134455 2.126319 0.423650
v 0.134455 2.126319 -0.425416
v -0.045185 2.723866 0.423650
v -0.045185 2.723866 -0.425416
v 0.039468 2.433886 -0.425416
v 0.039468 2.433886 0.423650
v 0.206108 1.964850 -0.508460
v -0.029899 2.755482 0.506694
v -0.029899 2.755482 -0.508460
v 0.071314 2.408778 -0.508460
v 0.071314 2.408778 0.506694
v -0.208893 3.368622 -0.508460
v -0.208893 3.368622 0.506694
v 0.206108 1.964850 0.506694
v -0.296454 2.595263 -0.552064
v -0.223475 2.345277 -0.552064
v -0.307991 2.622519 -0.588749
v -0.220737 2.323632 -0.588749
v -0.218264 2.683619 -0.536751
v -0.233551 2.652003 -0.453707
v -0.148897 2.362023 -0.453707
v -0.117052 2.336916 -0.536751
v -0.254057 2.638264 -0.987841
v -0.166803 2.339377 -0.987841
v -0.109701 2.674576 -1.066294
v -0.024431 2.382486 -1.066294
v -0.223557 2.647168 -1.145562
v -0.136303 2.348280 -1.145562
v -0.114412 2.691965 -1.210339
v -0.025020 2.385754 -1.210339
v 0.034842 2.757508 -0.971746
v 0.136055 2.410805 -0.971746
v 0.070222 2.767836 -1.233547
v 0.171435 2.421133 -1.233547
v 0.005732 3.076465 -0.723500
v 0.298889 2.072260 -0.723500
v 0.108208 3.106381 -1.481793
v 0.401365 2.102176 -1.481793
v 0.018796 3.086699 -0.716775
v 0.315407 2.070662 -0.716775
v 0.122480 3.116967 -1.484002
v 0.419090 2.100931 -1.484002
vn -0.0000 1.0000 -0.0000
vn -0.0000 0.6902 0.7236
vn -0.7931 0.6091 -0.0000
vn -0.0000 -1.0000 -0.0000
vn 0.7822 0.6231 -0.0000
vn -0.0000 0.6900 -0.7238
vn -0.0000 -0.0000 1.0000
vn 1.0000 -0.0000 -0.0000
vn -0.0000 -0.0000 -1.0000
vn -1.0000 -0.0000 -0.0000
vn -0.9236 -0.2696 -0.2727
vn -0.9944 -0.1055 -0.0000
vn -0.9238 -0.2785 0.2628
vn -0.9140 -0.4056 -0.0000
vn -0.4972 -0.1451 -0.8554
vn 0.9599 0.2802 -0.0000
vn -0.3633 -0.9317 -0.0000
vn -0.4968 -0.1490 0.8550
vn -0.9502 0.3116 -0.0000
vn -0.4972 -0.1451 0.8554
vn -0.9236 -0.2696 0.2727
vn -0.9236 -0.2696 -0.2726
vn -0.9238 -0.2785 -0.2628
vn -0.4968 -0.1490 -0.8550
vn 0.9579 0.2871 -0.0000
vn -0.9236 -0.2696 0.2726
vn -0.9182 -0.2746 -0.2855
vn 0.8668 -0.4987 -0.0000
vn -0.9182 -0.2746 0.2855
vn -0.9238 -0.2825 -0.2584
vn -0.7430 0.6096 0.2765
vn -0.9238 -0.2825 0.2584
vn -0.9557 -0.2790 0.0933
vn -0.7585 -0.2214 0.6129
vn -0.1211 -0.9360 0.3305
vn 0.9427 0.2752 0.1886
vn 0.1338 0.0391 -0.9902
vn 0.2808 -0.8836 0.3748
vn -0.1338 -0.0391 0.9902
vn -0.3783 0.8861 0.2677
vn -0.4839 -0.1413 0.8637
vn -0.3894 0.9190 -0.0615
vn 0.2203 -0.9750 -0.0296
vn -0.9506 -0.2775 -0.1394
vn -0.4640 -0.1354 -0.8754
vn -0.2731 0.9601 0.0603
vn 0.2982 -0.9545 -0.0089
vn -0.9410 -0.2747 -0.1975
vn -0.8506 -0.5081 -0.1350
vn 0.1791 -0.9837 -0.0176
vn -0.4393 0.8979 0.0281
vn -0.1115 -0.0325 -0.9932
vn -0.6000 0.7985 -0.0496
vn -0.9318 -0.2720 0.2402
vn -0.9910 0.0134 -0.1334
vn -0.8485 -0.2477 -0.4676
vn 0.9506 0.2775 0.1394
vn -0.1261 -0.0368 -0.9913
vn -0.0761 -0.9959 -0.0496
vn -0.3840 -0.1121 0.9165
vt 0.783376 0.667039
vt 0.875000 0.667039
vt 0.875000 0.750000
vt 0.783376 0.750000
vt 0.375000 0.908376
vt 0.625000 0.908376
vt 0.625000 1.000000
vt 0.375000 1.000000
vt 0.375000 0.167329
vt 0.625000 0.167329
vt 0.625000 0.250000
vt 0.375000 0.250000
vt 0.269659 0.667039
vt 0.375000 0.667039
vt 0.375000 0.750000
vt 0.269659 0.750000
vt 0.625000 0.667039
vt 0.625000 0.750000
vt 0.375000 0.394659
vt 0.625000 0.394659
vt 0.625000 0.500000
vt 0.375000 0.500000
vt 0.625000 0.341624
vt 0.375000 0.341624
vt 0.125000 0.667039
vt 0.216624 0.667039
vt 0.216624 0.750000
vt 0.125000 0.750000
vt 0.375000 0.855341
vt 0.625000 0.855341
vt 0.730341 0.667039
vt 0.730341 0.750000
vt 0.216624 0.582671
vt 0.269659 0.582671
vt 0.625000 0.582671
vt 0.730341 0.582671
vt 0.125000 0.582671
vt 0.375000 0.582671
vt 0.375000 0.000000
vt 0.625000 0.000000
vt 0.625000 0.082961
vt 0.375000 0.082961
vt 0.783376 0.582671
vt 0.875000 0.582671
vt 0.783376 0.500000
vt 0.875000 0.500000
vt 0.269659 0.500000
vt 0.125000 0.500000
vt 0.216624 0.500000
vt 0.730341 0.500000
vt 0.783376 0.667039
vt 0.765243 0.582670
vt 0.754989 0.582670
vt 0.754990 0.667039
vt 0.765243 0.582670
vt 0.783376 0.582670
vt 0.783376 0.667039
vt 0.754990 0.667039
vt 0.730341 0.667039
vt 0.771829 0.582671
vt 0.753696 0.582671
vt 0.000000 0.000000
vt 0.718794 0.582671
vt 0.718794 0.667039
vt 0.743442 0.667039
vt 0.771829 0.667039
vt 0.765243 0.667039
vt 0.753696 0.667039
vt 0.743442 0.582671
vt 0.765243 0.667039
vt 0.765243 0.667039
vt 0.754990 0.667039
vt 0.765243 0.667039
vt 0.754989 0.582670
vt 0.783376 0.667039
vt 0.783376 0.582670
vt 0.765243 0.582670
s 0
usemtl Material
f 22/1/1 19/2/1 7/3/1 10/4/1
f 11/5/2 10/6/2 7/7/2 8/8/2
f 27/9/3 25/10/3 5/11/3 6/12/3
f 24/13/4 20/14/4 4/15/4 13/16/4
f 20/14/5 18/17/5 3/18/5 4/15/5
f 15/19/6 14/20/6 1/21/6 2/22/6
f 6/12/6 5/11/6 12/23/6 9/24/6
f 17/25/4 21/26/4 11/27/4 8/28/4
f 13/29/2 16/30/2 10/6/2 11/5/2
f 23/31/1 22/1/1 10/4/1 16/32/1
f 18/17/1 23/31/1 16/32/1 3/18/1
f 4/15/2 3/18/2 16/30/2 13/29/2
f 9/24/6 12/23/6 14/20/6 15/19/6
f 21/26/4 24/13/4 13/16/4 11/27/4
f 29/33/4 32/34/4 24/13/4 21/26/4
f 28/35/1 31/36/1 23/31/1 18/17/1
f 22/1/7 23/31/7 34/31/7 33/1/7
f 27/37/4 29/33/4 21/26/4 17/25/4
f 26/38/5 28/35/5 18/17/5 20/14/5
f 32/34/4 26/38/4 20/14/4 24/13/4
f 8/39/3 7/40/3 19/41/3 17/42/3
f 30/43/1 25/44/1 19/2/1 22/1/1
f 12/45/1 5/46/1 25/44/1 30/43/1
f 15/47/4 2/22/4 26/38/4 32/34/4
f 2/22/5 1/21/5 28/35/5 26/38/5
f 6/48/4 9/49/4 29/33/4 27/37/4
f 14/50/1 12/45/1 30/43/1 31/36/1
f 1/21/1 14/50/1 31/36/1 28/35/1
f 9/49/4 15/47/4 32/34/4 29/33/4
f 17/42/3 19/41/3 25/10/3 27/9/3
f 36/36/1 35/43/1 33/1/1 34/31/1
f 23/31/8 31/36/8 36/36/8 34/31/8
f 31/36/9 30/43/9 35/43/9 36/36/9
f 30/43/10 22/1/10 33/1/10 35/43/10
f 54/43/10 53/51/10 37/1/10 38/43/10
f 54/43/9 38/43/9 47/52/9 55/53/9
f 53/51/7 33/1/7 34/31/7 56/54/7
f 71/55/11 74/56/11 42/43/11 49/52/11
f 74/56/12 75/57/12 41/1/12 42/43/12
f 73/58/13 76/59/13 39/31/13 58/58/13
f 76/59/14 69/36/14 40/36/14 39/31/14
f 49/52/15 42/43/15 46/60/15 51/61/15
f 51/62/16 46/62/16 45/62/16 52/62/16
f 39/31/17 40/36/17 44/63/17 43/64/17
f 58/58/18 39/31/18 43/64/18 60/65/18
f 42/43/19 41/1/19 45/66/19 46/60/19
f 41/1/20 50/67/20 52/68/20 45/66/20
f 59/62/16 51/62/16 52/62/16 60/62/16
f 57/53/15 49/52/15 51/61/15 59/69/15
f 75/57/21 70/70/21 50/67/21 41/1/21
f 72/53/22 71/55/22 49/52/22 57/53/22
f 69/36/23 72/53/23 57/53/23 40/36/23
f 40/36/24 57/53/24 59/69/24 44/63/24
f 44/62/25 59/62/25 60/62/25 43/62/25
f 50/67/20 58/58/20 60/65/20 52/68/20
f 70/70/26 73/58/26 58/58/26 50/67/26
f 37/1/7 53/51/7 56/54/7 48/71/7
f 35/43/9 54/43/9 55/53/9 36/36/9
f 35/43/10 33/1/10 53/51/10 54/43/10
f 48/71/21 56/54/21 68/72/21 65/73/21
f 36/36/27 55/53/27 67/74/27 64/36/27
f 55/53/11 47/52/11 66/55/11 67/74/11
f 37/1/21 48/71/21 65/73/21 62/75/21
f 34/31/28 36/36/28 64/36/28 63/31/28
f 56/54/29 34/31/29 63/31/29 68/72/29
f 38/43/12 37/1/12 62/75/12 61/76/12
f 47/52/22 38/43/22 61/76/22 66/55/22
f 65/73/21 68/72/21 73/58/21 70/70/21
f 64/36/30 67/74/30 72/53/30 69/36/30
f 82/52/31 81/77/31 79/55/31 77/55/31
f 62/75/21 65/73/21 70/70/21 75/57/21
f 63/31/14 64/36/14 69/36/14 76/59/14
f 68/72/32 63/31/32 76/59/32 73/58/32
f 61/76/12 62/75/12 75/57/12 74/56/12
f 66/55/11 61/76/11 74/56/11 71/55/11
f 78/74/33 77/55/33 79/55/33 80/53/33
f 83/74/34 82/52/34 77/55/34 78/74/34
f 84/53/35 83/74/35 78/74/35 80/53/35
f 81/77/36 84/53/36 88/53/36 87/77/36
f 71/55/37 72/53/37 84/53/37 81/77/37
f 72/53/38 67/74/38 83/74/38 84/53/38
f 67/74/39 66/55/39 82/52/39 83/74/39
f 66/55/40 71/55/40 81/77/40 82/52/40
f 87/77/41 88/53/41 94/53/41 93/77/41
f 79/55/42 81/77/42 87/77/42 85/55/42
f 84/53/43 80/53/43 86/53/43 88/53/43
f 80/53/44 79/55/44 85/55/44 86/53/44
f 91/77/45 92/53/45 90/53/45 89/55/45
f 85/55/46 87/77/46 91/77/46 89/55/46
f 88/53/47 86/53/47 90/53/47 92/53/47
f 86/53/48 85/55/48 89/55/48 90/53/48
f 94/53/49 96/53/49 100/53/49 98/53/49
f 88/53/50 92/53/50 96/53/50 94/53/50
f 91/77/51 87/77/51 93/77/51 95/77/51
f 92/53/52 91/77/52 95/77/52 96/53/52
f 99/77/53 97/77/53 101/77/53 103/77/53
f 93/77/54 94/53/54 98/53/54 97/77/54
f 95/77/55 93/77/55 97/77/55 99/77/55
f 96/53/56 95/77/56 99/77/56 100/53/56
f 101/77/57 102/53/57 104/53/57 103/77/57
f 100/53/58 99/77/58 103/77/58 104/53/58
f 98/53/59 100/53/59 104/53/59 102/53/59
f 97/77/60 98/53/60 102/53/60 101/77/60
