# Blender 4.0.2
# www.blender.org
mtllib idrk.mtl
o bed_04
v -0.320407 0.126496 4.361092
v -0.320407 0.316418 4.361092
v -1.175240 0.126496 2.325202
v -1.175240 0.316418 2.325202
v 1.168743 0.126496 3.735825
v 1.168743 0.316418 3.735825
v 0.313911 0.126496 1.699936
v 0.313911 0.316418 1.699936
v -1.225724 0.288127 2.204968
v -1.225724 0.126496 2.204968
v 0.263427 0.126496 1.579701
v 0.263427 0.288127 1.579701
v -0.272671 0.126496 4.474781
v -0.272671 0.316418 4.474781
v 1.216479 0.316418 3.849515
v 1.216479 0.126496 3.849515
v 0.263427 -0.139061 1.579701
v 0.313911 -0.139061 1.699936
v -1.225724 -0.139061 2.204968
v -1.119411 -0.139061 2.160330
v 1.168743 -0.139061 3.735825
v 1.065590 -0.139061 3.779136
v -1.175240 -0.139061 2.325202
v -1.068927 -0.139061 2.280564
v 0.210759 0.316418 1.743248
v 1.065590 0.126496 3.779136
v 0.160274 0.316418 1.623013
v 1.113327 0.126496 3.892826
v 0.210759 0.126496 1.743248
v 1.065590 0.316418 3.779136
v 0.160274 0.126496 1.623013
v 1.113327 0.316418 3.892826
v -1.068927 0.126496 2.280564
v -0.214095 0.316418 4.316453
v -1.119411 0.126496 2.160329
v -0.166359 0.316418 4.430142
v -1.068927 0.316418 2.280564
v -0.214095 0.126496 4.316453
v -1.119411 0.316418 2.160329
v -0.166359 0.126496 4.430142
v 1.113327 -0.139061 3.892826
v 1.216479 -0.139061 3.849515
v -0.320407 -0.139061 4.361092
v -0.272671 -0.139061 4.474781
v 0.210759 -0.139061 1.743248
v 0.160275 -0.139061 1.623013
v -0.214095 -0.139061 4.316453
v -0.166359 -0.139061 4.430142
v 0.210759 1.076332 1.743248
v 0.313911 1.076332 1.699936
v 0.160274 1.076332 1.623013
v 0.263426 1.076332 1.579701
v -1.225724 1.076332 2.204968
v -1.175240 1.076332 2.325202
v -1.068927 1.076332 2.280564
v -1.119411 1.076332 2.160329
v -1.105764 0.271203 2.262577
v -1.105764 0.979161 2.262576
v -1.131396 0.271203 2.201530
v -1.131396 0.979161 2.201530
v 0.220552 0.271203 1.705681
v 0.220552 0.979161 1.705681
v 0.194919 0.271203 1.644634
v 0.194919 0.979161 1.644634
v -0.255698 0.260112 4.440760
v -0.255698 0.513403 4.440760
v -1.147108 0.260111 2.317755
v -1.147108 0.513403 2.317755
v 1.180305 0.260112 3.837808
v 1.180305 0.513403 3.837808
v 0.288895 0.260111 1.714804
v 0.288895 0.513403 1.714804
v -0.968720 0.513403 2.742608
v 0.467283 0.513403 2.139657
v -0.282049 0.184236 4.524631
v 1.258633 0.184236 3.877727
v -1.019965 0.184236 2.767192
v 0.520718 0.184236 2.120288
v -0.876119 0.494379 2.587975
v -0.869766 0.607274 2.603105
v -1.000861 0.541213 2.290886
v -0.994508 0.654108 2.306016
v -0.377941 0.494379 2.378799
v -0.371588 0.607274 2.393929
v -0.502683 0.541213 2.081711
v -0.496330 0.654108 2.096841
v -0.935840 0.543203 2.680866
v -1.102612 0.605818 2.283676
v -0.436579 0.605818 2.004022
v -0.269807 0.543203 2.401211
v -0.743996 0.516995 2.204817
v -0.735296 0.671607 2.225538
v -0.637153 0.476880 2.459278
v -0.628453 0.631492 2.479998
v -0.614788 0.547695 2.512543
v -0.757631 0.601326 2.172345
v -0.918020 0.496938 2.427547
v -0.909320 0.651549 2.448268
v -0.463129 0.496938 2.236547
v -0.454429 0.651549 2.257268
v -0.382129 0.574511 2.214766
v -0.990290 0.574511 2.470121
v -0.681263 0.662413 2.354224
v -0.691186 0.486074 2.330592
v -0.182055 0.494379 2.296550
v -0.175702 0.607274 2.311680
v -0.306797 0.541213 1.999462
v -0.300444 0.654108 2.014592
v 0.316123 0.494379 2.087375
v 0.322476 0.607274 2.102505
v 0.191381 0.541213 1.790286
v 0.197734 0.654108 1.805416
v -0.241776 0.543203 2.389441
v -0.408548 0.605818 1.992252
v 0.257485 0.605818 1.712597
v 0.424257 0.543203 2.109786
v -0.049932 0.516995 1.913393
v -0.041232 0.671607 1.934113
v 0.056911 0.476880 2.167853
v 0.065611 0.631492 2.188574
v 0.079276 0.547695 2.221118
v -0.063567 0.601326 1.880920
v -0.223956 0.496938 2.136123
v -0.215256 0.651549 2.156844
v 0.230935 0.496938 1.945123
v 0.239635 0.651549 1.965843
v 0.311935 0.574511 1.923341
v -0.296226 0.574511 2.178697
v 0.012801 0.662413 2.062799
v 0.002878 0.486074 2.039167
v -0.255698 0.513403 4.440760
v 1.180305 0.513403 3.837808
v -0.968720 0.513403 2.742608
v 0.467283 0.513403 2.139657
v -0.282049 0.184236 4.524631
v 1.258633 0.184236 3.877727
v -1.019965 0.184236 2.767192
v 0.520718 0.184236 2.120288
vn -0.9220 -0.0000 0.3871
vn 0.9220 -0.0000 -0.3871
vn -0.0000 1.0000 -0.0000
vn -0.0000 -1.0000 -0.0000
vn -0.3871 -0.0000 -0.9220
vn 0.3871 -0.0000 0.9220
vn -0.9086 0.1699 0.3815
vn -0.3581 0.2574 0.8975
vn -0.3759 0.2569 0.8903
vn 0.8988 0.2569 0.3550
vn 0.8915 0.2574 0.3729
vn 0.9086 0.1699 -0.3815
vn -0.5286 0.7759 0.3443
vn -0.2457 0.9364 0.2508
vn -0.3429 0.9267 -0.1537
vn -0.9500 0.0945 -0.2975
vn -0.3830 0.1458 -0.9122
vn -0.1336 0.9386 -0.3182
vn 0.1304 0.9267 -0.3524
vn 0.4529 0.0945 -0.8865
vn 0.6159 0.7759 -0.1363
vn 0.3511 0.9364 0.0002
vn 0.4406 0.8102 0.3865
vn 0.9502 -0.0922 0.2978
vn 0.3832 -0.1419 0.9127
vn 0.2315 0.8015 0.5514
vn -0.0326 0.8102 0.5852
vn -0.4528 -0.0922 0.8869
vn -0.0250 -0.9937 -0.1091
vn 0.2472 -0.9358 -0.2513
vn 0.3450 -0.9258 0.1544
vn 0.1342 -0.9380 0.3197
vn 0.0557 0.9896 0.1326
vn -0.1314 -0.9258 0.3544
vn 0.5316 -0.7735 -0.3451
vn -0.2558 -0.6991 -0.6676
vn 0.0337 -0.8089 -0.5869
vn -0.4271 -0.9005 0.0819
vn -0.6186 -0.7735 0.1378
vn -0.5276 -0.7288 -0.4365
vn 0.9086 -0.1699 -0.3815
vn 0.3759 -0.2569 -0.8903
vn 0.3581 -0.2574 -0.8975
vn -0.8988 -0.2569 -0.3550
vn -0.8915 -0.2574 -0.3729
vn -0.9086 -0.1699 0.3815
vt 0.497617 0.471469
vt 0.461908 0.471469
vt 0.461908 0.886629
vt 0.497617 0.886629
vt 0.764979 0.443464
vt 0.770298 0.467982
vt 0.622101 0.467982
vt 0.622101 0.443464
vt 0.800688 0.443464
vt 0.764979 0.028304
vt 0.800688 0.028304
vt 0.260179 0.407080
vt 0.277762 0.407080
vt 0.277762 0.425883
vt 0.260179 0.425883
vt 0.026155 0.029639
vt 0.005121 0.029639
vt 0.005120 0.444798
vt 0.026155 0.444798
vt 0.260179 0.070358
vt 0.277762 0.070358
vt 0.055050 0.499258
vt 0.090759 0.499258
vt 0.085440 0.478223
vt 0.055050 0.478223
vt 0.467227 0.911147
vt 0.497617 0.911147
vt 0.800688 0.467982
vt 0.141488 0.792132
vt 0.163168 0.792132
vt 0.163168 0.842062
vt 0.141488 0.842062
vt 0.958732 0.760212
vt 0.994441 0.760212
vt 0.994441 0.781891
vt 0.958732 0.781891
vt 0.764979 0.005120
vt 0.800688 0.005120
vt 0.497617 0.448286
vt 0.461908 0.448286
vt 0.850618 0.005120
vt 0.850618 0.028304
vt 0.055050 0.781891
vt 0.055050 0.760212
vt 0.005120 0.760212
vt 0.005120 0.781891
vt 0.547547 0.471469
vt 0.547547 0.448286
vt 0.108064 0.792132
vt 0.131247 0.792132
vt 0.131247 0.842062
vt 0.108064 0.842062
vt 0.850618 0.443464
vt 0.850618 0.467982
vt 0.097823 0.792132
vt 0.074639 0.792132
vt 0.074639 0.842062
vt 0.097823 0.842062
vt 0.129743 0.852303
vt 0.108064 0.852303
vt 0.108064 0.875486
vt 0.129743 0.875486
vt 0.068317 0.876821
vt 0.089351 0.876821
vt 0.089351 0.852303
vt 0.068317 0.852303
vt 0.161019 0.852303
vt 0.139984 0.852303
vt 0.139984 0.875486
vt 0.161019 0.875486
vt 0.031467 0.407080
vt 0.048528 0.407080
vt 0.048528 0.425883
vt 0.031467 0.425883
vt 0.031467 0.070358
vt 0.048528 0.070358
vt 0.243879 0.847373
vt 0.264913 0.847373
vt 0.264913 0.897303
vt 0.243878 0.897303
vt 0.958732 0.478223
vt 0.994441 0.478223
vt 0.994441 0.499258
vt 0.958732 0.499258
vt 0.026800 0.852303
vt 0.005120 0.852303
vt 0.005120 0.876821
vt 0.026800 0.876821
vt 0.787364 0.901805
vt 0.766329 0.901805
vt 0.766329 0.758927
vt 0.787364 0.758927
vt 0.308789 0.029639
vt 0.287109 0.029639
vt 0.287109 0.444798
vt 0.308789 0.444798
vt 0.085440 0.781891
vt 0.090759 0.760212
vt 0.547547 0.911147
vt 0.547547 0.886629
vt 0.287109 0.005121
vt 0.026155 0.005121
vt 0.465600 0.709240
vt 0.465600 0.448286
vt 0.490119 0.448286
vt 0.490119 0.709240
vt 0.026155 0.467982
vt 0.287109 0.467982
vt 0.005120 0.478223
vt 0.005120 0.499258
vt 0.195088 0.792132
vt 0.173408 0.792132
vt 0.173408 0.842062
vt 0.195088 0.842062
vt 0.005121 0.792132
vt 0.029639 0.792132
vt 0.029639 0.842062
vt 0.005120 0.842062
vt 0.908802 0.499258
vt 0.908802 0.478223
vt 0.908802 0.781891
vt 0.908802 0.760212
vt 0.064398 0.792132
vt 0.039880 0.792132
vt 0.039880 0.842062
vt 0.064398 0.842062
vt 0.226364 0.792132
vt 0.205329 0.792132
vt 0.205329 0.842062
vt 0.226364 0.842062
vt 0.058076 0.876821
vt 0.037041 0.876821
vt 0.037041 0.852303
vt 0.058076 0.852303
vt 0.275154 0.847373
vt 0.296834 0.847373
vt 0.296834 0.871891
vt 0.275154 0.871891
vt 0.233638 0.499258
vt 0.233638 0.478223
vt 0.319030 0.886629
vt 0.319030 0.911147
vt 0.699649 0.901805
vt 0.724168 0.901805
vt 0.724168 0.758927
vt 0.699649 0.758927
vt 0.582306 0.862359
vt 0.557788 0.862359
vt 0.557788 0.719481
vt 0.582306 0.719481
vt 0.233638 0.781891
vt 0.233638 0.760212
vt 0.756088 0.901805
vt 0.734409 0.901805
vt 0.734409 0.758927
vt 0.756088 0.758927
vt 0.622101 0.748686
vt 0.755211 0.748686
vt 0.755211 0.478223
vt 0.622101 0.478223
vt 0.765451 0.478223
vt 0.898561 0.478223
vt 0.898561 0.748686
vt 0.765451 0.748686
vt 0.611860 0.448286
vt 0.611860 0.718748
vt 0.599411 0.718748
vt 0.599411 0.448286
vt 0.723218 0.009395
vt 0.677007 0.009395
vt 0.677006 0.345416
vt 0.677006 0.429483
vt 0.723218 0.429483
vt 0.683324 0.313982
vt 0.721950 0.313982
vt 0.721950 0.076477
vt 0.683324 0.076477
vt 0.722669 0.426807
vt 0.676694 0.426807
vt 0.676694 0.343170
vt 0.676694 0.008870
vt 0.722669 0.008870
vt 0.721553 0.315925
vt 0.682927 0.315925
vt 0.682927 0.078420
vt 0.721553 0.078420
vt 0.319030 0.091757
vt 0.611860 0.091757
vt 0.611860 0.438045
vt 0.319030 0.438045
vt 0.319030 0.005120
vt 0.611860 0.005121
vt 0.860859 0.364030
vt 0.922749 0.363498
vt 0.922749 0.005120
vt 0.860859 0.017742
vt 0.932990 0.308624
vt 0.932990 0.015794
vt 0.994880 0.005120
vt 0.994880 0.319297
vt 0.243879 0.490844
vt 0.305768 0.478223
vt 0.305768 0.836600
vt 0.243878 0.837132
vt 0.166818 0.715568
vt 0.166818 0.694006
vt 0.209145 0.700095
vt 0.223407 0.723709
vt 0.215287 0.630013
vt 0.203072 0.630013
vt 0.209145 0.559930
vt 0.223407 0.536317
vt 0.166818 0.544458
vt 0.166818 0.566020
vt 0.124491 0.559930
vt 0.110229 0.536317
vt 0.118349 0.630013
vt 0.130565 0.630013
vt 0.124491 0.700095
vt 0.110229 0.723709
vt 0.166818 0.630013
s 1
usemtl bed_04
f 1/1/1 2/2/1 4/3/1 3/4/1
f 8/5/2 12/6/2 52/7/2 50/8/2
f 7/9/2 8/5/2 6/10/2 5/11/2
f 34/12/3 2/13/3 14/14/3 36/15/3
f 29/16/4 7/17/4 5/18/4 26/19/4
f 37/20/3 4/21/3 2/13/3 34/12/3
f 31/22/5 27/23/5 12/24/5 11/25/5
f 3/4/1 4/3/1 9/26/1 10/27/1
f 8/5/2 7/9/2 11/28/2 12/6/2
f 33/29/6 3/30/6 23/31/6 24/32/6
f 40/33/6 36/34/6 14/35/6 13/36/6
f 5/11/2 6/10/2 15/37/2 16/38/2
f 2/2/1 1/1/1 13/39/1 14/40/1
f 5/11/2 16/38/2 42/41/2 21/42/2
f 10/43/5 35/44/5 20/45/5 19/46/5
f 13/39/1 1/1/1 43/47/1 44/48/1
f 38/49/2 40/50/2 48/51/2 47/52/2
f 11/28/2 7/9/2 18/53/2 17/54/2
f 28/55/1 26/56/1 22/57/1 41/58/1
f 43/59/4 47/60/4 48/61/4 44/62/4
f 18/63/4 45/64/4 46/65/4 17/66/4
f 22/67/4 21/68/4 42/69/4 41/70/4
f 6/71/3 30/72/3 32/73/3 15/74/3
f 8/75/3 25/76/3 30/72/3 6/71/3
f 7/77/6 29/78/6 45/79/6 18/80/6
f 16/81/6 15/82/6 32/83/6 28/84/6
f 28/84/6 32/83/6 36/34/6 40/33/6
f 25/76/3 37/20/3 34/12/3 30/72/3
f 30/72/3 34/12/3 36/15/3 32/73/3
f 24/85/4 23/86/4 19/87/4 20/88/4
f 25/89/6 8/90/6 50/91/6 49/92/6
f 3/93/4 33/94/4 38/95/4 1/96/4
f 10/43/5 9/97/5 39/98/5 35/44/5
f 3/4/1 10/27/1 19/99/1 23/100/1
f 29/16/4 33/94/4 35/101/4 31/102/4
f 35/44/5 39/98/5 27/23/5 31/22/5
f 33/94/4 29/16/4 26/19/4 38/95/4
f 37/103/3 25/104/3 27/105/3 39/106/3
f 38/95/4 26/19/4 28/107/4 40/108/4
f 31/22/5 11/25/5 17/109/5 46/110/5
f 1/111/5 38/112/5 47/113/5 43/114/5
f 35/115/2 33/116/2 24/117/2 20/118/2
f 16/81/6 28/84/6 41/119/6 42/120/6
f 40/33/6 13/36/6 44/121/6 48/122/6
f 29/123/1 31/124/1 46/125/1 45/126/1
f 26/127/5 5/128/5 21/129/5 22/130/5
f 49/131/3 50/132/3 52/133/3 51/134/3
f 54/135/3 55/136/3 56/137/3 53/138/3
f 12/24/5 27/23/5 51/139/5 52/140/5
f 9/26/1 4/3/1 54/141/1 53/142/1
f 27/143/1 25/144/1 49/145/1 51/146/1
f 37/147/2 39/148/2 56/149/2 55/150/2
f 39/98/5 9/97/5 53/151/5 56/152/5
f 4/153/6 37/154/6 55/155/6 54/156/6
f 59/157/5 60/158/5 64/159/5 63/160/5
f 61/161/6 62/162/6 58/163/6 57/164/6
f 64/165/3 60/166/3 58/167/3 62/168/3
f 65/169/1 66/170/1 73/171/1 68/172/1 67/173/1
f 67/174/5 68/175/5 72/176/5 71/177/5
f 71/178/2 72/179/2 74/180/2 70/181/2 69/182/2
f 69/183/6 70/184/6 66/185/6 65/186/6
f 74/187/3 73/188/3 66/189/3 70/190/3
f 72/191/3 68/192/3 73/188/3 74/187/3
f 73/193/7 77/194/7 75/195/8 66/196/9
f 70/197/10 66/198/9 75/199/8 76/200/11
f 70/201/10 76/202/11 78/203/12 74/204/12
f 102/205/13 98/206/14 82/207/15 88/208/16
f 96/209/17 92/210/18 86/211/19 89/212/20
f 101/213/21 100/214/22 84/215/23 90/216/24
f 95/217/25 94/218/26 80/219/27 87/220/28
f 104/221/29 99/214/30 83/215/31 93/218/32
f 103/221/33 98/206/14 80/219/27 94/218/26
f 93/218/32 95/217/25 87/220/28 79/219/34
f 99/214/30 101/213/35 90/216/24 83/215/31
f 91/210/36 96/209/17 89/212/20 85/211/37
f 97/206/38 102/205/39 88/208/16 81/207/40
f 81/207/40 88/208/16 96/209/17 91/210/36
f 83/215/31 90/216/24 95/217/25 93/218/32
f 100/214/22 103/221/33 94/218/26 84/215/23
f 97/206/38 104/221/29 93/218/32 79/219/34
f 90/216/24 84/215/23 94/218/26 95/217/25
f 88/208/16 82/207/15 92/210/18 96/209/17
f 86/211/19 92/210/18 103/221/33 100/214/22
f 79/219/34 87/220/28 102/205/39 97/206/38
f 85/211/37 89/212/20 101/213/35 99/214/30
f 92/210/18 82/207/15 98/206/14 103/221/33
f 91/210/36 85/211/37 99/214/30 104/221/29
f 89/212/20 86/211/19 100/214/22 101/213/21
f 87/220/28 80/219/27 98/206/14 102/205/13
f 128/205/13 124/206/14 108/207/15 114/208/16
f 122/209/17 118/210/18 112/211/19 115/212/20
f 127/213/21 126/214/22 110/215/23 116/216/24
f 121/217/25 120/218/26 106/219/27 113/220/28
f 130/221/29 125/214/30 109/215/31 119/218/32
f 129/221/33 124/206/14 106/219/27 120/218/26
f 119/218/32 121/217/25 113/220/28 105/219/34
f 125/214/30 127/213/35 116/216/24 109/215/31
f 117/210/36 122/209/17 115/212/20 111/211/37
f 123/206/38 128/205/39 114/208/16 107/207/40
f 107/207/40 114/208/16 122/209/17 117/210/36
f 109/215/31 116/216/24 121/217/25 119/218/32
f 126/214/22 129/221/33 120/218/26 110/215/23
f 123/206/38 130/221/29 119/218/32 105/219/34
f 116/216/24 110/215/23 120/218/26 121/217/25
f 114/208/16 108/207/15 118/210/18 122/209/17
f 112/211/19 118/210/18 129/221/33 126/214/22
f 105/219/34 113/220/28 128/205/39 123/206/38
f 111/211/37 115/212/20 127/213/35 125/214/30
f 118/210/18 108/207/15 124/206/14 129/221/33
f 117/210/36 111/211/37 125/214/30 130/221/29
f 115/212/20 112/211/19 126/214/22 127/213/21
f 113/220/28 106/219/27 124/206/14 128/205/13
f 133/193/41 131/196/42 135/195/43 137/194/41
f 132/197/44 136/200/45 135/199/43 131/198/42
f 132/201/44 134/204/46 138/203/46 136/202/45
o Armchair_08
v -0.033845 -0.085634 -0.664763
v -0.033845 0.182283 -0.664763
v -0.699361 -0.085634 -1.063805
v -0.699361 0.182283 -1.063805
v 1.133987 -0.085634 -2.612459
v 1.133987 0.182283 -2.612459
v 0.468471 -0.085634 -3.011501
v 0.468471 0.182283 -3.011501
v -0.770191 -0.085634 -0.945675
v -0.104675 -0.085634 -0.546633
v -0.119689 0.182283 -0.521594
v -0.785205 0.182283 -0.920635
v 0.554315 0.182283 -3.154670
v 0.539301 -0.085634 -3.129631
v 1.204818 -0.085634 -2.730589
v 1.219831 0.182283 -2.755629
v -0.799505 0.182283 -1.123851
v -0.799505 -0.085634 -1.123851
v 0.368327 -0.085634 -3.071547
v 0.368327 0.182283 -3.071547
v -0.885349 0.182283 -0.980681
v -0.870335 -0.085634 -1.005721
v 0.454171 0.182283 -3.214716
v 0.439157 -0.085634 -3.189676
v -0.837271 0.300099 -0.833800
v -0.171755 0.300099 -0.434759
v 0.506237 0.300098 -3.301551
v 0.606381 0.300099 -3.241505
v -0.135525 -0.331187 -0.535116
v -0.111969 -0.049436 -0.562427
v -0.185135 -0.331187 -0.564862
v -0.204924 -0.049436 -0.618163
v -0.107576 -0.331187 -0.581729
v -0.056755 -0.049436 -0.654512
v -0.157186 -0.331187 -0.611475
v -0.149710 -0.049436 -0.710248
v 1.200148 -0.331187 -2.762735
v 1.187156 -0.049436 -2.729091
v 1.150539 -0.331187 -2.792481
v 1.094200 -0.049436 -2.784827
v 1.172200 -0.331187 -2.716123
v 1.131942 -0.049436 -2.637006
v 1.122590 -0.331187 -2.745869
v 1.038986 -0.049436 -2.692742
v -0.866003 -0.331187 -0.973109
v -0.853010 -0.049436 -1.006753
v -0.816393 -0.331187 -0.943363
v -0.760055 -0.049436 -0.951018
v -0.838054 -0.331187 -1.019721
v -0.797796 -0.049436 -1.098838
v -0.788444 -0.331187 -0.989975
v -0.704841 -0.049436 -1.043103
v 0.469670 -0.331187 -3.200727
v 0.446114 -0.049436 -3.173417
v 0.519280 -0.331187 -3.170981
v 0.539070 -0.049436 -3.117681
v 0.441721 -0.331187 -3.154115
v 0.390900 -0.049436 -3.081332
v 0.491331 -0.331187 -3.124369
v 0.483856 -0.049436 -3.025596
v -0.115445 -0.085634 -2.037652
v -0.115445 0.182283 -2.037653
v 0.550071 -0.085634 -1.638611
v 0.550071 0.182283 -1.638611
v -0.215589 -0.085634 -2.097698
v -0.215589 0.182283 -2.097699
v -0.033845 0.344295 -0.664763
v -0.699361 0.344295 -1.063805
v -0.115445 0.344295 -2.037653
v 0.468471 0.344295 -3.011501
v 0.556986 0.265450 -3.159124
v 0.456842 0.265450 -3.219170
v 1.133987 0.344295 -2.612459
v -0.122360 0.265450 -0.517140
v -0.787876 0.265450 -0.916181
v 1.222502 0.265450 -2.760083
v -0.215589 0.344295 -2.097699
v 0.368327 0.344295 -3.071547
v -0.888020 0.265450 -0.976227
v -0.799505 0.344295 -1.123851
v -0.033845 0.484585 -0.664763
v -0.699361 0.484584 -1.063805
v -0.115445 0.484584 -2.037653
v 0.468471 0.484584 -3.011501
v 0.539301 0.484584 -3.129631
v 0.439157 0.484584 -3.189676
v 1.133987 0.484585 -2.612459
v -0.104675 0.484585 -0.546633
v -0.770192 0.484584 -0.945675
v 1.204818 0.484585 -2.730589
v -0.215589 0.484584 -2.097699
v 0.368327 0.484584 -3.071547
v -0.870335 0.484584 -1.005721
v -0.799505 0.484584 -1.123851
v -0.115445 0.830578 -2.037653
v 0.381024 0.908491 -2.865658
v -0.215589 0.830578 -2.097699
v 0.280880 0.908491 -2.925704
v -0.712059 0.908491 -1.269693
v -0.611915 0.908491 -1.209647
v 1.271897 0.300099 -2.842464
v -0.937415 0.300098 -0.893846
v 1.252914 0.449936 -2.810803
v 0.587397 0.449936 -3.209845
v 0.487254 0.449935 -3.269891
v -0.152771 0.449936 -0.466419
v -0.818288 0.449936 -0.865461
v -0.918431 0.449935 -0.925507
v 0.564854 0.819137 -3.172248
v 0.511858 0.908491 -3.083861
v 0.411714 0.908491 -3.143907
v 0.464711 0.819137 -3.232294
v -0.895889 0.819137 -0.963103
v -0.842892 0.908491 -1.051490
v -0.742749 0.908491 -0.991444
v -0.795745 0.819137 -0.903057
vn 0.8576 -0.0000 0.5142
vn 0.3434 -0.7444 -0.5727
vn -0.0000 -1.0000 -0.0000
vn -0.0000 1.0000 -0.0000
vn -0.3434 -0.7444 0.5727
vn -0.5124 -0.0854 0.8545
vn 0.5124 -0.0854 -0.8545
vn -0.8576 -0.0000 -0.5142
vn 0.4534 -0.4720 -0.7561
vn 0.3836 0.6660 -0.6398
vn -0.5102 0.1251 0.8509
vn -0.5341 -0.7825 -0.3202
vn -0.8472 -0.1556 -0.5080
vn -0.1940 -0.3200 -0.9274
vn -0.2163 -0.6932 -0.6875
vn 0.4906 -0.2998 -0.8182
vn 0.7485 -0.6546 -0.1060
vn 0.8574 -0.0219 0.5141
vn 0.5744 -0.7426 0.3444
vn 0.5102 0.1251 -0.8509
vn -0.7083 -0.6932 0.1331
vn -0.9094 -0.3200 0.2657
vn 0.2592 -0.6546 0.7102
vn -0.4906 -0.2998 0.8182
vn 0.5341 -0.7825 0.3202
vn 0.7083 -0.6932 -0.1331
vn 0.9094 -0.3200 -0.2657
vn 0.8472 -0.1556 0.5080
vn -0.2592 -0.6546 -0.7102
vn -0.5744 -0.7426 -0.3444
vn -0.8574 -0.0219 -0.5141
vn 0.1940 -0.3200 0.9274
vn 0.2163 -0.6932 0.6875
vn -0.7485 -0.6546 0.1060
vn 0.4114 -0.6000 -0.6861
vn 0.5142 -0.0000 -0.8576
vn -0.4114 -0.6000 0.6861
vn -0.5142 -0.0000 0.8576
vn -0.2701 0.8510 0.4504
vn -0.0907 0.9843 0.1513
vn 0.0907 0.9843 -0.1513
vn 0.2701 0.8510 -0.4504
vn 0.4426 0.5092 -0.7381
vn -0.0207 0.9992 0.0345
vn 0.1798 0.9369 -0.2998
vn 0.0207 0.9992 -0.0345
vn -0.1798 0.9369 0.2998
vn -0.4534 -0.4720 0.7561
vn -0.3836 0.6660 0.6398
vn -0.4426 0.5092 0.7381
vn -0.4823 0.3471 0.8043
vn 0.4823 0.3471 -0.8043
vt 0.957156 0.066919
vt 0.895642 0.066919
vt 0.895642 0.028591
vt 0.957156 0.035295
vt 0.422452 0.005345
vt 0.422452 0.036969
vt 0.449261 0.036969
vt 0.449261 0.005345
vt 0.957156 0.327628
vt 0.895642 0.327628
vt 0.422452 0.297678
vt 0.244286 0.036969
vt 0.244286 0.297678
vt 0.815544 0.266054
vt 0.815544 0.526763
vt 0.637378 0.526763
vt 0.637378 0.266054
vt 0.637378 0.742427
vt 0.698892 0.742427
vt 0.698892 0.564262
vt 0.637378 0.564262
vt 0.244286 0.627511
vt 0.305800 0.627511
vt 0.305800 0.805676
vt 0.244286 0.805676
vt 0.422452 0.558387
vt 0.244286 0.558387
vt 0.244286 0.590012
vt 0.422452 0.590012
vt 0.895642 0.588337
vt 0.957156 0.588337
vt 0.957156 0.619962
vt 0.895642 0.626665
vt 0.244286 0.005345
vt 0.233596 0.327628
vt 0.172083 0.327628
vt 0.172083 0.588337
vt 0.233596 0.588337
vt 0.172083 0.066919
vt 0.233596 0.066919
vt 0.233596 0.035295
vt 0.172083 0.028591
vt 0.172083 0.626665
vt 0.233596 0.619962
vt 0.449261 0.558387
vt 0.449261 0.297678
vt 0.698892 0.537452
vt 0.637378 0.537452
vt 0.449261 0.590012
vt 0.244286 0.600702
vt 0.305800 0.600702
vt 0.587528 0.650329
vt 0.587528 0.623520
vt 0.621930 0.623520
vt 0.621930 0.650329
vt 0.215239 0.800671
vt 0.218640 0.735981
vt 0.193755 0.735981
vt 0.197037 0.800671
vt 0.749787 0.866377
vt 0.753562 0.801687
vt 0.728910 0.801687
vt 0.732685 0.866377
vt 0.161462 0.800671
vt 0.158180 0.735981
vt 0.183065 0.735981
vt 0.179664 0.800671
vt 0.339360 0.854247
vt 0.335585 0.789557
vt 0.360237 0.789557
vt 0.356462 0.854247
vt 0.825878 0.668524
vt 0.808775 0.668524
vt 0.808775 0.686726
vt 0.825878 0.686726
vt 0.144089 0.812795
vt 0.125887 0.812795
vt 0.122605 0.748104
vt 0.147490 0.748104
vt 0.641153 0.817807
vt 0.658256 0.817807
vt 0.662031 0.753117
vt 0.637378 0.753117
vt 0.086464 0.812795
vt 0.104666 0.812795
vt 0.108066 0.748104
vt 0.083181 0.748104
vt 0.856046 0.790998
vt 0.838944 0.790998
vt 0.835169 0.726308
vt 0.859821 0.726308
vt 0.158180 0.811361
vt 0.158180 0.829563
vt 0.175282 0.829563
vt 0.175282 0.811361
vt 0.161581 0.725291
vt 0.179783 0.725291
vt 0.183065 0.660601
vt 0.158180 0.660601
vt 0.785129 0.866377
vt 0.768027 0.866377
vt 0.764252 0.801687
vt 0.788904 0.801687
vt 0.785855 0.790998
vt 0.767653 0.790998
vt 0.764252 0.726308
vt 0.789137 0.726308
vt 0.803602 0.790998
vt 0.820704 0.790998
vt 0.824479 0.726308
vt 0.799827 0.726308
vt 0.816696 0.819889
vt 0.816696 0.801687
vt 0.799594 0.801687
vt 0.799594 0.819889
vt 0.732078 0.790998
vt 0.728677 0.726308
vt 0.753562 0.726308
vt 0.750280 0.790998
vt 0.676495 0.817807
vt 0.672720 0.753117
vt 0.697372 0.753117
vt 0.693597 0.817807
vt 0.215358 0.725291
vt 0.218640 0.660601
vt 0.193755 0.660601
vt 0.197156 0.725291
vt 0.391804 0.854247
vt 0.395579 0.789557
vt 0.370927 0.789557
vt 0.374702 0.854247
vt 0.808775 0.715618
vt 0.825878 0.715618
vt 0.825878 0.697416
vt 0.808775 0.697416
vt 0.815544 0.005345
vt 0.637378 0.005345
vt 0.324895 0.627511
vt 0.324895 0.805676
vt 0.335585 0.778867
vt 0.335585 0.600702
vt 0.372783 0.600702
vt 0.372783 0.778867
vt 0.134885 0.066919
vt 0.134885 0.327628
vt 0.134884 0.588337
vt 0.102674 0.327628
vt 0.102674 0.588337
vt 0.404993 0.600702
vt 0.404993 0.778867
vt 0.858444 0.588337
vt 0.876547 0.627857
vt 0.826234 0.619962
vt 0.826234 0.588337
vt 0.152987 0.027399
vt 0.152987 0.627857
vt 0.626688 0.309087
vt 0.626688 0.569796
vt 0.589490 0.569796
vt 0.589490 0.309087
vt 0.626689 0.048379
vt 0.589490 0.048379
vt 0.324895 0.600702
vt 0.858444 0.066919
vt 0.876547 0.027399
vt 0.717987 0.564262
vt 0.717987 0.537452
vt 0.717987 0.742427
vt 0.728677 0.537452
vt 0.728677 0.715618
vt 0.765875 0.715618
vt 0.765875 0.537452
vt 0.523739 0.650329
vt 0.555364 0.650329
vt 0.555364 0.828495
vt 0.523739 0.828495
vt 0.513050 0.828495
vt 0.481425 0.828495
vt 0.481425 0.650329
vt 0.513050 0.650329
vt 0.102674 0.066919
vt 0.102674 0.035295
vt 0.025861 0.023886
vt 0.005345 0.047548
vt 0.005345 0.105963
vt 0.557280 0.569796
vt 0.557280 0.309087
vt 0.481425 0.623520
vt 0.459951 0.650329
vt 0.459951 0.623520
vt 0.102674 0.619962
vt 0.798086 0.715618
vt 0.798086 0.537452
vt 0.459951 0.828495
vt 0.145032 0.005345
vt 0.110629 0.013821
vt 0.557280 0.048379
vt 0.072492 0.687411
vt 0.072492 0.660601
vt 0.050437 0.660601
vt 0.050437 0.687411
vt 0.826234 0.066919
vt 0.826234 0.035295
vt 0.557280 0.601421
vt 0.480467 0.612830
vt 0.459951 0.589168
vt 0.459951 0.530753
vt 0.477840 0.309087
vt 0.023234 0.327628
vt 0.005345 0.549294
vt 0.005345 0.607709
vt 0.025861 0.631371
vt 0.459951 0.087422
vt 0.967846 0.087422
vt 0.967846 0.029007
vt 0.994655 0.029007
vt 0.994655 0.087422
vt 0.557280 0.016754
vt 0.459951 0.029007
vt 0.480467 0.005345
vt 0.967846 0.530753
vt 0.994655 0.530753
vt 0.994655 0.589168
vt 0.967846 0.589168
vt 0.005345 0.660601
vt 0.005345 0.687411
vt 0.039748 0.687411
vt 0.039748 0.660601
vt 0.005345 0.865576
vt 0.039748 0.865576
vt 0.587528 0.828495
vt 0.621930 0.828495
vt 0.834189 0.013821
vt 0.868592 0.005345
vt 0.427207 0.627511
vt 0.427207 0.805676
vt 0.449261 0.805676
vt 0.449261 0.627511
vt 0.427207 0.600702
vt 0.449261 0.600702
vt 0.110629 0.641436
vt 0.145032 0.649912
vt 0.868592 0.649912
vt 0.834189 0.641436
vt 0.576838 0.650329
vt 0.576838 0.828495
vt 0.555364 0.623520
vt 0.576838 0.623520
vt 0.072492 0.865576
vt 0.050437 0.865576
vt 0.967846 0.309087
vt 0.994655 0.309087
vt 0.083181 0.737415
vt 0.109991 0.737415
vt 0.109991 0.660601
vt 0.083181 0.660601
vt 0.967846 0.005345
vt 0.994655 0.005345
vt 0.994655 0.612830
vt 0.967846 0.612830
vt 0.147490 0.737415
vt 0.120681 0.737415
vt 0.120681 0.660601
vt 0.147490 0.660601
s 1
usemtl Armchair_08
f 139/222/47 140/223/47 149/224/47 148/225/47
f 152/226/48 145/227/49 157/228/49 162/229/48
f 201/230/47 202/231/47 140/223/47 139/222/47
f 199/232/49 145/227/49 143/233/49 201/234/49
f 200/235/50 142/236/50 140/237/50 202/238/50
f 148/239/51 149/240/52 150/241/52 147/242/51
f 152/243/48 151/244/53 154/245/53 153/246/48
f 141/247/49 139/248/49 148/249/51 147/250/51
f 144/251/47 143/252/47 153/253/47 154/254/47
f 143/233/49 145/227/49 152/226/48 153/255/48
f 203/256/54 204/257/54 158/258/54 157/259/54
f 155/260/54 156/261/54 160/262/54 159/263/54
f 157/259/54 158/258/54 161/264/54 162/265/54
f 199/232/49 141/247/49 156/266/49 203/267/49
f 147/242/51 150/241/52 159/268/52 160/269/51
f 141/247/49 147/250/51 160/270/51 156/266/49
f 151/244/53 152/243/48 162/271/48 161/272/53
f 166/273/55 165/274/55 243/275/56 242/276/56
f 167/277/57 168/278/57 170/279/57 169/280/57
f 169/281/58 170/282/59 174/283/60 173/284/61
f 173/285/61 174/286/60 172/287/62 171/288/63
f 171/289/63 172/290/64 168/291/64 167/292/65
f 169/293/58 173/294/61 171/295/63 167/296/65
f 175/297/66 177/298/66 178/299/66 176/300/66
f 177/301/58 181/302/67 182/303/68 178/304/59
f 181/305/67 179/306/69 180/307/70 182/308/68
f 179/309/69 175/310/65 176/311/64 180/312/64
f 177/313/58 175/314/65 179/315/69 181/316/67
f 183/317/57 185/318/57 186/319/57 184/320/57
f 185/321/71 189/322/72 190/323/73 186/324/74
f 189/325/72 187/326/75 188/327/62 190/328/73
f 187/329/75 183/330/76 184/331/77 188/332/77
f 185/333/71 183/334/76 187/335/75 189/336/72
f 191/337/66 192/338/66 194/339/66 193/340/66
f 193/341/71 194/342/74 198/343/78 197/344/79
f 197/345/79 198/346/78 196/347/70 195/348/80
f 195/349/80 196/350/77 192/351/77 191/352/76
f 193/353/71 197/354/79 195/355/80 191/356/76
f 145/227/49 199/232/49 203/267/49 157/228/49
f 156/261/54 155/260/54 204/257/54 203/256/54
f 146/357/50 200/235/50 202/238/50 144/358/50
f 141/247/49 199/232/49 201/234/49 139/248/49
f 143/252/47 144/251/47 202/231/47 201/230/47
f 154/245/53 151/244/53 209/359/81 214/360/81
f 140/361/82 142/362/82 206/363/82 205/364/82
f 204/257/54 155/260/54 218/365/54 215/366/54
f 216/367/54 215/366/54 229/368/54 230/369/54
f 205/364/82 206/363/82 220/370/82 219/371/82
f 211/372/47 214/373/47 228/374/47 225/375/47
f 155/260/54 159/263/54 217/376/54 218/365/54
f 161/264/54 158/258/54 216/367/54 210/377/54
f 200/378/47 146/379/47 208/380/47 207/381/47
f 142/382/47 200/378/47 207/381/47 206/383/47
f 158/258/54 204/257/54 215/366/54 216/367/54
f 151/244/53 161/272/53 210/384/81 209/359/81
f 149/224/47 140/223/47 205/385/47 212/386/47
f 159/268/52 150/241/52 213/387/83 217/388/83
f 150/241/52 149/240/52 212/389/83 213/387/83
f 146/390/84 144/391/84 211/392/84 208/393/84
f 144/251/47 154/254/47 214/373/47 211/372/47
f 220/394/50 227/395/85 226/396/86 219/397/50
f 225/398/50 228/399/87 223/400/88 222/401/50
f 232/402/54 231/403/54 251/404/54 252/405/54 237/406/54
f 207/381/47 208/380/47 222/407/47 221/408/47
f 218/365/54 217/376/54 231/403/54 232/402/54
f 224/409/89 223/400/88 242/410/56 243/411/56
f 210/377/54 216/367/54 230/369/54 224/412/54
f 208/393/84 211/392/84 225/413/84 222/414/84
f 223/400/88 228/399/87 241/415/56 242/410/56
f 231/403/54 217/376/54 240/416/54 246/417/54
f 206/383/47 207/381/47 221/408/47 220/418/47
f 209/419/81 210/420/81 165/421/55 166/422/55
f 215/366/54 218/365/54 232/402/54 229/368/54
f 212/386/47 205/385/47 219/423/47 226/424/47
f 222/407/47 223/425/47 247/426/47 248/427/47 234/428/47
f 221/408/47 222/407/47 234/428/47 233/429/47
f 230/369/54 229/368/54 235/430/54 236/431/54
f 224/412/54 230/369/54 236/431/54 249/432/54 250/433/54
f 220/418/47 221/408/47 233/429/47 238/434/47
f 234/435/90 248/436/91 249/437/91 236/438/90
f 227/439/47 220/418/47 238/434/47 253/440/47 254/441/47
f 229/368/54 232/402/54 237/406/54 235/430/54
f 238/442/92 237/443/92 252/444/93 253/445/93
f 240/446/94 163/447/94 245/448/95 246/449/95
f 163/447/94 164/450/94 244/451/95 245/448/95
f 239/452/55 166/273/55 242/276/56 241/453/56
f 212/386/47 226/424/47 244/454/47 164/455/47
f 213/456/83 212/457/83 164/458/94 163/459/94
f 217/460/83 213/456/83 163/459/94 240/461/94
f 210/377/54 224/412/54 243/462/54 165/463/54
f 228/374/47 214/373/47 239/464/47 241/465/47
f 226/396/86 227/395/85 245/466/95 244/467/95
f 227/395/85 231/468/96 246/469/95 245/466/95
f 214/470/81 209/419/81 166/422/55 239/471/55
f 233/472/50 235/473/50 237/443/92 238/442/92
f 231/474/96 227/475/85 254/476/97 251/477/97
f 236/438/90 235/473/50 233/472/50 234/435/90
f 247/478/98 250/479/98 249/437/91 248/436/91
f 251/480/97 254/481/97 253/445/93 252/444/93
f 223/482/88 224/483/89 250/484/98 247/485/98
o Chair_03
v 1.610723 -0.021485 -5.798700
v 1.610723 -0.021485 -4.903182
v 1.666958 -0.021485 -5.798700
v 1.666958 -0.021485 -4.903182
v 1.610723 -0.077720 -5.798700
v 1.610723 -0.077720 -4.903182
v 1.666958 -0.077720 -5.798700
v 1.666958 -0.077720 -4.903182
v 1.610723 -0.036850 -4.657558
v 1.666959 -0.036850 -4.657558
v 1.666959 -0.077720 -4.657558
v 1.610723 -0.077720 -4.657558
v 2.060385 0.414298 -5.798700
v 2.060385 0.414298 -5.274357
v 2.116620 0.414298 -5.798700
v 2.116620 0.414298 -5.274357
v 2.060385 0.358062 -5.798700
v 2.060385 0.358062 -5.274357
v 2.116620 0.358062 -5.798700
v 2.116620 0.358062 -5.274357
v 2.060385 -0.021485 -5.798700
v 2.060385 -0.021485 -4.903182
v 2.116620 -0.021485 -5.798700
v 2.116620 -0.021485 -4.903182
v 2.060385 -0.077720 -5.798700
v 2.060385 -0.077720 -4.903182
v 2.116620 -0.077720 -5.798700
v 2.116620 -0.077720 -4.903182
v 2.060385 -0.036850 -4.657558
v 2.116620 -0.036850 -4.657558
v 2.116620 -0.077720 -4.657558
v 2.060385 -0.077720 -4.657558
v 1.610723 0.414298 -5.798700
v 1.610723 0.414298 -5.274357
v 1.666959 0.414298 -5.798700
v 1.666959 0.414298 -5.274357
v 1.610723 0.358062 -5.798700
v 1.610723 0.358062 -5.274357
v 1.666959 0.358062 -5.798700
v 1.666959 0.358062 -5.274357
v 1.594256 0.434947 -5.259437
v 1.594256 0.434947 -5.292448
v 2.131274 0.434947 -5.259437
v 2.131274 0.434947 -5.292448
v 1.615207 -0.046873 -5.259437
v 1.615207 -0.046873 -5.292448
v 2.110322 -0.046873 -5.259437
v 2.110322 -0.046873 -5.292448
v 2.063367 -0.031343 -5.651933
v 2.063367 -0.031343 -5.694140
v 2.063367 -0.060806 -5.651933
v 2.063367 -0.060806 -5.694140
v 1.658503 -0.031343 -5.651933
v 1.658503 -0.031343 -5.694140
v 1.658503 -0.060806 -5.651933
v 1.658503 -0.060806 -5.694140
v 2.063367 -0.031343 -5.275900
v 2.063367 -0.031343 -5.331666
v 2.063367 -0.060806 -5.275900
v 2.063367 -0.060806 -5.331666
v 1.658503 -0.031343 -5.275900
v 1.658503 -0.031343 -5.331666
v 1.658503 -0.060806 -5.275900
v 1.658503 -0.060806 -5.331666
v 2.105257 -0.037335 -5.651933
v 2.105257 -0.037335 -5.694140
v 2.075794 -0.037335 -5.651933
v 2.075794 -0.037335 -5.694140
v 2.105257 0.367530 -5.651933
v 2.105257 0.367530 -5.694140
v 2.075794 0.367530 -5.651933
v 2.075794 0.367530 -5.694140
v 2.105257 -0.037335 -5.275900
v 2.105257 -0.037335 -5.333347
v 2.075794 -0.037335 -5.275900
v 2.075794 -0.037335 -5.333347
v 2.105257 0.367530 -5.275900
v 2.105257 0.367530 -5.333347
v 2.075794 0.367530 -5.275900
v 2.075794 0.367530 -5.333347
v 1.622087 -0.037335 -5.651933
v 1.622087 -0.037335 -5.694140
v 1.651550 -0.037335 -5.651933
v 1.651550 -0.037335 -5.694140
v 1.622087 0.367530 -5.651933
v 1.622087 0.367530 -5.694140
v 1.651550 0.367530 -5.651933
v 1.651550 0.367530 -5.694140
v 1.622087 -0.037335 -5.275900
v 1.622087 -0.037335 -5.333347
v 1.651550 -0.037335 -5.275900
v 1.651550 -0.037335 -5.333347
v 1.622087 0.367530 -5.275900
v 1.622087 0.367530 -5.333347
v 1.651550 0.367530 -5.275900
v 1.651550 0.367530 -5.333347
v 1.652155 -0.045779 -5.171508
v 1.652155 -0.045779 -5.119871
v 2.072668 -0.045779 -5.171508
v 2.072668 -0.045779 -5.119871
v 1.652155 -0.065835 -5.171508
v 1.652155 -0.065835 -5.119871
v 2.072668 -0.065835 -5.171508
v 2.072668 -0.065835 -5.119871
v 1.652155 -0.045779 -4.786775
v 1.652155 -0.045779 -4.714564
v 2.072668 -0.045779 -4.786775
v 2.072668 -0.045779 -4.714564
v 1.652155 -0.065835 -4.786775
v 1.652155 -0.065835 -4.714564
v 2.072668 -0.065835 -4.786775
v 2.072668 -0.065835 -4.714564
v 1.967546 -0.065835 -4.786775
v 1.954613 -0.045779 -4.661185
v 1.967546 -0.045779 -4.786775
v 1.954613 -0.065835 -4.661185
v 1.862424 -0.065835 -4.786775
v 1.862424 -0.045779 -4.786775
v 1.757290 -0.065835 -4.786775
v 1.770223 -0.045779 -4.661185
v 1.757290 -0.045779 -4.786775
v 1.770223 -0.065835 -4.661185
v 1.844748 -0.045779 -4.710299
v 1.880098 -0.045779 -4.710299
v 1.862424 -0.045779 -4.728506
v 1.880098 -0.065835 -4.710299
v 1.844748 -0.065835 -4.710299
v 1.862424 -0.065835 -4.728506
v 1.844235 -0.049133 -5.133705
v 1.844235 -0.049133 -4.768086
v 1.880588 -0.049133 -5.133705
v 1.880588 -0.049133 -4.768086
v 1.844235 -0.062481 -5.133705
v 1.844235 -0.062481 -4.768086
v 1.880588 -0.062481 -5.133705
v 1.880588 -0.062481 -4.768086
v 1.955455 -0.049133 -5.133705
v 1.955455 -0.049133 -4.768086
v 1.991808 -0.049133 -5.133705
v 1.991808 -0.049133 -4.768086
v 1.955455 -0.062481 -5.133705
v 1.955455 -0.062481 -4.768086
v 1.991808 -0.062481 -5.133705
v 1.991808 -0.062481 -4.768086
v 1.769368 -0.049133 -5.133705
v 1.769368 -0.049133 -4.768086
v 1.733015 -0.049133 -5.133705
v 1.733015 -0.049133 -4.768086
v 1.769368 -0.062481 -5.133705
v 1.769368 -0.062481 -4.768086
v 1.733015 -0.062481 -5.133705
v 1.733015 -0.062481 -4.768086
vn -0.0000 1.0000 -0.0000
vn 1.0000 -0.0000 -0.0000
vn -0.0000 -1.0000 -0.0000
vn -1.0000 -0.0000 -0.0000
vn -0.0000 -0.0000 -1.0000
vn -0.0000 -0.0000 1.0000
vn -0.0000 0.9980 0.0624
vn 0.9991 -0.0434 -0.0000
vn -0.9991 -0.0434 -0.0000
vn 0.4120 -0.0000 0.9112
vn -0.4120 -0.0000 0.9112
vn 0.5503 -0.0000 0.8350
vn -0.5503 -0.0000 0.8350
vt 0.434673 0.887738
vt 0.434673 0.196077
vt 0.391240 0.196077
vt 0.391240 0.887738
vt 0.547010 0.887738
vt 0.547010 0.196077
vt 0.503576 0.196077
vt 0.503576 0.887738
vt 0.447408 0.887738
vt 0.447408 0.196077
vt 0.490842 0.196077
vt 0.490842 0.887738
vt 0.559745 0.887738
vt 0.559745 0.196077
vt 0.603179 0.196077
vt 0.603179 0.887738
vt 0.105969 0.802740
vt 0.105969 0.759306
vt 0.062536 0.759306
vt 0.062536 0.802740
vt 0.447408 0.006367
vt 0.490842 0.006367
vt 0.225808 0.759306
vt 0.257374 0.759306
vt 0.257374 0.802740
vt 0.225808 0.802740
vt 0.434673 0.006367
vt 0.391240 0.006367
vt 0.559745 0.006367
vt 0.591311 0.006367
vt 0.535143 0.006367
vt 0.503576 0.006367
vt 0.111654 0.704446
vt 0.111654 0.443578
vt 0.083676 0.443578
vt 0.083676 0.704446
vt 0.328195 0.704446
vt 0.328195 0.443578
vt 0.300217 0.443578
vt 0.300217 0.704446
vt 0.040367 0.704446
vt 0.040367 0.443578
vt 0.068345 0.443578
vt 0.068345 0.704446
vt 0.213601 0.704446
vt 0.213601 0.443578
vt 0.241579 0.443578
vt 0.241579 0.704446
vt 0.209251 0.521341
vt 0.181273 0.521341
vt 0.181273 0.549319
vt 0.209251 0.549319
vt 0.466114 0.728808
vt 0.466114 0.283275
vt 0.438136 0.283275
vt 0.438136 0.728808
vt 0.585119 0.764960
vt 0.585119 0.319427
vt 0.557141 0.319427
vt 0.557141 0.764960
vt 0.394827 0.728808
vt 0.394827 0.283275
vt 0.422805 0.283275
vt 0.422805 0.728808
vt 0.697986 0.728808
vt 0.697986 0.283275
vt 0.725964 0.283275
vt 0.725964 0.728808
vt 0.469980 0.537918
vt 0.442002 0.537918
vt 0.442002 0.565896
vt 0.469980 0.565896
vt 0.394827 0.161074
vt 0.422805 0.161074
vt 0.148662 0.506880
vt 0.168996 0.506880
vt 0.168996 0.534858
vt 0.148662 0.534858
vt 0.466114 0.161074
vt 0.438136 0.161074
vt 0.697986 0.161074
vt 0.718320 0.161074
vt 0.577475 0.197225
vt 0.557141 0.197225
vt 0.825250 0.411348
vt 0.825250 0.006367
vt 0.781816 0.006367
vt 0.781816 0.411348
vt 0.825250 0.829062
vt 0.825250 0.424082
vt 0.781816 0.424082
vt 0.781816 0.829062
vt 0.725647 0.411348
vt 0.725647 0.006367
vt 0.769081 0.006367
vt 0.769081 0.411348
vt 0.725647 0.829062
vt 0.725647 0.424082
vt 0.769081 0.424082
vt 0.769081 0.829062
vt 0.049801 0.759306
vt 0.006367 0.759306
vt 0.006367 0.802740
vt 0.049801 0.802740
vt 0.272779 0.157520
vt 0.005605 0.157520
vt 0.005605 0.173944
vt 0.272779 0.173944
vt 0.357219 0.143789
vt 0.117507 0.143789
vt 0.117507 0.160213
vt 0.357219 0.160213
vt 0.059337 0.147097
vt 0.305664 0.147097
vt 0.305664 0.163520
vt 0.059337 0.163520
vt 0.126525 0.168152
vt 0.366238 0.168152
vt 0.366238 0.184576
vt 0.126525 0.184576
vt 0.378505 0.006367
vt 0.378505 0.421137
vt 0.006367 0.404955
vt 0.006367 0.022549
vt 0.005732 0.021599
vt 0.005732 0.405011
vt 0.378849 0.421236
vt 0.378849 0.005375
vt 0.819611 0.391094
vt 0.819611 0.838037
vt 0.773017 0.838037
vt 0.773017 0.391094
vt 0.599721 0.875799
vt 0.551886 0.875799
vt 0.551886 0.218475
vt 0.599721 0.218475
vt 0.776259 0.413335
vt 0.776259 0.828882
vt 0.719022 0.828882
vt 0.719022 0.413335
vt 0.830568 0.823577
vt 0.830568 0.433101
vt 0.776784 0.433101
vt 0.776784 0.823577
vt 0.762760 0.413335
vt 0.732520 0.413335
vt 0.732520 0.828882
vt 0.762760 0.828882
vt 0.774711 0.579255
vt 0.774711 0.377830
vt 0.789369 0.377830
vt 0.789369 0.579255
vt 0.543221 0.224744
vt 0.543221 0.851644
vt 0.477867 0.851644
vt 0.477867 0.224744
vt 0.508331 0.230842
vt 0.556140 0.230842
vt 0.556140 0.887809
vt 0.508331 0.887809
vt 0.501441 0.879511
vt 0.548568 0.879511
vt 0.548568 0.231909
vt 0.501441 0.231909
vt 0.481087 0.228591
vt 0.481087 0.795926
vt 0.400587 0.795926
vt 0.400587 0.228591
vt 0.481087 0.228591
vt 0.500238 0.886521
vt 0.549965 0.886521
vt 0.549965 0.203199
vt 0.500238 0.203199
vt 0.303740 0.433872
vt 0.271141 0.433872
vt 0.271141 0.746572
vt 0.303740 0.746572
vt 0.258407 0.746572
vt 0.225808 0.746572
vt 0.225808 0.433872
vt 0.258407 0.433872
vt 0.901552 0.596613
vt 0.901552 0.909313
vt 0.878796 0.909313
vt 0.878796 0.596613
vt 0.937042 0.909313
vt 0.937042 0.596613
vt 0.914286 0.596613
vt 0.914286 0.909313
vt 0.107840 0.433871
vt 0.063471 0.433871
vt 0.063471 0.746572
vt 0.107840 0.746572
vt 0.050737 0.746572
vt 0.006367 0.746572
vt 0.006367 0.433871
vt 0.050737 0.433871
vt 0.919608 0.006367
vt 0.919608 0.319067
vt 0.942364 0.319067
vt 0.942364 0.006367
vt 0.120575 0.758657
vt 0.160457 0.758657
vt 0.160457 0.433871
vt 0.120575 0.433871
vt 0.173191 0.433871
vt 0.213073 0.433871
vt 0.213073 0.758657
vt 0.173191 0.758657
vt 0.993492 0.596613
vt 0.978002 0.596613
vt 0.978001 0.921399
vt 0.993492 0.921399
vt 0.955098 0.006367
vt 0.970589 0.006367
vt 0.970589 0.331153
vt 0.955098 0.331153
vt 0.615913 0.097557
vt 0.712913 0.087569
vt 0.712913 0.006367
vt 0.657141 0.006367
vt 0.712913 0.587482
vt 0.615913 0.577493
vt 0.653846 0.519941
vt 0.667909 0.506290
vt 0.712913 0.506290
vt 0.712913 0.425089
vt 0.615913 0.435078
vt 0.657141 0.343888
vt 0.712913 0.343888
vt 0.965267 0.840198
vt 0.949777 0.840198
vt 0.949777 0.921399
vt 0.965267 0.921399
vt 0.653846 0.155118
vt 0.667909 0.168770
vt 0.712913 0.168770
vt 0.357287 0.433872
vt 0.372777 0.433872
vt 0.372777 0.525052
vt 0.357287 0.525052
vt 0.712913 0.668674
vt 0.657141 0.668674
vt 0.965267 0.596613
vt 0.949777 0.596613
vt 0.949777 0.677805
vt 0.965267 0.677805
vt 0.357287 0.667467
vt 0.372777 0.667467
vt 0.372777 0.758657
vt 0.357287 0.758657
vt 0.653846 0.492638
vt 0.949777 0.758996
vt 0.965267 0.758996
vt 0.657141 0.331153
vt 0.712913 0.331153
vt 0.712913 0.249961
vt 0.615913 0.239973
vt 0.357287 0.609907
vt 0.372777 0.609907
vt 0.372777 0.582604
vt 0.357287 0.582604
vt 0.653846 0.182421
vt 0.866062 0.583879
vt 0.866062 0.301490
vt 0.837984 0.301490
vt 0.837984 0.583879
vt 0.626223 0.963796
vt 0.626223 0.681408
vt 0.615913 0.681408
vt 0.615913 0.963796
vt 0.837984 0.879001
vt 0.837984 0.596613
vt 0.866062 0.596613
vt 0.866062 0.879001
vt 0.662002 0.963796
vt 0.662002 0.681408
vt 0.672312 0.681408
vt 0.672312 0.963796
vt 0.906874 0.288756
vt 0.906874 0.006367
vt 0.878796 0.006367
vt 0.878796 0.288756
vt 0.712913 0.963796
vt 0.712913 0.681408
vt 0.702603 0.681408
vt 0.702603 0.963796
vt 0.878796 0.583879
vt 0.878796 0.301490
vt 0.906874 0.301490
vt 0.906874 0.583879
vt 0.983323 0.288756
vt 0.983323 0.006367
vt 0.993633 0.006367
vt 0.993633 0.288756
vt 0.837984 0.288756
vt 0.866062 0.288756
vt 0.866062 0.006367
vt 0.837984 0.006367
vt 0.649267 0.963796
vt 0.638957 0.963796
vt 0.638957 0.681408
vt 0.649267 0.681408
vt 0.344552 0.716260
vt 0.316475 0.716260
vt 0.316475 0.433872
vt 0.344552 0.433872
vt 0.983323 0.583879
vt 0.993633 0.583879
vt 0.993633 0.301490
vt 0.983323 0.301490
s 1
usemtl Chair_03
f 255/486/99 256/487/99 258/488/99 257/489/99
f 257/490/100 258/491/100 262/492/100 261/493/100
f 261/494/101 262/495/101 260/496/101 259/497/101
f 259/498/102 260/499/102 256/500/102 255/501/102
f 257/502/103 261/503/103 259/504/103 255/505/103
f 260/496/101 262/495/101 265/506/101 266/507/101
f 265/508/104 264/509/104 263/510/104 266/511/104
f 258/488/105 256/487/105 263/512/105 264/513/105
f 256/500/102 260/499/102 266/514/102 263/515/102
f 262/492/100 258/491/100 264/516/100 265/517/100
f 267/518/99 268/519/99 270/520/99 269/521/99
f 269/522/100 270/523/100 274/524/100 273/525/100
f 273/526/101 274/527/101 272/528/101 271/529/101
f 271/530/102 272/531/102 268/532/102 267/533/102
f 269/534/103 273/535/103 271/536/103 267/537/103
f 275/538/99 276/539/99 278/540/99 277/541/99
f 277/542/100 278/543/100 282/544/100 281/545/100
f 281/546/101 282/547/101 280/548/101 279/549/101
f 279/550/102 280/551/102 276/552/102 275/553/102
f 277/554/103 281/555/103 279/556/103 275/557/103
f 280/548/101 282/547/101 285/558/101 286/559/101
f 285/560/104 284/561/104 283/562/104 286/563/104
f 278/540/105 276/539/105 283/564/105 284/565/105
f 276/552/102 280/551/102 286/566/102 283/567/102
f 282/544/100 278/543/100 284/568/100 285/569/100
f 287/570/99 288/571/99 290/572/99 289/573/99
f 289/574/100 290/575/100 294/576/100 293/577/100
f 293/578/101 294/579/101 292/580/101 291/581/101
f 291/582/102 292/583/102 288/584/102 287/585/102
f 289/586/103 293/587/103 291/588/103 287/589/103
f 295/590/99 297/591/99 298/592/99 296/593/99
f 297/594/106 301/595/106 302/596/106 298/597/106
f 301/598/101 299/599/101 300/600/101 302/601/101
f 299/602/107 295/603/107 296/604/107 300/605/107
f 297/606/104 295/607/104 299/608/104 301/609/104
f 302/610/103 300/611/103 296/612/103 298/613/103
f 305/614/101 309/615/101 310/616/101 306/617/101
f 307/615/99 303/614/99 304/617/99 308/616/99
f 305/618/104 303/619/104 307/620/104 309/621/104
f 310/621/103 308/620/103 304/619/103 306/618/103
f 313/622/101 317/623/101 318/624/101 314/625/101
f 315/626/99 311/627/99 312/628/99 316/629/99
f 318/630/103 316/631/103 312/632/103 314/633/103
f 317/634/104 313/635/104 311/636/104 315/637/104
f 321/638/102 325/639/102 326/640/102 322/641/102
f 323/639/100 319/638/100 320/641/100 324/640/100
f 321/642/104 319/643/104 323/644/104 325/645/104
f 326/646/103 324/647/103 320/648/103 322/649/103
f 329/650/102 333/651/102 334/652/102 330/653/102
f 331/651/100 327/654/100 328/653/100 332/652/100
f 334/655/103 332/656/103 328/657/103 330/658/103
f 337/659/100 338/660/100 342/661/100 341/662/100
f 339/663/102 340/664/102 336/665/102 335/666/102
f 337/667/104 341/668/104 339/669/104 335/670/104
f 342/671/103 338/672/103 336/673/103 340/674/103
f 345/675/100 346/676/100 350/677/100 349/678/100
f 347/679/102 348/680/102 344/681/102 343/682/102
f 350/683/103 346/684/103 344/685/103 348/686/103
f 351/687/99 352/688/99 354/689/99 353/690/99
f 357/691/101 358/692/101 356/693/101 355/694/101
f 353/695/103 357/696/103 355/697/103 351/698/103
f 358/699/104 354/700/104 352/701/104 356/702/104
f 374/703/99 375/704/99 359/705/99 360/706/99
f 367/707/101 370/708/101 380/709/101 382/710/101 371/711/101
f 373/712/101 376/713/101 364/714/101 363/715/101
f 375/716/103 373/717/103 363/718/103 359/719/103
f 377/720/99 379/721/99 372/722/99 375/704/99 374/703/99
f 366/723/108 362/724/108 368/725/108 370/726/108
f 365/727/101 366/728/101 370/708/101 367/707/101
f 361/729/103 365/730/103 367/731/103 369/732/103
f 376/733/109 374/734/109 360/735/109 364/736/109
f 371/711/101 382/710/101 381/737/101 376/713/101 373/712/101
f 369/732/103 367/731/103 371/738/103 372/739/103
f 362/740/99 361/741/99 369/742/99 368/743/99
f 381/744/110 377/745/110 374/734/110 376/733/110
f 372/739/103 371/738/103 373/717/103 375/716/103
f 370/726/111 368/725/111 378/746/111 380/747/111
f 377/720/99 378/748/99 379/721/99
f 380/709/101 381/737/101 382/710/101
f 377/745/104 381/744/104 380/747/104 378/746/104
f 368/743/99 369/742/99 372/722/99 379/721/99 378/748/99
f 383/749/99 384/750/99 386/751/99 385/752/99
f 385/753/100 386/754/100 390/755/100 389/756/100
f 389/757/101 390/758/101 388/759/101 387/760/101
f 387/761/102 388/762/102 384/763/102 383/764/102
f 391/765/99 392/766/99 394/767/99 393/768/99
f 393/769/100 394/770/100 398/771/100 397/772/100
f 397/773/101 398/774/101 396/775/101 395/776/101
f 395/777/102 396/778/102 392/779/102 391/780/102
f 399/781/99 401/782/99 402/783/99 400/784/99
f 401/785/102 405/786/102 406/787/102 402/788/102
f 405/789/101 403/790/101 404/791/101 406/792/101
f 403/793/100 399/794/100 400/795/100 404/796/100
o Trash_can_01
v 2.286970 0.443479 -7.058662
v 2.362488 0.443479 -7.132340
v 2.362488 0.443479 -7.666009
v 2.286970 0.443479 -7.739687
v 1.987392 0.443479 -7.739687
v 1.911874 0.443479 -7.666009
v 1.911874 0.443479 -7.132340
v 1.987392 0.443479 -7.058662
v 2.019765 -0.219087 -7.111327
v 1.951459 -0.219087 -7.179669
v 1.933389 0.443479 -7.151663
v 2.001696 0.443479 -7.083322
v 1.951459 -0.219087 -7.618680
v 2.019765 -0.219087 -7.687022
v 2.001696 0.443479 -7.715028
v 1.933389 0.443479 -7.646686
v 2.322903 -0.219087 -7.179669
v 2.254597 -0.219087 -7.111327
v 2.272666 0.443479 -7.083322
v 2.340973 0.443479 -7.151663
v 2.254597 -0.219087 -7.687022
v 2.322903 -0.219087 -7.618680
v 2.340973 0.443479 -7.646686
v 2.272666 0.443479 -7.715028
v 2.351789 0.464052 -7.145011
v 2.351789 0.464052 -7.653338
v 2.279857 0.464052 -7.074833
v 1.994505 0.464052 -7.074833
v 1.922573 0.464052 -7.145011
v 1.922573 0.464052 -7.653338
v 1.994505 0.464052 -7.723516
v 2.279857 0.464052 -7.723516
v 2.335055 0.464052 -7.156358
v 2.335055 0.464052 -7.641992
v 2.268732 0.464052 -7.089313
v 2.005630 0.464052 -7.089313
v 1.939307 0.464052 -7.156358
v 1.939307 0.464052 -7.641992
v 2.005630 0.464052 -7.709037
v 2.268732 0.464052 -7.709037
v 2.314381 0.382839 -7.189314
v 2.314381 0.382839 -7.609035
v 2.254988 0.382839 -7.131368
v 2.019374 0.382839 -7.131368
v 1.959981 0.382839 -7.189314
v 1.959981 0.382839 -7.609035
v 2.019374 0.382839 -7.666982
v 2.254988 0.382839 -7.666982
v 2.291045 0.332191 -7.049400
v 2.368617 0.332191 -7.125082
v 2.368617 0.332191 -7.673268
v 2.291045 0.332191 -7.748949
v 1.983317 0.332191 -7.748949
v 1.905745 0.332191 -7.673268
v 1.905745 0.332191 -7.125082
v 1.983317 0.332191 -7.049400
vn 0.3803 -0.0494 0.9236
vn 0.3843 -0.0494 0.9219
vn -0.3843 -0.0494 0.9219
vn -0.3803 -0.0494 0.9236
vn 0.9258 -0.0411 -0.3757
vn 0.9205 -0.0415 -0.3886
vn 0.9205 -0.0415 0.3886
vn 0.9258 -0.0411 0.3757
vn 0.7215 0.5942 -0.3555
vn 0.2885 0.6514 -0.7018
vn 0.1839 0.8690 -0.4594
vn 0.5237 0.8354 -0.1671
vn -0.0000 -1.0000 -0.0000
vn -0.9258 -0.0411 0.3757
vn -0.9205 -0.0415 0.3886
vn -0.9205 -0.0415 -0.3886
vn -0.9258 -0.0411 -0.3757
vn -0.3803 -0.0494 -0.9236
vn -0.3843 -0.0494 -0.9219
vn 0.3843 -0.0494 -0.9219
vn 0.3803 -0.0494 -0.9236
vn -0.5237 0.8354 -0.1671
vn -0.5237 0.8354 0.1671
vn 0.4027 0.8946 -0.1937
vn 0.4027 0.8946 0.1937
vn 0.2885 0.6514 0.7018
vn 0.7215 0.5942 0.3555
vn 0.5237 0.8354 0.1671
vn 0.1839 0.8690 0.4594
vn -0.7215 0.5942 -0.3555
vn -0.7215 0.5942 0.3555
vn -0.2885 0.6514 -0.7018
vn -0.1839 0.8690 -0.4594
vn -0.2885 0.6514 0.7018
vn -0.1839 0.8690 0.4594
vn -0.4027 0.8946 0.1937
vn -0.1520 0.9140 0.3762
vn -0.2325 0.8044 0.5467
vn -0.6189 0.7576 0.2073
vn -0.4027 0.8946 -0.1937
vn 0.1520 0.9140 0.3762
vn 0.1520 0.9140 -0.3762
vn -0.1520 0.9140 -0.3762
vn 0.2325 0.8044 0.5467
vn 0.6189 0.7576 0.2073
vn 0.6189 0.7576 -0.2073
vn 0.2325 0.8044 -0.5467
vn -0.2325 0.8044 -0.5467
vn -0.6189 0.7576 -0.2073
vn -0.3749 0.0905 0.9227
vn -0.9226 0.0755 0.3782
vn -0.9152 0.0762 0.3958
vn -0.3760 0.0905 0.9222
vn 0.3749 0.0905 0.9227
vn 0.3760 0.0905 0.9222
vn -0.3749 0.0905 -0.9227
vn 0.3749 0.0905 -0.9227
vn 0.3760 0.0905 -0.9222
vn -0.3760 0.0905 -0.9222
vn 0.9226 0.0755 -0.3782
vn 0.9152 0.0762 -0.3958
vn 0.9226 0.0755 0.3782
vn 0.9152 0.0762 0.3958
vn -0.9226 0.0755 -0.3782
vn -0.9152 0.0762 -0.3958
vt 0.503814 0.994775
vt 0.495090 0.674862
vt 0.625925 0.674862
vt 0.617200 0.994775
vt 0.051745 0.325138
vt 0.038223 0.005225
vt 0.277240 0.005225
vt 0.263717 0.325138
vt 0.495090 0.371162
vt 0.531553 0.335587
vt 0.534987 0.343395
vt 0.500256 0.377280
vt 0.505478 0.380492
vt 0.538459 0.347494
vt 0.579180 0.325138
vt 0.592702 0.005225
vt 0.353685 0.005225
vt 0.367208 0.325138
vt 0.959792 0.325138
vt 0.968517 0.005225
vt 0.837682 0.005225
vt 0.846406 0.325138
vt 0.612178 0.325138
vt 0.625700 0.005225
vt 0.320687 0.005225
vt 0.334210 0.325138
vt 0.018747 0.325138
vt 0.005225 0.005225
vt 0.310238 0.005225
vt 0.296715 0.325138
vt 0.184573 0.697272
vt 0.151592 0.664274
vt 0.038206 0.664274
vt 0.005225 0.697272
vt 0.005225 0.909244
vt 0.038206 0.942243
vt 0.151592 0.942243
vt 0.184573 0.909244
vt 0.669295 0.347494
vt 0.702276 0.380492
vt 0.712664 0.371162
vt 0.676201 0.335587
vt 0.702276 0.619508
vt 0.669295 0.652507
vt 0.676201 0.664413
vt 0.712664 0.628839
vt 0.505478 0.619508
vt 0.495090 0.628839
vt 0.538459 0.652507
vt 0.531553 0.664413
vt 0.707498 0.377280
vt 0.707498 0.622720
vt 0.699418 0.617242
vt 0.699418 0.382759
vt 0.500256 0.622720
vt 0.534987 0.656605
vt 0.646308 0.936044
vt 0.646308 0.678367
vt 0.636375 0.684485
vt 0.636375 0.929925
vt 0.386524 0.667779
vt 0.386524 0.925456
vt 0.376590 0.919337
vt 0.376590 0.673897
vt 0.672767 0.343395
vt 0.672767 0.656605
vt 0.914615 0.703696
vt 0.914615 0.848345
vt 0.904682 0.844910
vt 0.904682 0.707131
vt 0.934579 0.519658
vt 0.934579 0.375009
vt 0.924646 0.378444
vt 0.924646 0.516223
vt 0.636150 0.005225
vt 0.668173 0.005225
vt 0.663137 0.046640
vt 0.634910 0.046538
vt 0.508336 0.382759
vt 0.508336 0.617242
vt 0.667395 0.350386
vt 0.540359 0.350386
vt 0.667395 0.649614
vt 0.540359 0.649614
vt 0.195194 0.692253
vt 0.223872 0.664274
vt 0.337635 0.664274
vt 0.366313 0.692253
vt 0.366313 0.894911
vt 0.337635 0.922890
vt 0.223872 0.922890
vt 0.195194 0.894911
vt 0.755137 0.335587
vt 0.723114 0.335587
vt 0.721874 0.376901
vt 0.750101 0.377003
vt 0.005225 0.335587
vt 0.239708 0.335587
vt 0.223795 0.375436
vt 0.021137 0.375436
vt 0.484640 0.335587
vt 0.250157 0.335587
vt 0.266070 0.375436
vt 0.468728 0.375436
vt 0.795209 0.005225
vt 0.788573 0.046956
vt 0.674809 0.046956
vt 0.827232 0.005225
vt 0.828472 0.046538
vt 0.800245 0.046640
vt 0.914196 0.335587
vt 0.882173 0.335587
vt 0.887209 0.377003
vt 0.915436 0.376901
vt 0.761773 0.377318
vt 0.875537 0.377318
vt 0.914615 0.667233
vt 0.968350 0.664274
vt 0.968350 0.701729
vt 0.968350 0.850312
vt 0.988313 0.521625
vt 0.988313 0.373042
vt 0.934579 0.556121
vt 0.988313 0.559080
vt 0.914615 0.884808
vt 0.968350 0.887767
vt 0.700042 0.939548
vt 0.700042 0.674862
vt 0.440258 0.664274
vt 0.440258 0.928960
vt 0.934579 0.338546
vt 0.988313 0.335587
s 1
usemtl Trash_can
f 424/797/112 425/798/113 418/799/114 415/800/115
f 428/801/116 429/802/117 426/803/118 423/804/119
f 409/805/120 410/806/121 438/807/122 432/808/123
f 429/809/124 430/810/124 410/806/124 409/805/124
f 416/811/125 417/812/126 422/813/127 419/814/128
f 420/815/129 421/816/130 430/817/131 427/818/132
f 415/819/115 418/820/114 417/812/126 416/811/125
f 421/821/130 420/822/129 419/814/128 422/813/127
f 429/802/117 428/801/116 427/823/132 430/824/131
f 425/825/113 424/826/112 423/804/119 426/803/118
f 419/827/124 420/828/124 427/829/124 428/830/124 423/831/124 424/832/124 415/833/124 416/834/124
f 421/835/124 422/836/124 412/837/124 411/838/124
f 417/839/124 418/840/124 414/841/124 413/842/124
f 426/843/124 429/809/124 409/805/124 408/844/124
f 422/836/124 417/839/124 413/842/124 412/837/124
f 430/810/124 421/835/124 411/838/124 410/806/124
f 425/845/124 426/843/124 408/844/124 407/846/124
f 418/840/124 425/845/124 407/846/124 414/841/124
f 436/847/133 435/848/134 443/849/135 444/850/136
f 407/846/137 408/844/138 431/851/139 433/852/140
f 412/853/141 413/854/142 435/855/134 436/856/133
f 408/857/138 409/858/120 432/859/123 431/860/139
f 411/838/143 412/837/141 436/847/133 437/861/144
f 413/842/142 414/841/145 434/862/146 435/848/134
f 414/863/145 407/864/137 433/865/140 434/866/146
f 410/867/121 411/868/143 437/869/144 438/870/122
f 440/871/147 446/872/148 454/873/149 448/874/150
f 431/851/139 432/808/123 440/875/147 439/876/151
f 438/807/122 437/861/144 445/877/152 446/878/148
f 437/861/144 436/847/133 444/850/136 445/877/152
f 435/848/134 434/862/146 442/879/153 443/849/135
f 434/862/146 433/852/140 441/880/154 442/879/153
f 432/808/123 438/807/122 446/878/148 440/875/147
f 433/852/140 431/851/139 439/876/151 441/880/154
f 448/881/150 454/882/149 453/883/155 452/884/156 451/885/157 450/886/158 449/887/159 447/888/160
f 441/889/154 439/890/151 447/891/160 449/892/159
f 444/893/136 443/894/135 451/895/157 452/896/156
f 439/897/151 440/898/147 448/899/150 447/900/160
f 446/872/148 445/901/152 453/902/155 454/903/149
f 445/901/152 444/904/136 452/905/156 453/906/155
f 443/907/135 442/908/153 450/909/158 451/910/157
f 442/908/153 441/889/154 449/911/159 450/912/158
f 414/863/161 413/913/162 461/914/163 462/915/164
f 407/864/165 414/863/161 462/915/164 455/916/166
f 411/868/167 410/867/168 458/917/169 459/918/170
f 409/919/171 457/920/172 458/917/169 410/867/168
f 408/921/173 407/864/165 455/916/166 456/922/174
f 413/854/162 412/853/175 460/923/176 461/924/163
f 409/858/171 408/857/173 456/925/174 457/926/172
f 412/927/175 411/868/167 459/918/170 460/928/176
