# Blender 4.0.2
# www.blender.org
mtllib ship.mtl
o Circle.001
v 0.000000 0.000000 -1.500000
v -0.292636 0.000000 -1.471178
v -0.574025 0.000000 -1.385819
v -0.833355 0.000000 -1.247204
v -1.060660 0.000000 -1.060660
v -1.247204 0.000000 -0.833355
v -1.385819 0.000000 -0.574025
v -1.471178 0.000000 -0.292636
v -1.500000 0.000000 0.000000
v -1.471178 0.000000 0.292636
v -1.385819 0.000000 0.574025
v -1.247204 0.000000 0.833355
v -1.060660 0.000000 1.060660
v -0.833355 0.000000 1.247204
v -0.574025 0.000000 1.385819
v -0.292636 0.000000 1.471178
v 0.000000 0.000000 1.500000
v 0.292636 0.000000 1.471178
v 0.574025 0.000000 1.385819
v 0.833355 0.000000 1.247204
v 1.060660 0.000000 1.060660
v 1.247204 0.000000 0.833355
v 1.385819 0.000000 0.574025
v 1.471178 0.000000 0.292636
v 1.500000 0.000000 0.000000
v 1.471178 0.000000 -0.292636
v 1.385819 0.000000 -0.574025
v 1.247204 0.000000 -0.833355
v 1.060660 0.000000 -1.060660
v 0.833355 0.000000 -1.247204
v 0.574025 0.000000 -1.385819
v 0.292636 0.000000 -1.471178
v -0.250258 0.000000 -1.258131
v 0.000000 0.000000 -1.282779
v -0.490898 0.000000 -1.185133
v -0.712674 0.000000 -1.066592
v -0.907062 0.000000 -0.907062
v -1.066592 0.000000 -0.712674
v -1.185133 0.000000 -0.490898
v -1.258131 0.000000 -0.250258
v -1.282779 0.000000 0.000000
v -1.258131 0.000000 0.250258
v -1.185133 0.000000 0.490898
v -1.066592 0.000000 0.712674
v -0.907062 0.000000 0.907062
v -0.712674 0.000000 1.066592
v -0.490898 0.000000 1.185133
v -0.250258 0.000000 1.258131
v 0.000000 0.000000 1.282779
v 0.250258 0.000000 1.258131
v 0.490898 0.000000 1.185133
v 0.712674 0.000000 1.066592
v 0.907062 0.000000 0.907062
v 1.066592 0.000000 0.712674
v 1.185133 0.000000 0.490898
v 1.258131 0.000000 0.250258
v 1.282779 0.000000 0.000000
v 1.258131 0.000000 -0.250258
v 1.185133 0.000000 -0.490898
v 1.066592 0.000000 -0.712674
v 0.907062 0.000000 -0.907062
v 0.712674 0.000000 -1.066592
v 0.490898 0.000000 -1.185133
v 0.250258 0.000000 -1.258131
v -0.250258 4.210381 -1.258131
v 0.000000 4.210381 -1.282779
v -0.490898 4.210381 -1.185133
v -0.712674 4.210381 -1.066592
v -0.907062 4.210381 -0.907062
v -1.066592 4.210381 -0.712674
v -1.185133 4.210381 -0.490898
v -1.258131 4.210381 -0.250258
v -1.282779 4.210381 0.000000
v -1.258131 4.210381 0.250258
v -1.185133 4.210381 0.490898
v -1.066592 4.210381 0.712674
v -0.907062 4.210381 0.907062
v -0.712674 4.210381 1.066592
v -0.490898 4.210381 1.185133
v -0.250258 4.210381 1.258131
v 0.000000 4.210381 1.282779
v 0.250258 4.210381 1.258131
v 0.490898 4.210381 1.185133
v 0.712674 4.210381 1.066592
v 0.907062 4.210381 0.907062
v 1.066592 4.210381 0.712674
v 1.185133 4.210381 0.490898
v 1.258131 4.210381 0.250258
v 1.282779 4.210381 0.000000
v 1.258131 4.210381 -0.250258
v 1.185133 4.210381 -0.490898
v 1.066592 4.210381 -0.712674
v 0.907062 4.210381 -0.907062
v 0.712674 4.210381 -1.066592
v 0.490898 4.210381 -1.185133
v 0.250258 4.210381 -1.258131
v -0.292636 4.210381 -1.471178
v 0.000000 4.210381 -1.500000
v -0.574025 4.210381 -1.385819
v -0.833355 4.210381 -1.247204
v -1.060660 4.210381 -1.060660
v -1.247204 4.210381 -0.833355
v -1.385819 4.210381 -0.574025
v -1.471178 4.210381 -0.292636
v -1.500000 4.210381 0.000000
v -1.471178 4.210381 0.292636
v -1.385819 4.210381 0.574025
v -1.247204 4.210381 0.833355
v -1.060660 4.210381 1.060660
v -0.833355 4.210381 1.247204
v -0.574025 4.210381 1.385819
v -0.292636 4.210381 1.471178
v 0.000000 4.210381 1.500000
v 0.292636 4.210381 1.471178
v 0.574025 4.210381 1.385819
v 0.833355 4.210381 1.247204
v 1.060660 4.210381 1.060660
v 1.247204 4.210381 0.833355
v 1.385819 4.210381 0.574025
v 1.471178 4.210381 0.292636
v 1.500000 4.210381 0.000000
v 1.471178 4.210381 -0.292636
v 1.385819 4.210381 -0.574025
v 1.247204 4.210381 -0.833355
v 1.060660 4.210381 -1.060660
v 0.833355 4.210381 -1.247204
v 0.574025 4.210381 -1.385819
v 0.292636 4.210381 -1.471178
v -0.490898 2.015714 -1.185133
v 0.907062 2.015714 -0.907062
v -0.250258 2.015714 -1.258131
v 0.000000 2.015714 -1.282779
v 1.066592 2.015714 -0.712674
v 1.185133 2.015714 -0.490898
v 1.258131 2.015714 -0.250258
v 1.282779 2.015714 0.000000
v 1.258131 2.015714 0.250258
v 1.185133 2.015714 0.490898
v 1.066592 2.015714 0.712674
v 0.907062 2.015714 0.907062
v 0.712674 2.015714 1.066592
v 0.490898 2.015714 1.185133
v 0.250258 2.015714 1.258131
v 0.000000 2.015714 1.282779
v -0.250258 2.015714 1.258131
v -0.490898 2.015714 1.185133
v 0.712674 2.015714 -1.066592
v -0.712674 2.015714 -1.066592
v 0.490898 2.015714 -1.185133
v -0.907062 2.015714 -0.907062
v 0.250258 2.015714 -1.258131
v -1.066592 2.015714 -0.712674
v -1.185133 2.015714 -0.490898
v -1.258131 2.015714 -0.250258
v -1.282779 2.015714 0.000000
v -1.258131 2.015714 0.250258
v -1.185133 2.015714 0.490898
v -1.066592 2.015714 0.712674
v -0.907062 2.015714 0.907062
v -0.712674 2.015714 1.066592
v -0.441809 2.015714 -1.066620
v 0.816356 2.015714 -0.816356
v -0.225232 2.015714 -1.132318
v -0.000000 2.015714 -1.154501
v 0.959933 2.015714 -0.641407
v 1.066620 2.015714 -0.441809
v 1.132318 2.015714 -0.225232
v 1.154501 2.015714 0.000000
v 1.132318 2.015714 0.225232
v 1.066620 2.015714 0.441809
v 0.959933 2.015714 0.641407
v 0.816356 2.015714 0.816356
v 0.641407 2.015714 0.959933
v 0.441809 2.015714 1.066620
v 0.225232 2.015714 1.132318
v -0.000000 2.015714 1.154501
v -0.225232 2.015714 1.132318
v -0.441809 2.015714 1.066620
v 0.641407 2.015714 -0.959933
v -0.641407 2.015714 -0.959933
v 0.441809 2.015714 -1.066620
v -0.816356 2.015714 -0.816356
v 0.225232 2.015714 -1.132318
v -0.959933 2.015714 -0.641407
v -1.066620 2.015714 -0.441809
v -1.132318 2.015714 -0.225232
v -1.154501 2.015714 0.000000
v -1.132318 2.015714 0.225232
v -1.066620 2.015714 0.441809
v -0.959933 2.015714 0.641407
v -0.816356 2.015714 0.816356
v -0.641407 2.015714 0.959933
v -0.490898 1.007857 -1.185133
v 0.907062 1.007857 -0.907062
v -0.250258 1.007857 -1.258131
v 1.066592 1.007857 -0.712674
v 1.185133 1.007857 -0.490898
v 1.258131 1.007857 -0.250258
v 1.282779 1.007857 0.000000
v 1.258131 1.007857 0.250258
v 1.185133 1.007857 0.490898
v 1.066592 1.007857 0.712674
v 0.907062 1.007857 0.907062
v 0.712674 1.007857 1.066592
v 0.490898 1.007857 1.185133
v 0.250258 1.007857 1.258131
v 0.000000 1.007857 1.282779
v -0.250258 1.007857 1.258131
v 0.712674 1.007857 -1.066592
v -0.712674 1.007857 -1.066592
v 0.490898 1.007857 -1.185133
v -0.907062 1.007857 -0.907062
v 0.250258 1.007857 -1.258131
v -1.066592 1.007857 -0.712674
v -1.185133 1.007857 -0.490898
v -1.258131 1.007857 -0.250258
v -1.282779 1.007857 0.000000
v -1.258131 1.007857 0.250258
v -1.185133 1.007857 0.490898
v -1.066592 1.007857 0.712674
v -0.907062 1.007857 0.907062
v -0.712674 1.007857 1.066592
v 0.000000 1.007857 -1.282779
v -0.490898 1.007857 1.185133
v -0.441809 1.007857 -1.066620
v 0.816356 1.007857 -0.816356
v -0.225232 1.007857 -1.132318
v 0.959933 1.007857 -0.641407
v 1.066620 1.007857 -0.441809
v 1.132318 1.007857 -0.225232
v 1.154501 1.007857 0.000000
v 1.132318 1.007857 0.225232
v 1.066620 1.007857 0.441809
v 0.959933 1.007857 0.641407
v 0.816356 1.007857 0.816356
v 0.641407 1.007857 0.959933
v 0.441809 1.007857 1.066620
v 0.225232 1.007857 1.132318
v -0.000000 1.007857 1.154501
v -0.225232 1.007857 1.132318
v 0.641407 1.007857 -0.959933
v -0.641407 1.007857 -0.959933
v 0.441809 1.007857 -1.066620
v -0.816356 1.007857 -0.816356
v 0.225232 1.007857 -1.132318
v -0.959933 1.007857 -0.641407
v -1.066620 1.007857 -0.441809
v -1.132318 1.007857 -0.225232
v -1.154501 1.007857 0.000000
v -1.132318 1.007857 0.225232
v -1.066620 1.007857 0.441809
v -0.959933 1.007857 0.641407
v -0.816356 1.007857 0.816356
v -0.641407 1.007857 0.959933
v -0.000000 1.007857 -1.154501
v -0.441809 1.007857 1.066620
v -0.490898 0.819245 -1.185133
v 0.907062 0.819245 -0.907062
v -0.250258 0.819245 -1.258131
v 1.066592 0.819245 -0.712674
v 1.185133 0.819245 -0.490898
v 1.258131 0.819245 -0.250258
v 1.282779 0.819245 0.000000
v 1.258131 0.819245 0.250258
v 1.185133 0.819245 0.490898
v 1.066592 0.819245 0.712674
v 0.907062 0.819245 0.907062
v 0.712674 0.819245 1.066592
v 0.490898 0.819245 1.185133
v 0.250258 0.819245 1.258131
v 0.000000 0.819245 1.282779
v -0.250258 0.819245 1.258131
v 0.712674 0.819245 -1.066592
v -0.712674 0.819245 -1.066592
v 0.490898 0.819245 -1.185133
v -0.907062 0.819245 -0.907062
v 0.250258 0.819245 -1.258131
v -1.066592 0.819245 -0.712674
v -1.185133 0.819245 -0.490898
v -1.258131 0.819245 -0.250258
v -1.282779 0.819245 0.000000
v -1.258131 0.819245 0.250258
v -1.185133 0.819245 0.490898
v -1.066592 0.819245 0.712674
v -0.907062 0.819245 0.907062
v -0.712674 0.819245 1.066592
v 0.000000 0.819245 -1.282779
v -0.490898 0.819245 1.185133
v -0.441809 0.819245 -1.066620
v 0.816356 0.819245 -0.816356
v -0.225232 0.819245 -1.132318
v 0.959933 0.819245 -0.641407
v 1.066620 0.819245 -0.441809
v 1.132318 0.819245 -0.225232
v 1.154501 0.819245 0.000000
v 1.132318 0.819245 0.225232
v 1.066620 0.819245 0.441809
v 0.959933 0.819245 0.641407
v 0.816356 0.819245 0.816356
v 0.641407 0.819245 0.959933
v 0.441809 0.819245 1.066620
v 0.225232 0.819245 1.132318
v -0.000000 0.819245 1.154501
v -0.225232 0.819245 1.132318
v 0.641407 0.819245 -0.959933
v -0.641407 0.819245 -0.959933
v 0.441809 0.819245 -1.066620
v -0.816356 0.819245 -0.816356
v 0.225232 0.819245 -1.132318
v -0.959933 0.819245 -0.641407
v -1.066620 0.819245 -0.441809
v -1.132318 0.819245 -0.225232
v -1.154501 0.819245 0.000000
v -1.132318 0.819245 0.225232
v -1.066620 0.819245 0.441809
v -0.959933 0.819245 0.641407
v -0.816356 0.819245 0.816356
v -0.641407 0.819245 0.959933
v -0.000000 0.819245 -1.154501
v -0.441809 0.819245 1.066620
v 0.000000 1.827431 -1.282779
v -0.490898 1.827431 1.185133
v -0.490898 1.827431 -1.185133
v 0.907062 1.827431 -0.907062
v -0.250258 1.827431 -1.258131
v 1.066592 1.827431 -0.712674
v 1.185133 1.827431 -0.490898
v 1.258131 1.827431 -0.250258
v 1.282779 1.827431 0.000000
v 1.258131 1.827431 0.250258
v 1.185133 1.827431 0.490898
v 1.066592 1.827431 0.712674
v 0.907062 1.827431 0.907062
v 0.712674 1.827431 1.066592
v 0.490898 1.827431 1.185133
v 0.250258 1.827431 1.258131
v 0.000000 1.827431 1.282779
v -0.250258 1.827431 1.258131
v 0.712674 1.827431 -1.066592
v -0.712674 1.827431 -1.066592
v 0.490898 1.827431 -1.185133
v -0.907062 1.827431 -0.907062
v 0.250258 1.827431 -1.258131
v -1.066592 1.827431 -0.712674
v -1.185133 1.827431 -0.490898
v -1.258131 1.827431 -0.250258
v -1.282779 1.827431 0.000000
v -1.258131 1.827431 0.250258
v -1.185133 1.827431 0.490898
v -1.066592 1.827431 0.712674
v -0.907062 1.827431 0.907062
v -0.712674 1.827431 1.066592
v -0.000000 1.827431 -1.154501
v -0.441809 1.827431 1.066620
v -0.441809 1.827431 -1.066620
v 0.816356 1.827431 -0.816356
v -0.225232 1.827431 -1.132318
v 0.959933 1.827431 -0.641407
v 1.066620 1.827431 -0.441809
v 1.132318 1.827431 -0.225232
v 1.154501 1.827431 0.000000
v 1.132318 1.827431 0.225232
v 1.066620 1.827431 0.441809
v 0.959933 1.827431 0.641407
v 0.816356 1.827431 0.816356
v 0.641407 1.827431 0.959933
v 0.441809 1.827431 1.066620
v 0.225232 1.827431 1.132318
v -0.000000 1.827431 1.154501
v -0.225232 1.827431 1.132318
v 0.641407 1.827431 -0.959933
v -0.641407 1.827431 -0.959933
v 0.441809 1.827431 -1.066620
v -0.816356 1.827431 -0.816356
v 0.225232 1.827431 -1.132318
v -0.959933 1.827431 -0.641407
v -1.066620 1.827431 -0.441809
v -1.132318 1.827431 -0.225232
v -1.154501 1.827431 0.000000
v -1.132318 1.827431 0.225232
v -1.066620 1.827431 0.441809
v -0.959933 1.827431 0.641407
v -0.816356 1.827431 0.816356
v -0.641407 1.827431 0.959933
v 1.385819 1.850798 0.574025
v 1.247204 1.850798 0.833355
v 1.060660 1.850798 1.060660
v 0.833355 1.850798 1.247204
v 0.574025 1.850798 1.385819
v 0.292636 1.850798 1.471178
v 0.000000 1.850798 1.500000
v -0.292636 1.850798 1.471178
v -0.574025 1.850798 1.385819
v -0.833355 1.850798 1.247204
v -1.060660 1.850798 1.060660
v -1.247204 1.850798 0.833355
v -1.471178 1.850798 0.292636
v -1.385819 1.850798 0.574025
v 1.471178 1.850798 0.292636
v 1.500000 1.850798 0.000000
v 1.471178 1.850798 -0.292636
v 1.385819 1.850798 -0.574025
v 1.247204 1.850798 -0.833355
v -0.292636 1.850798 -1.471178
v 0.000000 1.850798 -1.500000
v 1.060660 1.850798 -1.060660
v -0.574025 1.850798 -1.385819
v 0.833355 1.850798 -1.247204
v -0.833355 1.850798 -1.247204
v 0.574025 1.850798 -1.385819
v -1.060660 1.850798 -1.060660
v 0.292636 1.850798 -1.471178
v -1.247204 1.850798 -0.833355
v -1.385819 1.850798 -0.574025
v -1.471178 1.850798 -0.292636
v -1.500000 1.850798 0.000000
v -1.471178 1.009287 0.292636
v 0.000000 1.009287 -1.500000
v 1.385819 1.009287 0.574025
v 1.247204 1.009287 0.833355
v 1.060660 1.009287 1.060660
v 0.833355 1.009287 1.247204
v 0.574025 1.009287 1.385819
v 0.292636 1.009287 1.471178
v 0.000000 1.009287 1.500000
v -0.292636 1.009287 1.471178
v -0.574025 1.009287 1.385819
v -0.833355 1.009287 1.247204
v -1.060660 1.009287 1.060660
v -1.247204 1.009287 0.833355
v -1.385819 1.009287 0.574025
v 1.471178 1.009287 0.292636
v 1.500000 1.009287 0.000000
v 1.471178 1.009287 -0.292636
v 1.385819 1.009287 -0.574025
v 1.247204 1.009287 -0.833355
v -0.292636 1.009287 -1.471178
v 1.060660 1.009287 -1.060660
v -0.574025 1.009287 -1.385819
v 0.833355 1.009287 -1.247204
v -0.833355 1.009287 -1.247204
v 0.574025 1.009287 -1.385819
v -1.060660 1.009287 -1.060660
v 0.292636 1.009287 -1.471178
v -1.247204 1.009287 -0.833355
v -1.385819 1.009287 -0.574025
v -1.471178 1.009287 -0.292636
v -1.500000 1.009287 0.000000
vn -0.0000 1.0000 -0.0000
vn 0.4714 -0.0000 0.8819
vn -0.6344 -0.0000 0.7730
vn 0.9569 -0.0000 0.2903
vn 0.2903 -0.0000 0.9569
vn -0.7730 -0.0000 0.6344
vn 0.8819 -0.0000 0.4714
vn 0.0980 -0.0000 0.9952
vn -0.8819 -0.0000 0.4714
vn 0.7730 -0.0000 0.6344
vn -0.9569 -0.0000 0.2903
vn 0.6344 -0.0000 0.7730
vn -0.9952 -0.0000 0.0980
vn -0.9952 -0.0000 -0.0980
vn -0.9569 -0.0000 -0.2903
vn -0.8819 -0.0000 -0.4714
vn -0.0980 -0.0000 0.9952
vn -0.7730 -0.0000 -0.6344
vn -0.2903 -0.0000 0.9569
vn -0.6344 -0.0000 -0.7730
vn -0.4714 -0.0000 0.8819
vn -0.4714 -0.0000 -0.8819
vn -0.2903 -0.0000 -0.9569
vn -0.0980 -0.0000 -0.9952
vn 0.0980 -0.0000 -0.9952
vn 0.2903 -0.0000 -0.9569
vn 0.9952 -0.0000 0.0980
vn 0.9952 -0.0000 -0.0980
vn 0.9569 -0.0000 -0.2903
vn 0.8819 -0.0000 -0.4714
vn 0.7730 -0.0000 -0.6344
vn 0.6344 -0.0000 -0.7730
vn 0.4714 -0.0000 -0.8819
vn -0.0000 -1.0000 -0.0000
vn 0.0105 -0.9942 0.1069
vn -0.0105 -0.9942 0.1069
vn -0.0312 -0.9942 0.1028
vn -0.0507 -0.9942 0.0948
vn -0.0682 -0.9942 0.0831
vn -0.0831 -0.9942 0.0682
vn 0.0051 1.0000 -0.0042
vn 0.0042 1.0000 -0.0051
vn 0.0031 1.0000 -0.0058
vn 0.0019 1.0000 -0.0063
vn 0.0006 1.0000 -0.0066
vn -0.0006 1.0000 -0.0066
vn -0.9808 -0.0000 0.1951
vn 0.5556 -0.0000 0.8315
vt 0.790422 0.916792
vt 0.788214 0.894374
vt 0.844544 0.911462
vt 0.677165 0.885615
vt 0.681245 0.810083
vt 0.681245 0.885615
vt 0.849388 0.740710
vt 0.855047 0.665178
vt 0.855047 0.740710
vt 0.805203 0.746386
vt 0.811950 0.665178
vt 0.811950 0.746386
vt 0.876603 0.740710
vt 0.880683 0.665178
vt 0.880683 0.740710
vt 0.844057 0.740710
vt 0.849388 0.665178
vt 0.818567 0.665178
vt 0.818567 0.746386
vt 0.871806 0.740710
vt 0.876603 0.665178
vt 0.839260 0.740710
vt 0.844057 0.665178
vt 0.824800 0.665178
vt 0.824800 0.746386
vt 0.835180 0.740710
vt 0.839260 0.665178
vt 0.830410 0.665178
vt 0.830410 0.746386
vt 0.672368 0.885615
vt 0.677165 0.810083
vt 0.835180 0.665178
vt 0.835180 0.746386
vt 0.667037 0.885615
vt 0.672368 0.810083
vt 0.685098 0.746386
vt 0.689868 0.665178
vt 0.689868 0.746386
vt 0.661379 0.885615
vt 0.667037 0.810083
vt 0.695478 0.665178
vt 0.695478 0.746386
vt 0.655609 0.885615
vt 0.661379 0.810083
vt 0.701711 0.665178
vt 0.701711 0.746386
vt 0.649950 0.885615
vt 0.655609 0.810083
vt 0.708328 0.665178
vt 0.708328 0.746386
vt 0.644620 0.885615
vt 0.649950 0.810083
vt 0.715075 0.665178
vt 0.715075 0.746386
vt 0.639822 0.885615
vt 0.644620 0.810083
vt 0.721692 0.665178
vt 0.721692 0.746386
vt 0.635742 0.885615
vt 0.639822 0.810083
vt 0.727925 0.665178
vt 0.727925 0.746386
vt 0.913229 0.740710
vt 0.918026 0.665178
vt 0.918026 0.740710
vt 0.733535 0.665178
vt 0.733535 0.746386
vt 0.907898 0.740710
vt 0.913229 0.665178
vt 0.738306 0.665178
vt 0.738306 0.746386
vt 0.902239 0.740710
vt 0.907898 0.665178
vt 0.724674 0.835789
vt 0.722486 0.828110
vt 0.726882 0.830459
vt 0.726235 0.822500
vt 0.730087 0.825662
vt 0.734167 0.821582
vt 0.731005 0.817729
vt 0.736615 0.813981
vt 0.738964 0.818376
vt 0.744295 0.816168
vt 0.742848 0.811399
vt 0.749465 0.810083
vt 0.749954 0.815043
vt 0.756212 0.810083
vt 0.755723 0.815043
vt 0.761382 0.816168
vt 0.762829 0.811399
vt 0.769062 0.813981
vt 0.766713 0.818376
vt 0.774672 0.817729
vt 0.771510 0.821582
vt 0.775590 0.825662
vt 0.779443 0.822500
vt 0.783191 0.828110
vt 0.778795 0.830459
vt 0.781003 0.835789
vt 0.785773 0.834343
vt 0.787089 0.840960
vt 0.782129 0.841448
vt 0.787089 0.847706
vt 0.782129 0.847218
vt 0.781003 0.852877
vt 0.785773 0.854324
vt 0.783191 0.860557
vt 0.778795 0.858207
vt 0.779443 0.866166
vt 0.775590 0.863005
vt 0.771510 0.867085
vt 0.774672 0.870937
vt 0.769062 0.874685
vt 0.766713 0.870290
vt 0.761382 0.872498
vt 0.762829 0.877267
vt 0.756212 0.878583
vt 0.755723 0.873624
vt 0.749465 0.878583
vt 0.749954 0.873624
vt 0.744295 0.872498
vt 0.742848 0.877267
vt 0.736615 0.874685
vt 0.738964 0.870290
vt 0.731005 0.870937
vt 0.734167 0.867085
vt 0.730087 0.863005
vt 0.726235 0.866166
vt 0.722486 0.860557
vt 0.726882 0.858207
vt 0.724674 0.852877
vt 0.719904 0.854324
vt 0.718588 0.847706
vt 0.723548 0.847218
vt 0.718588 0.840960
vt 0.723548 0.841448
vt 0.719904 0.834343
vt 0.798586 0.746386
vt 0.805203 0.665178
vt 0.860817 0.665178
vt 0.860817 0.740710
vt 0.686042 0.810083
vt 0.686042 0.885615
vt 0.792353 0.746386
vt 0.798586 0.665178
vt 0.866475 0.665178
vt 0.866475 0.740710
vt 0.691373 0.810083
vt 0.691373 0.885615
vt 0.786743 0.746386
vt 0.792353 0.665178
vt 0.871806 0.665178
vt 0.697032 0.810083
vt 0.697032 0.885615
vt 0.781133 0.746386
vt 0.786743 0.665178
vt 0.743076 0.746386
vt 0.748686 0.665178
vt 0.748686 0.746386
vt 0.702802 0.810083
vt 0.702802 0.885615
vt 0.774900 0.746386
vt 0.781133 0.665178
vt 0.680327 0.746386
vt 0.685098 0.665178
vt 0.685098 0.746386
vt 0.708460 0.810083
vt 0.708460 0.885615
vt 0.768283 0.746386
vt 0.774900 0.665178
vt 0.674717 0.746386
vt 0.680327 0.665178
vt 0.713791 0.810083
vt 0.713791 0.885615
vt 0.761536 0.746386
vt 0.768283 0.665178
vt 0.668484 0.746386
vt 0.674717 0.665178
vt 0.718588 0.810083
vt 0.718588 0.885615
vt 0.754919 0.746386
vt 0.761536 0.665178
vt 0.661867 0.746386
vt 0.668484 0.665178
vt 0.885480 0.665178
vt 0.885480 0.740710
vt 0.754919 0.665178
vt 0.655120 0.746386
vt 0.661867 0.665178
vt 0.890811 0.665178
vt 0.890811 0.740710
vt 0.648503 0.746386
vt 0.655120 0.665178
vt 0.896470 0.665178
vt 0.896470 0.740710
vt 0.642270 0.746386
vt 0.648503 0.665178
vt 0.902239 0.665178
vt 0.636660 0.746386
vt 0.642270 0.665178
vt 0.896470 0.747190
vt 0.902239 0.747190
vt 0.890811 0.747190
vt 0.885480 0.747190
vt 0.880683 0.747190
vt 0.713791 0.892095
vt 0.718588 0.892095
vt 0.708460 0.892095
vt 0.702802 0.892095
vt 0.697032 0.892095
vt 0.691373 0.892095
vt 0.866475 0.747190
vt 0.871806 0.747190
vt 0.686042 0.892095
vt 0.860817 0.747190
vt 0.681245 0.892095
vt 0.855047 0.747190
vt 0.907898 0.747190
vt 0.913229 0.747190
vt 0.918026 0.747190
vt 0.635742 0.892095
vt 0.639822 0.892095
vt 0.644620 0.892095
vt 0.649950 0.892095
vt 0.655609 0.892095
vt 0.661379 0.892095
vt 0.667037 0.892095
vt 0.672368 0.892095
vt 0.677165 0.892095
vt 0.835180 0.747190
vt 0.839260 0.747190
vt 0.844057 0.747190
vt 0.876603 0.747190
vt 0.849388 0.747190
vt 0.668260 0.584792
vt 0.662314 0.586597
vt 0.664181 0.588872
vt 0.633023 0.589481
vt 0.626838 0.588872
vt 0.631636 0.592077
vt 0.657996 0.542759
vt 0.664180 0.543369
vt 0.659383 0.540164
vt 0.659383 0.592077
vt 0.654053 0.537956
vt 0.653199 0.591469
vt 0.654053 0.594285
vt 0.648106 0.539759
vt 0.648394 0.536830
vt 0.648394 0.595411
vt 0.642624 0.536830
vt 0.642913 0.592482
vt 0.642625 0.595411
vt 0.637820 0.540772
vt 0.636966 0.537956
vt 0.619553 0.579995
vt 0.620162 0.573810
vt 0.617345 0.574664
vt 0.631635 0.540164
vt 0.636966 0.594285
vt 0.628705 0.545644
vt 0.626838 0.543369
vt 0.616220 0.569005
vt 0.622759 0.547449
vt 0.622149 0.553634
vt 0.619553 0.552246
vt 0.619149 0.563524
vt 0.616220 0.563235
vt 0.674799 0.563235
vt 0.671870 0.568717
vt 0.674799 0.569005
vt 0.625034 0.582925
vt 0.622759 0.584792
vt 0.670857 0.558431
vt 0.673674 0.557577
vt 0.673674 0.574664
vt 0.617345 0.557577
vt 0.671466 0.552246
vt 0.668870 0.578607
vt 0.671466 0.579995
vt 0.665985 0.549316
vt 0.668260 0.547449
vt 0.677165 0.926792
vt 0.681245 0.920301
vt 0.681245 0.926792
vt 0.849388 0.781888
vt 0.855047 0.775396
vt 0.855047 0.781888
vt 0.876603 0.781888
vt 0.880683 0.775396
vt 0.880683 0.781888
vt 0.844057 0.781888
vt 0.849388 0.775396
vt 0.871806 0.781888
vt 0.876603 0.775396
vt 0.839260 0.781888
vt 0.844057 0.775396
vt 0.835180 0.781888
vt 0.839260 0.775396
vt 0.672368 0.926792
vt 0.677165 0.920301
vt 0.667037 0.926792
vt 0.672368 0.920301
vt 0.661379 0.926792
vt 0.667037 0.920301
vt 0.655609 0.926792
vt 0.661379 0.920301
vt 0.649950 0.926792
vt 0.655609 0.920301
vt 0.644620 0.926792
vt 0.649950 0.920301
vt 0.639822 0.926792
vt 0.644620 0.920301
vt 0.635742 0.926792
vt 0.639822 0.920301
vt 0.913229 0.781888
vt 0.918026 0.775396
vt 0.918026 0.781888
vt 0.907898 0.781888
vt 0.913229 0.775396
vt 0.902239 0.781888
vt 0.907898 0.775396
vt 0.860817 0.775396
vt 0.860817 0.781888
vt 0.686042 0.920301
vt 0.686042 0.926792
vt 0.866475 0.775396
vt 0.866475 0.781888
vt 0.691373 0.920301
vt 0.691373 0.926792
vt 0.871806 0.775396
vt 0.697032 0.920301
vt 0.697032 0.926792
vt 0.702802 0.920301
vt 0.702802 0.926792
vt 0.708460 0.920301
vt 0.708460 0.926792
vt 0.713791 0.920301
vt 0.713791 0.926792
vt 0.718588 0.920301
vt 0.718588 0.926792
vt 0.885480 0.775396
vt 0.885480 0.781888
vt 0.890811 0.775396
vt 0.890811 0.781888
vt 0.896470 0.775396
vt 0.896470 0.781888
vt 0.902239 0.775396
vt 0.630825 0.368833
vt 0.636306 0.371762
vt 0.636594 0.368833
vt 0.641399 0.423472
vt 0.636594 0.427414
vt 0.642253 0.426288
vt 0.642253 0.369958
vt 0.647583 0.424080
vt 0.646196 0.374762
vt 0.647583 0.372166
vt 0.650513 0.418599
vt 0.652381 0.420875
vt 0.652380 0.375372
vt 0.621223 0.421484
vt 0.615038 0.420875
vt 0.619836 0.424080
vt 0.656460 0.416795
vt 0.654185 0.381319
vt 0.656460 0.379452
vt 0.607349 0.395527
vt 0.605545 0.389580
vt 0.604420 0.395238
vt 0.657070 0.410610
vt 0.659666 0.411998
vt 0.659666 0.384249
vt 0.613234 0.414928
vt 0.610959 0.416795
vt 0.661874 0.406667
vt 0.659057 0.390434
vt 0.661874 0.389580
vt 0.610349 0.385636
vt 0.607753 0.384249
vt 0.660070 0.400720
vt 0.662999 0.401008
vt 0.662999 0.395238
vt 0.607753 0.411998
vt 0.604420 0.401008
vt 0.610959 0.379452
vt 0.625166 0.426288
vt 0.616905 0.377647
vt 0.615038 0.375372
vt 0.608362 0.405813
vt 0.605545 0.406667
vt 0.619835 0.372166
vt 0.631113 0.424485
vt 0.630825 0.427414
vt 0.626020 0.372775
vt 0.625166 0.369958
vt 0.896470 0.810083
vt 0.902239 0.810083
vt 0.890811 0.810083
vt 0.885480 0.810083
vt 0.880683 0.810083
vt 0.713791 0.954988
vt 0.718588 0.954988
vt 0.708460 0.954988
vt 0.702802 0.954988
vt 0.697032 0.954988
vt 0.691373 0.954988
vt 0.866475 0.810083
vt 0.871806 0.810083
vt 0.686042 0.954988
vt 0.860817 0.810083
vt 0.681245 0.954988
vt 0.855047 0.810083
vt 0.907898 0.810083
vt 0.913229 0.810083
vt 0.918026 0.810083
vt 0.635742 0.954988
vt 0.639822 0.954988
vt 0.644620 0.954988
vt 0.649950 0.954988
vt 0.655609 0.954988
vt 0.661379 0.954988
vt 0.667037 0.954988
vt 0.672368 0.954988
vt 0.677165 0.954988
vt 0.835180 0.810083
vt 0.839260 0.810083
vt 0.844057 0.810083
vt 0.876603 0.810083
vt 0.849388 0.810083
vt 0.642253 0.428539
vt 0.636306 0.430343
vt 0.636594 0.427414
vt 0.636594 0.485994
vt 0.641399 0.482052
vt 0.642253 0.484869
vt 0.630825 0.427414
vt 0.631113 0.430343
vt 0.631113 0.483065
vt 0.636306 0.483065
vt 0.626020 0.431356
vt 0.625166 0.428539
vt 0.607753 0.470578
vt 0.608362 0.464393
vt 0.610349 0.469191
vt 0.619835 0.430747
vt 0.621223 0.433343
vt 0.625166 0.484869
vt 0.630825 0.485994
vt 0.616905 0.436228
vt 0.615038 0.433953
vt 0.604420 0.459589
vt 0.605545 0.465248
vt 0.610959 0.438033
vt 0.613234 0.439900
vt 0.621223 0.480065
vt 0.626020 0.482052
vt 0.610349 0.444217
vt 0.607753 0.442830
vt 0.607349 0.454108
vt 0.607349 0.459300
vt 0.818624 0.540069
vt 0.815695 0.545550
vt 0.815695 0.540358
vt 0.613234 0.473509
vt 0.610959 0.475376
vt 0.662999 0.453819
vt 0.659057 0.449015
vt 0.661874 0.448160
vt 0.661874 0.465248
vt 0.660070 0.459300
vt 0.662999 0.459589
vt 0.605545 0.448160
vt 0.608362 0.449015
vt 0.659666 0.442830
vt 0.657070 0.444217
vt 0.657070 0.469191
vt 0.659057 0.464393
vt 0.615038 0.479456
vt 0.616906 0.477180
vt 0.654185 0.439900
vt 0.656460 0.438033
vt 0.656460 0.475376
vt 0.659666 0.470578
vt 0.604420 0.453819
vt 0.652380 0.433953
vt 0.650513 0.436228
vt 0.650513 0.477180
vt 0.654185 0.473509
vt 0.619836 0.482661
vt 0.646196 0.433343
vt 0.647583 0.430747
vt 0.647583 0.482661
vt 0.652381 0.479455
vt 0.641398 0.431356
vt 0.646196 0.480065
vt 0.835180 0.775396
vt 0.394492 0.479051
vt 0.398572 0.450845
vt 0.398572 0.479051
vt 0.548524 0.381250
vt 0.556458 0.380337
vt 0.552378 0.384417
vt 0.558904 0.372731
vt 0.553295 0.376479
vt 0.565138 0.370149
vt 0.561255 0.377131
vt 0.639433 0.334146
vt 0.644230 0.305940
vt 0.644230 0.334146
vt 0.572245 0.373798
vt 0.566586 0.374924
vt 0.578502 0.368833
vt 0.571755 0.368833
vt 0.583673 0.374924
vt 0.578014 0.373798
vt 0.391301 0.294087
vt 0.393106 0.300034
vt 0.389434 0.296362
vt 0.346673 0.302964
vt 0.347281 0.309149
vt 0.344465 0.308294
vt 0.398586 0.330712
vt 0.397977 0.324527
vt 0.400794 0.325381
vt 0.386504 0.290881
vt 0.385116 0.293477
vt 0.549173 0.389214
vt 0.554653 0.386284
vt 0.551768 0.390601
vt 0.369744 0.346128
vt 0.375225 0.343199
vt 0.375514 0.346128
vt 0.589004 0.377131
vt 0.582819 0.377740
vt 0.393105 0.333642
vt 0.395990 0.329324
vt 0.577726 0.376727
vt 0.562643 0.379727
vt 0.558325 0.382612
vt 0.364940 0.342186
vt 0.370033 0.343199
vt 0.572533 0.376727
vt 0.391300 0.339589
vt 0.395380 0.335509
vt 0.567440 0.377740
vt 0.381173 0.345002
vt 0.380318 0.342186
vt 0.364085 0.345002
vt 0.360142 0.340198
vt 0.401920 0.319723
vt 0.398991 0.319434
vt 0.358755 0.342794
vt 0.355825 0.337314
vt 0.385116 0.340198
vt 0.386503 0.342794
vt 0.349878 0.335509
vt 0.353957 0.339589
vt 0.398991 0.314241
vt 0.401920 0.313953
vt 0.349268 0.329324
vt 0.352153 0.333642
vt 0.389433 0.337314
vt 0.344464 0.325381
vt 0.346672 0.330712
vt 0.400794 0.308294
vt 0.397978 0.309149
vt 0.343339 0.319723
vt 0.347281 0.324527
vt 0.395991 0.304351
vt 0.398586 0.302964
vt 0.343339 0.313953
vt 0.346268 0.319434
vt 0.395381 0.298167
vt 0.346268 0.314241
vt 0.479950 0.316192
vt 0.473471 0.311874
vt 0.473471 0.316192
vt 0.479950 0.311874
vt 0.473471 0.307077
vt 0.479950 0.301984
vt 0.473471 0.301984
vt 0.479950 0.296791
vt 0.473471 0.296791
vt 0.473471 0.291698
vt 0.479950 0.286901
vt 0.473471 0.286901
vt 0.479950 0.282583
vt 0.473471 0.282583
vt 0.476923 0.360816
vt 0.470443 0.356498
vt 0.470443 0.360816
vt 0.476923 0.351701
vt 0.470443 0.351701
vt 0.470443 0.346608
vt 0.476923 0.346608
vt 0.470443 0.341415
vt 0.476923 0.341415
vt 0.470443 0.336322
vt 0.476923 0.336322
vt 0.470443 0.331525
vt 0.476923 0.331525
vt 0.470443 0.327207
vt 0.476923 0.327207
vt 0.470443 0.323535
vt 0.669479 0.409785
vt 0.662999 0.406114
vt 0.662999 0.409785
vt 0.669479 0.406114
vt 0.662999 0.401796
vt 0.669479 0.401796
vt 0.662999 0.396998
vt 0.770729 0.456998
vt 0.764249 0.451905
vt 0.764249 0.456998
vt 0.669479 0.391905
vt 0.662999 0.386713
vt 0.662999 0.391905
vt 0.669479 0.386713
vt 0.662999 0.381620
vt 0.669479 0.381620
vt 0.662999 0.376822
vt 0.669479 0.376822
vt 0.662999 0.372505
vt 0.466979 0.286255
vt 0.460499 0.282583
vt 0.460499 0.286255
vt 0.473471 0.399057
vt 0.466991 0.394739
vt 0.466991 0.399057
vt 0.473471 0.389942
vt 0.466991 0.389942
vt 0.466991 0.384849
vt 0.473471 0.379656
vt 0.466991 0.379656
vt 0.473471 0.374563
vt 0.466991 0.374563
vt 0.466991 0.369766
vt 0.473471 0.369766
vt 0.466991 0.365448
vt 0.473471 0.365448
vt 0.466991 0.361776
vt 0.675970 0.376822
vt 0.669479 0.372505
vt 0.669479 0.376822
vt 0.675970 0.372505
vt 0.669479 0.368833
vt 0.542409 0.478286
vt 0.535918 0.474614
vt 0.535918 0.478286
vt 0.542409 0.474614
vt 0.535918 0.470297
vt 0.542409 0.470297
vt 0.535918 0.465499
vt 0.542409 0.465499
vt 0.535918 0.460406
vt 0.542409 0.460406
vt 0.535918 0.455213
vt 0.542409 0.455213
vt 0.535918 0.450120
vt 0.542409 0.450120
vt 0.535918 0.445323
vt 0.542409 0.445323
vt 0.535918 0.441005
vt 0.542409 0.441005
vt 0.535918 0.437334
vt 0.669491 0.485307
vt 0.662999 0.480989
vt 0.662999 0.485307
vt 0.669491 0.480989
vt 0.662999 0.476192
vt 0.669491 0.476192
vt 0.662999 0.471099
vt 0.669491 0.471099
vt 0.662999 0.465906
vt 0.669491 0.465906
vt 0.662999 0.460813
vt 0.669491 0.460813
vt 0.662999 0.456016
vt 0.669491 0.456016
vt 0.662999 0.451698
vt 0.669491 0.451698
vt 0.662999 0.448026
vt 0.542409 0.511895
vt 0.535918 0.507577
vt 0.535918 0.511895
vt 0.542409 0.507577
vt 0.535918 0.502780
vt 0.542409 0.502780
vt 0.535918 0.497687
vt 0.542409 0.497687
vt 0.535918 0.492494
vt 0.542409 0.492494
vt 0.535918 0.487401
vt 0.542409 0.487401
vt 0.535918 0.482604
vt 0.542409 0.482604
vt 0.675970 0.406114
vt 0.669479 0.401796
vt 0.669479 0.406114
vt 0.675970 0.401796
vt 0.669479 0.396998
vt 0.675970 0.396998
vt 0.669479 0.391905
vt 0.675970 0.391905
vt 0.669479 0.386713
vt 0.675970 0.386713
vt 0.669479 0.381620
vt 0.675970 0.381620
vt 0.636660 0.775347
vt 0.642270 0.775347
vt 0.648503 0.775347
vt 0.655120 0.775347
vt 0.661867 0.775347
vt 0.748686 0.775347
vt 0.754919 0.775347
vt 0.668484 0.775347
vt 0.761536 0.775347
vt 0.674717 0.775347
vt 0.768283 0.775347
vt 0.680327 0.775347
vt 0.774900 0.775347
vt 0.685098 0.775347
vt 0.781133 0.775347
vt 0.743076 0.775347
vt 0.786743 0.775347
vt 0.792353 0.775347
vt 0.798586 0.775347
vt 0.805203 0.775347
vt 0.733535 0.775347
vt 0.738306 0.775347
vt 0.727925 0.775347
vt 0.665619 0.442076
vt 0.672943 0.445258
vt 0.668799 0.448026
vt 0.668549 0.434648
vt 0.670224 0.440169
vt 0.662999 0.428906
vt 0.663660 0.435620
vt 0.663660 0.422192
vt 0.667983 0.428906
vt 0.670224 0.417643
vt 0.668549 0.423164
vt 0.668799 0.409785
vt 0.665619 0.415735
vt 0.685098 0.775347
vt 0.689868 0.775347
vt 0.830410 0.775347
vt 0.835180 0.775347
vt 0.824800 0.775347
vt 0.818567 0.775347
vt 0.811950 0.775347
vt 0.805203 0.810083
vt 0.811950 0.810083
vt 0.818567 0.810083
vt 0.824800 0.810083
vt 0.830410 0.810083
vt 0.685098 0.810083
vt 0.689868 0.810083
vt 0.695478 0.775347
vt 0.695478 0.810083
vt 0.701711 0.775347
vt 0.701711 0.810083
vt 0.708328 0.775347
vt 0.708328 0.810083
vt 0.715075 0.775347
vt 0.715075 0.810083
vt 0.721692 0.775347
vt 0.721692 0.810083
vt 0.727925 0.810083
vt 0.733535 0.810083
vt 0.631890 0.810083
vt 0.636660 0.810083
vt 0.798586 0.810083
vt 0.792353 0.810083
vt 0.786743 0.810083
vt 0.781133 0.810083
vt 0.743076 0.810083
vt 0.748686 0.810083
vt 0.774900 0.810083
vt 0.738306 0.810083
vt 0.768283 0.810083
vt 0.674717 0.810083
vt 0.680327 0.810083
vt 0.761536 0.810083
vt 0.668484 0.810083
vt 0.754919 0.810083
vt 0.661867 0.810083
vt 0.655120 0.810083
vt 0.648503 0.810083
vt 0.642270 0.810083
vt 0.394492 0.450845
vt 0.390640 0.479002
vt 0.390640 0.450040
vt 0.675970 0.448831
vt 0.679823 0.476988
vt 0.675970 0.477037
vt 0.479654 0.725118
vt 0.572263 0.774619
vt 0.360150 0.948696
vt 0.790422 0.889044
vt 0.802505 0.876961
vt 0.793628 0.884246
vt 0.797708 0.880167
vt 0.807836 0.874753
vt 0.813494 0.873627
vt 0.819264 0.873627
vt 0.824923 0.874753
vt 0.830253 0.876961
vt 0.842336 0.889044
vt 0.835051 0.880167
vt 0.839131 0.884246
vt 0.844544 0.894374
vt 0.845670 0.900033
vt 0.845670 0.905803
vt 0.842336 0.916792
vt 0.830253 0.928875
vt 0.839131 0.921589
vt 0.835051 0.925669
vt 0.824923 0.931083
vt 0.819264 0.932208
vt 0.813494 0.932208
vt 0.807836 0.931083
vt 0.802505 0.928875
vt 0.797708 0.925669
vt 0.793628 0.921589
vt 0.788214 0.911462
vt 0.787089 0.905803
vt 0.787089 0.900033
vt 0.677165 0.810083
vt 0.685098 0.665178
vt 0.635742 0.810083
vt 0.743076 0.665178
vt 0.636660 0.665178
vt 0.665985 0.582925
vt 0.628706 0.586597
vt 0.662313 0.545644
vt 0.657996 0.589481
vt 0.653198 0.540772
vt 0.648106 0.592482
vt 0.642913 0.539759
vt 0.622149 0.578607
vt 0.633023 0.542759
vt 0.637820 0.591469
vt 0.619149 0.568717
vt 0.625034 0.549316
vt 0.671870 0.563524
vt 0.670857 0.573810
vt 0.620162 0.558431
vt 0.668870 0.553634
vt 0.635742 0.920301
vt 0.631113 0.371762
vt 0.636306 0.424485
vt 0.641398 0.372775
vt 0.646196 0.421484
vt 0.650513 0.377647
vt 0.616906 0.418599
vt 0.654185 0.414928
vt 0.608362 0.390434
vt 0.657070 0.385636
vt 0.659057 0.405813
vt 0.660070 0.395527
vt 0.610349 0.410610
vt 0.607349 0.400720
vt 0.613234 0.381319
vt 0.626020 0.423472
vt 0.621223 0.374762
vt 0.818624 0.545839
vt 0.660070 0.454108
vt 0.639433 0.305940
vt 0.585119 0.370149
vt 0.349268 0.304351
vt 0.587616 0.379727
vt 0.479950 0.307077
vt 0.479950 0.291698
vt 0.476923 0.356498
vt 0.476923 0.323535
vt 0.669479 0.396998
vt 0.770729 0.451905
vt 0.669479 0.372505
vt 0.466979 0.282583
vt 0.473471 0.394739
vt 0.473471 0.384849
vt 0.473471 0.361776
vt 0.675970 0.368833
vt 0.542409 0.437334
vt 0.669491 0.448026
vt 0.672943 0.412554
vt 0.631890 0.775347
vt 0.679823 0.448026
vt 0.587206 0.796982
vt 0.597499 0.821830
vt 0.602746 0.848209
vt 0.602746 0.875105
vt 0.597499 0.901484
vt 0.587206 0.926333
vt 0.572263 0.948696
vt 0.553245 0.967714
vt 0.530882 0.982657
vt 0.506034 0.992949
vt 0.479654 0.998196
vt 0.452759 0.998196
vt 0.426380 0.992949
vt 0.401531 0.982657
vt 0.379168 0.967714
vt 0.345207 0.926333
vt 0.329668 0.848209
vt 0.334914 0.901484
vt 0.329668 0.875105
vt 0.334914 0.821830
vt 0.345207 0.796982
vt 0.360150 0.774619
vt 0.379168 0.755601
vt 0.401531 0.740658
vt 0.426380 0.730365
vt 0.452759 0.725118
vt 0.506034 0.730365
vt 0.530882 0.740658
vt 0.553245 0.755601
s 0
usemtl Material
f 61/1/1 34/2/1 49/3/1
f 129/4/2 68/5/2 148/6/2
f 130/7/3 94/8/3 147/9/3
f 399/10/4 119/11/4 385/12/4
f 131/13/5 67/14/5 129/15/5
f 133/16/6 93/17/6 130/7/6
f 385/12/7 118/18/7 386/19/7
f 132/20/8 65/21/8 131/13/8
f 134/22/9 92/23/9 133/16/9
f 386/19/10 117/24/10 387/25/10
f 135/26/11 91/27/11 134/22/11
f 387/25/12 116/28/12 388/29/12
f 136/30/13 90/31/13 135/4/13
f 388/29/2 115/32/2 389/33/2
f 137/34/14 89/35/14 136/30/14
f 389/36/5 114/37/5 390/38/5
f 138/39/15 88/40/15 137/34/15
f 390/38/8 113/41/8 391/42/8
f 139/43/16 87/44/16 138/39/16
f 391/42/17 112/45/17 392/46/17
f 140/47/18 86/48/18 139/43/18
f 392/46/19 111/49/19 393/50/19
f 141/51/20 85/52/20 140/47/20
f 393/50/21 110/53/21 394/54/21
f 142/55/22 84/56/22 141/51/22
f 394/54/3 109/57/3 395/58/3
f 143/59/23 83/60/23 142/55/23
f 395/58/6 108/61/6 396/62/6
f 144/63/24 82/64/24 143/65/24
f 396/62/9 107/66/9 398/67/9
f 145/68/25 81/69/25 144/63/25
f 398/67/11 106/70/11 397/71/11
f 146/72/26 80/73/26 145/68/26
f 66/74/1 97/75/1 65/76/1
f 65/76/1 99/77/1 67/78/1
f 68/79/1 99/77/1 100/80/1
f 68/79/1 101/81/1 69/82/1
f 70/83/1 101/81/1 102/84/1
f 70/83/1 103/85/1 71/86/1
f 71/86/1 104/87/1 72/88/1
f 73/89/1 104/87/1 105/90/1
f 73/89/1 106/91/1 74/92/1
f 74/92/1 107/93/1 75/94/1
f 76/95/1 107/93/1 108/96/1
f 76/95/1 109/97/1 77/98/1
f 78/99/1 109/97/1 110/100/1
f 78/99/1 111/101/1 79/102/1
f 79/102/1 112/103/1 80/104/1
f 81/105/1 112/103/1 113/106/1
f 81/105/1 114/107/1 82/108/1
f 82/108/1 115/109/1 83/110/1
f 84/111/1 115/109/1 116/112/1
f 84/111/1 117/113/1 85/114/1
f 86/115/1 117/113/1 118/116/1
f 86/115/1 119/117/1 87/118/1
f 87/118/1 120/119/1 88/120/1
f 89/121/1 120/119/1 121/122/1
f 89/121/1 122/123/1 90/124/1
f 90/124/1 123/125/1 91/126/1
f 92/127/1 123/125/1 124/128/1
f 92/127/1 125/129/1 93/130/1
f 94/131/1 125/129/1 126/132/1
f 94/131/1 127/133/1 95/134/1
f 95/134/1 128/135/1 96/136/1
f 66/74/1 128/135/1 98/137/1
f 400/138/27 120/139/27 399/10/27
f 147/9/21 95/140/21 149/141/21
f 148/6/12 69/142/12 150/143/12
f 401/144/28 121/145/28 400/138/28
f 149/141/19 96/146/19 151/147/19
f 150/143/10 70/148/10 152/149/10
f 402/150/29 122/151/29 401/144/29
f 151/147/17 66/152/17 132/20/17
f 152/149/7 71/153/7 153/154/7
f 403/155/30 123/156/30 402/150/30
f 404/157/24 98/158/24 405/159/24
f 153/154/4 72/160/4 154/161/4
f 406/162/31 124/163/31 403/155/31
f 407/164/23 97/165/23 404/166/23
f 154/161/27 73/167/27 155/168/27
f 408/169/32 125/170/32 406/162/32
f 409/171/22 99/172/22 407/164/22
f 155/168/28 74/173/28 156/174/28
f 410/175/33 126/176/33 408/169/33
f 411/177/20 100/178/20 409/171/20
f 156/174/29 75/179/29 157/180/29
f 412/181/26 127/182/26 410/175/26
f 413/183/18 101/184/18 411/177/18
f 157/15/30 76/185/30 158/186/30
f 405/159/25 128/187/25 412/181/25
f 414/188/16 102/189/16 413/183/16
f 158/186/31 77/190/31 159/191/31
f 415/192/15 103/193/15 414/188/15
f 159/191/32 78/194/32 160/195/32
f 416/196/14 104/197/14 415/192/14
f 160/195/33 79/198/33 146/72/33
f 397/199/13 105/200/13 416/196/13
f 352/201/33 146/72/33 322/202/33
f 351/203/32 160/195/32 352/201/32
f 350/204/31 159/191/31 351/203/31
f 349/205/30 158/186/30 350/204/30
f 348/206/29 157/180/29 349/207/29
f 347/208/28 156/174/28 348/206/28
f 346/209/27 155/168/27 347/208/27
f 345/210/4 154/161/4 346/209/4
f 344/211/7 153/154/7 345/210/7
f 343/212/17 132/20/17 321/213/17
f 342/214/10 152/149/10 344/211/10
f 341/215/19 151/147/19 343/212/19
f 340/216/12 150/143/12 342/214/12
f 339/217/21 149/141/21 341/215/21
f 322/202/26 145/68/26 338/218/26
f 338/218/25 144/63/25 337/219/25
f 337/219/24 143/65/24 336/220/24
f 336/221/23 142/55/23 335/222/23
f 335/222/22 141/51/22 334/223/22
f 334/223/20 140/47/20 333/224/20
f 333/224/18 139/43/18 332/225/18
f 332/225/16 138/39/16 331/226/16
f 331/226/15 137/34/15 330/227/15
f 330/227/14 136/30/14 329/228/14
f 329/228/13 135/4/13 328/229/13
f 328/230/11 134/22/11 327/231/11
f 327/231/9 133/16/9 326/232/9
f 321/213/8 131/13/8 325/233/8
f 326/232/6 130/7/6 324/234/6
f 325/233/5 129/15/5 323/205/5
f 324/234/3 147/9/3 339/217/3
f 323/229/2 148/6/2 340/216/2
f 157/235/1 188/236/1 156/237/1
f 180/238/1 129/239/1 148/240/1
f 173/241/1 142/242/1 141/243/1
f 188/236/1 155/244/1 156/237/1
f 140/245/1 173/241/1 141/243/1
f 155/244/1 186/246/1 154/247/1
f 171/248/1 140/245/1 139/249/1
f 186/246/1 153/250/1 154/247/1
f 138/251/1 171/248/1 139/249/1
f 153/250/1 184/252/1 152/253/1
f 169/254/1 138/251/1 137/255/1
f 132/256/1 183/257/1 151/258/1
f 136/259/1 169/254/1 137/255/1
f 184/252/1 150/260/1 152/253/1
f 167/261/1 136/259/1 135/262/1
f 183/257/1 149/263/1 151/258/1
f 134/264/1 167/261/1 135/262/1
f 150/260/1 180/238/1 148/240/1
f 165/265/1 134/264/1 133/266/1
f 149/263/1 179/267/1 147/268/1
f 146/269/1 192/270/1 160/271/1
f 163/272/1 132/256/1 131/273/1
f 177/274/1 146/269/1 145/275/1
f 192/270/1 159/276/1 160/271/1
f 130/277/1 165/265/1 133/266/1
f 144/278/1 177/274/1 145/275/1
f 159/276/1 190/279/1 158/280/1
f 129/239/1 163/272/1 131/273/1
f 175/281/1 144/278/1 143/282/1
f 190/279/1 157/235/1 158/280/1
f 179/267/1 130/277/1 147/268/1
f 142/242/1 175/281/1 143/282/1
f 257/283/2 210/284/2 274/285/2
f 258/286/3 209/287/3 273/288/3
f 259/289/5 193/290/5 257/291/5
f 260/292/6 194/293/6 258/286/6
f 287/294/8 195/295/8 259/289/8
f 261/296/9 196/297/9 260/292/9
f 262/298/11 197/299/11 261/296/11
f 263/300/13 198/301/13 262/283/13
f 264/302/14 199/303/14 263/300/14
f 265/304/15 200/305/15 264/302/15
f 266/306/16 201/307/16 265/304/16
f 267/308/18 202/309/18 266/306/18
f 268/310/20 203/311/20 267/308/20
f 269/312/22 204/313/22 268/310/22
f 270/314/23 205/315/23 269/312/23
f 271/316/24 206/317/24 270/318/24
f 272/319/25 207/320/25 271/316/25
f 288/321/26 208/322/26 272/319/26
f 273/288/21 211/323/21 275/324/21
f 274/285/12 212/325/12 276/326/12
f 275/324/19 213/327/19 277/328/19
f 276/326/10 214/329/10 278/330/10
f 277/328/17 223/331/17 287/294/17
f 278/330/7 215/332/7 279/333/7
f 279/333/4 216/334/4 280/335/4
f 280/335/27 217/336/27 281/337/27
f 281/337/28 218/338/28 282/339/28
f 282/339/29 219/340/29 283/341/29
f 283/291/30 220/342/30 284/343/30
f 284/343/31 221/344/31 285/345/31
f 285/345/32 222/346/32 286/347/32
f 286/347/33 224/348/33 288/321/33
f 201/349/1 234/350/1 202/351/1
f 248/352/1 215/353/1 216/354/1
f 234/350/1 203/355/1 202/351/1
f 217/356/1 248/352/1 216/354/1
f 203/355/1 236/357/1 204/358/1
f 250/359/1 217/356/1 218/360/1
f 236/357/1 205/361/1 204/358/1
f 242/362/1 193/363/1 210/364/1
f 219/365/1 250/359/1 218/360/1
f 205/361/1 238/366/1 206/367/1
f 241/368/1 194/369/1 209/370/1
f 252/371/1 219/365/1 220/372/1
f 238/366/1 207/373/1 206/367/1
f 193/363/1 227/374/1 195/375/1
f 221/376/1 252/371/1 220/372/1
f 207/373/1 240/377/1 208/378/1
f 194/369/1 228/379/1 196/380/1
f 254/381/1 221/376/1 222/382/1
f 240/377/1 224/383/1 208/378/1
f 227/374/1 223/384/1 195/375/1
f 224/383/1 254/381/1 222/382/1
f 211/385/1 241/368/1 209/370/1
f 228/379/1 197/386/1 196/380/1
f 212/387/1 242/362/1 210/364/1
f 197/386/1 230/388/1 198/389/1
f 245/390/1 211/385/1 213/391/1
f 230/388/1 199/392/1 198/389/1
f 246/393/1 212/387/1 214/394/1
f 199/392/1 232/395/1 200/396/1
f 223/384/1 245/390/1 213/391/1
f 232/395/1 201/349/1 200/396/1
f 215/353/1 246/393/1 214/394/1
f 46/397/33 288/321/33 47/398/33
f 45/399/32 286/347/32 46/397/32
f 44/400/31 285/345/31 45/399/31
f 43/401/30 284/343/30 44/400/30
f 42/402/29 283/341/29 43/403/29
f 41/404/28 282/339/28 42/402/28
f 40/405/27 281/337/27 41/404/27
f 39/406/4 280/335/4 40/405/4
f 38/407/7 279/333/7 39/406/7
f 64/408/17 287/294/17 34/409/17
f 37/410/10 278/330/10 38/407/10
f 63/411/19 277/328/19 64/408/19
f 36/412/12 276/326/12 37/410/12
f 62/413/21 275/324/21 63/411/21
f 47/398/26 272/319/26 48/414/26
f 48/414/25 271/316/25 49/415/25
f 49/415/24 270/318/24 50/416/24
f 50/417/23 269/312/23 51/418/23
f 51/418/22 268/310/22 52/419/22
f 52/419/20 267/308/20 53/420/20
f 53/420/18 266/306/18 54/421/18
f 54/421/16 265/304/16 55/422/16
f 55/422/15 264/302/15 56/423/15
f 56/423/14 263/300/14 57/424/14
f 57/424/13 262/283/13 58/425/13
f 58/426/11 261/296/11 59/427/11
f 59/427/9 260/292/9 60/428/9
f 34/409/8 259/289/8 33/429/8
f 60/428/6 258/286/6 61/430/6
f 33/429/5 257/291/5 35/401/5
f 61/430/3 273/288/3 62/413/3
f 35/425/2 274/285/2 36/412/2
f 267/431/34 298/432/34 266/433/34
f 279/434/34 312/435/34 280/436/34
f 265/437/34 298/432/34 297/438/34
f 279/434/34 310/439/34 311/440/34
f 265/437/34 296/441/34 264/442/34
f 287/443/34 309/444/34 319/445/34
f 263/446/34 296/441/34 295/447/34
f 276/448/34 310/439/34 278/449/34
f 263/446/34 294/450/34 262/451/34
f 275/452/34 309/444/34 277/453/34
f 261/454/34 294/450/34 293/455/34
f 276/448/34 306/456/34 308/457/34
f 261/454/34 292/458/34 260/459/34
f 275/452/34 305/460/34 307/461/34
f 288/462/34 318/463/34 320/464/34
f 287/443/34 291/465/34 259/466/34
f 288/467/34 304/468/34 272/469/34
f 285/470/34 318/471/34 286/472/34
f 258/473/34 292/458/34 290/474/34
f 271/475/34 304/468/34 303/476/34
f 285/470/34 316/477/34 317/478/34
f 257/479/34 291/465/34 289/480/34
f 271/475/34 302/481/34 270/482/34
f 283/483/34 316/477/34 284/484/34
f 258/473/34 305/460/34 273/485/34
f 269/486/34 302/481/34 301/487/34
f 283/483/34 314/488/34 315/489/34
f 257/479/34 306/456/34 274/490/34
f 269/486/34 300/491/34 268/492/34
f 281/493/34 314/488/34 282/494/34
f 267/431/34 300/491/34 299/495/34
f 281/493/34 312/435/34 313/496/34
f 193/301/2 340/216/2 210/284/2
f 194/293/3 339/217/3 209/287/3
f 195/295/5 323/205/5 193/290/5
f 196/297/6 324/234/6 194/293/6
f 223/331/8 325/233/8 195/295/8
f 197/299/9 326/232/9 196/297/9
f 198/497/11 327/231/11 197/299/11
f 199/303/13 328/229/13 198/301/13
f 200/305/14 329/228/14 199/303/14
f 201/307/15 330/227/15 200/305/15
f 202/309/16 331/226/16 201/307/16
f 203/311/18 332/225/18 202/309/18
f 204/313/20 333/224/20 203/311/20
f 205/315/22 334/223/22 204/313/22
f 206/498/23 335/499/23 205/500/23
f 390/501/35 337/502/35 336/503/35
f 392/504/36 337/502/36 391/505/36
f 393/506/37 338/507/37 392/504/37
f 209/287/21 341/215/21 211/323/21
f 210/284/12 342/214/12 212/325/12
f 211/323/19 343/212/19 213/327/19
f 212/325/10 344/211/10 214/329/10
f 213/327/17 321/213/17 223/331/17
f 214/329/7 345/210/7 215/332/7
f 215/332/4 346/209/4 216/334/4
f 216/334/27 347/208/27 217/336/27
f 217/336/28 348/206/28 218/338/28
f 218/338/29 349/207/29 219/340/29
f 219/508/30 350/509/30 220/510/30
f 393/506/38 352/511/38 322/512/38
f 395/513/39 352/511/39 394/514/39
f 395/513/40 350/515/40 351/516/40
f 348/517/34 379/518/34 380/519/34
f 335/520/34 366/521/34 334/522/34
f 323/523/34 372/524/34 340/525/34
f 349/526/34 380/519/34 381/527/34
f 335/528/34 368/529/34 367/530/34
f 324/531/34 371/532/34 339/533/34
f 349/534/34 382/535/34 350/515/34
f 337/502/34 368/529/34 336/503/34
f 323/523/34 357/536/34 355/537/34
f 351/516/34 382/535/34 383/538/34
f 337/502/34 370/539/34 369/540/34
f 324/531/34 358/541/34 356/542/34
f 351/516/34 384/543/34 352/511/34
f 322/512/34 370/539/34 338/507/34
f 321/544/34 357/536/34 325/545/34
f 322/512/34 384/543/34 354/546/34
f 341/547/34 371/532/34 373/548/34
f 326/549/34 359/550/34 358/541/34
f 342/551/34 372/524/34 374/552/34
f 327/553/34 360/554/34 359/550/34
f 341/547/34 375/555/34 343/556/34
f 329/557/34 360/554/34 328/558/34
f 342/551/34 376/559/34 344/560/34
f 329/557/34 362/561/34 361/562/34
f 321/544/34 375/555/34 353/563/34
f 331/564/34 362/561/34 330/565/34
f 345/566/34 376/559/34 377/567/34
f 332/568/34 363/569/34 331/564/34
f 345/566/34 378/570/34 346/571/34
f 333/572/34 364/573/34 332/568/34
f 346/571/34 379/518/34 347/574/34
f 333/572/34 366/521/34 365/575/34
f 357/576/8 164/577/8 163/578/8
f 353/579/17 183/580/17 164/577/17
f 183/580/19 373/581/19 181/582/19
f 181/582/21 371/583/21 179/584/21
f 371/583/3 162/585/3 179/584/3
f 162/585/6 358/586/6 165/587/6
f 165/587/9 359/588/9 166/589/9
f 359/590/11 167/591/11 166/592/11
f 167/591/13 361/593/13 168/594/13
f 361/593/14 169/595/14 168/594/14
f 362/596/15 170/597/15 169/595/15
f 363/598/16 171/599/16 170/597/16
f 364/600/18 172/601/18 171/599/18
f 365/602/20 173/603/20 172/601/20
f 366/604/22 174/605/22 173/603/22
f 367/606/23 175/607/23 174/608/23
f 368/609/24 176/610/24 175/607/24
f 369/611/25 177/612/25 176/610/25
f 370/613/26 178/614/26 177/615/26
f 354/616/33 192/617/33 178/618/33
f 384/619/32 191/620/32 192/617/32
f 383/621/31 190/622/31 191/620/31
f 382/623/30 189/624/30 190/622/30
f 381/625/29 188/626/29 189/627/29
f 380/628/28 187/629/28 188/630/28
f 187/629/27 378/631/27 186/632/27
f 378/631/4 185/633/4 186/632/4
f 185/633/7 376/634/7 184/635/7
f 184/635/10 374/636/10 182/637/10
f 374/636/12 180/638/12 182/637/12
f 372/639/2 161/640/2 180/638/2
f 355/641/5 163/642/5 161/640/5
f 299/643/20 236/644/20 235/645/20
f 300/646/22 237/647/22 236/644/22
f 301/648/23 238/649/23 237/650/23
f 302/651/24 239/652/24 238/649/24
f 303/653/25 240/654/25 239/652/25
f 304/655/26 256/656/26 240/654/26
f 320/657/33 254/658/33 256/656/33
f 318/659/32 253/660/32 254/658/32
f 317/661/31 252/662/31 253/660/31
f 316/663/30 251/664/30 252/662/30
f 315/665/29 250/666/29 251/664/29
f 314/667/28 249/668/28 250/669/28
f 313/670/27 248/671/27 249/668/27
f 312/672/4 247/673/4 248/671/4
f 311/674/7 246/675/7 247/673/7
f 310/676/10 244/677/10 246/675/10
f 308/678/12 242/679/12 244/677/12
f 306/680/2 225/681/2 242/679/2
f 289/682/5 227/683/5 225/681/5
f 291/684/8 255/685/8 227/686/8
f 319/687/17 245/688/17 255/685/17
f 309/689/19 243/690/19 245/688/19
f 307/691/21 241/692/21 243/690/21
f 305/693/3 226/694/3 241/692/3
f 290/695/6 228/696/6 226/694/6
f 292/697/9 229/650/9 228/696/9
f 293/698/11 230/699/11 229/700/11
f 294/701/13 231/702/13 230/699/13
f 295/703/14 232/704/14 231/702/14
f 296/705/15 233/706/15 232/704/15
f 297/707/16 234/708/16 233/706/16
f 298/709/18 235/645/18 234/708/18
f 417/710/13 416/196/13 448/711/13
f 448/711/14 415/192/14 447/712/14
f 447/712/15 414/188/15 446/713/15
f 446/713/16 413/183/16 445/714/16
f 418/715/25 412/181/25 444/716/25
f 445/714/18 411/177/18 443/717/18
f 444/716/26 410/175/26 442/718/26
f 443/717/20 409/171/20 441/719/20
f 442/718/33 408/169/33 440/720/33
f 441/719/22 407/164/22 439/721/22
f 440/720/32 406/162/32 438/722/32
f 439/721/23 404/166/23 437/723/23
f 438/722/31 403/155/31 436/724/31
f 437/725/24 405/159/24 418/715/24
f 436/724/30 402/150/30 435/726/30
f 435/726/29 401/144/29 434/727/29
f 434/727/28 400/138/28 433/728/28
f 433/728/27 399/10/27 432/729/27
f 431/730/11 397/71/11 417/731/11
f 430/732/9 398/67/9 431/730/9
f 429/733/41 220/734/41 430/735/41
f 429/733/42 222/736/42 221/737/42
f 427/738/43 222/736/43 428/739/43
f 426/740/44 224/741/44 427/738/44
f 426/740/45 207/742/45 208/743/45
f 424/744/46 207/742/46 425/745/46
f 423/746/5 390/38/5 424/747/5
f 422/748/2 389/33/2 423/749/2
f 421/750/12 388/29/12 422/748/12
f 420/751/10 387/25/10 421/750/10
f 419/752/7 386/19/7 420/751/7
f 432/729/4 385/12/4 419/752/4
f 24/753/4 419/752/4 23/754/4
f 23/754/7 420/751/7 22/755/7
f 22/755/10 421/750/10 21/756/10
f 21/756/12 422/748/12 20/757/12
f 20/757/2 423/749/2 19/426/2
f 19/758/5 424/747/5 18/759/5
f 18/759/8 425/760/8 17/761/8
f 17/761/17 426/762/17 16/763/17
f 16/763/19 427/764/19 15/765/19
f 15/765/21 428/766/21 14/767/21
f 14/767/3 429/768/3 13/769/3
f 13/769/6 430/732/6 12/770/6
f 12/770/9 431/730/9 11/771/9
f 11/772/11 417/710/11 10/773/11
f 25/774/27 432/729/27 24/753/27
f 26/775/28 433/728/28 25/774/28
f 27/776/29 434/727/29 26/775/29
f 28/777/30 435/726/30 27/776/30
f 2/778/24 418/715/24 1/779/24
f 29/780/31 436/724/31 28/777/31
f 3/781/23 437/725/23 2/778/23
f 30/782/32 438/722/32 29/780/32
f 4/783/22 439/721/22 3/784/22
f 31/785/33 440/720/33 30/782/33
f 5/786/20 441/719/20 4/783/20
f 32/787/26 442/718/26 31/785/26
f 6/788/18 443/717/18 5/786/18
f 1/779/25 444/716/25 32/787/25
f 7/789/16 445/714/16 6/788/16
f 8/790/15 446/713/15 7/789/15
f 9/791/14 447/712/14 8/790/14
f 10/773/13 448/711/13 9/791/13
f 336/792/47 424/793/47 390/794/47
f 350/795/48 430/796/48 220/797/48
f 71/798/34 67/799/34 83/800/34
f 34/2/1 33/801/1 37/802/1
f 33/801/1 35/803/1 37/802/1
f 35/803/1 36/804/1 37/802/1
f 37/802/1 38/805/1 39/806/1
f 39/806/1 40/807/1 41/808/1
f 41/808/1 42/809/1 45/810/1
f 42/809/1 43/811/1 45/810/1
f 43/811/1 44/812/1 45/810/1
f 45/810/1 46/813/1 47/814/1
f 47/814/1 48/815/1 49/3/1
f 49/3/1 50/816/1 53/817/1
f 50/816/1 51/818/1 53/817/1
f 51/818/1 52/819/1 53/817/1
f 53/817/1 54/820/1 55/821/1
f 55/821/1 56/822/1 57/823/1
f 57/823/1 58/824/1 61/1/1
f 58/824/1 59/825/1 61/1/1
f 59/825/1 60/826/1 61/1/1
f 61/1/1 62/827/1 63/828/1
f 63/828/1 64/829/1 34/2/1
f 37/802/1 39/806/1 34/2/1
f 39/806/1 41/808/1 34/2/1
f 45/810/1 47/814/1 49/3/1
f 53/817/1 55/821/1 49/3/1
f 55/821/1 57/823/1 49/3/1
f 61/1/1 63/828/1 34/2/1
f 41/808/1 45/810/1 34/2/1
f 45/810/1 49/3/1 34/2/1
f 57/823/1 61/1/1 49/3/1
f 129/4/2 67/830/2 68/5/2
f 130/7/3 93/17/3 94/8/3
f 399/10/4 120/139/4 119/11/4
f 131/13/5 65/21/5 67/14/5
f 133/16/6 92/23/6 93/17/6
f 385/12/7 119/11/7 118/18/7
f 132/20/8 66/152/8 65/21/8
f 134/22/9 91/27/9 92/23/9
f 386/19/10 118/18/10 117/24/10
f 135/26/11 90/32/11 91/27/11
f 387/25/12 117/24/12 116/28/12
f 136/30/13 89/35/13 90/31/13
f 388/29/2 116/28/2 115/32/2
f 137/34/14 88/40/14 89/35/14
f 389/36/5 115/831/5 114/37/5
f 138/39/15 87/44/15 88/40/15
f 390/38/8 114/37/8 113/41/8
f 139/43/16 86/48/16 87/44/16
f 391/42/17 113/41/17 112/45/17
f 140/47/18 85/52/18 86/48/18
f 392/46/19 112/45/19 111/49/19
f 141/51/20 84/56/20 85/52/20
f 393/50/21 111/49/21 110/53/21
f 142/55/22 83/60/22 84/56/22
f 394/54/3 110/53/3 109/57/3
f 143/59/23 82/832/23 83/60/23
f 395/58/6 109/57/6 108/61/6
f 144/63/24 81/69/24 82/64/24
f 396/62/9 108/61/9 107/66/9
f 145/68/25 80/73/25 81/69/25
f 398/67/11 107/66/11 106/70/11
f 146/72/26 79/198/26 80/73/26
f 66/74/1 98/137/1 97/75/1
f 65/76/1 97/75/1 99/77/1
f 68/79/1 67/78/1 99/77/1
f 68/79/1 100/80/1 101/81/1
f 70/83/1 69/82/1 101/81/1
f 70/83/1 102/84/1 103/85/1
f 71/86/1 103/85/1 104/87/1
f 73/89/1 72/88/1 104/87/1
f 73/89/1 105/90/1 106/91/1
f 74/92/1 106/91/1 107/93/1
f 76/95/1 75/94/1 107/93/1
f 76/95/1 108/96/1 109/97/1
f 78/99/1 77/98/1 109/97/1
f 78/99/1 110/100/1 111/101/1
f 79/102/1 111/101/1 112/103/1
f 81/105/1 80/104/1 112/103/1
f 81/105/1 113/106/1 114/107/1
f 82/108/1 114/107/1 115/109/1
f 84/111/1 83/110/1 115/109/1
f 84/111/1 116/112/1 117/113/1
f 86/115/1 85/114/1 117/113/1
f 86/115/1 118/116/1 119/117/1
f 87/118/1 119/117/1 120/119/1
f 89/121/1 88/120/1 120/119/1
f 89/121/1 121/122/1 122/123/1
f 90/124/1 122/123/1 123/125/1
f 92/127/1 91/126/1 123/125/1
f 92/127/1 124/128/1 125/129/1
f 94/131/1 93/130/1 125/129/1
f 94/131/1 126/132/1 127/133/1
f 95/134/1 127/133/1 128/135/1
f 66/74/1 96/136/1 128/135/1
f 400/138/27 121/145/27 120/139/27
f 147/9/21 94/8/21 95/140/21
f 148/6/12 68/5/12 69/142/12
f 401/144/28 122/151/28 121/145/28
f 149/141/19 95/140/19 96/146/19
f 150/143/10 69/142/10 70/148/10
f 402/150/29 123/156/29 122/151/29
f 151/147/17 96/146/17 66/152/17
f 152/149/7 70/148/7 71/153/7
f 403/155/30 124/163/30 123/156/30
f 404/157/24 97/833/24 98/158/24
f 153/154/4 71/153/4 72/160/4
f 406/162/31 125/170/31 124/163/31
f 407/164/23 99/172/23 97/165/23
f 154/161/27 72/160/27 73/167/27
f 408/169/32 126/176/32 125/170/32
f 409/171/22 100/178/22 99/172/22
f 155/168/28 73/167/28 74/173/28
f 410/175/33 127/182/33 126/176/33
f 411/177/20 101/184/20 100/178/20
f 156/174/29 74/173/29 75/179/29
f 412/181/26 128/187/26 127/182/26
f 413/183/18 102/189/18 101/184/18
f 157/15/30 75/14/30 76/185/30
f 405/159/25 98/158/25 128/187/25
f 414/188/16 103/193/16 102/189/16
f 158/186/31 76/185/31 77/190/31
f 415/192/15 104/197/15 103/193/15
f 159/191/32 77/190/32 78/194/32
f 416/196/14 105/200/14 104/197/14
f 160/195/33 78/194/33 79/198/33
f 397/199/13 106/834/13 105/200/13
f 352/201/33 160/195/33 146/72/33
f 351/203/32 159/191/32 160/195/32
f 350/204/31 158/186/31 159/191/31
f 349/205/30 157/15/30 158/186/30
f 348/206/29 156/174/29 157/180/29
f 347/208/28 155/168/28 156/174/28
f 346/209/27 154/161/27 155/168/27
f 345/210/4 153/154/4 154/161/4
f 344/211/7 152/149/7 153/154/7
f 343/212/17 151/147/17 132/20/17
f 342/214/10 150/143/10 152/149/10
f 341/215/19 149/141/19 151/147/19
f 340/216/12 148/6/12 150/143/12
f 339/217/21 147/9/21 149/141/21
f 322/202/26 146/72/26 145/68/26
f 338/218/25 145/68/25 144/63/25
f 337/219/24 144/63/24 143/65/24
f 336/221/23 143/59/23 142/55/23
f 335/222/22 142/55/22 141/51/22
f 334/223/20 141/51/20 140/47/20
f 333/224/18 140/47/18 139/43/18
f 332/225/16 139/43/16 138/39/16
f 331/226/15 138/39/15 137/34/15
f 330/227/14 137/34/14 136/30/14
f 329/228/13 136/30/13 135/4/13
f 328/230/11 135/26/11 134/22/11
f 327/231/9 134/22/9 133/16/9
f 321/213/8 132/20/8 131/13/8
f 326/232/6 133/16/6 130/7/6
f 325/233/5 131/13/5 129/15/5
f 324/234/3 130/7/3 147/9/3
f 323/229/2 129/4/2 148/6/2
f 157/235/1 189/835/1 188/236/1
f 180/238/1 161/836/1 129/239/1
f 173/241/1 174/837/1 142/242/1
f 188/236/1 187/838/1 155/244/1
f 140/245/1 172/839/1 173/241/1
f 155/244/1 187/838/1 186/246/1
f 171/248/1 172/839/1 140/245/1
f 186/246/1 185/840/1 153/250/1
f 138/251/1 170/841/1 171/248/1
f 153/250/1 185/840/1 184/252/1
f 169/254/1 170/841/1 138/251/1
f 132/256/1 164/842/1 183/257/1
f 136/259/1 168/843/1 169/254/1
f 184/252/1 182/844/1 150/260/1
f 167/261/1 168/843/1 136/259/1
f 183/257/1 181/845/1 149/263/1
f 134/264/1 166/846/1 167/261/1
f 150/260/1 182/844/1 180/238/1
f 165/265/1 166/846/1 134/264/1
f 149/263/1 181/845/1 179/267/1
f 146/269/1 178/847/1 192/270/1
f 163/272/1 164/842/1 132/256/1
f 177/274/1 178/847/1 146/269/1
f 192/270/1 191/848/1 159/276/1
f 130/277/1 162/849/1 165/265/1
f 144/278/1 176/850/1 177/274/1
f 159/276/1 191/848/1 190/279/1
f 129/239/1 161/836/1 163/272/1
f 175/281/1 176/850/1 144/278/1
f 190/279/1 189/835/1 157/235/1
f 179/267/1 162/849/1 130/277/1
f 142/242/1 174/837/1 175/281/1
f 257/283/2 193/301/2 210/284/2
f 258/286/3 194/293/3 209/287/3
f 259/289/5 195/295/5 193/290/5
f 260/292/6 196/297/6 194/293/6
f 287/294/8 223/331/8 195/295/8
f 261/296/9 197/299/9 196/297/9
f 262/298/11 198/497/11 197/299/11
f 263/300/13 199/303/13 198/301/13
f 264/302/14 200/305/14 199/303/14
f 265/304/15 201/307/15 200/305/15
f 266/306/16 202/309/16 201/307/16
f 267/308/18 203/311/18 202/309/18
f 268/310/20 204/313/20 203/311/20
f 269/312/22 205/315/22 204/313/22
f 270/314/23 206/851/23 205/315/23
f 271/316/24 207/320/24 206/317/24
f 272/319/25 208/322/25 207/320/25
f 288/321/26 224/348/26 208/322/26
f 273/288/21 209/287/21 211/323/21
f 274/285/12 210/284/12 212/325/12
f 275/324/19 211/323/19 213/327/19
f 276/326/10 212/325/10 214/329/10
f 277/328/17 213/327/17 223/331/17
f 278/330/7 214/329/7 215/332/7
f 279/333/4 215/332/4 216/334/4
f 280/335/27 216/334/27 217/336/27
f 281/337/28 217/336/28 218/338/28
f 282/339/29 218/338/29 219/340/29
f 283/291/30 219/290/30 220/342/30
f 284/343/31 220/342/31 221/344/31
f 285/345/32 221/344/32 222/346/32
f 286/347/33 222/346/33 224/348/33
f 201/349/1 233/852/1 234/350/1
f 248/352/1 247/853/1 215/353/1
f 234/350/1 235/854/1 203/355/1
f 217/356/1 249/855/1 248/352/1
f 203/355/1 235/854/1 236/357/1
f 250/359/1 249/855/1 217/356/1
f 236/357/1 237/856/1 205/361/1
f 242/362/1 225/857/1 193/363/1
f 219/365/1 251/858/1 250/359/1
f 205/361/1 237/856/1 238/366/1
f 241/368/1 226/859/1 194/369/1
f 252/371/1 251/858/1 219/365/1
f 238/366/1 239/860/1 207/373/1
f 193/363/1 225/857/1 227/374/1
f 221/376/1 253/861/1 252/371/1
f 207/373/1 239/860/1 240/377/1
f 194/369/1 226/859/1 228/379/1
f 254/381/1 253/861/1 221/376/1
f 240/377/1 256/862/1 224/383/1
f 227/374/1 255/863/1 223/384/1
f 224/383/1 256/862/1 254/381/1
f 211/385/1 243/864/1 241/368/1
f 228/379/1 229/865/1 197/386/1
f 212/387/1 244/866/1 242/362/1
f 197/386/1 229/865/1 230/388/1
f 245/390/1 243/864/1 211/385/1
f 230/388/1 231/867/1 199/392/1
f 246/393/1 244/866/1 212/387/1
f 199/392/1 231/867/1 232/395/1
f 223/384/1 255/863/1 245/390/1
f 232/395/1 233/852/1 201/349/1
f 215/353/1 247/853/1 246/393/1
f 46/397/33 286/347/33 288/321/33
f 45/399/32 285/345/32 286/347/32
f 44/400/31 284/343/31 285/345/31
f 43/401/30 283/291/30 284/343/30
f 42/402/29 282/339/29 283/341/29
f 41/404/28 281/337/28 282/339/28
f 40/405/27 280/335/27 281/337/27
f 39/406/4 279/333/4 280/335/4
f 38/407/7 278/330/7 279/333/7
f 64/408/17 277/328/17 287/294/17
f 37/410/10 276/326/10 278/330/10
f 63/411/19 275/324/19 277/328/19
f 36/412/12 274/285/12 276/326/12
f 62/413/21 273/288/21 275/324/21
f 47/398/26 288/321/26 272/319/26
f 48/414/25 272/319/25 271/316/25
f 49/415/24 271/316/24 270/318/24
f 50/417/23 270/314/23 269/312/23
f 51/418/22 269/312/22 268/310/22
f 52/419/20 268/310/20 267/308/20
f 53/420/18 267/308/18 266/306/18
f 54/421/16 266/306/16 265/304/16
f 55/422/15 265/304/15 264/302/15
f 56/423/14 264/302/14 263/300/14
f 57/424/13 263/300/13 262/283/13
f 58/426/11 262/298/11 261/296/11
f 59/427/9 261/296/9 260/292/9
f 34/409/8 287/294/8 259/289/8
f 60/428/6 260/292/6 258/286/6
f 33/429/5 259/289/5 257/291/5
f 61/430/3 258/286/3 273/288/3
f 35/425/2 257/283/2 274/285/2
f 267/431/34 299/495/34 298/432/34
f 279/434/34 311/440/34 312/435/34
f 265/437/34 266/433/34 298/432/34
f 279/434/34 278/449/34 310/439/34
f 265/437/34 297/438/34 296/441/34
f 287/443/34 277/453/34 309/444/34
f 263/446/34 264/442/34 296/441/34
f 276/448/34 308/457/34 310/439/34
f 263/446/34 295/447/34 294/450/34
f 275/452/34 307/461/34 309/444/34
f 261/454/34 262/451/34 294/450/34
f 276/448/34 274/490/34 306/456/34
f 261/454/34 293/455/34 292/458/34
f 275/452/34 273/485/34 305/460/34
f 288/462/34 286/868/34 318/463/34
f 287/443/34 319/445/34 291/465/34
f 288/467/34 320/869/34 304/468/34
f 285/470/34 317/478/34 318/471/34
f 258/473/34 260/459/34 292/458/34
f 271/475/34 272/469/34 304/468/34
f 285/470/34 284/484/34 316/477/34
f 257/479/34 259/466/34 291/465/34
f 271/475/34 303/476/34 302/481/34
f 283/483/34 315/489/34 316/477/34
f 258/473/34 290/474/34 305/460/34
f 269/486/34 270/482/34 302/481/34
f 283/483/34 282/494/34 314/488/34
f 257/479/34 289/480/34 306/456/34
f 269/486/34 301/487/34 300/491/34
f 281/493/34 313/496/34 314/488/34
f 267/431/34 268/492/34 300/491/34
f 281/493/34 280/436/34 312/435/34
f 193/301/2 323/229/2 340/216/2
f 194/293/3 324/234/3 339/217/3
f 195/295/5 325/233/5 323/205/5
f 196/297/6 326/232/6 324/234/6
f 223/331/8 321/213/8 325/233/8
f 197/299/9 327/231/9 326/232/9
f 198/497/11 328/230/11 327/231/11
f 199/303/13 329/228/13 328/229/13
f 200/305/14 330/227/14 329/228/14
f 201/307/15 331/226/15 330/227/15
f 202/309/16 332/225/16 331/226/16
f 203/311/18 333/224/18 332/225/18
f 204/313/20 334/223/20 333/224/20
f 205/315/22 335/222/22 334/223/22
f 206/498/23 336/792/23 335/499/23
f 390/501/35 391/505/35 337/502/35
f 392/504/36 338/507/36 337/502/36
f 393/506/37 322/512/37 338/507/37
f 209/287/21 339/217/21 341/215/21
f 210/284/12 340/216/12 342/214/12
f 211/323/19 341/215/19 343/212/19
f 212/325/10 342/214/10 344/211/10
f 213/327/17 343/212/17 321/213/17
f 214/329/7 344/211/7 345/210/7
f 215/332/4 345/210/4 346/209/4
f 216/334/27 346/209/27 347/208/27
f 217/336/28 347/208/28 348/206/28
f 218/338/29 348/206/29 349/207/29
f 219/508/30 349/870/30 350/509/30
f 393/506/38 394/514/38 352/511/38
f 395/513/39 351/516/39 352/511/39
f 395/513/40 396/871/40 350/515/40
f 348/517/34 347/574/34 379/518/34
f 335/520/34 367/872/34 366/521/34
f 323/523/34 355/537/34 372/524/34
f 349/526/34 348/517/34 380/519/34
f 335/528/34 336/503/34 368/529/34
f 324/531/34 356/542/34 371/532/34
f 349/534/34 381/873/34 382/535/34
f 337/502/34 369/540/34 368/529/34
f 323/523/34 325/545/34 357/536/34
f 351/516/34 350/515/34 382/535/34
f 337/502/34 338/507/34 370/539/34
f 324/531/34 326/549/34 358/541/34
f 351/516/34 383/538/34 384/543/34
f 322/512/34 354/546/34 370/539/34
f 321/544/34 353/563/34 357/536/34
f 322/512/34 352/511/34 384/543/34
f 341/547/34 339/533/34 371/532/34
f 326/549/34 327/553/34 359/550/34
f 342/551/34 340/525/34 372/524/34
f 327/553/34 328/558/34 360/554/34
f 341/547/34 373/548/34 375/555/34
f 329/557/34 361/562/34 360/554/34
f 342/551/34 374/552/34 376/559/34
f 329/557/34 330/565/34 362/561/34
f 321/544/34 343/556/34 375/555/34
f 331/564/34 363/569/34 362/561/34
f 345/566/34 344/560/34 376/559/34
f 332/568/34 364/573/34 363/569/34
f 345/566/34 377/567/34 378/570/34
f 333/572/34 365/575/34 364/573/34
f 346/571/34 378/570/34 379/518/34
f 333/572/34 334/522/34 366/521/34
f 357/576/8 353/579/8 164/577/8
f 353/579/17 375/874/17 183/580/17
f 183/580/19 375/874/19 373/581/19
f 181/582/21 373/581/21 371/583/21
f 371/583/3 356/875/3 162/585/3
f 162/585/6 356/875/6 358/586/6
f 165/587/9 358/586/9 359/588/9
f 359/590/11 360/876/11 167/591/11
f 167/591/13 360/876/13 361/593/13
f 361/593/14 362/596/14 169/595/14
f 362/596/15 363/598/15 170/597/15
f 363/598/16 364/600/16 171/599/16
f 364/600/18 365/602/18 172/601/18
f 365/602/20 366/604/20 173/603/20
f 366/604/22 367/877/22 174/605/22
f 367/606/23 368/609/23 175/607/23
f 368/609/24 369/611/24 176/610/24
f 369/611/25 370/878/25 177/612/25
f 370/613/26 354/879/26 178/614/26
f 354/616/33 384/619/33 192/617/33
f 384/619/32 383/621/32 191/620/32
f 383/621/31 382/623/31 190/622/31
f 382/623/30 381/880/30 189/624/30
f 381/625/29 380/881/29 188/626/29
f 380/628/28 379/882/28 187/629/28
f 187/629/27 379/882/27 378/631/27
f 378/631/4 377/883/4 185/633/4
f 185/633/7 377/883/7 376/634/7
f 184/635/10 376/634/10 374/636/10
f 374/636/12 372/639/12 180/638/12
f 372/639/2 355/641/2 161/640/2
f 355/641/5 357/884/5 163/642/5
f 299/643/20 300/646/20 236/644/20
f 300/646/22 301/885/22 237/647/22
f 301/648/23 302/651/23 238/649/23
f 302/651/24 303/653/24 239/652/24
f 303/653/25 304/655/25 240/654/25
f 304/655/26 320/657/26 256/656/26
f 320/657/33 318/659/33 254/658/33
f 318/659/32 317/661/32 253/660/32
f 317/661/31 316/663/31 252/662/31
f 316/663/30 315/665/30 251/664/30
f 315/665/29 314/886/29 250/666/29
f 314/667/28 313/670/28 249/668/28
f 313/670/27 312/672/27 248/671/27
f 312/672/4 311/674/4 247/673/4
f 311/674/7 310/676/7 246/675/7
f 310/676/10 308/678/10 244/677/10
f 308/678/12 306/680/12 242/679/12
f 306/680/2 289/682/2 225/681/2
f 289/682/5 291/887/5 227/683/5
f 291/684/8 319/687/8 255/685/8
f 319/687/17 309/689/17 245/688/17
f 309/689/19 307/691/19 243/690/19
f 307/691/21 305/693/21 241/692/21
f 305/693/3 290/695/3 226/694/3
f 290/695/6 292/697/6 228/696/6
f 292/697/9 293/648/9 229/650/9
f 293/698/11 294/701/11 230/699/11
f 294/701/13 295/703/13 231/702/13
f 295/703/14 296/705/14 232/704/14
f 296/705/15 297/707/15 233/706/15
f 297/707/16 298/709/16 234/708/16
f 298/709/18 299/643/18 235/645/18
f 417/710/13 397/199/13 416/196/13
f 448/711/14 416/196/14 415/192/14
f 447/712/15 415/192/15 414/188/15
f 446/713/16 414/188/16 413/183/16
f 418/715/25 405/159/25 412/181/25
f 445/714/18 413/183/18 411/177/18
f 444/716/26 412/181/26 410/175/26
f 443/717/20 411/177/20 409/171/20
f 442/718/33 410/175/33 408/169/33
f 441/719/22 409/171/22 407/164/22
f 440/720/32 408/169/32 406/162/32
f 439/721/23 407/164/23 404/166/23
f 438/722/31 406/162/31 403/155/31
f 437/725/24 404/157/24 405/159/24
f 436/724/30 403/155/30 402/150/30
f 435/726/29 402/150/29 401/144/29
f 434/727/28 401/144/28 400/138/28
f 433/728/27 400/138/27 399/10/27
f 431/730/11 398/67/11 397/71/11
f 430/732/9 396/62/9 398/67/9
f 429/733/41 221/737/41 220/734/41
f 429/733/42 428/739/42 222/736/42
f 427/738/43 224/741/43 222/736/43
f 426/740/44 208/743/44 224/741/44
f 426/740/45 425/745/45 207/742/45
f 424/744/46 206/888/46 207/742/46
f 423/746/5 389/36/5 390/38/5
f 422/748/2 388/29/2 389/33/2
f 421/750/12 387/25/12 388/29/12
f 420/751/10 386/19/10 387/25/10
f 419/752/7 385/12/7 386/19/7
f 432/729/4 399/10/4 385/12/4
f 24/753/4 432/729/4 419/752/4
f 23/754/7 419/752/7 420/751/7
f 22/755/10 420/751/10 421/750/10
f 21/756/12 421/750/12 422/748/12
f 20/757/2 422/748/2 423/749/2
f 19/758/5 423/746/5 424/747/5
f 18/759/8 424/747/8 425/760/8
f 17/761/17 425/760/17 426/762/17
f 16/763/19 426/762/19 427/764/19
f 15/765/21 427/764/21 428/766/21
f 14/767/3 428/766/3 429/768/3
f 13/769/6 429/768/6 430/732/6
f 12/770/9 430/732/9 431/730/9
f 11/772/11 431/889/11 417/710/11
f 25/774/27 433/728/27 432/729/27
f 26/775/28 434/727/28 433/728/28
f 27/776/29 435/726/29 434/727/29
f 28/777/30 436/724/30 435/726/30
f 2/778/24 437/725/24 418/715/24
f 29/780/31 438/722/31 436/724/31
f 3/781/23 439/731/23 437/725/23
f 30/782/32 440/720/32 438/722/32
f 4/783/22 441/719/22 439/721/22
f 31/785/33 442/718/33 440/720/33
f 5/786/20 443/717/20 441/719/20
f 32/787/26 444/716/26 442/718/26
f 6/788/18 445/714/18 443/717/18
f 1/779/25 418/715/25 444/716/25
f 7/789/16 446/713/16 445/714/16
f 8/790/15 447/712/15 446/713/15
f 9/791/14 448/711/14 447/712/14
f 10/773/13 417/710/13 448/711/13
f 336/792/47 206/498/47 424/793/47
f 350/795/48 396/890/48 430/796/48
f 67/799/34 65/891/34 66/892/34
f 66/892/34 96/893/34 67/799/34
f 96/893/34 95/894/34 67/799/34
f 95/894/34 94/895/34 93/896/34
f 93/896/34 92/897/34 91/898/34
f 91/898/34 90/899/34 89/900/34
f 89/900/34 88/901/34 91/898/34
f 88/901/34 87/902/34 91/898/34
f 87/902/34 86/903/34 85/904/34
f 85/904/34 84/905/34 83/800/34
f 83/800/34 82/906/34 79/907/34
f 82/906/34 81/908/34 79/907/34
f 81/908/34 80/909/34 79/907/34
f 79/907/34 78/910/34 77/911/34
f 77/911/34 76/912/34 75/913/34
f 75/913/34 74/914/34 73/915/34
f 73/915/34 72/916/34 75/913/34
f 72/916/34 71/798/34 75/913/34
f 71/798/34 70/917/34 69/918/34
f 69/918/34 68/919/34 67/799/34
f 95/894/34 93/896/34 91/898/34
f 87/902/34 85/904/34 83/800/34
f 79/907/34 77/911/34 75/913/34
f 71/798/34 69/918/34 67/799/34
f 67/799/34 95/894/34 91/898/34
f 91/898/34 87/902/34 67/799/34
f 87/902/34 83/800/34 67/799/34
f 83/800/34 79/907/34 75/913/34
f 75/913/34 71/798/34 83/800/34
