# Blender 5.0.1
# www.blender.org
mtllib ship_collider.mtl
o Plane
v 0.532775 4.199583 1.168105
v 1.168105 4.199583 0.532775
v -1.168105 4.199583 0.532775
v -0.532775 4.199583 1.168105
v -0.532775 0.000000 1.168105
v -1.168105 0.000000 0.532775
v 1.168105 0.000000 0.532775
v 0.532775 0.000000 1.168105
v -0.532775 -0.000000 -1.168105
v -1.168105 -0.000000 -0.532775
v 0.532775 -0.000000 -1.168105
v 1.168105 -0.000000 -0.532775
v -0.532775 4.199583 -1.168105
v -1.168105 4.199583 -0.532775
v 0.532775 4.199583 -1.168105
v 1.168105 4.199583 -0.532775
v -1.207832 0.000000 1.207832
v 1.207832 0.000000 1.207832
v -1.207832 -0.000000 -1.207832
v 1.207832 -0.000000 -1.207832
vn -0.0000 -1.0000 -0.0000
vn -0.0000 -0.0000 -1.0000
vn 1.0000 -0.0000 -0.0000
vn -0.0000 -0.0000 1.0000
vn -1.0000 -0.0000 -0.0000
vn -0.7071 -0.0000 -0.7071
vn 0.7071 -0.0000 -0.7071
vn 0.7071 -0.0000 0.7071
vn -0.7071 -0.0000 0.7071
vt 0.000000 0.000000
vt 0.000000 1.000000
vt 1.000000 1.000000
vt 1.000000 0.000000
vt 0.728051 1.000000
vt 0.271949 1.000000
vt 1.000000 0.271949
vt 1.000000 0.728051
vt 0.271949 0.000000
vt 0.728051 0.000000
vt 0.000000 0.728051
vt 0.000000 0.271949
s 1
f 17/1/1 19/2/1 20/3/1 18/4/1
f 11/5/2 9/6/2 13/6/2 15/5/2
f 7/7/3 12/8/3 16/8/3 2/7/3
f 5/9/4 8/10/4 1/10/4 4/9/4
f 10/11/5 6/12/5 3/12/5 14/11/5
f 9/6/6 10/11/6 14/11/6 13/6/6
f 12/8/7 11/5/7 15/5/7 16/8/7
f 8/10/8 7/7/8 2/7/8 1/10/8
f 6/12/9 5/9/9 4/9/9 3/12/9
