# Blender 4.0.2
# www.blender.org
mtllib chaircollider.mtl
o Cube.003
v 0.167648 -0.110444 -6.627631
v -0.614737 -0.455651 -7.792180
v 0.052504 0.667457 -6.780867
v 0.897210 -0.099639 -7.120980
v 0.114826 -0.444846 -8.285528
v 0.782067 0.678262 -7.274216
v -0.000318 0.333055 -8.438765
v -0.729880 0.322249 -7.945415
vn 0.8283 0.0123 -0.5601
vn -0.1437 0.9710 -0.1913
vn -0.5415 -0.2389 -0.8060
vn -0.8283 -0.0123 0.5601
vn 0.1437 -0.9710 0.1913
vn 0.5415 0.2389 0.8060
vt 0.375000 0.000000
vt 0.375000 0.250000
vt 0.625000 0.250000
vt 0.625000 0.000000
vt 0.125000 0.500000
vt 0.125000 0.750000
vt 0.375000 0.750000
vt 0.375000 0.500000
vt 0.375000 1.000000
vt 0.625000 1.000000
vt 0.625000 0.750000
vt 0.625000 0.500000
vt 0.875000 0.750000
vt 0.875000 0.500000
s 0
f 1/1/1 2/2/1 8/3/1 3/4/1
f 2/5/2 1/6/2 4/7/2 5/8/2
f 4/7/3 1/9/3 3/10/3 6/11/3
f 5/8/4 4/7/4 6/11/4 7/12/4
f 7/12/5 6/11/5 3/13/5 8/14/5
f 2/2/6 5/8/6 7/12/6 8/3/6
