# Blender 4.0.2
# www.blender.org
mtllib level1collider.mtl
o Cube.007
v -0.047227 -0.557501 -15.630541
v -0.047227 -0.557501 -15.911709
v -0.047227 0.347430 -15.630541
v 0.187914 -0.557501 -15.630540
v 0.187913 -0.557501 -15.911706
v 0.187914 0.347430 -15.630540
v 0.187913 0.347430 -15.911705
v -0.047227 0.347430 -15.911708
v -1.543738 -0.500821 -0.791130
v -1.543738 0.525846 -0.727398
v -0.126545 -0.446810 -1.732719
v -0.126545 0.579856 -1.668987
v -0.043111 -0.640087 1.452303
v -0.043111 0.386580 1.516036
v 1.374083 -0.586076 0.510714
v 1.374083 0.440590 0.574447
v -0.115005 0.393252 1.408554
v 1.302188 -0.579404 0.403233
v -0.115005 -0.633415 1.344822
v 1.302188 0.447262 0.466965
v -1.403435 0.512825 -0.517646
v 0.013758 -0.459831 -1.522967
v -1.403435 -0.513842 -0.581378
v 0.013758 0.566836 -1.459235
v -1.543738 0.894529 -0.704511
v -0.126545 0.948540 -1.646100
v -1.403435 0.881508 -0.494759
v 0.013758 0.935519 -1.436348
v -0.043111 1.101176 1.560396
v 1.374083 1.155187 0.618807
v -0.115005 1.107848 1.452914
v 1.302188 1.161859 0.511325
v -0.100888 -0.122579 -2.580045
v -0.917992 -0.177879 -2.928367
v -0.100888 1.012842 -2.760306
v 0.098193 -0.183551 -3.036934
v -0.718911 -0.238851 -3.385256
v 0.098193 0.951870 -3.217195
v 0.098193 -0.183551 -3.036934
v -0.718911 -0.238851 -3.385256
v 0.098193 0.519837 -3.148605
v 0.846902 -0.455536 -4.750096
v 0.846902 -0.455536 -4.750096
v 0.846902 0.247852 -4.861768
v 0.029799 -0.510836 -5.098418
v 0.029799 -0.510836 -5.098418
v 0.029799 -0.510836 -5.098418
v 0.029799 -0.510836 -5.098418
v 0.221786 -0.580580 -5.537717
v 0.221786 -0.580580 -5.537717
v 1.038890 -0.525279 -5.189395
v 0.221787 0.554841 -5.717979
v 1.038890 0.610142 -5.369657
v 0.221787 0.554841 -5.717979
v 0.029799 0.624585 -5.278680
v 0.846902 0.679885 -4.930357
v 0.029799 0.624585 -5.278680
v 0.029799 0.192552 -5.210089
v 0.029799 0.624585 -5.278680
v -0.718911 0.464537 -3.496926
v -0.718911 0.896570 -3.565517
v -0.718911 0.896570 -3.565517
v -0.718911 0.896570 -3.565517
v -0.917992 0.957542 -3.108629
v -0.917992 0.957542 -3.108629
v -1.227347 0.941291 -3.256505
v -0.917992 -0.177879 -2.928367
v -1.227347 -0.194130 -3.076243
v -0.718911 -0.238851 -3.385256
v -1.028266 -0.255102 -3.533132
v -0.718911 -0.238851 -3.385256
v -1.028266 -0.255102 -3.533132
v -0.279557 -0.527086 -5.246294
v -1.028266 0.880319 -3.713393
v -1.028266 0.880319 -3.713393
v -0.279557 0.608334 -5.426557
v -0.279557 0.608334 -5.426557
v -0.087569 0.538591 -5.865855
v -0.279557 -0.527086 -5.246294
v -0.087569 -0.596830 -5.685594
v -0.691775 -0.665029 -9.884832
v -0.691775 -0.016784 -11.776865
v -0.691775 -0.202778 -9.726457
v 0.691775 -0.665029 -9.884832
v 0.691774 -0.016784 -11.776865
v 0.691775 -0.202778 -9.726457
v 0.691775 0.445468 -11.618489
v -0.691775 0.445468 -11.618488
v 0.044273 0.141289 -12.770592
v 0.044273 0.141289 -13.240872
v 0.044273 0.611570 -12.770592
v 0.514553 0.141289 -12.770592
v 0.514553 0.141289 -13.240872
v 0.514554 0.611570 -12.770593
v 0.514554 0.611570 -13.240872
v 0.044273 0.611570 -13.240872
v -0.519601 0.070031 -14.373918
v -0.519602 0.070031 -14.771093
v -0.519601 0.467206 -14.373918
v -0.122426 0.070031 -14.373917
v -0.122426 0.070031 -14.771092
v -0.122426 0.467206 -14.373917
v -0.122426 0.467206 -14.771093
v -0.519602 0.467206 -14.771093
vn 1.0000 -0.0000 -0.0000
vn -0.0000 1.0000 -0.0000
vn -0.0000 -0.0000 -1.0000
vn -1.0000 -0.0000 -0.0000
vn -0.0000 -1.0000 -0.0000
vn -0.0000 -0.0000 1.0000
vn 0.8317 0.0344 -0.5542
vn 0.5540 -0.0516 0.8309
vn -0.5540 0.0516 -0.8309
vn 0.0022 0.9982 0.0605
vn -0.8317 -0.0344 0.5542
vn -0.0022 -0.9982 -0.0605
vn -0.0090 0.9906 -0.1361
vn 0.3963 -0.1440 -0.9068
vn -0.9180 -0.0622 -0.3917
vn -0.0000 0.9981 0.0620
vn 0.9072 -0.1728 0.3835
vn -0.0000 0.9876 -0.1568
vn -0.9181 -0.0621 -0.3914
vn 0.7461 -0.0844 0.6605
vn -0.3963 0.1440 0.9068
vn -0.0000 -0.9876 0.1568
vn 0.0090 -0.9907 0.1361
vn 0.4330 -0.1413 -0.8903
vn -0.0092 -0.9917 0.1283
vn 0.0092 0.9917 -0.1283
vn 0.0191 0.9887 -0.1486
vn 0.9181 0.0621 0.3914
vn -0.0191 -0.9887 0.1486
vn -0.4330 0.1413 0.8903
vn 0.9180 0.0622 0.3917
vn -0.0000 0.9460 0.3241
vn -0.0000 0.3241 -0.9460
vn -0.0000 -0.9460 -0.3241
vn -0.0000 -0.3241 0.9460
vt 0.375000 0.000000
vt 0.375000 0.250000
vt 0.625000 0.250000
vt 0.625000 0.000000
vt 0.125000 0.500000
vt 0.125000 0.750000
vt 0.375000 0.750000
vt 0.375000 0.500000
vt 0.375000 1.000000
vt 0.625000 1.000000
vt 0.625000 0.750000
vt 0.625000 0.500000
vt 0.875000 0.750000
vt 0.875000 0.500000
vt 0.375000 0.228559
vt 0.625000 0.228559
vt 0.625000 0.020671
vt 0.625000 0.729329
vt 0.375000 0.729329
vt 0.375000 0.020671
vt 0.625000 0.031658
vt 0.125000 0.718342
vt 0.125000 0.729329
vt 0.375000 0.718342
vt 0.625000 0.718342
vt 0.375000 0.521441
vt 0.625000 0.521441
vt 0.125000 0.521441
vt 0.875000 0.718342
vt 0.875000 0.521441
vt 0.375000 0.031658
vt 0.875000 0.729329
vt 0.125000 0.556780
vt 0.162852 0.750000
vt 0.162852 0.556780
vt 0.375000 0.193220
vt 0.625000 0.193220
vt 0.375000 0.962148
vt 0.625000 0.962148
vt 0.331702 0.750000
vt 0.331702 0.556780
vt 0.375000 0.793298
vt 0.625000 0.793298
vt 0.375000 0.556780
vt 0.375000 0.556780
vt 0.625000 0.556780
vt 0.668298 0.750000
vt 0.668298 0.556780
vt 0.837148 0.750000
vt 0.837148 0.556780
vt 0.875000 0.556780
vt 0.837148 0.500000
vt 0.162852 0.500000
vt 0.331702 0.500000
vt 0.375000 0.287852
vt 0.625000 0.287852
vt 0.375000 0.456702
vt 0.625000 0.456702
vt 0.668298 0.500000
s 0
f 1/1/1 2/2/1 8/3/1 3/4/1
f 2/5/2 1/6/2 4/7/2 5/8/2
f 4/7/3 1/9/3 3/10/3 6/11/3
f 5/8/4 4/7/4 6/11/4 7/12/4
f 7/12/5 6/11/5 3/13/5 8/14/5
f 2/2/6 5/8/6 7/12/6 8/3/6
f 23/15/7 9/2/7 10/3/7 21/16/7
f 9/2/8 11/8/8 12/12/8 10/3/8
f 14/17/9 16/18/9 15/19/9 13/20/9
f 17/21/7 31/21/7 29/17/7 14/17/7
f 19/22/10 13/23/10 15/19/10 18/24/10
f 18/24/11 15/19/11 16/18/11 20/25/11
f 22/26/11 18/24/11 20/25/11 24/27/11
f 23/28/10 19/22/10 18/24/10 22/26/10
f 24/27/12 20/25/12 17/29/12 21/30/12
f 13/20/7 19/31/7 17/21/7 14/17/7
f 24/27/11 28/27/11 26/12/11 12/12/11
f 9/5/10 23/28/10 22/26/10 11/8/10
f 11/8/11 22/26/11 24/27/11 12/12/11
f 19/31/7 23/15/7 21/16/7 17/21/7
f 26/12/12 28/27/12 27/30/12 25/14/12
f 12/12/8 26/12/8 25/3/8 10/3/8
f 21/30/9 27/30/9 28/27/9 24/27/9
f 10/3/7 25/3/7 27/16/7 21/16/7
f 32/25/12 30/18/12 29/32/12 31/29/12
f 14/32/9 29/32/9 30/18/9 16/18/9
f 16/18/11 30/18/11 32/25/11 20/25/11
f 20/25/8 32/25/8 31/29/8 17/29/8
f 34/33/13 33/6/13 36/34/13 37/35/13
f 33/1/14 34/36/14 64/37/14 35/4/14
f 36/38/15 33/9/15 35/10/15 38/39/15
f 37/35/16 36/34/16 39/34/16 40/35/16
f 39/38/17 36/38/17 38/39/17 41/39/17
f 40/35/18 39/34/18 42/40/18 45/41/18
f 42/42/19 39/38/19 41/39/19 44/43/19
f 45/41/16 42/40/16 43/40/16 47/41/16
f 43/42/20 42/42/20 44/43/20 56/43/20
f 71/35/16 40/35/16 45/41/16 46/41/16
f 46/41/16 45/41/16 47/41/16 48/41/16
f 47/41/18 43/40/18 51/7/18 49/44/18
f 48/41/16 47/41/16 49/44/16 50/45/16
f 50/45/16 49/44/16 52/46/16 54/46/16
f 49/44/21 51/7/21 53/11/21 52/46/21
f 52/46/22 53/11/22 56/47/22 55/48/22
f 54/46/16 52/46/16 55/48/16 57/48/16
f 55/48/14 56/47/14 44/47/14 58/48/14
f 57/48/16 55/48/16 58/48/16 59/48/16
f 58/48/22 44/47/22 41/49/22 60/50/22
f 59/48/19 58/48/19 60/50/19 61/50/19
f 60/50/21 41/49/21 38/49/21 62/50/21
f 61/50/16 60/50/16 62/50/16 63/50/16
f 62/50/23 38/49/23 35/13/23 64/51/23
f 63/50/16 62/50/16 64/51/16 65/51/16
f 34/36/16 67/36/16 65/37/16 64/37/16
f 67/36/24 68/2/24 66/3/24 65/37/24
f 75/52/25 63/50/25 65/51/25 66/14/25
f 68/5/26 67/33/26 69/35/26 70/53/26
f 67/33/16 34/33/16 37/35/16 69/35/16
f 70/53/16 69/35/16 71/35/16 72/53/16
f 69/35/16 37/35/16 40/35/16 71/35/16
f 72/53/27 71/35/27 46/41/27 73/54/27
f 70/55/16 72/55/16 74/56/16 75/56/16
f 72/55/28 73/57/28 76/58/28 74/56/28
f 74/52/16 61/50/16 63/50/16 75/52/16
f 76/59/29 59/48/29 61/50/29 74/52/29
f 73/57/16 79/57/16 77/58/16 76/58/16
f 77/59/16 57/48/16 59/48/16 76/59/16
f 79/57/28 80/8/28 78/12/28 77/58/28
f 78/12/29 54/46/29 57/48/29 77/59/29
f 79/54/27 48/41/27 50/45/27 80/8/27
f 73/54/16 46/41/16 48/41/16 79/54/16
f 80/8/30 50/45/30 54/46/30 78/12/30
f 68/2/31 70/55/31 75/56/31 66/3/31
f 51/7/19 43/42/19 56/43/19 53/11/19
f 81/1/1 82/2/1 88/3/1 83/4/1
f 82/5/32 81/6/32 84/7/32 85/8/32
f 84/7/33 81/9/33 83/10/33 86/11/33
f 85/8/4 84/7/4 86/11/4 87/12/4
f 87/12/34 86/11/34 83/13/34 88/14/34
f 82/2/35 85/8/35 87/12/35 88/3/35
f 89/1/1 90/2/1 96/3/1 91/4/1
f 90/5/2 89/6/2 92/7/2 93/8/2
f 92/7/3 89/9/3 91/10/3 94/11/3
f 93/8/4 92/7/4 94/11/4 95/12/4
f 95/12/5 94/11/5 91/13/5 96/14/5
f 90/2/6 93/8/6 95/12/6 96/3/6
f 97/1/1 98/2/1 104/3/1 99/4/1
f 98/5/2 97/6/2 100/7/2 101/8/2
f 100/7/3 97/9/3 99/10/3 102/11/3
f 101/8/4 100/7/4 102/11/4 103/12/4
f 103/12/5 102/11/5 99/13/5 104/14/5
f 98/2/6 101/8/6 103/12/6 104/3/6
