# Blender 4.0.2
# www.blender.org
mtllib level3collider.mtl
o Cube
v -29.350441 -0.809597 5.612267
v -29.350441 -4.601722 5.612267
v -6.594826 -0.809597 -16.982330
v -6.594826 -4.601722 -16.982330
v -6.755842 -0.809597 28.367882
v -6.755842 -4.601722 28.367882
v 15.999772 -0.809597 5.773283
v 15.999772 -4.601722 5.773283
v -9.010343 14.711063 37.971638
v -9.010345 14.711063 36.590885
v -9.010343 16.244698 37.971638
v -7.499358 14.711063 37.971638
v -7.499358 14.711063 36.590889
v -7.499358 16.244698 37.971638
v -7.499358 16.244698 36.590889
v -9.010345 16.244698 36.590885
v -8.266095 16.157522 33.818249
v -8.266099 15.962448 33.951134
v -8.373718 9.196318 23.688190
v -8.129854 16.157522 33.818249
v -8.129854 15.962448 33.951130
v -8.022135 9.196318 23.688190
v -8.022138 7.774704 24.656578
v -8.373718 7.774704 24.656578
v -9.114902 14.407074 37.556305
v -9.114905 14.407074 33.821110
v -9.114902 16.152966 37.556305
v -7.394796 14.407074 37.556305
v -7.394799 14.407074 33.821110
v -7.394796 16.152966 37.556305
v -7.394799 16.152967 33.821110
v -9.114905 16.152967 33.821110
v -9.213857 7.904143 24.720371
v -9.213858 7.904142 23.000263
v -9.213857 9.230190 24.720371
v -7.493752 7.904143 24.720371
v -7.493753 7.904142 23.000267
v -7.493752 9.230190 24.720371
v -7.493753 9.230190 23.000267
v -9.213858 9.230190 23.000263
v -12.318224 7.308913 24.720371
v -12.318222 7.308912 23.000267
v -12.318224 8.795338 24.720371
v -10.598118 7.308913 24.720371
v -10.598117 7.308912 23.000267
v -10.598118 8.795338 24.720371
v -10.598117 8.795338 23.000267
v -12.318222 8.795338 23.000267
v -11.607166 7.426400 21.785072
v -11.607161 7.426400 19.636929
v -11.607166 8.278740 21.785072
v -11.309181 7.426400 21.785069
v -11.309185 7.426400 19.636929
v -11.309181 8.278740 21.785069
v -11.309181 8.278740 19.636929
v -11.607161 8.278740 19.636929
v -11.607051 6.004570 18.726910
v -11.607053 6.004570 17.006802
v -11.607052 7.750461 18.726910
v -11.309292 6.004570 18.726910
v -11.309291 6.004570 17.006802
v -11.309292 7.750461 18.726908
v -11.309291 7.750461 17.006802
v -11.607054 7.750461 17.006802
v -3.331706 -1.430391 -0.407896
v -3.331704 -1.430392 -2.128003
v -3.331706 1.027506 -0.407896
v -1.611599 -1.430391 -0.407896
v -1.611599 -1.430392 -2.128003
v -1.611600 1.027506 -0.407897
v -1.611600 1.027505 -2.128003
v -3.331705 1.027505 -2.128003
v -11.608633 7.823448 14.244964
v -11.608635 6.401832 15.213347
v -11.608633 0.851030 4.009229
v -11.307709 7.823448 14.244964
v -11.307707 6.401832 15.213346
v -11.307709 0.851030 4.009230
v -11.307707 -0.570587 4.977611
v -11.608632 -0.570587 4.977610
v -12.318223 -4.527940 15.878184
v -12.318222 -4.527939 14.158077
v -12.318223 7.856928 15.878183
v -10.598118 -4.527940 15.878184
v -10.598118 -4.527939 14.158078
v -10.598118 7.856928 15.878184
v -10.598118 7.856928 14.158077
v -12.318223 7.856928 14.158077
v -12.318224 -2.336022 4.996391
v -12.318224 -2.336023 3.276286
v -12.318223 1.549220 4.996390
v -10.598118 -2.336022 4.996391
v -10.598119 -2.336023 3.276287
v -10.598118 1.549220 4.996390
v -10.598118 1.549219 3.276286
v -12.318223 1.549219 3.276286
v -12.318224 -0.683341 -0.407897
v -12.318224 -0.683342 -2.128003
v -12.318224 2.578788 -0.407897
v -10.598119 -0.683341 -0.407897
v -10.598119 -0.683342 -2.128004
v -10.598119 2.578788 -0.407897
v -10.598119 2.578790 -2.128004
v -12.318224 2.578790 -2.128004
v -9.308064 -0.143178 -0.407896
v -9.308063 -0.143179 -2.128003
v -9.308064 2.114632 -0.407896
v -7.587958 -0.143178 -0.407896
v -7.587958 -0.143179 -2.128002
v -7.587958 2.114632 -0.407896
v -7.587958 2.114631 -2.128002
v -9.308063 2.114631 -2.128003
v -6.192323 -0.763205 -0.407897
v -6.192323 -0.763206 -2.128003
v -6.192323 1.622041 -0.407897
v -4.472217 -0.763205 -0.407897
v -4.472218 -0.763206 -2.128003
v -4.472218 1.622041 -0.407897
v -4.472218 1.622040 -2.128003
v -6.192323 1.622040 -2.128003
v -0.808947 -2.519863 -0.407896
v -0.808946 -2.519864 -2.128003
v -0.808948 0.487715 -0.407896
v 0.911159 -2.519863 -0.407896
v 0.911159 -2.519864 -2.128003
v 0.911159 0.487715 -0.407897
v 0.911159 0.487715 -2.128003
v -0.808947 0.487715 -2.128003
v -15.381701 0.581426 7.011160
v -10.195431 0.883143 7.940630
v -11.053782 0.581426 12.730059
v -16.627384 0.186358 12.047930
v -11.665281 0.062499 16.142109
v -12.020821 -0.665910 18.125954
v -16.851551 -0.665910 15.212639
v -16.718336 0.109175 12.555429
v -19.076466 0.062499 6.348994
v -17.176933 0.109175 11.949443
v -19.934814 -0.665910 11.138423
v -21.224689 -0.665910 5.963994
v -16.851551 -1.514289 15.212639
v -12.020821 -1.514289 18.125954
v -11.665281 -2.242698 16.142109
v -16.718336 -2.289374 12.555429
v -11.053782 -2.761625 12.730059
v -10.195431 -3.063342 7.940630
v -15.381701 -2.761625 7.011160
v -16.627384 -2.366557 12.047930
v -19.934814 -1.514289 11.138423
v -17.176933 -2.289374 11.949443
v -19.076466 -2.242698 6.348994
v -21.224689 -1.514289 5.963994
v -8.337358 0.581426 -2.427068
v -9.195707 0.883143 2.362360
v -14.381977 0.581426 1.432890
v -13.800956 0.186358 -3.723000
v -18.076740 0.062499 0.770724
v -20.224966 -0.665910 0.385725
v -17.218391 -0.665910 -4.018704
v -14.350505 0.109175 -3.821488
v -7.725859 0.062499 -5.839118
v -13.710004 0.109175 -4.230497
v -12.912128 -0.665910 -6.768588
v -7.370319 -0.665910 -7.822964
v -14.381977 -2.761625 1.432890
v -9.195707 -3.063342 2.362360
v -8.337358 -2.761625 -2.427068
v -13.800956 -2.366557 -3.723000
v -7.725859 -2.242698 -5.839118
v -7.370319 -1.514289 -7.822964
v -12.912128 -1.514289 -6.768588
v -13.710004 -2.289374 -4.230497
v -18.076740 -2.242698 0.770724
v -14.350505 -2.289374 -3.821488
v -17.218391 -1.514289 -4.018704
v -20.224966 -1.514289 0.385725
v -5.013309 0.581426 13.812617
v -4.154959 0.883143 9.023188
v 1.031311 0.581426 9.952659
v 0.450291 0.186358 15.108548
v 4.726075 0.062499 10.614824
v 6.874299 -0.665910 10.999825
v 3.867725 -0.665910 15.404253
v 0.999838 0.109175 15.207037
v -5.624808 0.062499 17.224667
v 0.359337 0.109175 15.616047
v -0.438538 -0.665910 18.154137
v -5.980348 -0.665910 19.208515
v 1.031311 -2.761625 9.952659
v -4.154959 -3.063342 9.023188
v -5.013309 -2.761625 13.812617
v 0.450291 -2.366557 15.108548
v -5.624808 -2.242698 17.224667
v -5.980348 -1.514289 19.208515
v -0.438538 -1.514289 18.154137
v 0.359337 -2.289374 15.616047
v 4.726075 -2.242698 10.614824
v 0.999838 -2.289374 15.207037
v 3.867725 -1.514289 15.404253
v 6.874299 -1.514289 10.999825
v 2.031034 0.581426 4.374389
v -3.155235 0.883143 3.444919
v -2.296885 0.581426 -1.344510
v 3.276717 0.186358 -0.662382
v -1.685387 0.062499 -4.756558
v -1.329847 -0.665910 -6.740405
v 3.500883 -0.665910 -3.827089
v 3.367670 0.109175 -1.169880
v 5.725799 0.062499 5.036556
v 3.826266 0.109175 -0.563893
v 6.584148 -0.665910 0.247126
v 7.874024 -0.665910 5.421555
v -2.296885 -2.761625 -1.344510
v -3.155235 -3.063342 3.444919
v 2.031034 -2.761625 4.374389
v 3.276717 -2.366557 -0.662382
v 5.725799 -2.242698 5.036556
v 7.874024 -1.514289 5.421555
v 6.584148 -1.514289 0.247126
v 3.826266 -2.289374 -0.563893
v -1.685387 -2.242698 -4.756558
v 3.367670 -2.289374 -1.169880
v 3.500883 -1.514289 -3.827089
v -1.329847 -1.514289 -6.740405
vn 0.7046 -0.0000 0.7096
vn -0.7096 -0.0000 0.7046
vn -0.7046 -0.0000 -0.7096
vn 0.7096 -0.0000 -0.7046
vn -0.0000 -1.0000 -0.0000
vn -0.0000 1.0000 -0.0000
vn 1.0000 -0.0000 -0.0000
vn -0.0000 -0.0000 -1.0000
vn -1.0000 -0.0000 -0.0000
vn -0.0000 -0.0000 1.0000
vn -0.0000 -0.5630 -0.8265
vn -1.0000 -0.0049 -0.0072
vn 1.0000 -0.0049 -0.0072
vn -0.0000 -0.8242 0.5664
vn -0.0000 0.7504 -0.6610
vn -0.0000 0.8265 -0.5630
vn -0.0000 0.5630 0.8265
vn -0.0000 -0.8265 0.5630
vn 0.9843 -0.0000 0.1764
vn -0.1348 0.9906 -0.0242
vn -0.0261 -0.9890 0.1457
vn 0.1592 0.9799 -0.1205
vn 0.1075 0.9799 0.1683
vn 0.0261 0.9890 -0.1457
vn 0.5382 -0.0000 0.8428
vn -0.0261 0.9890 0.1457
vn -0.1348 -0.9906 -0.0242
vn -0.1592 -0.9799 0.1205
vn -0.7974 -0.0000 0.6035
vn 0.1592 -0.9799 -0.1205
vn 0.1764 -0.0000 -0.9843
vn -0.1764 -0.0000 0.9843
vn 0.1075 -0.9799 0.1683
vn -0.1075 -0.9799 -0.1683
vn -0.1592 0.9799 0.1205
vn -0.5382 -0.0000 -0.8428
vn -0.1075 0.9799 -0.1683
vn -0.9843 -0.0000 -0.1764
vn 0.7974 -0.0000 -0.6035
vn 0.1348 0.9906 0.0242
vn 0.0261 -0.9890 -0.1457
vn 0.0727 -0.9958 -0.0550
vn 0.1833 -0.9407 -0.2854
vn 0.3114 -0.9462 -0.0881
vn 0.1833 0.9407 -0.2854
vn 0.0727 0.9958 -0.0550
vn 0.3114 0.9462 -0.0881
vn 0.0491 -0.9958 0.0769
vn 0.2615 -0.9462 0.1908
vn 0.0727 -0.9407 0.3313
vn 0.0491 0.9958 0.0769
vn 0.0727 0.9407 0.3313
vn 0.2615 0.9462 0.1908
vn -0.0491 -0.9958 -0.0769
vn -0.2615 -0.9462 -0.1908
vn -0.0727 -0.9407 -0.3313
vn -0.0491 0.9958 -0.0769
vn -0.0727 0.9407 -0.3313
vn -0.2615 0.9462 -0.1908
vn -0.0727 -0.9958 0.0550
vn -0.1833 -0.9407 0.2854
vn -0.3114 -0.9462 0.0881
vn -0.0727 0.9958 0.0550
vn -0.3114 0.9462 0.0881
vn -0.1833 0.9407 0.2854
vn 0.1462 -0.9884 -0.0414
vn 0.0864 -0.9871 -0.1346
vn 0.3292 -0.9108 -0.2492
vn 0.3292 0.9108 -0.2492
vn 0.0864 0.9871 -0.1346
vn 0.1462 0.9884 -0.0414
vn 0.0343 -0.9871 0.1563
vn 0.1228 -0.9884 0.0896
vn 0.2222 -0.9108 0.3480
vn 0.1228 0.9884 0.0896
vn 0.0343 0.9871 0.1563
vn 0.2222 0.9108 0.3480
vn -0.0343 -0.9871 -0.1563
vn -0.1228 -0.9884 -0.0896
vn -0.2222 -0.9108 -0.3480
vn -0.1228 0.9884 -0.0896
vn -0.0343 0.9871 -0.1563
vn -0.2222 0.9108 -0.3480
vn -0.1462 -0.9884 0.0414
vn -0.0864 -0.9871 0.1346
vn -0.3292 -0.9108 0.2492
vn -0.0864 0.9871 0.1346
vn -0.1462 0.9884 0.0414
vn -0.3292 0.9108 0.2492
vn 0.0563 -0.9984 0.0101
vn 0.3116 -0.9486 0.0558
vn 0.5164 -0.0000 -0.8563
vn 0.9703 -0.0000 -0.2419
vn 0.0563 0.9984 0.0101
vn 0.3116 0.9486 0.0558
vn 0.1869 -0.0000 0.9824
vn 0.8259 -0.0000 0.5638
vn -0.0109 -0.9981 0.0609
vn -0.0600 -0.9405 0.3346
vn -0.0109 0.9981 0.0609
vn -0.0600 0.9405 0.3346
vn -0.9703 -0.0000 0.2419
vn -0.5164 -0.0000 0.8563
vn -0.0563 -0.9984 -0.0101
vn -0.3116 -0.9486 -0.0558
vn -0.0563 0.9984 -0.0101
vn -0.3116 0.9486 -0.0558
vn -0.1869 -0.0000 -0.9824
vn -0.8259 -0.0000 -0.5638
vn 0.0109 -0.9981 -0.0609
vn 0.0600 -0.9405 -0.3346
vn 0.0109 0.9981 -0.0609
vn 0.0600 0.9405 -0.3346
vn 0.1348 -0.9906 0.0242
vt 0.375000 0.000000
vt 0.375000 0.250000
vt 0.625000 0.250000
vt 0.625000 0.000000
vt 0.375000 0.500000
vt 0.625000 0.500000
vt 0.375000 0.750000
vt 0.625000 0.750000
vt 0.375000 1.000000
vt 0.625000 1.000000
vt 0.125000 0.500000
vt 0.125000 0.750000
vt 0.875000 0.750000
vt 0.875000 0.500000
vt 0.473129 0.098129
vt 0.473129 0.151871
vt 0.526871 0.151871
vt 0.526871 0.098129
vt 0.657873 0.598129
vt 0.592127 0.598129
vt 0.592127 0.651871
vt 0.657873 0.651871
vt 0.276871 0.551986
vt 0.276871 0.519113
vt 0.223129 0.519113
vt 0.223129 0.551986
vt 0.575971 0.044140
vt 0.575971 0.049029
vt 0.580860 0.049029
vt 0.580860 0.200971
vt 0.575971 0.200971
vt 0.575971 0.205860
vt 0.223129 0.598129
vt 0.223129 0.651871
vt 0.276871 0.651871
vt 0.276871 0.598129
vt 0.605887 0.848129
vt 0.573014 0.848129
vt 0.573014 0.901871
vt 0.605887 0.901871
vt 0.526871 0.282873
vt 0.526871 0.217127
vt 0.473129 0.217127
vt 0.473129 0.282873
vt 0.605887 0.348129
vt 0.573014 0.348129
vt 0.573014 0.401871
vt 0.605887 0.401871
vt 0.342127 0.651871
vt 0.407873 0.651871
vt 0.407873 0.598129
vt 0.342127 0.598129
vt 0.325971 0.549029
vt 0.330860 0.549029
vt 0.325971 0.544140
vt 0.526871 0.532873
vt 0.526871 0.467127
vt 0.473129 0.467127
vt 0.473129 0.532873
vt 0.174029 0.700971
vt 0.169140 0.700971
vt 0.174029 0.705860
vt 0.473129 0.848129
vt 0.473129 0.901871
vt 0.526871 0.901871
vt 0.526871 0.848129
vt 0.723129 0.598129
vt 0.723129 0.651871
vt 0.776871 0.651871
vt 0.776871 0.598129
vt 0.473129 0.348129
vt 0.473129 0.401871
vt 0.526871 0.401871
vt 0.526871 0.348129
vt 0.174029 0.549029
vt 0.174029 0.544140
vt 0.169140 0.549029
vt 0.325971 0.700971
vt 0.325971 0.705860
vt 0.330860 0.700971
vt 0.580860 0.450971
vt 0.575971 0.450971
vt 0.575971 0.455860
vt 0.526871 0.782873
vt 0.526871 0.717127
vt 0.473129 0.717127
vt 0.473129 0.782873
vt 0.580860 0.799029
vt 0.575971 0.794140
vt 0.575971 0.799029
vt 0.473129 0.598129
vt 0.473129 0.651871
vt 0.526871 0.651871
vt 0.526871 0.598129
vt 0.473129 0.019113
vt 0.473129 0.051986
vt 0.526871 0.051986
vt 0.526871 0.019113
vt 0.605887 0.098129
vt 0.573014 0.098129
vt 0.573014 0.151871
vt 0.605887 0.151871
vt 0.223129 0.698014
vt 0.223129 0.730887
vt 0.276871 0.730887
vt 0.276871 0.698014
vt 0.176986 0.651871
vt 0.196099 0.730887
vt 0.176986 0.730887
vt 0.196099 0.750000
vt 0.144113 0.678901
vt 0.125000 0.678901
vt 0.144113 0.698014
vt 0.553901 0.033105
vt 0.553901 0.000000
vt 0.526871 0.000000
vt 0.605887 0.051986
vt 0.605887 0.071099
vt 0.625000 0.071099
vt 0.176986 0.598129
vt 0.144113 0.598129
vt 0.158105 0.571099
vt 0.125000 0.571099
vt 0.125000 0.598129
vt 0.196099 0.519113
vt 0.196099 0.500000
vt 0.176986 0.519113
vt 0.591895 0.178901
vt 0.625000 0.178901
vt 0.625000 0.151871
vt 0.553901 0.321099
vt 0.553901 0.254889
vt 0.526871 0.321099
vt 0.553901 0.178901
vt 0.526871 0.178901
vt 0.553901 0.245111
vt 0.303901 0.712006
vt 0.303901 0.678901
vt 0.276871 0.678901
vt 0.355887 0.678901
vt 0.355887 0.698014
vt 0.375000 0.678901
vt 0.276871 0.750000
vt 0.303901 0.750000
vt 0.303901 0.716895
vt 0.625000 0.821099
vt 0.591895 0.821099
vt 0.625000 0.848129
vt 0.553901 0.821099
vt 0.553901 0.754889
vt 0.526871 0.821099
vt 0.553901 0.678901
vt 0.526871 0.678901
vt 0.553901 0.745111
vt 0.303901 0.571099
vt 0.303901 0.537994
vt 0.276871 0.571099
vt 0.303901 0.533105
vt 0.303901 0.500000
vt 0.276871 0.500000
vt 0.446099 0.598129
vt 0.446099 0.571099
vt 0.379889 0.571099
vt 0.591895 0.428901
vt 0.625000 0.428901
vt 0.625000 0.401871
vt 0.553901 0.571099
vt 0.553901 0.504889
vt 0.526871 0.571099
vt 0.553901 0.428901
vt 0.526871 0.428901
vt 0.553901 0.495111
vt 0.144113 0.651871
vt 0.573014 0.019113
vt 0.144113 0.551986
vt 0.605887 0.198014
vt 0.573014 0.230887
vt 0.323014 0.678901
vt 0.323014 0.730887
vt 0.573014 0.769113
vt 0.605887 0.801986
vt 0.370111 0.571099
vt 0.323014 0.519113
vt 0.355887 0.551986
vt 0.629889 0.571099
vt 0.620111 0.571099
vt 0.125000 0.651871
vt 0.473129 0.000000
vt 0.625000 0.098129
vt 0.223129 0.500000
vt 0.625000 0.348129
vt 0.223129 0.750000
vt 0.625000 0.901871
s 0
usemtl Material.003
f 1/1/1 2/4/1 4/3/1 3/2/1
f 3/2/2 4/3/2 8/6/2 7/5/2
f 7/5/3 8/6/3 6/8/3 5/7/3
f 5/7/4 6/8/4 2/10/4 1/9/4
f 3/11/5 7/5/5 5/7/5 1/12/5
f 8/6/6 4/14/6 2/13/6 6/8/6
f 11/4/7 9/1/7 10/2/7 16/3/7
f 14/8/8 12/7/8 9/9/8 11/10/8
f 15/6/9 13/5/9 12/7/9 14/8/9
f 16/14/5 15/6/5 14/8/5 11/13/5
f 16/3/10 10/2/10 13/5/10 15/6/10
f 21/5/11 18/11/11 17/12/11 20/7/11
f 128/14/5 127/6/5 126/8/5 123/13/5
f 23/6/12 21/5/12 20/7/12 22/8/12
f 17/1/13 18/2/13 24/3/13 19/4/13
f 123/4/7 121/1/7 122/2/7 128/3/7
f 22/8/14 20/7/14 17/9/14 19/10/14
f 51/4/7 49/1/7 50/2/7 56/3/7
f 99/4/7 97/1/7 98/2/7 104/3/7
f 120/14/5 119/6/5 118/8/5 115/13/5
f 27/4/7 25/1/7 26/2/7 32/3/7
f 29/5/9 28/7/9 30/8/9 31/6/9
f 37/5/6 34/11/6 33/12/6 36/7/6
f 118/8/8 116/7/8 113/9/8 115/10/8
f 39/6/9 37/5/9 36/7/9 38/8/9
f 115/4/7 113/1/7 114/2/7 120/3/7
f 85/5/6 82/11/6 81/12/6 84/7/6
f 40/3/10 34/2/10 37/5/10 39/6/10
f 45/5/6 42/11/6 41/12/6 44/7/6
f 43/4/7 41/1/7 42/2/7 48/3/7
f 46/8/8 44/7/8 41/9/8 43/10/8
f 47/6/9 45/5/9 44/7/9 46/8/9
f 48/14/5 47/6/5 46/8/5 43/13/5
f 48/3/10 42/2/10 45/5/10 47/6/10
f 53/5/6 50/11/6 49/12/6 52/7/6
f 117/5/6 114/11/6 113/12/6 116/7/6
f 53/5/9 52/7/9 54/8/9 55/6/9
f 112/3/10 106/2/10 109/5/10 111/6/10
f 32/14/5 31/6/5 30/8/5 27/13/5
f 56/3/10 50/2/10 53/5/10 55/6/10
f 61/5/6 58/11/6 57/12/6 60/7/6
f 59/4/7 57/1/7 58/2/7 64/3/7
f 62/8/8 60/7/8 57/9/8 59/10/8
f 63/6/9 61/5/9 60/7/9 62/8/9
f 64/14/5 63/6/5 62/8/5 59/13/5
f 64/3/10 58/2/10 61/5/10 63/6/10
f 69/5/6 66/11/6 65/12/6 68/7/6
f 67/4/7 65/1/7 66/2/7 72/3/7
f 70/8/8 68/7/8 65/9/8 67/10/8
f 71/6/9 69/5/9 68/7/9 70/8/9
f 72/14/5 71/6/5 70/8/5 67/13/5
f 72/3/10 66/2/10 69/5/10 71/6/10
f 77/5/11 74/11/11 73/12/11 76/7/11
f 112/14/5 111/6/5 110/8/5 107/13/5
f 24/3/15 18/2/15 21/5/15 23/6/15
f 111/6/9 109/5/9 108/7/9 110/8/9
f 73/1/7 74/2/7 80/3/7 75/4/7
f 80/3/16 74/2/16 77/5/16 79/6/16
f 110/8/8 108/7/8 105/9/8 107/10/8
f 29/5/6 26/11/6 25/12/6 28/7/6
f 87/6/9 85/5/9 84/7/9 86/8/9
f 109/5/6 106/11/6 105/12/6 108/7/6
f 77/5/9 76/7/9 78/8/9 79/6/9
f 88/3/10 82/2/10 85/5/10 87/6/10
f 93/5/6 90/11/6 89/12/6 92/7/6
f 91/4/7 89/1/7 90/2/7 96/3/7
f 94/8/8 92/7/8 89/9/8 91/10/8
f 95/6/9 93/5/9 92/7/9 94/8/9
f 96/14/5 95/6/5 94/8/5 91/13/5
f 96/3/10 90/2/10 93/5/10 95/6/10
f 101/5/6 98/11/6 97/12/6 100/7/6
f 104/3/10 98/2/10 101/5/10 103/6/10
f 101/5/9 100/7/9 102/8/9 103/6/9
f 104/14/5 103/6/5 102/8/5 99/13/5
f 83/4/7 81/1/7 82/2/7 88/3/7
f 128/3/10 122/2/10 125/5/10 127/6/10
f 102/8/8 100/7/8 97/9/8 99/10/8
f 88/14/5 87/6/5 86/8/5 83/13/5
f 86/8/8 84/7/8 81/9/8 83/10/8
f 107/4/7 105/1/7 106/2/7 112/3/7
f 80/14/17 79/6/17 78/8/17 75/13/17
f 78/8/18 76/7/18 73/9/18 75/10/18
f 56/14/5 55/6/5 54/8/5 51/13/5
f 54/8/8 52/7/8 49/9/8 51/10/8
f 40/14/5 39/6/5 38/8/5 35/13/5
f 38/8/8 36/7/8 33/9/8 35/10/8
f 32/3/10 26/2/10 29/5/10 31/6/10
f 119/6/9 117/5/9 116/7/9 118/8/9
f 30/8/8 28/7/8 25/9/8 27/10/8
f 120/3/10 114/2/10 117/5/10 119/6/10
f 125/5/6 122/11/6 121/12/6 124/7/6
f 24/14/17 23/6/17 22/8/17 19/13/17
f 126/8/8 124/7/8 121/9/8 123/10/8
f 127/6/9 125/5/9 124/7/9 126/8/9
f 35/4/7 33/1/7 34/2/7 40/3/7
f 13/5/6 10/11/6 9/12/6 12/7/6
f 140/15/19 152/18/19 176/17/19 158/16/19
f 215/19/20 189/22/20 197/21/20 217/20/20
f 203/23/21 153/26/21 161/25/21 205/24/21
f 144/27/22 148/29/22 150/28/22
f 168/30/23 172/32/23 174/31/23
f 154/33/5 202/36/5 178/35/5 130/34/5
f 191/37/24 145/40/24 143/39/24 193/38/24
f 171/41/25 163/44/25 159/43/25 175/42/25
f 167/45/26 213/48/26 221/47/26 169/46/26
f 179/49/27 201/52/27 209/51/27 181/50/27
f 204/53/28 208/55/28 210/54/28
f 219/56/29 211/59/29 207/58/29 223/57/29
f 132/60/30 136/62/30 138/61/30
f 188/63/31 194/66/31 142/65/31 134/64/31
f 214/67/6 166/70/6 146/69/6 190/68/6
f 164/71/32 170/74/32 224/73/32 206/72/32
f 156/75/33 160/77/33 162/76/33
f 180/78/34 184/80/34 186/79/34
f 216/81/35 220/83/35 222/82/35
f 195/84/36 187/87/36 183/86/36 199/85/36
f 192/88/37 196/90/37 198/89/37
f 212/91/38 218/94/38 200/93/38 182/92/38
f 135/95/39 141/98/39 149/97/39 139/96/39
f 147/99/40 165/102/40 173/101/40 151/100/40
f 131/103/41 177/106/41 185/105/41 133/104/41
f 129/107/42 130/34/42 131/103/42 132/60/42
f 133/108/43 134/110/43 135/109/43 136/62/43
f 137/111/44 138/61/44 139/113/44 140/112/44
f 141/98/45 142/116/45 143/115/45 144/114/45
f 145/117/46 146/119/46 147/118/46 148/29/46
f 149/97/47 150/28/47 151/100/47 152/18/47
f 153/26/48 154/33/48 155/120/48 156/75/48
f 157/121/49 158/124/49 159/123/49 160/122/49
f 161/125/50 162/76/50 163/127/50 164/126/50
f 165/102/51 166/130/51 167/129/51 168/128/51
f 169/131/52 170/133/52 171/41/52 172/132/52
f 173/134/53 174/136/53 175/42/53 176/135/53
f 177/106/54 178/139/54 179/138/54 180/137/54
f 181/140/55 182/142/55 183/141/55 184/80/55
f 185/105/56 186/145/56 187/144/56 188/143/56
f 189/146/57 190/148/57 191/37/57 192/147/57
f 193/149/58 194/151/58 195/84/58 196/150/58
f 197/152/59 198/154/59 199/85/59 200/153/59
f 201/155/60 202/157/60 203/23/60 204/156/60
f 205/24/61 206/160/61 207/159/61 208/158/61
f 209/51/62 210/163/62 211/162/62 212/161/62
f 213/48/63 214/166/63 215/165/63 216/164/63
f 217/167/64 218/169/64 219/56/64 220/168/64
f 221/170/65 222/172/65 223/57/65 224/171/65
f 137/173/66 129/107/66 132/60/66 138/61/66
f 131/103/67 133/104/67 136/62/67 132/60/67
f 135/109/68 139/113/68 138/61/68 136/62/68
f 149/97/69 141/98/69 144/27/69 150/28/69
f 143/174/70 145/117/70 148/29/70 144/27/70
f 147/99/71 151/100/71 150/28/71 148/29/71
f 161/25/72 153/26/72 156/75/72 162/76/72
f 155/120/73 157/121/73 160/77/73 156/75/73
f 159/175/74 163/127/74 162/76/74 160/77/74
f 173/101/75 165/102/75 168/30/75 174/31/75
f 167/176/76 169/177/76 172/32/76 168/30/76
f 171/41/77 175/42/77 174/136/77 172/132/77
f 185/105/78 177/106/78 180/78/78 186/79/78
f 179/178/79 181/140/79 184/80/79 180/78/79
f 183/141/80 187/179/80 186/79/80 184/80/80
f 197/180/81 189/181/81 192/88/81 198/89/81
f 191/37/82 193/38/82 196/90/82 192/88/82
f 195/84/83 199/85/83 198/154/83 196/150/83
f 209/51/84 201/52/84 204/182/84 210/163/84
f 203/23/85 205/24/85 208/55/85 204/53/85
f 207/183/86 211/184/86 210/54/86 208/55/86
f 221/47/87 213/48/87 216/81/87 222/82/87
f 215/19/88 217/20/88 220/186/88 216/185/88
f 219/56/89 223/57/89 222/172/89 220/168/89
f 154/33/90 130/34/90 129/107/90 155/120/90
f 140/187/91 158/124/91 157/121/91 137/173/91
f 134/188/92 142/116/92 141/98/92 135/95/92
f 152/18/93 140/15/93 139/96/93 149/97/93
f 146/189/94 166/130/94 165/102/94 147/99/94
f 176/17/95 152/18/95 151/100/95 173/101/95
f 170/74/96 164/71/96 163/44/96 171/41/96
f 158/16/97 176/17/97 175/42/97 159/43/97
f 202/36/98 154/33/98 153/26/98 203/23/98
f 164/190/99 206/160/99 205/24/99 161/25/99
f 166/191/100 214/166/100 213/48/100 167/45/100
f 224/73/101 170/74/101 169/46/101 221/47/101
f 218/94/102 212/91/102 211/59/102 219/56/102
f 206/72/103 224/73/103 223/57/103 207/58/103
f 178/35/104 202/36/104 201/52/104 179/49/104
f 212/91/105 182/92/105 181/50/105 209/51/105
f 214/67/106 190/68/106 189/22/106 215/19/106
f 200/93/107 218/94/107 217/20/107 197/21/107
f 194/66/108 188/63/108 187/87/108 195/84/108
f 182/92/109 200/93/109 199/85/109 183/86/109
f 130/34/110 178/35/110 177/106/110 131/103/110
f 188/143/111 134/192/111 133/104/111 185/105/111
f 190/148/112 146/193/112 145/40/112 191/37/112
f 142/65/113 194/66/113 193/38/113 143/39/113
f 155/120/114 129/107/114 137/173/114 157/121/114
