# Blender 4.0.2
# www.blender.org
mtllib playercollider.mtl
o Cube
v -0.056085 3.356011 0.051843
v -0.056085 7.002716 0.051843
v -0.056085 3.356011 -0.051843
v -0.056085 7.002716 -0.051843
v 0.056085 3.356011 0.051843
v 0.056085 7.002716 0.051843
v 0.056085 3.356011 -0.051843
v 0.056085 7.002716 -0.051843
v -0.017098 3.356011 0.015805
v -0.017098 3.356011 -0.015805
v 0.017098 3.356011 0.015805
v 0.017098 3.356011 -0.015805
v 0.000000 1.535738 0.000000
vn -0.0000 1.0000 -0.0000
vn -0.0000 -0.0000 1.0000
vn -0.0000 -0.0000 -1.0000
vn 1.0000 -0.0000 -0.0000
vn -0.0000 -1.0000 -0.0000
vn -1.0000 -0.0000 -0.0000
vn 1.0000 0.0094 -0.0000
vn -0.0000 0.0087 -1.0000
vn -1.0000 0.0094 -0.0000
vn -0.0000 0.0087 1.0000
vt 0.000000 0.000000
vt 0.625000 0.500000
vt 0.875000 0.500000
vt 0.875000 0.750000
vt 0.625000 0.750000
s 0
f 11/1/1 5/1/1 7/1/1 12/1/1
f 3/1/2 7/1/2 8/2/2 4/3/2
f 1/1/3 2/4/3 6/5/3 5/1/3
f 3/1/4 4/3/4 2/4/4 1/1/4
f 8/2/5 6/5/5 2/4/5 4/3/5
f 7/1/1 3/1/1 10/1/1 12/1/1
f 7/1/6 5/1/6 6/5/6 8/2/6
f 3/1/1 1/1/1 9/1/1 10/1/1
f 11/1/1 9/1/1 1/1/1 5/1/1
f 9/1/7 13/1/7 10/1/7
f 11/1/8 13/1/8 9/1/8
f 11/1/9 12/1/9 13/1/9
f 10/1/10 13/1/10 12/1/10
