# Blender 4.0.2
# www.blender.org
mtllib skysphere.mtl
o Sphere
v 0.000000 73.539284 -49.137379
v 0.000000 49.137379 -73.539284
v 0.000000 17.254753 -86.745499
v 0.000000 0.000000 -88.444946
v 0.000000 -17.254753 -86.745499
v 0.000000 -49.137379 -73.539284
v 3.366235 86.745499 -16.923208
v 6.603109 81.712471 -33.196068
v 9.586227 73.539284 -48.193218
v 12.200953 62.540020 -61.338329
v 14.346803 49.137379 -72.126244
v 15.941312 33.846416 -80.142387
v 16.923208 17.254753 -85.078705
v 17.254753 0.000000 -86.745499
v 16.923208 -17.254753 -85.078705
v 15.941312 -33.846416 -80.142387
v 14.346803 -49.137379 -72.126244
v 12.200953 -62.540020 -61.338329
v 9.586227 -73.539284 -48.193218
v 6.603109 -81.712471 -33.196068
v 3.366235 -86.745499 -16.923208
v 6.603107 86.745499 -15.941312
v 12.952463 81.712471 -31.270012
v 18.804062 73.539284 -45.397015
v 23.933031 62.540020 -57.779442
v 28.142263 49.137379 -67.941429
v 31.270008 33.846416 -75.492477
v 33.196064 17.254753 -80.142387
v 33.846416 0.000000 -81.712471
v 33.196064 -17.254753 -80.142387
v 31.270008 -33.846416 -75.492477
v 28.142263 -49.137379 -67.941429
v 23.933031 -62.540020 -57.779442
v 18.804062 -73.539284 -45.397015
v 12.952463 -81.712471 -31.270012
v 6.603107 -86.745499 -15.941312
v 9.586226 86.745499 -14.346801
v 18.804062 81.712471 -28.142267
v 27.299265 73.539284 -40.856232
v 34.745373 62.540020 -52.000126
v 40.856232 49.137379 -61.145668
v 45.397015 33.846416 -67.941437
v 48.193218 17.254753 -72.126244
v 49.137379 0.000000 -73.539276
v 48.193218 -17.254753 -72.126244
v 45.397015 -33.846416 -67.941437
v 40.856232 -49.137379 -61.145668
v 34.745373 -62.540020 -52.000126
v 27.299265 -73.539284 -40.856232
v 18.804062 -81.712471 -28.142267
v 9.586226 -86.745499 -14.346801
v 12.200952 86.745499 -12.200951
v 23.933031 81.712471 -23.933027
v 34.745373 73.539284 -34.745365
v 44.222473 62.540020 -44.222473
v 52.000118 49.137379 -52.000114
v 57.779438 33.846416 -57.779442
v 61.338329 17.254753 -61.338326
v 62.540020 0.000000 -62.540005
v 61.338329 -17.254753 -61.338326
v 57.779438 -33.846416 -57.779442
v 52.000118 -49.137379 -52.000114
v 44.222473 -62.540020 -44.222473
v 34.745373 -73.539284 -34.745365
v 23.933031 -81.712471 -23.933027
v 12.200952 -86.745499 -12.200951
v 14.346801 86.745499 -9.586226
v 28.142267 81.712471 -18.804060
v 40.856236 73.539284 -27.299259
v 52.000126 62.540020 -34.745373
v 61.145676 49.137379 -40.856228
v 67.941429 33.846416 -45.397018
v 72.126244 17.254753 -48.193207
v 73.539276 0.000000 -49.137360
v 72.126244 -17.254753 -48.193207
v 67.941429 -33.846416 -45.397018
v 61.145676 -49.137379 -40.856228
v 52.000126 -62.540020 -34.745373
v 40.856236 -73.539284 -27.299259
v 28.142267 -81.712471 -18.804060
v 14.346801 -86.745499 -9.586226
v 0.000000 88.444946 0.000000
v 15.941310 86.745499 -6.603106
v 31.270008 81.712471 -12.952460
v 45.397015 73.539284 -18.804056
v 57.779442 62.540020 -23.933031
v 67.941429 49.137379 -28.142254
v 75.492477 33.846416 -31.270012
v 80.142380 17.254753 -33.196056
v 81.712463 0.000000 -33.846397
v 80.142380 -17.254753 -33.196056
v 75.492477 -33.846416 -31.270012
v 67.941429 -49.137379 -28.142254
v 57.779442 -62.540020 -23.933031
v 45.397015 -73.539284 -18.804056
v 31.270008 -81.712471 -12.952460
v 15.941310 -86.745499 -6.603106
v 16.923204 86.745499 -3.366234
v 33.196064 81.712471 -6.603106
v 48.193214 73.539284 -9.586222
v 61.338329 62.540020 -12.200954
v 72.126236 49.137379 -14.346793
v 80.142380 33.846416 -15.941317
v 85.078697 17.254753 -16.923199
v 86.745483 0.000000 -17.254736
v 85.078697 -17.254753 -16.923199
v 80.142380 -33.846416 -15.941317
v 72.126236 -49.137379 -14.346793
v 61.338329 -62.540020 -12.200954
v 48.193214 -73.539284 -9.586222
v 33.196064 -81.712471 -6.603106
v 16.923204 -86.745499 -3.366234
v 17.254747 86.745499 0.000001
v 33.846413 81.712471 0.000002
v 49.137371 73.539284 0.000005
v 62.540016 62.540020 -0.000001
v 73.539268 49.137379 0.000008
v 81.712471 33.846416 -0.000004
v 86.745491 17.254753 0.000008
v 88.444923 0.000000 0.000014
v 86.745491 -17.254753 0.000008
v 81.712471 -33.846416 -0.000004
v 73.539268 -49.137379 0.000008
v 62.540016 -62.540020 -0.000001
v 49.137371 -73.539284 0.000005
v 33.846413 -81.712471 0.000002
v 17.254747 -86.745499 0.000001
v 16.923203 86.745499 3.366235
v 33.196064 81.712471 6.603109
v 48.193207 73.539284 9.586229
v 61.338326 62.540020 12.200951
v 72.126228 49.137379 14.346807
v 80.142380 33.846416 15.941308
v 85.078697 17.254753 16.923212
v 86.745468 0.000000 17.254763
v 85.078697 -17.254753 16.923212
v 80.142380 -33.846416 15.941308
v 72.126228 -49.137379 14.346807
v 61.338326 -62.540020 12.200951
v 48.193207 -73.539284 9.586229
v 33.196064 -81.712471 6.603109
v 16.923203 -86.745499 3.366235
v 15.941307 86.745499 6.603107
v 31.270008 81.712471 12.952463
v 45.397003 73.539284 18.804062
v 57.779438 62.540020 23.933025
v 67.941422 49.137379 28.142267
v 75.492477 33.846416 31.270002
v 80.142372 17.254753 33.196068
v 81.712433 0.000000 33.846416
v 80.142372 -17.254753 33.196068
v 75.492477 -33.846416 31.270002
v 67.941422 -49.137379 28.142267
v 57.779438 -62.540020 23.933025
v 45.397003 -73.539284 18.804062
v 31.270008 -81.712471 12.952463
v 15.941307 -86.745499 6.603107
v 14.346796 86.745499 9.586224
v 28.142262 81.712471 18.804060
v 40.856220 73.539284 27.299261
v 52.000118 62.540020 34.745369
v 61.145657 49.137379 40.856232
v 67.941429 33.846416 45.397011
v 72.126228 17.254753 48.193214
v 73.539238 0.000000 49.137375
v 72.126228 -17.254753 48.193214
v 67.941429 -33.846416 45.397011
v 61.145657 -49.137379 40.856232
v 52.000118 -62.540020 34.745369
v 40.856220 -73.539284 27.299261
v 28.142262 -81.712471 18.804060
v 14.346796 -86.745499 9.586224
v 12.200947 86.745499 12.200948
v 23.933022 81.712471 23.933027
v 34.745358 73.539284 34.745369
v 44.222469 62.540020 44.222469
v 52.000103 49.137379 52.000114
v 57.779438 33.846416 57.779430
v 61.338314 17.254753 61.338326
v 62.539974 0.000000 62.540009
v 61.338314 -17.254753 61.338326
v 57.779438 -33.846416 57.779430
v 52.000103 -49.137379 52.000114
v 44.222469 -62.540020 44.222469
v 34.745358 -73.539284 34.745369
v 23.933022 -81.712471 23.933027
v 12.200947 -86.745499 12.200948
v 9.586222 86.745499 14.346796
v 18.804054 81.712471 28.142263
v 27.299248 73.539284 40.856228
v 34.745369 62.540020 52.000118
v 40.856216 49.137379 61.145664
v 45.397015 33.846416 67.941422
v 48.193199 17.254753 72.126236
v 49.137333 0.000000 73.539261
v 48.193199 -17.254753 72.126236
v 45.397015 -33.846416 67.941422
v 40.856216 -49.137379 61.145664
v 34.745369 -62.540020 52.000118
v 27.299248 -73.539284 40.856228
v 18.804054 -81.712471 28.142263
v 9.586222 -86.745499 14.346796
v 6.603104 86.745499 15.941304
v 12.952456 81.712471 31.270004
v 18.804047 73.539284 45.397003
v 23.933025 62.540020 57.779438
v 28.142248 49.137379 67.941422
v 31.270008 33.846416 75.492462
v 33.196045 17.254753 80.142372
v 33.846375 0.000000 81.712440
v 33.196045 -17.254753 80.142372
v 31.270008 -33.846416 75.492462
v 28.142248 -49.137379 67.941422
v 23.933025 -62.540020 57.779438
v 18.804047 -73.539284 45.397003
v 12.952456 -81.712471 31.270004
v 6.603104 -86.745499 15.941304
v 3.366233 86.745499 16.923197
v 6.603102 81.712471 33.196056
v 9.586215 73.539284 48.193199
v 12.200951 62.540020 61.338326
v 14.346789 49.137379 72.126221
v 15.941312 33.846416 80.142372
v 16.923191 17.254753 85.078682
v 17.254717 0.000000 86.745453
v 16.923191 -17.254753 85.078682
v 15.941312 -33.846416 80.142372
v 14.346789 -49.137379 72.126221
v 12.200951 -62.540020 61.338326
v 9.586215 -73.539284 48.193199
v 6.603102 -81.712471 33.196056
v 3.366233 -86.745499 16.923197
v -0.000001 86.745499 17.254742
v -0.000005 81.712471 33.846409
v -0.000009 73.539284 49.137356
v -0.000001 62.540020 62.540009
v -0.000009 49.137379 73.539261
v 0.000003 33.846416 81.712456
v -0.000012 17.254753 86.745476
v -0.000029 0.000000 88.444885
v -0.000012 -17.254753 86.745476
v 0.000003 -33.846416 81.712456
v -0.000009 -49.137379 73.539261
v -0.000001 -62.540020 62.540009
v -0.000009 -73.539284 49.137356
v -0.000005 -81.712471 33.846409
v -0.000001 -86.745499 17.254742
v -3.366234 86.745499 16.923195
v -6.603111 81.712471 33.196056
v -9.586231 73.539284 48.193192
v -12.200952 62.540020 61.338318
v -14.346807 49.137379 72.126221
v -15.941306 33.846416 80.142365
v -16.923214 17.254753 85.078674
v -17.254770 0.000000 86.745438
v -16.923214 -17.254753 85.078674
v -15.941306 -33.846416 80.142365
v -14.346807 -49.137379 72.126221
v -12.200952 -62.540020 61.338318
v -9.586231 -73.539284 48.193192
v -6.603111 -81.712471 33.196056
v -3.366234 -86.745499 16.923195
v -6.603104 86.745499 15.941301
v -12.952463 81.712471 31.270002
v -18.804060 73.539284 45.396988
v -23.933025 62.540020 57.779430
v -28.142263 49.137379 67.941406
v -31.269997 33.846416 75.492462
v -33.196064 17.254753 80.142357
v -33.846420 0.000000 81.712402
v -33.196064 -17.254753 80.142357
v -31.269997 -33.846416 75.492462
v -28.142263 -49.137379 67.941406
v -23.933025 -62.540020 57.779430
v -18.804060 -73.539284 45.396988
v -12.952463 -81.712471 31.270002
v -6.603104 -86.745499 15.941301
v -9.586221 86.745499 14.346792
v -18.804060 81.712471 28.142256
v -27.299257 73.539284 40.856205
v -34.745369 62.540020 52.000114
v -40.856228 49.137379 61.145649
v -45.396999 33.846416 67.941422
v -48.193214 17.254753 72.126213
v -49.137371 0.000000 73.539207
v -48.193214 -17.254753 72.126213
v -45.396999 -33.846416 67.941422
v -40.856228 -49.137379 61.145649
v -34.745369 -62.540020 52.000114
v -27.299257 -73.539284 40.856205
v -18.804060 -81.712471 28.142256
v -9.586221 -86.745499 14.346792
v -12.200944 86.745499 12.200942
v -23.933025 81.712471 23.933020
v -34.745358 73.539284 34.745342
v -44.222466 62.540020 44.222462
v -52.000111 49.137379 52.000092
v -57.779423 33.846416 57.779427
v -61.338318 17.254753 61.338299
v -62.539993 0.000000 62.539948
v -61.338318 -17.254753 61.338299
v -57.779423 -33.846416 57.779427
v -52.000111 -49.137379 52.000092
v -44.222466 -62.540020 44.222462
v -34.745358 -73.539284 34.745342
v -23.933025 -81.712471 23.933020
v -12.200944 -86.745499 12.200942
v 0.000000 -88.444946 0.000000
v -14.346792 86.745499 9.586219
v -28.142260 81.712471 18.804050
v -40.856216 73.539284 27.299234
v -52.000114 62.540020 34.745365
v -61.145657 49.137379 40.856209
v -67.941414 33.846416 45.397003
v -72.126228 17.254753 48.193184
v -73.539238 0.000000 49.137306
v -72.126228 -17.254753 48.193184
v -67.941414 -33.846416 45.397003
v -61.145657 -49.137379 40.856209
v -52.000114 -62.540020 34.745365
v -40.856216 -73.539284 27.299234
v -28.142260 -81.712471 18.804050
v -14.346792 -86.745499 9.586219
v -15.941300 86.745499 6.603101
v -31.270000 81.712471 12.952454
v -45.396988 73.539284 18.804035
v -57.779430 62.540020 23.933022
v -67.941406 49.137379 28.142237
v -75.492455 33.846416 31.270000
v -80.142365 17.254753 33.196030
v -81.712418 0.000000 33.846348
v -80.142365 -17.254753 33.196030
v -75.492455 -33.846416 31.270000
v -67.941406 -49.137379 28.142237
v -57.779430 -62.540020 23.933022
v -45.396988 -73.539284 18.804035
v -31.270000 -81.712471 12.952454
v -15.941300 -86.745499 6.603101
v -16.923193 86.745499 3.366231
v -33.196053 81.712471 6.603101
v -48.193184 73.539284 9.586207
v -61.338318 62.540020 12.200948
v -72.126213 49.137379 14.346782
v -80.142365 33.846416 15.941307
v -85.078674 17.254753 16.923178
v -86.745422 0.000000 17.254698
v -85.078674 -17.254753 16.923178
v -80.142365 -33.846416 15.941307
v -72.126213 -49.137379 14.346782
v -61.338318 -62.540020 12.200948
v -48.193184 -73.539284 9.586207
v -33.196053 -81.712471 6.603101
v -16.923193 -86.745499 3.366231
v -17.254738 86.745499 -0.000002
v -33.846397 81.712471 -0.000005
v -49.137337 73.539284 -0.000013
v -62.540005 62.540020 -0.000003
v -73.539246 49.137379 -0.000014
v -81.712440 33.846416 -0.000001
v -86.745461 17.254753 -0.000024
v -88.444862 0.000000 -0.000040
v -86.745461 -17.254753 -0.000024
v -81.712440 -33.846416 -0.000001
v -73.539246 -49.137379 -0.000014
v -62.540005 -62.540020 -0.000003
v -49.137337 -73.539284 -0.000013
v -33.846397 -81.712471 -0.000005
v -17.254738 -86.745499 -0.000002
v -16.923191 86.745499 -3.366234
v -33.196049 81.712471 -6.603109
v -48.193176 73.539284 -9.586232
v -61.338314 62.540020 -12.200953
v -72.126205 49.137379 -14.346810
v -80.142357 33.846416 -15.941308
v -85.078659 17.254753 -16.923223
v -86.745407 0.000000 -17.254776
v -85.078659 -17.254753 -16.923223
v -80.142357 -33.846416 -15.941308
v -72.126205 -49.137379 -14.346810
v -61.338314 -62.540020 -12.200953
v -48.193176 -73.539284 -9.586232
v -33.196049 -81.712471 -6.603109
v -16.923191 -86.745499 -3.366234
v -15.941298 86.745499 -6.603104
v -31.269995 81.712471 -12.952460
v -45.396973 73.539284 -18.804058
v -57.779427 62.540020 -23.933025
v -67.941391 49.137379 -28.142263
v -75.492447 33.846416 -31.269997
v -80.142342 17.254753 -33.196072
v -81.712379 0.000000 -33.846420
v -80.142342 -17.254753 -33.196072
v -75.492447 -33.846416 -31.269997
v -67.941391 -49.137379 -28.142263
v -57.779427 -62.540020 -23.933025
v -45.396973 -73.539284 -18.804058
v -31.269995 -81.712471 -12.952460
v -15.941298 -86.745499 -6.603104
v -14.346788 86.745499 -9.586220
v -28.142248 81.712471 -18.804056
v -40.856190 73.539284 -27.299253
v -52.000111 62.540020 -34.745365
v -61.145634 49.137379 -40.856228
v -67.941406 33.846416 -45.396999
v -72.126198 17.254753 -48.193214
v -73.539185 0.000000 -49.137363
v -72.126198 -17.254753 -48.193214
v -67.941406 -33.846416 -45.396999
v -61.145634 -49.137379 -40.856228
v -52.000111 -62.540020 -34.745365
v -40.856190 -73.539284 -27.299253
v -28.142248 -81.712471 -18.804056
v -14.346788 -86.745499 -9.586220
v -12.200940 86.745499 -12.200942
v -23.933014 81.712471 -23.933020
v -34.745327 73.539284 -34.745354
v -44.222458 62.540020 -44.222462
v -52.000076 49.137379 -52.000103
v -57.779415 33.846416 -57.779415
v -61.338284 17.254753 -61.338314
v -62.539925 0.000000 -62.539982
v -61.338284 -17.254753 -61.338314
v -57.779415 -33.846416 -57.779415
v -52.000076 -49.137379 -52.000103
v -44.222458 -62.540020 -44.222462
v -34.745327 -73.539284 -34.745354
v -23.933014 -81.712471 -23.933020
v -12.200940 -86.745499 -12.200942
v -9.586216 86.745499 -14.346789
v -18.804047 81.712471 -28.142254
v -27.299223 73.539284 -40.856209
v -34.745358 62.540020 -52.000114
v -40.856194 49.137379 -61.145649
v -45.396992 33.846416 -67.941406
v -48.193172 17.254753 -72.126221
v -49.137291 0.000000 -73.539223
v -48.193172 -17.254753 -72.126221
v -45.396992 -33.846416 -67.941406
v -40.856194 -49.137379 -61.145649
v -34.745358 -62.540020 -52.000114
v -27.299223 -73.539284 -40.856209
v -18.804047 -81.712471 -28.142254
v -9.586216 -86.745499 -14.346789
v -6.603100 86.745499 -15.941297
v -12.952451 81.712471 -31.269997
v -18.804024 73.539284 -45.396976
v -23.933018 62.540020 -57.779430
v -28.142227 49.137379 -67.941399
v -31.269991 33.846416 -75.492447
v -33.196022 17.254753 -80.142349
v -33.846340 0.000000 -81.712395
v -33.196022 -17.254753 -80.142349
v -31.269991 -33.846416 -75.492447
v -28.142227 -49.137379 -67.941399
v -23.933018 -62.540020 -57.779430
v -18.804024 -73.539284 -45.396976
v -12.952451 -81.712471 -31.269997
v -6.603100 -86.745499 -15.941297
v -3.366230 86.745499 -16.923189
v -6.603099 81.712471 -33.196049
v -9.586198 73.539284 -48.193165
v -12.200942 62.540020 -61.338318
v -14.346772 49.137379 -72.126198
v -15.941300 33.846416 -80.142349
v -16.923174 17.254753 -85.078659
v -17.254692 0.000000 -86.745407
v -16.923174 -17.254753 -85.078659
v -15.941300 -33.846416 -80.142349
v -14.346772 -49.137379 -72.126198
v -12.200942 -62.540020 -61.338318
v -9.586198 -73.539284 -48.193165
v -6.603099 -81.712471 -33.196049
v -3.366230 -86.745499 -16.923189
v 0.000001 86.745499 -17.254734
v 0.000006 81.712471 -33.846397
v 0.000008 62.540020 -62.540005
v 0.000005 33.846416 -81.712433
v 0.000005 -33.846416 -81.712433
v 0.000008 -62.540020 -62.540005
v 0.000019 -73.539284 -49.137318
v 0.000006 -81.712471 -33.846397
v 0.000001 -86.745499 -17.254734
vn -0.0975 0.0975 0.9904
vn -0.0286 -0.9565 0.2902
vn -0.0938 0.2890 0.9527
vn -0.0464 -0.8810 0.4709
vn -0.0865 0.4696 0.8786
vn -0.0624 -0.7715 0.6332
vn -0.0759 0.6326 0.7708
vn -0.0759 -0.6326 0.7708
vn -0.0624 0.7715 0.6332
vn -0.0865 -0.4696 0.8786
vn -0.0464 0.8810 0.4709
vn -0.0938 -0.2890 0.9527
vn -0.0286 0.9565 0.2902
vn -0.0975 -0.0975 0.9904
vn -0.0097 -0.9951 0.0980
vn -0.0097 0.9951 0.0980
vn -0.0846 0.9565 0.2790
vn -0.2889 -0.0976 0.9524
vn -0.0286 -0.9951 0.0942
vn -0.0286 0.9951 0.0942
vn -0.2889 0.0976 0.9524
vn -0.0846 -0.9565 0.2790
vn -0.2779 0.2890 0.9161
vn -0.1374 -0.8810 0.4528
vn -0.2563 0.4696 0.8448
vn -0.1847 -0.7715 0.6088
vn -0.2248 0.6326 0.7412
vn -0.2248 -0.6326 0.7412
vn -0.1847 0.7715 0.6088
vn -0.2563 -0.4696 0.8448
vn -0.1374 0.8810 0.4528
vn -0.2779 -0.2890 0.9161
vn -0.3651 0.6326 0.6831
vn -0.3651 -0.6326 0.6831
vn -0.2999 0.7715 0.5611
vn -0.4162 -0.4696 0.7786
vn -0.2230 0.8810 0.4173
vn -0.4513 -0.2890 0.8443
vn -0.1374 0.9565 0.2571
vn -0.4691 -0.0975 0.8777
vn -0.0464 -0.9951 0.0869
vn -0.0464 0.9951 0.0869
vn -0.4691 0.0975 0.8777
vn -0.1374 -0.9565 0.2571
vn -0.4513 0.2890 0.8443
vn -0.2230 -0.8810 0.4173
vn -0.4162 0.4696 0.7786
vn -0.2999 -0.7715 0.5611
vn -0.0625 -0.9951 0.0761
vn -0.0625 0.9951 0.0761
vn -0.6314 0.0975 0.7693
vn -0.1850 -0.9565 0.2254
vn -0.6073 0.2890 0.7400
vn -0.3002 -0.8810 0.3658
vn -0.5601 0.4696 0.6825
vn -0.4036 -0.7715 0.4918
vn -0.4913 0.6326 0.5987
vn -0.4913 -0.6326 0.5987
vn -0.4036 0.7715 0.4918
vn -0.5601 -0.4696 0.6825
vn -0.3002 0.8810 0.3658
vn -0.6073 -0.2890 0.7400
vn -0.1850 0.9565 0.2254
vn -0.6314 -0.0975 0.7693
vn -0.5987 -0.6326 0.4913
vn -0.4918 0.7715 0.4036
vn -0.6825 -0.4696 0.5601
vn -0.3658 0.8810 0.3002
vn -0.7400 -0.2890 0.6073
vn -0.2254 0.9565 0.1850
vn -0.7693 -0.0975 0.6314
vn -0.0761 -0.9951 0.0625
vn -0.0761 0.9951 0.0625
vn -0.7693 0.0975 0.6314
vn -0.2254 -0.9565 0.1850
vn -0.7400 0.2890 0.6073
vn -0.3658 -0.8810 0.3002
vn -0.6825 0.4696 0.5601
vn -0.4918 -0.7715 0.4036
vn -0.5987 0.6326 0.4913
vn -0.8777 0.0975 0.4691
vn -0.2571 -0.9565 0.1374
vn -0.8443 0.2890 0.4513
vn -0.4173 -0.8810 0.2230
vn -0.7786 0.4696 0.4162
vn -0.5611 -0.7715 0.2999
vn -0.6831 0.6326 0.3651
vn -0.6831 -0.6326 0.3651
vn -0.5611 0.7715 0.2999
vn -0.7786 -0.4696 0.4162
vn -0.4173 0.8810 0.2230
vn -0.8443 -0.2890 0.4513
vn -0.2571 0.9565 0.1374
vn -0.8777 -0.0975 0.4691
vn -0.0869 -0.9951 0.0464
vn -0.0869 0.9951 0.0464
vn -0.6088 0.7715 0.1847
vn -0.8448 -0.4696 0.2563
vn -0.4528 0.8810 0.1374
vn -0.9161 -0.2890 0.2779
vn -0.2790 0.9565 0.0846
vn -0.9524 -0.0975 0.2889
vn -0.0942 -0.9951 0.0286
vn -0.0942 0.9951 0.0286
vn -0.9524 0.0975 0.2889
vn -0.2790 -0.9565 0.0846
vn -0.9161 0.2890 0.2779
vn -0.4528 -0.8810 0.1374
vn -0.8448 0.4696 0.2563
vn -0.6088 -0.7715 0.1847
vn -0.7412 0.6326 0.2248
vn -0.7412 -0.6326 0.2248
vn -0.2902 -0.9565 0.0286
vn -0.9527 0.2890 0.0938
vn -0.4709 -0.8810 0.0464
vn -0.8786 0.4696 0.0865
vn -0.6332 -0.7715 0.0624
vn -0.7708 0.6326 0.0759
vn -0.7708 -0.6326 0.0759
vn -0.6332 0.7715 0.0624
vn -0.8786 -0.4696 0.0865
vn -0.4709 0.8810 0.0464
vn -0.9527 -0.2890 0.0938
vn -0.2902 0.9565 0.0286
vn -0.9904 -0.0975 0.0975
vn -0.0980 -0.9951 0.0097
vn -0.0980 0.9951 0.0097
vn -0.9904 0.0975 0.0975
vn -0.8786 -0.4696 -0.0865
vn -0.4709 0.8810 -0.0464
vn -0.9527 -0.2890 -0.0938
vn -0.2902 0.9565 -0.0286
vn -0.9904 -0.0975 -0.0976
vn -0.0980 -0.9951 -0.0097
vn -0.0980 0.9951 -0.0097
vn -0.9904 0.0975 -0.0976
vn -0.2902 -0.9565 -0.0286
vn -0.9527 0.2890 -0.0938
vn -0.4709 -0.8810 -0.0464
vn -0.8786 0.4696 -0.0865
vn -0.6332 -0.7715 -0.0624
vn -0.7708 0.6326 -0.0759
vn -0.7708 -0.6326 -0.0759
vn -0.6332 0.7715 -0.0624
vn -0.9161 0.2890 -0.2779
vn -0.4528 -0.8810 -0.1374
vn -0.8448 0.4696 -0.2563
vn -0.6088 -0.7715 -0.1847
vn -0.7412 0.6326 -0.2248
vn -0.7412 -0.6326 -0.2248
vn -0.6088 0.7715 -0.1847
vn -0.8448 -0.4696 -0.2563
vn -0.4528 0.8810 -0.1374
vn -0.9161 -0.2890 -0.2779
vn -0.2790 0.9565 -0.0846
vn -0.9524 -0.0975 -0.2889
vn -0.0942 -0.9951 -0.0286
vn -0.0942 0.9951 -0.0286
vn -0.9524 0.0975 -0.2889
vn -0.2790 -0.9565 -0.0846
vn -0.4173 0.8810 -0.2230
vn -0.8443 -0.2890 -0.4513
vn -0.2571 0.9565 -0.1374
vn -0.8777 -0.0975 -0.4691
vn -0.0869 -0.9951 -0.0464
vn -0.0869 0.9951 -0.0464
vn -0.8777 0.0975 -0.4691
vn -0.2571 -0.9565 -0.1374
vn -0.8443 0.2890 -0.4513
vn -0.4173 -0.8810 -0.2230
vn -0.7786 0.4696 -0.4162
vn -0.5611 -0.7715 -0.2999
vn -0.6831 0.6326 -0.3651
vn -0.6831 -0.6326 -0.3651
vn -0.5611 0.7715 -0.2999
vn -0.7786 -0.4696 -0.4162
vn -0.6825 0.4696 -0.5601
vn -0.4918 -0.7715 -0.4036
vn -0.5987 0.6326 -0.4913
vn -0.5987 -0.6326 -0.4913
vn -0.4918 0.7715 -0.4036
vn -0.6825 -0.4696 -0.5601
vn -0.3658 0.8810 -0.3002
vn -0.7400 -0.2890 -0.6073
vn -0.2254 0.9565 -0.1850
vn -0.7693 -0.0975 -0.6314
vn -0.0761 -0.9951 -0.0625
vn -0.0761 0.9951 -0.0625
vn -0.7693 0.0975 -0.6314
vn -0.2254 -0.9565 -0.1850
vn -0.7400 0.2890 -0.6073
vn -0.3658 -0.8810 -0.3002
vn -0.1850 0.9565 -0.2254
vn -0.6314 -0.0975 -0.7693
vn -0.0625 -0.9951 -0.0761
vn -0.0625 0.9951 -0.0761
vn -0.6314 0.0975 -0.7693
vn -0.1850 -0.9565 -0.2254
vn -0.6073 0.2890 -0.7400
vn -0.3002 -0.8810 -0.3658
vn -0.5601 0.4696 -0.6825
vn -0.4036 -0.7715 -0.4918
vn -0.4913 0.6326 -0.5987
vn -0.4913 -0.6326 -0.5987
vn -0.4036 0.7715 -0.4918
vn -0.5601 -0.4696 -0.6825
vn -0.3002 0.8810 -0.3658
vn -0.6073 -0.2890 -0.7400
vn -0.2999 -0.7715 -0.5611
vn -0.3651 0.6326 -0.6831
vn -0.3651 -0.6326 -0.6831
vn -0.2999 0.7715 -0.5611
vn -0.4162 -0.4696 -0.7786
vn -0.2230 0.8810 -0.4173
vn -0.4513 -0.2890 -0.8443
vn -0.1374 0.9565 -0.2571
vn -0.4691 -0.0975 -0.8777
vn -0.0464 -0.9951 -0.0869
vn -0.0464 0.9951 -0.0869
vn -0.4691 0.0975 -0.8777
vn -0.1374 -0.9565 -0.2571
vn -0.4513 0.2890 -0.8443
vn -0.2230 -0.8810 -0.4173
vn -0.4162 0.4696 -0.7786
vn -0.2889 -0.0975 -0.9524
vn -0.0286 -0.9951 -0.0942
vn -0.0286 0.9951 -0.0942
vn -0.2889 0.0975 -0.9524
vn -0.0846 -0.9565 -0.2790
vn -0.2779 0.2890 -0.9161
vn -0.1374 -0.8810 -0.4528
vn -0.2563 0.4696 -0.8448
vn -0.1847 -0.7715 -0.6088
vn -0.2248 0.6326 -0.7412
vn -0.2248 -0.6326 -0.7412
vn -0.1847 0.7715 -0.6088
vn -0.2563 -0.4696 -0.8448
vn -0.1374 0.8810 -0.4528
vn -0.2779 -0.2890 -0.9161
vn -0.0846 0.9565 -0.2790
vn -0.0759 0.6326 -0.7708
vn -0.0759 -0.6326 -0.7708
vn -0.0624 0.7715 -0.6332
vn -0.0865 -0.4696 -0.8786
vn -0.0464 0.8810 -0.4709
vn -0.0938 -0.2890 -0.9527
vn -0.0286 0.9565 -0.2902
vn -0.0975 -0.0975 -0.9904
vn -0.0097 -0.9951 -0.0980
vn -0.0097 0.9951 -0.0980
vn -0.0975 0.0975 -0.9904
vn -0.0286 -0.9565 -0.2902
vn -0.0938 0.2890 -0.9527
vn -0.0464 -0.8810 -0.4709
vn -0.0865 0.4696 -0.8786
vn -0.0624 -0.7715 -0.6332
vn 0.0097 -0.9951 -0.0980
vn 0.0097 0.9951 -0.0980
vn 0.0976 0.0975 -0.9904
vn 0.0286 -0.9565 -0.2902
vn 0.0938 0.2890 -0.9527
vn 0.0464 -0.8810 -0.4709
vn 0.0865 0.4696 -0.8786
vn 0.0624 -0.7715 -0.6332
vn 0.0759 0.6326 -0.7708
vn 0.0759 -0.6326 -0.7708
vn 0.0624 0.7715 -0.6332
vn 0.0865 -0.4696 -0.8786
vn 0.0464 0.8810 -0.4709
vn 0.0938 -0.2890 -0.9527
vn 0.0286 0.9565 -0.2902
vn 0.0976 -0.0975 -0.9904
vn 0.2248 -0.6326 -0.7412
vn 0.1847 0.7715 -0.6088
vn 0.2563 -0.4696 -0.8448
vn 0.1374 0.8810 -0.4528
vn 0.2779 -0.2890 -0.9161
vn 0.0846 0.9565 -0.2790
vn 0.2889 -0.0975 -0.9524
vn 0.0286 -0.9951 -0.0942
vn 0.0286 0.9951 -0.0942
vn 0.2889 0.0975 -0.9524
vn 0.0846 -0.9565 -0.2790
vn 0.2779 0.2890 -0.9161
vn 0.1374 -0.8810 -0.4528
vn 0.2563 0.4696 -0.8448
vn 0.1847 -0.7715 -0.6088
vn 0.2248 0.6326 -0.7412
vn 0.4691 0.0975 -0.8777
vn 0.1374 -0.9565 -0.2571
vn 0.4513 0.2890 -0.8443
vn 0.2231 -0.8810 -0.4173
vn 0.4162 0.4696 -0.7786
vn 0.2999 -0.7715 -0.5611
vn 0.3651 0.6326 -0.6831
vn 0.3651 -0.6326 -0.6831
vn 0.2999 0.7715 -0.5611
vn 0.4162 -0.4696 -0.7786
vn 0.2230 0.8810 -0.4173
vn 0.4513 -0.2890 -0.8443
vn 0.1374 0.9565 -0.2571
vn 0.4691 -0.0975 -0.8777
vn 0.0464 -0.9951 -0.0869
vn 0.0464 0.9951 -0.0869
vn 0.4036 0.7715 -0.4918
vn 0.5601 -0.4696 -0.6825
vn 0.3002 0.8810 -0.3658
vn 0.6073 -0.2890 -0.7400
vn 0.1850 0.9565 -0.2254
vn 0.6314 -0.0975 -0.7693
vn 0.0625 -0.9951 -0.0761
vn 0.0625 0.9951 -0.0761
vn 0.6314 0.0975 -0.7693
vn 0.1850 -0.9565 -0.2254
vn 0.6073 0.2890 -0.7400
vn 0.3002 -0.8810 -0.3658
vn 0.5601 0.4696 -0.6825
vn 0.4036 -0.7715 -0.4918
vn 0.4913 0.6326 -0.5987
vn 0.4913 -0.6326 -0.5987
vn 0.7400 0.2890 -0.6073
vn 0.3658 -0.8810 -0.3002
vn 0.6825 0.4696 -0.5601
vn 0.4918 -0.7715 -0.4036
vn 0.5987 0.6326 -0.4913
vn 0.5987 -0.6326 -0.4913
vn 0.4918 0.7715 -0.4036
vn 0.6825 -0.4696 -0.5601
vn 0.3658 0.8810 -0.3002
vn 0.7400 -0.2890 -0.6073
vn 0.2254 0.9565 -0.1850
vn 0.7693 -0.0975 -0.6314
vn 0.0761 -0.9951 -0.0625
vn 0.0761 0.9951 -0.0625
vn 0.7693 0.0975 -0.6314
vn 0.2254 -0.9565 -0.1850
vn 0.4173 0.8810 -0.2230
vn 0.8443 -0.2890 -0.4513
vn 0.2571 0.9565 -0.1374
vn 0.8777 -0.0975 -0.4691
vn 0.0869 -0.9951 -0.0464
vn 0.0869 0.9951 -0.0464
vn 0.8777 0.0975 -0.4691
vn 0.2571 -0.9565 -0.1374
vn 0.8443 0.2890 -0.4513
vn 0.4173 -0.8810 -0.2230
vn 0.7786 0.4696 -0.4162
vn 0.5611 -0.7715 -0.2999
vn 0.6831 0.6326 -0.3651
vn 0.6831 -0.6326 -0.3651
vn 0.5611 0.7715 -0.2999
vn 0.7786 -0.4696 -0.4162
vn 0.4528 -0.8810 -0.1374
vn 0.8448 0.4696 -0.2563
vn 0.6088 -0.7715 -0.1847
vn 0.7412 0.6326 -0.2248
vn 0.7412 -0.6326 -0.2248
vn 0.6088 0.7715 -0.1847
vn 0.8448 -0.4696 -0.2563
vn 0.4528 0.8810 -0.1374
vn 0.9161 -0.2890 -0.2779
vn 0.2790 0.9565 -0.0846
vn 0.9524 -0.0975 -0.2889
vn 0.0942 -0.9951 -0.0286
vn 0.0942 0.9951 -0.0286
vn 0.9524 0.0975 -0.2889
vn 0.2790 -0.9565 -0.0846
vn 0.9161 0.2890 -0.2779
vn 0.9527 -0.2890 -0.0938
vn 0.2902 0.9565 -0.0286
vn 0.9904 -0.0975 -0.0975
vn 0.0980 -0.9951 -0.0097
vn 0.0980 0.9951 -0.0097
vn 0.9904 0.0975 -0.0975
vn 0.2902 -0.9565 -0.0286
vn 0.9527 0.2890 -0.0938
vn 0.4709 -0.8810 -0.0464
vn 0.8786 0.4696 -0.0865
vn 0.6332 -0.7715 -0.0624
vn 0.7708 0.6326 -0.0759
vn 0.7708 -0.6326 -0.0759
vn 0.6332 0.7715 -0.0624
vn 0.8786 -0.4696 -0.0865
vn 0.4709 0.8810 -0.0464
vn 0.8786 0.4696 0.0865
vn 0.6332 -0.7715 0.0624
vn 0.7708 0.6326 0.0759
vn 0.7708 -0.6326 0.0759
vn 0.6332 0.7715 0.0624
vn 0.8786 -0.4696 0.0865
vn 0.4709 0.8810 0.0464
vn 0.9527 -0.2890 0.0938
vn 0.2902 0.9565 0.0286
vn 0.9904 -0.0975 0.0976
vn 0.0980 -0.9951 0.0097
vn 0.0980 0.9951 0.0097
vn 0.9904 0.0975 0.0976
vn 0.2902 -0.9565 0.0286
vn 0.9527 0.2890 0.0938
vn 0.4709 -0.8810 0.0464
vn 0.2790 0.9565 0.0846
vn 0.9524 -0.0975 0.2889
vn 0.0942 -0.9951 0.0286
vn 0.0942 0.9951 0.0286
vn 0.9524 0.0975 0.2889
vn 0.2790 -0.9565 0.0846
vn 0.9161 0.2890 0.2779
vn 0.4528 -0.8810 0.1374
vn 0.8448 0.4696 0.2563
vn 0.6088 -0.7715 0.1847
vn 0.7412 0.6326 0.2248
vn 0.7412 -0.6326 0.2248
vn 0.6088 0.7715 0.1847
vn 0.8448 -0.4696 0.2563
vn 0.4528 0.8810 0.1374
vn 0.9161 -0.2890 0.2779
vn 0.5611 -0.7715 0.2999
vn 0.6831 0.6326 0.3651
vn 0.6831 -0.6326 0.3651
vn 0.5611 0.7715 0.2999
vn 0.7786 -0.4696 0.4162
vn 0.4173 0.8810 0.2231
vn 0.8443 -0.2890 0.4513
vn 0.2571 0.9565 0.1374
vn 0.8777 -0.0975 0.4691
vn 0.0869 -0.9951 0.0464
vn 0.0869 0.9951 0.0464
vn 0.8777 0.0975 0.4691
vn 0.2571 -0.9565 0.1374
vn 0.8443 0.2890 0.4513
vn 0.4173 -0.8810 0.2231
vn 0.7786 0.4696 0.4162
vn 0.7693 -0.0975 0.6314
vn 0.0761 -0.9951 0.0625
vn 0.0761 0.9951 0.0625
vn 0.7693 0.0975 0.6314
vn 0.2254 -0.9565 0.1850
vn 0.7400 0.2890 0.6073
vn 0.3658 -0.8810 0.3002
vn 0.6825 0.4696 0.5601
vn 0.4918 -0.7715 0.4036
vn 0.5987 0.6326 0.4913
vn 0.5987 -0.6326 0.4913
vn 0.4918 0.7715 0.4036
vn 0.6825 -0.4696 0.5601
vn 0.3658 0.8810 0.3002
vn 0.7400 -0.2890 0.6073
vn 0.2254 0.9565 0.1850
vn 0.4913 0.6326 0.5987
vn 0.4913 -0.6326 0.5987
vn 0.4036 0.7715 0.4918
vn 0.5601 -0.4696 0.6825
vn 0.3002 0.8810 0.3658
vn 0.6073 -0.2890 0.7400
vn 0.1850 0.9565 0.2254
vn 0.6314 -0.0975 0.7693
vn 0.0625 -0.9951 0.0761
vn 0.0625 0.9951 0.0761
vn 0.6314 0.0975 0.7693
vn 0.1850 -0.9565 0.2254
vn 0.6073 0.2890 0.7400
vn 0.3002 -0.8810 0.3658
vn 0.5601 0.4696 0.6825
vn 0.4036 -0.7715 0.4918
vn 0.0464 0.9951 0.0869
vn 0.4691 0.0975 0.8777
vn 0.1374 -0.9565 0.2571
vn 0.4513 0.2890 0.8443
vn 0.2230 -0.8810 0.4173
vn 0.4162 0.4696 0.7786
vn 0.2999 -0.7715 0.5611
vn 0.3651 0.6326 0.6831
vn 0.3651 -0.6326 0.6831
vn 0.2999 0.7715 0.5611
vn 0.4162 -0.4696 0.7786
vn 0.2230 0.8810 0.4173
vn 0.4513 -0.2890 0.8443
vn 0.1374 0.9565 0.2571
vn 0.4691 -0.0975 0.8777
vn 0.0464 -0.9951 0.0869
vn 0.1847 0.7715 0.6088
vn 0.2563 -0.4696 0.8448
vn 0.1374 0.8810 0.4528
vn 0.2779 -0.2890 0.9161
vn 0.0846 0.9565 0.2790
vn 0.2889 -0.0975 0.9524
vn 0.0286 -0.9951 0.0942
vn 0.0286 0.9951 0.0942
vn 0.2889 0.0975 0.9524
vn 0.0846 -0.9565 0.2790
vn 0.2779 0.2890 0.9161
vn 0.1374 -0.8810 0.4528
vn 0.2563 0.4696 0.8448
vn 0.1847 -0.7715 0.6088
vn 0.2248 0.6326 0.7412
vn 0.2248 -0.6326 0.7412
vn 0.0286 -0.9565 0.2902
vn 0.0938 0.2890 0.9527
vn 0.0464 -0.8810 0.4709
vn 0.0865 0.4696 0.8786
vn 0.0624 -0.7715 0.6332
vn 0.0759 0.6326 0.7708
vn 0.0759 -0.6326 0.7708
vn 0.0624 0.7715 0.6332
vn 0.0865 -0.4696 0.8786
vn 0.0464 0.8810 0.4709
vn 0.0938 -0.2890 0.9527
vn 0.0286 0.9565 0.2902
vn 0.0976 -0.0975 0.9904
vn 0.0097 -0.9951 0.0980
vn 0.0097 0.9951 0.0980
vn 0.0976 0.0975 0.9904
vt 0.750000 0.437500
vt 0.718750 0.437500
vt 0.718750 0.500000
vt 0.750000 0.500000
vt 0.750000 0.875000
vt 0.718750 0.875000
vt 0.718750 0.937500
vt 0.750000 0.937500
vt 0.750000 0.375000
vt 0.718750 0.375000
vt 0.750000 0.812500
vt 0.718750 0.812500
vt 0.750000 0.312500
vt 0.718750 0.312500
vt 0.750000 0.750000
vt 0.718750 0.750000
vt 0.750000 0.250000
vt 0.718750 0.250000
vt 0.750000 0.687500
vt 0.718750 0.687500
vt 0.750000 0.187500
vt 0.718750 0.187500
vt 0.750000 0.625000
vt 0.718750 0.625000
vt 0.750000 0.125000
vt 0.718750 0.125000
vt 0.750000 0.562500
vt 0.718750 0.562500
vt 0.750000 0.062500
vt 0.718750 0.062500
vt 0.734375 1.000000
vt 0.734375 0.000000
vt 0.687500 0.062500
vt 0.687500 0.125000
vt 0.687500 0.500000
vt 0.687500 0.562500
vt 0.687500 0.937500
vt 0.703125 1.000000
vt 0.703125 0.000000
vt 0.687500 0.437500
vt 0.687500 0.875000
vt 0.687500 0.375000
vt 0.687500 0.812500
vt 0.687500 0.312500
vt 0.687500 0.750000
vt 0.687500 0.250000
vt 0.687500 0.687500
vt 0.687500 0.187500
vt 0.687500 0.625000
vt 0.656250 0.250000
vt 0.656250 0.312500
vt 0.656250 0.687500
vt 0.656250 0.750000
vt 0.656250 0.187500
vt 0.656250 0.625000
vt 0.656250 0.125000
vt 0.656250 0.562500
vt 0.656250 0.062500
vt 0.656250 0.500000
vt 0.656250 0.937500
vt 0.671875 1.000000
vt 0.671875 0.000000
vt 0.656250 0.437500
vt 0.656250 0.875000
vt 0.656250 0.375000
vt 0.656250 0.812500
vt 0.625000 0.937500
vt 0.640625 1.000000
vt 0.640625 0.000000
vt 0.625000 0.062500
vt 0.625000 0.437500
vt 0.625000 0.500000
vt 0.625000 0.875000
vt 0.625000 0.375000
vt 0.625000 0.812500
vt 0.625000 0.312500
vt 0.625000 0.750000
vt 0.625000 0.250000
vt 0.625000 0.687500
vt 0.625000 0.187500
vt 0.625000 0.625000
vt 0.625000 0.125000
vt 0.625000 0.562500
vt 0.593750 0.687500
vt 0.593750 0.750000
vt 0.593750 0.187500
vt 0.593750 0.250000
vt 0.593750 0.625000
vt 0.593750 0.125000
vt 0.593750 0.562500
vt 0.593750 0.062500
vt 0.593750 0.500000
vt 0.593750 0.937500
vt 0.609375 1.000000
vt 0.609375 0.000000
vt 0.593750 0.437500
vt 0.593750 0.875000
vt 0.593750 0.375000
vt 0.593750 0.812500
vt 0.593750 0.312500
vt 0.562500 0.437500
vt 0.562500 0.500000
vt 0.562500 0.875000
vt 0.562500 0.937500
vt 0.562500 0.375000
vt 0.562500 0.812500
vt 0.562500 0.312500
vt 0.562500 0.750000
vt 0.562500 0.250000
vt 0.562500 0.687500
vt 0.562500 0.187500
vt 0.562500 0.625000
vt 0.562500 0.125000
vt 0.562500 0.562500
vt 0.562500 0.062500
vt 0.578125 1.000000
vt 0.578125 0.000000
vt 0.531250 0.187500
vt 0.531250 0.250000
vt 0.531250 0.625000
vt 0.531250 0.687500
vt 0.531250 0.125000
vt 0.531250 0.562500
vt 0.531250 0.062500
vt 0.531250 0.500000
vt 0.531250 0.937500
vt 0.546875 1.000000
vt 0.546875 0.000000
vt 0.531250 0.437500
vt 0.531250 0.875000
vt 0.531250 0.375000
vt 0.531250 0.812500
vt 0.531250 0.312500
vt 0.531250 0.750000
vt 0.500000 0.875000
vt 0.500000 0.937500
vt 0.500000 0.375000
vt 0.500000 0.437500
vt 0.500000 0.812500
vt 0.500000 0.312500
vt 0.500000 0.750000
vt 0.500000 0.250000
vt 0.500000 0.687500
vt 0.500000 0.187500
vt 0.500000 0.625000
vt 0.500000 0.125000
vt 0.500000 0.562500
vt 0.500000 0.062500
vt 0.500000 0.500000
vt 0.515625 1.000000
vt 0.515625 0.000000
vt 0.468750 0.625000
vt 0.468750 0.687500
vt 0.468750 0.125000
vt 0.468750 0.187500
vt 0.468750 0.562500
vt 0.468750 0.062500
vt 0.468750 0.500000
vt 0.468750 0.937500
vt 0.484375 1.000000
vt 0.484375 0.000000
vt 0.468750 0.437500
vt 0.468750 0.875000
vt 0.468750 0.375000
vt 0.468750 0.812500
vt 0.468750 0.312500
vt 0.468750 0.750000
vt 0.468750 0.250000
vt 0.437500 0.375000
vt 0.437500 0.437500
vt 0.437500 0.812500
vt 0.437500 0.875000
vt 0.437500 0.312500
vt 0.437500 0.750000
vt 0.437500 0.250000
vt 0.437500 0.687500
vt 0.437500 0.187500
vt 0.437500 0.625000
vt 0.437500 0.125000
vt 0.437500 0.562500
vt 0.437500 0.062500
vt 0.437500 0.500000
vt 0.437500 0.937500
vt 0.453125 1.000000
vt 0.453125 0.000000
vt 0.406250 0.125000
vt 0.406250 0.187500
vt 0.406250 0.562500
vt 0.406250 0.625000
vt 0.406250 0.062500
vt 0.406250 0.500000
vt 0.406250 0.937500
vt 0.421875 1.000000
vt 0.421875 0.000000
vt 0.406250 0.437500
vt 0.406250 0.875000
vt 0.406250 0.375000
vt 0.406250 0.812500
vt 0.406250 0.312500
vt 0.406250 0.750000
vt 0.406250 0.250000
vt 0.406250 0.687500
vt 0.375000 0.312500
vt 0.375000 0.375000
vt 0.375000 0.750000
vt 0.375000 0.812500
vt 0.375000 0.250000
vt 0.375000 0.687500
vt 0.375000 0.187500
vt 0.375000 0.625000
vt 0.375000 0.125000
vt 0.375000 0.562500
vt 0.375000 0.062500
vt 0.375000 0.500000
vt 0.375000 0.937500
vt 0.390625 1.000000
vt 0.390625 0.000000
vt 0.375000 0.437500
vt 0.375000 0.875000
vt 0.343750 0.062500
vt 0.343750 0.125000
vt 0.343750 0.500000
vt 0.343750 0.562500
vt 0.343750 0.937500
vt 0.359375 1.000000
vt 0.359375 0.000000
vt 0.343750 0.437500
vt 0.343750 0.875000
vt 0.343750 0.375000
vt 0.343750 0.812500
vt 0.343750 0.312500
vt 0.343750 0.750000
vt 0.343750 0.250000
vt 0.343750 0.687500
vt 0.343750 0.187500
vt 0.343750 0.625000
vt 0.312500 0.750000
vt 0.312500 0.812500
vt 0.312500 0.250000
vt 0.312500 0.312500
vt 0.312500 0.687500
vt 0.312500 0.187500
vt 0.312500 0.625000
vt 0.312500 0.125000
vt 0.312500 0.562500
vt 0.312500 0.062500
vt 0.312500 0.500000
vt 0.312500 0.937500
vt 0.328125 1.000000
vt 0.328125 0.000000
vt 0.312500 0.437500
vt 0.312500 0.875000
vt 0.312500 0.375000
vt 0.281250 0.500000
vt 0.281250 0.562500
vt 0.281250 0.937500
vt 0.296875 1.000000
vt 0.296875 0.000000
vt 0.281250 0.062500
vt 0.281250 0.437500
vt 0.281250 0.875000
vt 0.281250 0.375000
vt 0.281250 0.812500
vt 0.281250 0.312500
vt 0.281250 0.750000
vt 0.281250 0.250000
vt 0.281250 0.687500
vt 0.281250 0.187500
vt 0.281250 0.625000
vt 0.281250 0.125000
vt 0.250000 0.250000
vt 0.250000 0.312500
vt 0.250000 0.687500
vt 0.250000 0.750000
vt 0.250000 0.187500
vt 0.250000 0.625000
vt 0.250000 0.125000
vt 0.250000 0.562500
vt 0.250000 0.062500
vt 0.250000 0.500000
vt 0.250000 0.937500
vt 0.265625 1.000000
vt 0.265625 0.000000
vt 0.250000 0.437500
vt 0.250000 0.875000
vt 0.250000 0.375000
vt 0.250000 0.812500
vt 0.218750 0.937500
vt 0.234375 1.000000
vt 0.234375 0.000000
vt 0.218750 0.062500
vt 0.218750 0.437500
vt 0.218750 0.500000
vt 0.218750 0.875000
vt 0.218750 0.375000
vt 0.218750 0.812500
vt 0.218750 0.312500
vt 0.218750 0.750000
vt 0.218750 0.250000
vt 0.218750 0.687500
vt 0.218750 0.187500
vt 0.218750 0.625000
vt 0.218750 0.125000
vt 0.218750 0.562500
vt 0.187500 0.687500
vt 0.187500 0.750000
vt 0.187500 0.187500
vt 0.187500 0.250000
vt 0.187500 0.625000
vt 0.187500 0.125000
vt 0.187500 0.562500
vt 0.187500 0.062500
vt 0.187500 0.500000
vt 0.187500 0.937500
vt 0.203125 1.000000
vt 0.203125 0.000000
vt 0.187500 0.437500
vt 0.187500 0.875000
vt 0.187500 0.375000
vt 0.187500 0.812500
vt 0.187500 0.312500
vt 0.156250 0.437500
vt 0.156250 0.500000
vt 0.156250 0.875000
vt 0.156250 0.937500
vt 0.156250 0.375000
vt 0.156250 0.812500
vt 0.156250 0.312500
vt 0.156250 0.750000
vt 0.156250 0.250000
vt 0.156250 0.687500
vt 0.156250 0.187500
vt 0.156250 0.625000
vt 0.156250 0.125000
vt 0.156250 0.562500
vt 0.156250 0.062500
vt 0.171875 1.000000
vt 0.171875 0.000000
vt 0.125000 0.187500
vt 0.125000 0.250000
vt 0.125000 0.625000
vt 0.125000 0.687500
vt 0.125000 0.125000
vt 0.125000 0.562500
vt 0.125000 0.062500
vt 0.125000 0.500000
vt 0.125000 0.937500
vt 0.140625 1.000000
vt 0.140625 0.000000
vt 0.125000 0.437500
vt 0.125000 0.875000
vt 0.125000 0.375000
vt 0.125000 0.812500
vt 0.125000 0.312500
vt 0.125000 0.750000
vt 0.093750 0.375000
vt 0.093750 0.437500
vt 0.093750 0.812500
vt 0.093750 0.875000
vt 0.093750 0.312500
vt 0.093750 0.750000
vt 0.093750 0.250000
vt 0.093750 0.687500
vt 0.093750 0.187500
vt 0.093750 0.625000
vt 0.093750 0.125000
vt 0.093750 0.562500
vt 0.093750 0.062500
vt 0.093750 0.500000
vt 0.093750 0.937500
vt 0.109375 1.000000
vt 0.109375 0.000000
vt 0.062500 0.125000
vt 0.062500 0.187500
vt 0.062500 0.562500
vt 0.062500 0.625000
vt 0.062500 0.062500
vt 0.062500 0.500000
vt 0.062500 0.937500
vt 0.078125 1.000000
vt 0.078125 0.000000
vt 0.062500 0.437500
vt 0.062500 0.875000
vt 0.062500 0.375000
vt 0.062500 0.812500
vt 0.062500 0.312500
vt 0.062500 0.750000
vt 0.062500 0.250000
vt 0.062500 0.687500
vt 0.031250 0.812500
vt 0.031250 0.875000
vt 0.031250 0.312500
vt 0.031250 0.375000
vt 0.031250 0.750000
vt 0.031250 0.250000
vt 0.031250 0.687500
vt 0.031250 0.187500
vt 0.031250 0.625000
vt 0.031250 0.125000
vt 0.031250 0.562500
vt 0.031250 0.062500
vt 0.031250 0.500000
vt 0.031250 0.937500
vt 0.046875 1.000000
vt 0.046875 0.000000
vt 0.031250 0.437500
vt 0.000000 0.562500
vt 0.000000 0.625000
vt 0.000000 0.062500
vt 0.000000 0.125000
vt 0.000000 0.500000
vt 0.000000 0.937500
vt 0.015625 1.000000
vt 0.015625 0.000000
vt 0.000000 0.437500
vt 0.000000 0.875000
vt 0.000000 0.375000
vt 0.000000 0.812500
vt 0.000000 0.312500
vt 0.000000 0.750000
vt 0.000000 0.250000
vt 0.000000 0.687500
vt 0.000000 0.187500
vt 1.000000 0.312500
vt 0.968750 0.312500
vt 0.968750 0.375000
vt 1.000000 0.375000
vt 1.000000 0.750000
vt 0.968750 0.750000
vt 0.968750 0.812500
vt 1.000000 0.812500
vt 1.000000 0.250000
vt 0.968750 0.250000
vt 1.000000 0.687500
vt 0.968750 0.687500
vt 1.000000 0.187500
vt 0.968750 0.187500
vt 1.000000 0.625000
vt 0.968750 0.625000
vt 1.000000 0.125000
vt 0.968750 0.125000
vt 1.000000 0.562500
vt 0.968750 0.562500
vt 1.000000 0.062500
vt 0.968750 0.062500
vt 1.000000 0.500000
vt 0.968750 0.500000
vt 1.000000 0.937500
vt 0.968750 0.937500
vt 0.984375 1.000000
vt 0.984375 0.000000
vt 1.000000 0.437500
vt 0.968750 0.437500
vt 1.000000 0.875000
vt 0.968750 0.875000
vt 0.937500 0.062500
vt 0.937500 0.125000
vt 0.937500 0.500000
vt 0.937500 0.562500
vt 0.937500 0.937500
vt 0.953125 1.000000
vt 0.953125 0.000000
vt 0.937500 0.437500
vt 0.937500 0.875000
vt 0.937500 0.375000
vt 0.937500 0.812500
vt 0.937500 0.312500
vt 0.937500 0.750000
vt 0.937500 0.250000
vt 0.937500 0.687500
vt 0.937500 0.187500
vt 0.937500 0.625000
vt 0.906250 0.750000
vt 0.906250 0.812500
vt 0.906250 0.250000
vt 0.906250 0.312500
vt 0.906250 0.687500
vt 0.906250 0.187500
vt 0.906250 0.625000
vt 0.906250 0.125000
vt 0.906250 0.562500
vt 0.906250 0.062500
vt 0.906250 0.500000
vt 0.906250 0.937500
vt 0.921875 1.000000
vt 0.921875 0.000000
vt 0.906250 0.437500
vt 0.906250 0.875000
vt 0.906250 0.375000
vt 0.875000 0.500000
vt 0.875000 0.562500
vt 0.875000 0.937500
vt 0.890625 1.000000
vt 0.890625 0.000000
vt 0.875000 0.062500
vt 0.875000 0.437500
vt 0.875000 0.875000
vt 0.875000 0.375000
vt 0.875000 0.812500
vt 0.875000 0.312500
vt 0.875000 0.750000
vt 0.875000 0.250000
vt 0.875000 0.687500
vt 0.875000 0.187500
vt 0.875000 0.625000
vt 0.875000 0.125000
vt 0.843750 0.250000
vt 0.843750 0.312500
vt 0.843750 0.687500
vt 0.843750 0.750000
vt 0.843750 0.187500
vt 0.843750 0.625000
vt 0.843750 0.125000
vt 0.843750 0.562500
vt 0.843750 0.062500
vt 0.843750 0.500000
vt 0.843750 0.937500
vt 0.859375 1.000000
vt 0.859375 0.000000
vt 0.843750 0.437500
vt 0.843750 0.875000
vt 0.843750 0.375000
vt 0.843750 0.812500
vt 0.828125 0.000000
vt 0.812500 0.062500
vt 0.812500 0.437500
vt 0.812500 0.500000
vt 0.812500 0.875000
vt 0.812500 0.937500
vt 0.812500 0.375000
vt 0.812500 0.812500
vt 0.812500 0.312500
vt 0.812500 0.750000
vt 0.812500 0.250000
vt 0.812500 0.687500
vt 0.812500 0.187500
vt 0.812500 0.625000
vt 0.812500 0.125000
vt 0.812500 0.562500
vt 0.828125 1.000000
vt 0.781250 0.187500
vt 0.781250 0.250000
vt 0.781250 0.625000
vt 0.781250 0.687500
vt 0.781250 0.125000
vt 0.781250 0.562500
vt 0.781250 0.062500
vt 0.781250 0.500000
vt 0.781250 0.937500
vt 0.796875 1.000000
vt 0.796875 0.000000
vt 0.781250 0.437500
vt 0.781250 0.875000
vt 0.781250 0.375000
vt 0.781250 0.812500
vt 0.781250 0.312500
vt 0.781250 0.750000
vt 0.765625 1.000000
vt 0.765625 0.000000
s 0
usemtl Material.001
f 5/1/1 15/2/1 14/3/1 4/4/1
f 475/5/2 8/6/2 7/7/2 474/8/2
f 478/9/3 16/10/3 15/2/3 5/1/3
f 1/11/4 9/12/4 8/6/4 475/5/4
f 6/13/5 17/14/5 16/10/5 478/9/5
f 476/15/6 10/16/6 9/12/6 1/11/6
f 479/17/7 18/18/7 17/14/7 6/13/7
f 2/19/8 11/20/8 10/16/8 476/15/8
f 480/21/9 19/22/9 18/18/9 479/17/9
f 477/23/10 12/24/10 11/20/10 2/19/10
f 481/25/11 20/26/11 19/22/11 480/21/11
f 3/27/12 13/28/12 12/24/12 477/23/12
f 482/29/13 21/30/13 20/26/13 481/25/13
f 4/4/14 14/3/14 13/28/14 3/27/14
f 474/8/15 7/7/15 82/31/15
f 308/32/16 21/30/16 482/29/16
f 21/30/17 36/33/17 35/34/17 20/26/17
f 14/3/18 29/35/18 28/36/18 13/28/18
f 7/7/19 22/37/19 82/38/19
f 308/39/20 36/33/20 21/30/20
f 15/2/21 30/40/21 29/35/21 14/3/21
f 8/6/22 23/41/22 22/37/22 7/7/22
f 16/10/23 31/42/23 30/40/23 15/2/23
f 9/12/24 24/43/24 23/41/24 8/6/24
f 17/14/25 32/44/25 31/42/25 16/10/25
f 10/16/26 25/45/26 24/43/26 9/12/26
f 18/18/27 33/46/27 32/44/27 17/14/27
f 11/20/28 26/47/28 25/45/28 10/16/28
f 19/22/29 34/48/29 33/46/29 18/18/29
f 12/24/30 27/49/30 26/47/30 11/20/30
f 20/26/31 35/34/31 34/48/31 19/22/31
f 13/28/32 28/36/32 27/49/32 12/24/32
f 33/46/33 48/50/33 47/51/33 32/44/33
f 26/47/34 41/52/34 40/53/34 25/45/34
f 34/48/35 49/54/35 48/50/35 33/46/35
f 27/49/36 42/55/36 41/52/36 26/47/36
f 35/34/37 50/56/37 49/54/37 34/48/37
f 28/36/38 43/57/38 42/55/38 27/49/38
f 36/33/39 51/58/39 50/56/39 35/34/39
f 29/35/40 44/59/40 43/57/40 28/36/40
f 22/37/41 37/60/41 82/61/41
f 308/62/42 51/58/42 36/33/42
f 30/40/43 45/63/43 44/59/43 29/35/43
f 23/41/44 38/64/44 37/60/44 22/37/44
f 31/42/45 46/65/45 45/63/45 30/40/45
f 24/43/46 39/66/46 38/64/46 23/41/46
f 32/44/47 47/51/47 46/65/47 31/42/47
f 25/45/48 40/53/48 39/66/48 24/43/48
f 37/60/49 52/67/49 82/68/49
f 308/69/50 66/70/50 51/58/50
f 45/63/51 60/71/51 59/72/51 44/59/51
f 38/64/52 53/73/52 52/67/52 37/60/52
f 46/65/53 61/74/53 60/71/53 45/63/53
f 39/66/54 54/75/54 53/73/54 38/64/54
f 47/51/55 62/76/55 61/74/55 46/65/55
f 40/53/56 55/77/56 54/75/56 39/66/56
f 48/50/57 63/78/57 62/76/57 47/51/57
f 41/52/58 56/79/58 55/77/58 40/53/58
f 49/54/59 64/80/59 63/78/59 48/50/59
f 42/55/60 57/81/60 56/79/60 41/52/60
f 50/56/61 65/82/61 64/80/61 49/54/61
f 43/57/62 58/83/62 57/81/62 42/55/62
f 51/58/63 66/70/63 65/82/63 50/56/63
f 44/59/64 59/72/64 58/83/64 43/57/64
f 56/79/65 71/84/65 70/85/65 55/77/65
f 64/80/66 79/86/66 78/87/66 63/78/66
f 57/81/67 72/88/67 71/84/67 56/79/67
f 65/82/68 80/89/68 79/86/68 64/80/68
f 58/83/69 73/90/69 72/88/69 57/81/69
f 66/70/70 81/91/70 80/89/70 65/82/70
f 59/72/71 74/92/71 73/90/71 58/83/71
f 52/67/72 67/93/72 82/94/72
f 308/95/73 81/91/73 66/70/73
f 60/71/74 75/96/74 74/92/74 59/72/74
f 53/73/75 68/97/75 67/93/75 52/67/75
f 61/74/76 76/98/76 75/96/76 60/71/76
f 54/75/77 69/99/77 68/97/77 53/73/77
f 62/76/78 77/100/78 76/98/78 61/74/78
f 55/77/79 70/85/79 69/99/79 54/75/79
f 63/78/80 78/87/80 77/100/80 62/76/80
f 75/96/81 91/101/81 90/102/81 74/92/81
f 68/97/82 84/103/82 83/104/82 67/93/82
f 76/98/83 92/105/83 91/101/83 75/96/83
f 69/99/84 85/106/84 84/103/84 68/97/84
f 77/100/85 93/107/85 92/105/85 76/98/85
f 70/85/86 86/108/86 85/106/86 69/99/86
f 78/87/87 94/109/87 93/107/87 77/100/87
f 71/84/88 87/110/88 86/108/88 70/85/88
f 79/86/89 95/111/89 94/109/89 78/87/89
f 72/88/90 88/112/90 87/110/90 71/84/90
f 80/89/91 96/113/91 95/111/91 79/86/91
f 73/90/92 89/114/92 88/112/92 72/88/92
f 81/91/93 97/115/93 96/113/93 80/89/93
f 74/92/94 90/102/94 89/114/94 73/90/94
f 67/93/95 83/104/95 82/116/95
f 308/117/96 97/115/96 81/91/96
f 95/111/97 110/118/97 109/119/97 94/109/97
f 88/112/98 103/120/98 102/121/98 87/110/98
f 96/113/99 111/122/99 110/118/99 95/111/99
f 89/114/100 104/123/100 103/120/100 88/112/100
f 97/115/101 112/124/101 111/122/101 96/113/101
f 90/102/102 105/125/102 104/123/102 89/114/102
f 83/104/103 98/126/103 82/127/103
f 308/128/104 112/124/104 97/115/104
f 91/101/105 106/129/105 105/125/105 90/102/105
f 84/103/106 99/130/106 98/126/106 83/104/106
f 92/105/107 107/131/107 106/129/107 91/101/107
f 85/106/108 100/132/108 99/130/108 84/103/108
f 93/107/109 108/133/109 107/131/109 92/105/109
f 86/108/110 101/134/110 100/132/110 85/106/110
f 94/109/111 109/119/111 108/133/111 93/107/111
f 87/110/112 102/121/112 101/134/112 86/108/112
f 99/130/113 114/135/113 113/136/113 98/126/113
f 107/131/114 122/137/114 121/138/114 106/129/114
f 100/132/115 115/139/115 114/135/115 99/130/115
f 108/133/116 123/140/116 122/137/116 107/131/116
f 101/134/117 116/141/117 115/139/117 100/132/117
f 109/119/118 124/142/118 123/140/118 108/133/118
f 102/121/119 117/143/119 116/141/119 101/134/119
f 110/118/120 125/144/120 124/142/120 109/119/120
f 103/120/121 118/145/121 117/143/121 102/121/121
f 111/122/122 126/146/122 125/144/122 110/118/122
f 104/123/123 119/147/123 118/145/123 103/120/123
f 112/124/124 127/148/124 126/146/124 111/122/124
f 105/125/125 120/149/125 119/147/125 104/123/125
f 98/126/126 113/136/126 82/150/126
f 308/151/127 127/148/127 112/124/127
f 106/129/128 121/138/128 120/149/128 105/125/128
f 118/145/129 133/152/129 132/153/129 117/143/129
f 126/146/130 141/154/130 140/155/130 125/144/130
f 119/147/131 134/156/131 133/152/131 118/145/131
f 127/148/132 142/157/132 141/154/132 126/146/132
f 120/149/133 135/158/133 134/156/133 119/147/133
f 113/136/134 128/159/134 82/160/134
f 308/161/135 142/157/135 127/148/135
f 121/138/136 136/162/136 135/158/136 120/149/136
f 114/135/137 129/163/137 128/159/137 113/136/137
f 122/137/138 137/164/138 136/162/138 121/138/138
f 115/139/139 130/165/139 129/163/139 114/135/139
f 123/140/140 138/166/140 137/164/140 122/137/140
f 116/141/141 131/167/141 130/165/141 115/139/141
f 124/142/142 139/168/142 138/166/142 123/140/142
f 117/143/143 132/153/143 131/167/143 116/141/143
f 125/144/144 140/155/144 139/168/144 124/142/144
f 137/164/145 152/169/145 151/170/145 136/162/145
f 130/165/146 145/171/146 144/172/146 129/163/146
f 138/166/147 153/173/147 152/169/147 137/164/147
f 131/167/148 146/174/148 145/171/148 130/165/148
f 139/168/149 154/175/149 153/173/149 138/166/149
f 132/153/150 147/176/150 146/174/150 131/167/150
f 140/155/151 155/177/151 154/175/151 139/168/151
f 133/152/152 148/178/152 147/176/152 132/153/152
f 141/154/153 156/179/153 155/177/153 140/155/153
f 134/156/154 149/180/154 148/178/154 133/152/154
f 142/157/155 157/181/155 156/179/155 141/154/155
f 135/158/156 150/182/156 149/180/156 134/156/156
f 128/159/157 143/183/157 82/184/157
f 308/185/158 157/181/158 142/157/158
f 136/162/159 151/170/159 150/182/159 135/158/159
f 129/163/160 144/172/160 143/183/160 128/159/160
f 156/179/161 171/186/161 170/187/161 155/177/161
f 149/180/162 164/188/162 163/189/162 148/178/162
f 157/181/163 172/190/163 171/186/163 156/179/163
f 150/182/164 165/191/164 164/188/164 149/180/164
f 143/183/165 158/192/165 82/193/165
f 308/194/166 172/190/166 157/181/166
f 151/170/167 166/195/167 165/191/167 150/182/167
f 144/172/168 159/196/168 158/192/168 143/183/168
f 152/169/169 167/197/169 166/195/169 151/170/169
f 145/171/170 160/198/170 159/196/170 144/172/170
f 153/173/171 168/199/171 167/197/171 152/169/171
f 146/174/172 161/200/172 160/198/172 145/171/172
f 154/175/173 169/201/173 168/199/173 153/173/173
f 147/176/174 162/202/174 161/200/174 146/174/174
f 155/177/175 170/187/175 169/201/175 154/175/175
f 148/178/176 163/189/176 162/202/176 147/176/176
f 168/199/177 183/203/177 182/204/177 167/197/177
f 161/200/178 176/205/178 175/206/178 160/198/178
f 169/201/179 184/207/179 183/203/179 168/199/179
f 162/202/180 177/208/180 176/205/180 161/200/180
f 170/187/181 185/209/181 184/207/181 169/201/181
f 163/189/182 178/210/182 177/208/182 162/202/182
f 171/186/183 186/211/183 185/209/183 170/187/183
f 164/188/184 179/212/184 178/210/184 163/189/184
f 172/190/185 187/213/185 186/211/185 171/186/185
f 165/191/186 180/214/186 179/212/186 164/188/186
f 158/192/187 173/215/187 82/216/187
f 308/217/188 187/213/188 172/190/188
f 166/195/189 181/218/189 180/214/189 165/191/189
f 159/196/190 174/219/190 173/215/190 158/192/190
f 167/197/191 182/204/191 181/218/191 166/195/191
f 160/198/192 175/206/192 174/219/192 159/196/192
f 187/213/193 202/220/193 201/221/193 186/211/193
f 180/214/194 195/222/194 194/223/194 179/212/194
f 173/215/195 188/224/195 82/225/195
f 308/226/196 202/220/196 187/213/196
f 181/218/197 196/227/197 195/222/197 180/214/197
f 174/219/198 189/228/198 188/224/198 173/215/198
f 182/204/199 197/229/199 196/227/199 181/218/199
f 175/206/200 190/230/200 189/228/200 174/219/200
f 183/203/201 198/231/201 197/229/201 182/204/201
f 176/205/202 191/232/202 190/230/202 175/206/202
f 184/207/203 199/233/203 198/231/203 183/203/203
f 177/208/204 192/234/204 191/232/204 176/205/204
f 185/209/205 200/235/205 199/233/205 184/207/205
f 178/210/206 193/236/206 192/234/206 177/208/206
f 186/211/207 201/221/207 200/235/207 185/209/207
f 179/212/208 194/223/208 193/236/208 178/210/208
f 191/232/209 206/237/209 205/238/209 190/230/209
f 199/233/210 214/239/210 213/240/210 198/231/210
f 192/234/211 207/241/211 206/237/211 191/232/211
f 200/235/212 215/242/212 214/239/212 199/233/212
f 193/236/213 208/243/213 207/241/213 192/234/213
f 201/221/214 216/244/214 215/242/214 200/235/214
f 194/223/215 209/245/215 208/243/215 193/236/215
f 202/220/216 217/246/216 216/244/216 201/221/216
f 195/222/217 210/247/217 209/245/217 194/223/217
f 188/224/218 203/248/218 82/249/218
f 308/250/219 217/246/219 202/220/219
f 196/227/220 211/251/220 210/247/220 195/222/220
f 189/228/221 204/252/221 203/248/221 188/224/221
f 197/229/222 212/253/222 211/251/222 196/227/222
f 190/230/223 205/238/223 204/252/223 189/228/223
f 198/231/224 213/240/224 212/253/224 197/229/224
f 210/247/225 225/254/225 224/255/225 209/245/225
f 203/248/226 218/256/226 82/257/226
f 308/258/227 232/259/227 217/246/227
f 211/251/228 226/260/228 225/254/228 210/247/228
f 204/252/229 219/261/229 218/256/229 203/248/229
f 212/253/230 227/262/230 226/260/230 211/251/230
f 205/238/231 220/263/231 219/261/231 204/252/231
f 213/240/232 228/264/232 227/262/232 212/253/232
f 206/237/233 221/265/233 220/263/233 205/238/233
f 214/239/234 229/266/234 228/264/234 213/240/234
f 207/241/235 222/267/235 221/265/235 206/237/235
f 215/242/236 230/268/236 229/266/236 214/239/236
f 208/243/237 223/269/237 222/267/237 207/241/237
f 216/244/238 231/270/238 230/268/238 215/242/238
f 209/245/239 224/255/239 223/269/239 208/243/239
f 217/246/240 232/259/240 231/270/240 216/244/240
f 229/266/241 244/271/241 243/272/241 228/264/241
f 222/267/242 237/273/242 236/274/242 221/265/242
f 230/268/243 245/275/243 244/271/243 229/266/243
f 223/269/244 238/276/244 237/273/244 222/267/244
f 231/270/245 246/277/245 245/275/245 230/268/245
f 224/255/246 239/278/246 238/276/246 223/269/246
f 232/259/247 247/279/247 246/277/247 231/270/247
f 225/254/248 240/280/248 239/278/248 224/255/248
f 218/256/249 233/281/249 82/282/249
f 308/283/250 247/279/250 232/259/250
f 226/260/251 241/284/251 240/280/251 225/254/251
f 219/261/252 234/285/252 233/281/252 218/256/252
f 227/262/253 242/286/253 241/284/253 226/260/253
f 220/263/254 235/287/254 234/285/254 219/261/254
f 228/264/255 243/272/255 242/286/255 227/262/255
f 221/265/256 236/274/256 235/287/256 220/263/256
f 233/281/257 248/288/257 82/289/257
f 308/290/258 262/291/258 247/279/258
f 241/284/259 256/292/259 255/293/259 240/280/259
f 234/285/260 249/294/260 248/288/260 233/281/260
f 242/286/261 257/295/261 256/292/261 241/284/261
f 235/287/262 250/296/262 249/294/262 234/285/262
f 243/272/263 258/297/263 257/295/263 242/286/263
f 236/274/264 251/298/264 250/296/264 235/287/264
f 244/271/265 259/299/265 258/297/265 243/272/265
f 237/273/266 252/300/266 251/298/266 236/274/266
f 245/275/267 260/301/267 259/299/267 244/271/267
f 238/276/268 253/302/268 252/300/268 237/273/268
f 246/277/269 261/303/269 260/301/269 245/275/269
f 239/278/270 254/304/270 253/302/270 238/276/270
f 247/279/271 262/291/271 261/303/271 246/277/271
f 240/280/272 255/293/272 254/304/272 239/278/272
f 252/300/273 267/305/273 266/306/273 251/298/273
f 260/301/274 275/307/274 274/308/274 259/299/274
f 253/302/275 268/309/275 267/305/275 252/300/275
f 261/303/276 276/310/276 275/307/276 260/301/276
f 254/304/277 269/311/277 268/309/277 253/302/277
f 262/291/278 277/312/278 276/310/278 261/303/278
f 255/293/279 270/313/279 269/311/279 254/304/279
f 248/288/280 263/314/280 82/315/280
f 308/316/281 277/312/281 262/291/281
f 256/292/282 271/317/282 270/313/282 255/293/282
f 249/294/283 264/318/283 263/314/283 248/288/283
f 257/295/284 272/319/284 271/317/284 256/292/284
f 250/296/285 265/320/285 264/318/285 249/294/285
f 258/297/286 273/321/286 272/319/286 257/295/286
f 251/298/287 266/306/287 265/320/287 250/296/287
f 259/299/288 274/308/288 273/321/288 258/297/288
f 271/317/289 286/322/289 285/323/289 270/313/289
f 264/318/290 279/324/290 278/325/290 263/314/290
f 272/319/291 287/326/291 286/322/291 271/317/291
f 265/320/292 280/327/292 279/324/292 264/318/292
f 273/321/293 288/328/293 287/326/293 272/319/293
f 266/306/294 281/329/294 280/327/294 265/320/294
f 274/308/295 289/330/295 288/328/295 273/321/295
f 267/305/296 282/331/296 281/329/296 266/306/296
f 275/307/297 290/332/297 289/330/297 274/308/297
f 268/309/298 283/333/298 282/331/298 267/305/298
f 276/310/299 291/334/299 290/332/299 275/307/299
f 269/311/300 284/335/300 283/333/300 268/309/300
f 277/312/301 292/336/301 291/334/301 276/310/301
f 270/313/302 285/323/302 284/335/302 269/311/302
f 263/314/303 278/325/303 82/337/303
f 308/338/304 292/336/304 277/312/304
f 290/332/305 305/339/305 304/340/305 289/330/305
f 283/333/306 298/341/306 297/342/306 282/331/306
f 291/334/307 306/343/307 305/339/307 290/332/307
f 284/335/308 299/344/308 298/341/308 283/333/308
f 292/336/309 307/345/309 306/343/309 291/334/309
f 285/323/310 300/346/310 299/344/310 284/335/310
f 278/325/311 293/347/311 82/348/311
f 308/349/312 307/345/312 292/336/312
f 286/322/313 301/350/313 300/346/313 285/323/313
f 279/324/314 294/351/314 293/347/314 278/325/314
f 287/326/315 302/352/315 301/350/315 286/322/315
f 280/327/316 295/353/316 294/351/316 279/324/316
f 288/328/317 303/354/317 302/352/317 287/326/317
f 281/329/318 296/355/318 295/353/318 280/327/318
f 289/330/319 304/340/319 303/354/319 288/328/319
f 282/331/320 297/342/320 296/355/320 281/329/320
f 302/352/321 318/356/321 317/357/321 301/350/321
f 295/353/322 311/358/322 310/359/322 294/351/322
f 303/354/323 319/360/323 318/356/323 302/352/323
f 296/355/324 312/361/324 311/358/324 295/353/324
f 304/340/325 320/362/325 319/360/325 303/354/325
f 297/342/326 313/363/326 312/361/326 296/355/326
f 305/339/327 321/364/327 320/362/327 304/340/327
f 298/341/328 314/365/328 313/363/328 297/342/328
f 306/343/329 322/366/329 321/364/329 305/339/329
f 299/344/330 315/367/330 314/365/330 298/341/330
f 307/345/331 323/368/331 322/366/331 306/343/331
f 300/346/332 316/369/332 315/367/332 299/344/332
f 293/347/333 309/370/333 82/371/333
f 308/372/334 323/368/334 307/345/334
f 301/350/335 317/357/335 316/369/335 300/346/335
f 294/351/336 310/359/336 309/370/336 293/347/336
f 322/366/337 337/373/337 336/374/337 321/364/337
f 315/367/338 330/375/338 329/376/338 314/365/338
f 323/368/339 338/377/339 337/373/339 322/366/339
f 316/369/340 331/378/340 330/375/340 315/367/340
f 309/370/341 324/379/341 82/380/341
f 308/381/342 338/377/342 323/368/342
f 317/357/343 332/382/343 331/378/343 316/369/343
f 310/359/344 325/383/344 324/379/344 309/370/344
f 318/356/345 333/384/345 332/382/345 317/357/345
f 311/358/346 326/385/346 325/383/346 310/359/346
f 319/360/347 334/386/347 333/384/347 318/356/347
f 312/361/348 327/387/348 326/385/348 311/358/348
f 320/362/349 335/388/349 334/386/349 319/360/349
f 313/363/350 328/389/350 327/387/350 312/361/350
f 321/364/351 336/374/351 335/388/351 320/362/351
f 314/365/352 329/376/352 328/389/352 313/363/352
f 326/385/353 341/390/353 340/391/353 325/383/353
f 334/386/354 349/392/354 348/393/354 333/384/354
f 327/387/355 342/394/355 341/390/355 326/385/355
f 335/388/356 350/395/356 349/392/356 334/386/356
f 328/389/357 343/396/357 342/394/357 327/387/357
f 336/374/358 351/397/358 350/395/358 335/388/358
f 329/376/359 344/398/359 343/396/359 328/389/359
f 337/373/360 352/399/360 351/397/360 336/374/360
f 330/375/361 345/400/361 344/398/361 329/376/361
f 338/377/362 353/401/362 352/399/362 337/373/362
f 331/378/363 346/402/363 345/400/363 330/375/363
f 324/379/364 339/403/364 82/404/364
f 308/405/365 353/401/365 338/377/365
f 332/382/366 347/406/366 346/402/366 331/378/366
f 325/383/367 340/391/367 339/403/367 324/379/367
f 333/384/368 348/393/368 347/406/368 332/382/368
f 345/400/369 360/407/369 359/408/369 344/398/369
f 353/401/370 368/409/370 367/410/370 352/399/370
f 346/402/371 361/411/371 360/407/371 345/400/371
f 339/403/372 354/412/372 82/413/372
f 308/414/373 368/409/373 353/401/373
f 347/406/374 362/415/374 361/411/374 346/402/374
f 340/391/375 355/416/375 354/412/375 339/403/375
f 348/393/376 363/417/376 362/415/376 347/406/376
f 341/390/377 356/418/377 355/416/377 340/391/377
f 349/392/378 364/419/378 363/417/378 348/393/378
f 342/394/379 357/420/379 356/418/379 341/390/379
f 350/395/380 365/421/380 364/419/380 349/392/380
f 343/396/381 358/422/381 357/420/381 342/394/381
f 351/397/382 366/423/382 365/421/382 350/395/382
f 344/398/383 359/408/383 358/422/383 343/396/383
f 352/399/384 367/410/384 366/423/384 351/397/384
f 364/424/385 379/425/385 378/426/385 363/427/385
f 357/428/386 372/429/386 371/430/386 356/431/386
f 365/432/387 380/433/387 379/425/387 364/424/387
f 358/434/388 373/435/388 372/429/388 357/428/388
f 366/436/389 381/437/389 380/433/389 365/432/389
f 359/438/390 374/439/390 373/435/390 358/434/390
f 367/440/391 382/441/391 381/437/391 366/436/391
f 360/442/392 375/443/392 374/439/392 359/438/392
f 368/444/393 383/445/393 382/441/393 367/440/393
f 361/446/394 376/447/394 375/443/394 360/442/394
f 354/448/395 369/449/395 82/450/395
f 308/451/396 383/445/396 368/444/396
f 362/452/397 377/453/397 376/447/397 361/446/397
f 355/454/398 370/455/398 369/449/398 354/448/398
f 363/427/399 378/426/399 377/453/399 362/452/399
f 356/431/400 371/430/400 370/455/400 355/454/400
f 383/445/401 398/456/401 397/457/401 382/441/401
f 376/447/402 391/458/402 390/459/402 375/443/402
f 369/449/403 384/460/403 82/461/403
f 308/462/404 398/456/404 383/445/404
f 377/453/405 392/463/405 391/458/405 376/447/405
f 370/455/406 385/464/406 384/460/406 369/449/406
f 378/426/407 393/465/407 392/463/407 377/453/407
f 371/430/408 386/466/408 385/464/408 370/455/408
f 379/425/409 394/467/409 393/465/409 378/426/409
f 372/429/410 387/468/410 386/466/410 371/430/410
f 380/433/411 395/469/411 394/467/411 379/425/411
f 373/435/412 388/470/412 387/468/412 372/429/412
f 381/437/413 396/471/413 395/469/413 380/433/413
f 374/439/414 389/472/414 388/470/414 373/435/414
f 382/441/415 397/457/415 396/471/415 381/437/415
f 375/443/416 390/459/416 389/472/416 374/439/416
f 387/468/417 402/473/417 401/474/417 386/466/417
f 395/469/418 410/475/418 409/476/418 394/467/418
f 388/470/419 403/477/419 402/473/419 387/468/419
f 396/471/420 411/478/420 410/475/420 395/469/420
f 389/472/421 404/479/421 403/477/421 388/470/421
f 397/457/422 412/480/422 411/478/422 396/471/422
f 390/459/423 405/481/423 404/479/423 389/472/423
f 398/456/424 413/482/424 412/480/424 397/457/424
f 391/458/425 406/483/425 405/481/425 390/459/425
f 384/460/426 399/484/426 82/485/426
f 308/486/427 413/482/427 398/456/427
f 392/463/428 407/487/428 406/483/428 391/458/428
f 385/464/429 400/488/429 399/484/429 384/460/429
f 393/465/430 408/489/430 407/487/430 392/463/430
f 386/466/431 401/474/431 400/488/431 385/464/431
f 394/467/432 409/476/432 408/489/432 393/465/432
f 406/483/433 421/490/433 420/491/433 405/481/433
f 399/484/434 414/492/434 82/493/434
f 308/494/435 428/495/435 413/482/435
f 407/487/436 422/496/436 421/490/436 406/483/436
f 400/488/437 415/497/437 414/492/437 399/484/437
f 408/489/438 423/498/438 422/496/438 407/487/438
f 401/474/439 416/499/439 415/497/439 400/488/439
f 409/476/440 424/500/440 423/498/440 408/489/440
f 402/473/441 417/501/441 416/499/441 401/474/441
f 410/475/442 425/502/442 424/500/442 409/476/442
f 403/477/443 418/503/443 417/501/443 402/473/443
f 411/478/444 426/504/444 425/502/444 410/475/444
f 404/479/445 419/505/445 418/503/445 403/477/445
f 412/480/446 427/506/446 426/504/446 411/478/446
f 405/481/447 420/491/447 419/505/447 404/479/447
f 413/482/448 428/495/448 427/506/448 412/480/448
f 425/502/449 440/507/449 439/508/449 424/500/449
f 418/503/450 433/509/450 432/510/450 417/501/450
f 426/504/451 441/511/451 440/507/451 425/502/451
f 419/505/452 434/512/452 433/509/452 418/503/452
f 427/506/453 442/513/453 441/511/453 426/504/453
f 420/491/454 435/514/454 434/512/454 419/505/454
f 428/495/455 443/515/455 442/513/455 427/506/455
f 421/490/456 436/516/456 435/514/456 420/491/456
f 414/492/457 429/517/457 82/518/457
f 308/519/458 443/515/458 428/495/458
f 422/496/459 437/520/459 436/516/459 421/490/459
f 415/497/460 430/521/460 429/517/460 414/492/460
f 423/498/461 438/522/461 437/520/461 422/496/461
f 416/499/462 431/523/462 430/521/462 415/497/462
f 424/500/463 439/508/463 438/522/463 423/498/463
f 417/501/464 432/510/464 431/523/464 416/499/464
f 308/524/465 458/525/465 443/515/465
f 437/520/466 452/526/466 451/527/466 436/516/466
f 430/521/467 445/528/467 444/529/467 429/517/467
f 438/522/468 453/530/468 452/526/468 437/520/468
f 431/523/469 446/531/469 445/528/469 430/521/469
f 439/508/470 454/532/470 453/530/470 438/522/470
f 432/510/471 447/533/471 446/531/471 431/523/471
f 440/507/472 455/534/472 454/532/472 439/508/472
f 433/509/473 448/535/473 447/533/473 432/510/473
f 441/511/474 456/536/474 455/534/474 440/507/474
f 434/512/475 449/537/475 448/535/475 433/509/475
f 442/513/476 457/538/476 456/536/476 441/511/476
f 435/514/477 450/539/477 449/537/477 434/512/477
f 443/515/478 458/525/478 457/538/478 442/513/478
f 436/516/479 451/527/479 450/539/479 435/514/479
f 429/517/480 444/529/480 82/540/480
f 456/536/481 471/541/481 470/542/481 455/534/481
f 449/537/482 464/543/482 463/544/482 448/535/482
f 457/538/483 472/545/483 471/541/483 456/536/483
f 450/539/484 465/546/484 464/543/484 449/537/484
f 458/525/485 473/547/485 472/545/485 457/538/485
f 451/527/486 466/548/486 465/546/486 450/539/486
f 444/529/487 459/549/487 82/550/487
f 308/551/488 473/547/488 458/525/488
f 452/526/489 467/552/489 466/548/489 451/527/489
f 445/528/490 460/553/490 459/549/490 444/529/490
f 453/530/491 468/554/491 467/552/491 452/526/491
f 446/531/492 461/555/492 460/553/492 445/528/492
f 454/532/493 469/556/493 468/554/493 453/530/493
f 447/533/494 462/557/494 461/555/494 446/531/494
f 455/534/495 470/542/495 469/556/495 454/532/495
f 448/535/496 463/544/496 462/557/496 447/533/496
f 460/553/497 475/5/497 474/8/497 459/549/497
f 468/554/498 478/9/498 5/1/498 467/552/498
f 461/555/499 1/11/499 475/5/499 460/553/499
f 469/556/500 6/13/500 478/9/500 468/554/500
f 462/557/501 476/15/501 1/11/501 461/555/501
f 470/542/502 479/17/502 6/13/502 469/556/502
f 463/544/503 2/19/503 476/15/503 462/557/503
f 471/541/504 480/21/504 479/17/504 470/542/504
f 464/543/505 477/23/505 2/19/505 463/544/505
f 472/545/506 481/25/506 480/21/506 471/541/506
f 465/546/507 3/27/507 477/23/507 464/543/507
f 473/547/508 482/29/508 481/25/508 472/545/508
f 466/548/509 4/4/509 3/27/509 465/546/509
f 459/549/510 474/8/510 82/558/510
f 308/559/511 482/29/511 473/547/511
f 467/552/512 5/1/512 4/4/512 466/548/512
