# Blender 5.2.0 LTS
# www.blender.org
mtllib sphere.mtl
o Sphere
v 0.000000 1.000000 0.000000
v 0.000000 0.831470 -0.555570
v 0.000000 0.555570 -0.831470
v 0.000000 0.195090 -0.980785
v 0.000000 0.000000 -1.000000
v 0.000000 -0.195090 -0.980785
v 0.000000 -0.555570 -0.831470
v 0.000000 -1.000000 0.000000
v 0.038060 0.980785 -0.191342
v 0.074658 0.923880 -0.375330
v 0.108386 0.831470 -0.544895
v 0.137950 0.707107 -0.693520
v 0.162212 0.555570 -0.815493
v 0.180240 0.382683 -0.906127
v 0.191342 0.195090 -0.961940
v 0.195090 0.000000 -0.980785
v 0.191342 -0.195090 -0.961940
v 0.180240 -0.382683 -0.906127
v 0.162212 -0.555570 -0.815493
v 0.137950 -0.707107 -0.693520
v 0.108386 -0.831470 -0.544895
v 0.074658 -0.923880 -0.375330
v 0.038060 -0.980785 -0.191342
v 0.074658 0.980785 -0.180240
v 0.146447 0.923880 -0.353553
v 0.212608 0.831470 -0.513280
v 0.270598 0.707107 -0.653281
v 0.318190 0.555570 -0.768178
v 0.353553 0.382683 -0.853553
v 0.375330 0.195090 -0.906127
v 0.382683 0.000000 -0.923879
v 0.375330 -0.195090 -0.906127
v 0.353553 -0.382683 -0.853553
v 0.318190 -0.555570 -0.768178
v 0.270598 -0.707107 -0.653281
v 0.212608 -0.831470 -0.513280
v 0.146447 -0.923880 -0.353553
v 0.074658 -0.980785 -0.180240
v 0.108386 0.980785 -0.162212
v 0.212608 0.923880 -0.318190
v 0.308658 0.831470 -0.461940
v 0.392847 0.707107 -0.587938
v 0.461940 0.555570 -0.691342
v 0.513280 0.382683 -0.768178
v 0.544895 0.195090 -0.815493
v 0.555570 0.000000 -0.831469
v 0.544895 -0.195090 -0.815493
v 0.513280 -0.382683 -0.768178
v 0.461940 -0.555570 -0.691342
v 0.392847 -0.707107 -0.587938
v 0.308658 -0.831470 -0.461940
v 0.212608 -0.923880 -0.318190
v 0.108386 -0.980785 -0.162212
v 0.137950 0.980785 -0.137950
v 0.270598 0.923880 -0.270598
v 0.392847 0.831470 -0.392847
v 0.500000 0.707107 -0.500000
v 0.587938 0.555570 -0.587938
v 0.653281 0.382683 -0.653281
v 0.693520 0.195090 -0.693520
v 0.707107 0.000000 -0.707107
v 0.693520 -0.195090 -0.693520
v 0.653281 -0.382683 -0.653281
v 0.587938 -0.555570 -0.587938
v 0.500000 -0.707107 -0.500000
v 0.392847 -0.831470 -0.392847
v 0.270598 -0.923880 -0.270598
v 0.137950 -0.980785 -0.137950
v 0.162212 0.980785 -0.108386
v 0.318190 0.923880 -0.212608
v 0.461940 0.831470 -0.308658
v 0.587938 0.707107 -0.392847
v 0.691342 0.555570 -0.461940
v 0.768178 0.382683 -0.513280
v 0.815493 0.195090 -0.544895
v 0.831470 0.000000 -0.555570
v 0.815493 -0.195090 -0.544895
v 0.768178 -0.382683 -0.513280
v 0.691342 -0.555570 -0.461940
v 0.587938 -0.707107 -0.392847
v 0.461940 -0.831470 -0.308658
v 0.318190 -0.923880 -0.212608
v 0.162212 -0.980785 -0.108386
v 0.180240 0.980785 -0.074658
v 0.353553 0.923880 -0.146447
v 0.513280 0.831470 -0.212607
v 0.653281 0.707107 -0.270598
v 0.768178 0.555570 -0.318190
v 0.853553 0.382683 -0.353553
v 0.906127 0.195090 -0.375330
v 0.923879 0.000000 -0.382683
v 0.906127 -0.195090 -0.375330
v 0.853553 -0.382683 -0.353553
v 0.768178 -0.555570 -0.318190
v 0.653281 -0.707107 -0.270598
v 0.513280 -0.831470 -0.212607
v 0.353553 -0.923880 -0.146447
v 0.180240 -0.980785 -0.074658
v 0.191342 0.980785 -0.038060
v 0.375330 0.923880 -0.074658
v 0.544895 0.831470 -0.108386
v 0.693520 0.707107 -0.137950
v 0.815493 0.555570 -0.162212
v 0.906127 0.382683 -0.180240
v 0.961940 0.195090 -0.191342
v 0.980785 0.000000 -0.195090
v 0.961940 -0.195090 -0.191342
v 0.906127 -0.382683 -0.180240
v 0.815493 -0.555570 -0.162212
v 0.693520 -0.707107 -0.137950
v 0.544895 -0.831470 -0.108386
v 0.375330 -0.923880 -0.074658
v 0.191342 -0.980785 -0.038060
v 0.195090 0.980785 0.000000
v 0.382683 0.923880 0.000000
v 0.555570 0.831470 0.000000
v 0.707107 0.707107 -0.000000
v 0.831469 0.555570 0.000000
v 0.923879 0.382683 -0.000000
v 0.980785 0.195090 0.000000
v 1.000000 0.000000 0.000000
v 0.980785 -0.195090 0.000000
v 0.923879 -0.382683 -0.000000
v 0.831469 -0.555570 0.000000
v 0.707107 -0.707107 -0.000000
v 0.555570 -0.831470 0.000000
v 0.382683 -0.923880 0.000000
v 0.195090 -0.980785 0.000000
v 0.191342 0.980785 0.038060
v 0.375330 0.923880 0.074658
v 0.544895 0.831470 0.108386
v 0.693520 0.707107 0.137950
v 0.815493 0.555570 0.162212
v 0.906127 0.382683 0.180240
v 0.961940 0.195090 0.191342
v 0.980785 0.000000 0.195090
v 0.961940 -0.195090 0.191342
v 0.906127 -0.382683 0.180240
v 0.815493 -0.555570 0.162212
v 0.693520 -0.707107 0.137950
v 0.544895 -0.831470 0.108386
v 0.375330 -0.923880 0.074658
v 0.191342 -0.980785 0.038060
v 0.180240 0.980785 0.074658
v 0.353553 0.923880 0.146447
v 0.513280 0.831470 0.212608
v 0.653281 0.707107 0.270598
v 0.768178 0.555570 0.318190
v 0.853553 0.382683 0.353553
v 0.906127 0.195090 0.375330
v 0.923879 0.000000 0.382683
v 0.906127 -0.195090 0.375330
v 0.853553 -0.382683 0.353553
v 0.768178 -0.555570 0.318190
v 0.653281 -0.707107 0.270598
v 0.513280 -0.831470 0.212608
v 0.353553 -0.923880 0.146447
v 0.180240 -0.980785 0.074658
v 0.162212 0.980785 0.108386
v 0.318190 0.923880 0.212608
v 0.461940 0.831470 0.308658
v 0.587938 0.707107 0.392847
v 0.691341 0.555570 0.461940
v 0.768178 0.382683 0.513280
v 0.815493 0.195090 0.544895
v 0.831469 0.000000 0.555570
v 0.815493 -0.195090 0.544895
v 0.768178 -0.382683 0.513280
v 0.691341 -0.555570 0.461940
v 0.587938 -0.707107 0.392847
v 0.461940 -0.831470 0.308658
v 0.318190 -0.923880 0.212608
v 0.162212 -0.980785 0.108386
v 0.137950 0.980785 0.137950
v 0.270598 0.923880 0.270598
v 0.392847 0.831470 0.392847
v 0.500000 0.707107 0.500000
v 0.587938 0.555570 0.587938
v 0.653281 0.382683 0.653281
v 0.693520 0.195090 0.693520
v 0.707106 0.000000 0.707107
v 0.693520 -0.195090 0.693520
v 0.653281 -0.382683 0.653281
v 0.587938 -0.555570 0.587938
v 0.500000 -0.707107 0.500000
v 0.392847 -0.831470 0.392847
v 0.270598 -0.923880 0.270598
v 0.137950 -0.980785 0.137950
v 0.108386 0.980785 0.162212
v 0.212607 0.923880 0.318190
v 0.308658 0.831470 0.461940
v 0.392847 0.707107 0.587938
v 0.461940 0.555570 0.691342
v 0.513280 0.382683 0.768178
v 0.544895 0.195090 0.815493
v 0.555570 0.000000 0.831469
v 0.544895 -0.195090 0.815493
v 0.513280 -0.382683 0.768178
v 0.461940 -0.555570 0.691342
v 0.392847 -0.707107 0.587938
v 0.308658 -0.831470 0.461940
v 0.212607 -0.923880 0.318190
v 0.108386 -0.980785 0.162212
v 0.074658 0.980785 0.180240
v 0.146447 0.923880 0.353553
v 0.212607 0.831470 0.513280
v 0.270598 0.707107 0.653281
v 0.318189 0.555570 0.768178
v 0.353553 0.382683 0.853553
v 0.375330 0.195090 0.906127
v 0.382683 0.000000 0.923879
v 0.375330 -0.195090 0.906127
v 0.353553 -0.382683 0.853553
v 0.318189 -0.555570 0.768178
v 0.270598 -0.707107 0.653281
v 0.212607 -0.831470 0.513280
v 0.146447 -0.923880 0.353553
v 0.074658 -0.980785 0.180240
v 0.038060 0.980785 0.191342
v 0.074658 0.923880 0.375330
v 0.108386 0.831470 0.544895
v 0.137950 0.707107 0.693520
v 0.162212 0.555570 0.815493
v 0.180240 0.382683 0.906127
v 0.191342 0.195090 0.961939
v 0.195090 0.000000 0.980785
v 0.191342 -0.195090 0.961939
v 0.180240 -0.382683 0.906127
v 0.162212 -0.555570 0.815493
v 0.137950 -0.707107 0.693520
v 0.108386 -0.831470 0.544895
v 0.074658 -0.923880 0.375330
v 0.038060 -0.980785 0.191342
v -0.000000 0.980785 0.195090
v -0.000000 0.923880 0.382683
v -0.000000 0.831470 0.555570
v -0.000000 0.707107 0.707107
v -0.000000 0.555570 0.831469
v 0.000000 0.382683 0.923879
v -0.000000 0.195090 0.980785
v -0.000000 0.000000 0.999999
v -0.000000 -0.195090 0.980785
v 0.000000 -0.382683 0.923879
v -0.000000 -0.555570 0.831469
v -0.000000 -0.707107 0.707107
v -0.000000 -0.831470 0.555570
v -0.000000 -0.923880 0.382683
v -0.000000 -0.980785 0.195090
v -0.038060 0.980785 0.191342
v -0.074658 0.923880 0.375330
v -0.108386 0.831470 0.544895
v -0.137950 0.707107 0.693520
v -0.162212 0.555570 0.815493
v -0.180240 0.382683 0.906127
v -0.191342 0.195090 0.961939
v -0.195091 0.000000 0.980785
v -0.191342 -0.195090 0.961939
v -0.180240 -0.382683 0.906127
v -0.162212 -0.555570 0.815493
v -0.137950 -0.707107 0.693520
v -0.108386 -0.831470 0.544895
v -0.074658 -0.923880 0.375330
v -0.038060 -0.980785 0.191342
v -0.074658 0.980785 0.180240
v -0.146447 0.923880 0.353553
v -0.212608 0.831470 0.513280
v -0.270598 0.707107 0.653281
v -0.318190 0.555570 0.768177
v -0.353553 0.382683 0.853553
v -0.375330 0.195090 0.906127
v -0.382683 0.000000 0.923879
v -0.375330 -0.195090 0.906127
v -0.353553 -0.382683 0.853553
v -0.318190 -0.555570 0.768177
v -0.270598 -0.707107 0.653281
v -0.212608 -0.831470 0.513280
v -0.146447 -0.923880 0.353553
v -0.074658 -0.980785 0.180240
v -0.108386 0.980785 0.162212
v -0.212608 0.923880 0.318190
v -0.308658 0.831470 0.461939
v -0.392847 0.707107 0.587938
v -0.461940 0.555570 0.691341
v -0.513280 0.382683 0.768178
v -0.544895 0.195090 0.815493
v -0.555570 0.000000 0.831469
v -0.544895 -0.195090 0.815493
v -0.513280 -0.382683 0.768178
v -0.461940 -0.555570 0.691341
v -0.392847 -0.707107 0.587938
v -0.308658 -0.831470 0.461939
v -0.212608 -0.923880 0.318190
v -0.108386 -0.980785 0.162212
v -0.137950 0.980785 0.137950
v -0.270598 0.923880 0.270598
v -0.392847 0.831470 0.392847
v -0.500000 0.707107 0.500000
v -0.587938 0.555570 0.587937
v -0.653281 0.382683 0.653281
v -0.693520 0.195090 0.693520
v -0.707106 0.000000 0.707106
v -0.693520 -0.195090 0.693520
v -0.653281 -0.382683 0.653281
v -0.587938 -0.555570 0.587937
v -0.500000 -0.707107 0.500000
v -0.392847 -0.831470 0.392847
v -0.270598 -0.923880 0.270598
v -0.137950 -0.980785 0.137950
v -0.162212 0.980785 0.108386
v -0.318190 0.923880 0.212607
v -0.461940 0.831470 0.308658
v -0.587938 0.707107 0.392847
v -0.691341 0.555570 0.461939
v -0.768177 0.382683 0.513280
v -0.815493 0.195090 0.544895
v -0.831469 0.000000 0.555569
v -0.815493 -0.195090 0.544895
v -0.768177 -0.382683 0.513280
v -0.691341 -0.555570 0.461939
v -0.587938 -0.707107 0.392847
v -0.461940 -0.831470 0.308658
v -0.318190 -0.923880 0.212607
v -0.162212 -0.980785 0.108386
v -0.180240 0.980785 0.074658
v -0.353553 0.923880 0.146447
v -0.513280 0.831470 0.212607
v -0.653281 0.707107 0.270598
v -0.768177 0.555570 0.318189
v -0.853553 0.382683 0.353553
v -0.906127 0.195090 0.375330
v -0.923879 0.000000 0.382683
v -0.906127 -0.195090 0.375330
v -0.853553 -0.382683 0.353553
v -0.768177 -0.555570 0.318189
v -0.653281 -0.707107 0.270598
v -0.513280 -0.831470 0.212607
v -0.353553 -0.923880 0.146447
v -0.180240 -0.980785 0.074658
v -0.191342 0.980785 0.038060
v -0.375330 0.923880 0.074658
v -0.544895 0.831470 0.108386
v -0.693520 0.707107 0.137950
v -0.815493 0.555570 0.162211
v -0.906127 0.382683 0.180240
v -0.961939 0.195090 0.191341
v -0.980784 0.000000 0.195090
v -0.961939 -0.195090 0.191341
v -0.906127 -0.382683 0.180240
v -0.815493 -0.555570 0.162211
v -0.693520 -0.707107 0.137950
v -0.544895 -0.831470 0.108386
v -0.375330 -0.923880 0.074658
v -0.191342 -0.980785 0.038060
v -0.195090 0.980785 -0.000000
v -0.382683 0.923880 -0.000000
v -0.555570 0.831470 -0.000000
v -0.707107 0.707107 -0.000000
v -0.831469 0.555570 -0.000000
v -0.923879 0.382683 -0.000000
v -0.980785 0.195090 -0.000000
v -0.999999 0.000000 -0.000000
v -0.980785 -0.195090 -0.000000
v -0.923879 -0.382683 -0.000000
v -0.831469 -0.555570 -0.000000
v -0.707107 -0.707107 -0.000000
v -0.555570 -0.831470 -0.000000
v -0.382683 -0.923880 -0.000000
v -0.195090 -0.980785 -0.000000
v -0.191342 0.980785 -0.038060
v -0.375330 0.923880 -0.074658
v -0.544895 0.831470 -0.108386
v -0.693520 0.707107 -0.137950
v -0.815493 0.555570 -0.162212
v -0.906127 0.382683 -0.180240
v -0.961939 0.195090 -0.191342
v -0.980784 0.000000 -0.195091
v -0.961939 -0.195090 -0.191342
v -0.906127 -0.382683 -0.180240
v -0.815493 -0.555570 -0.162212
v -0.693520 -0.707107 -0.137950
v -0.544895 -0.831470 -0.108386
v -0.375330 -0.923880 -0.074658
v -0.191342 -0.980785 -0.038060
v -0.180240 0.980785 -0.074658
v -0.353553 0.923880 -0.146447
v -0.513279 0.831470 -0.212607
v -0.653281 0.707107 -0.270598
v -0.768177 0.555570 -0.318190
v -0.853553 0.382683 -0.353553
v -0.906127 0.195090 -0.375330
v -0.923878 0.000000 -0.382683
v -0.906127 -0.195090 -0.375330
v -0.853553 -0.382683 -0.353553
v -0.768177 -0.555570 -0.318190
v -0.653281 -0.707107 -0.270598
v -0.513279 -0.831470 -0.212607
v -0.353553 -0.923880 -0.146447
v -0.180240 -0.980785 -0.074658
v -0.162212 0.980785 -0.108386
v -0.318189 0.923880 -0.212607
v -0.461939 0.831470 -0.308658
v -0.587938 0.707107 -0.392847
v -0.691341 0.555570 -0.461940
v -0.768177 0.382683 -0.513280
v -0.815493 0.195090 -0.544895
v -0.831468 0.000000 -0.555570
v -0.815493 -0.195090 -0.544895
v -0.768177 -0.382683 -0.513280
v -0.691341 -0.555570 -0.461940
v -0.587938 -0.707107 -0.392847
v -0.461939 -0.831470 -0.308658
v -0.318189 -0.923880 -0.212607
v -0.162212 -0.980785 -0.108386
v -0.137950 0.980785 -0.137950
v -0.270598 0.923880 -0.270598
v -0.392847 0.831470 -0.392847
v -0.500000 0.707107 -0.500000
v -0.587937 0.555570 -0.587938
v -0.653281 0.382683 -0.653281
v -0.693519 0.195090 -0.693520
v -0.707106 0.000000 -0.707106
v -0.693519 -0.195090 -0.693520
v -0.653281 -0.382683 -0.653281
v -0.587937 -0.555570 -0.587938
v -0.500000 -0.707107 -0.500000
v -0.392847 -0.831470 -0.392847
v -0.270598 -0.923880 -0.270598
v -0.137950 -0.980785 -0.137950
v -0.108386 0.980785 -0.162212
v -0.212607 0.923880 -0.318190
v -0.308658 0.831470 -0.461939
v -0.392847 0.707107 -0.587938
v -0.461939 0.555570 -0.691341
v -0.513280 0.382683 -0.768177
v -0.544895 0.195090 -0.815493
v -0.555569 0.000000 -0.831469
v -0.544895 -0.195090 -0.815493
v -0.513280 -0.382683 -0.768177
v -0.461939 -0.555570 -0.691341
v -0.392847 -0.707107 -0.587938
v -0.308658 -0.831470 -0.461939
v -0.212607 -0.923880 -0.318190
v -0.108386 -0.980785 -0.162212
v -0.074658 0.980785 -0.180240
v -0.146446 0.923880 -0.353553
v -0.212607 0.831470 -0.513279
v -0.270598 0.707107 -0.653281
v -0.318189 0.555570 -0.768177
v -0.353553 0.382683 -0.853553
v -0.375330 0.195090 -0.906127
v -0.382683 0.000000 -0.923879
v -0.375330 -0.195090 -0.906127
v -0.353553 -0.382683 -0.853553
v -0.318189 -0.555570 -0.768177
v -0.270598 -0.707107 -0.653281
v -0.212607 -0.831470 -0.513279
v -0.146446 -0.923880 -0.353553
v -0.074658 -0.980785 -0.180240
v -0.038060 0.980785 -0.191342
v -0.074658 0.923880 -0.375330
v -0.108386 0.831470 -0.544895
v -0.137950 0.707107 -0.693520
v -0.162211 0.555570 -0.815493
v -0.180240 0.382683 -0.906127
v -0.191341 0.195090 -0.961939
v -0.195090 0.000000 -0.980784
v -0.191341 -0.195090 -0.961939
v -0.180240 -0.382683 -0.906127
v -0.162211 -0.555570 -0.815493
v -0.137950 -0.707107 -0.693520
v -0.108386 -0.831470 -0.544895
v -0.074658 -0.923880 -0.375330
v -0.038060 -0.980785 -0.191342
v 0.000000 0.980785 -0.195090
v 0.000000 0.923880 -0.382683
v 0.000000 0.707107 -0.707107
v 0.000000 0.382683 -0.923879
v 0.000000 -0.382683 -0.923879
v 0.000000 -0.707107 -0.707107
v 0.000000 -0.831470 -0.555570
v 0.000000 -0.923880 -0.382683
v 0.000000 -0.980785 -0.195090
vn 0.0286 -0.9565 -0.2902
vn 0.0975 0.0975 -0.9904
vn 0.0097 0.9951 -0.0980
vn 0.0097 -0.9951 -0.0980
vn 0.0975 -0.0976 -0.9904
vn 0.0286 0.9565 -0.2902
vn 0.0938 -0.2890 -0.9527
vn 0.0464 0.8810 -0.4709
vn 0.0865 -0.4696 -0.8786
vn 0.0624 0.7715 -0.6332
vn 0.0759 -0.6326 -0.7708
vn 0.0759 0.6326 -0.7708
vn 0.0624 -0.7715 -0.6332
vn 0.0865 0.4696 -0.8786
vn 0.0464 -0.8810 -0.4709
vn 0.0938 0.2890 -0.9527
vn 0.1374 -0.8810 -0.4528
vn 0.2779 0.2890 -0.9161
vn 0.0846 -0.9565 -0.2790
vn 0.2889 0.0976 -0.9524
vn 0.0286 0.9951 -0.0942
vn 0.0286 -0.9951 -0.0942
vn 0.2889 -0.0976 -0.9524
vn 0.0846 0.9565 -0.2790
vn 0.2779 -0.2890 -0.9161
vn 0.1374 0.8810 -0.4528
vn 0.2563 -0.4696 -0.8448
vn 0.1847 0.7715 -0.6088
vn 0.2248 -0.6326 -0.7412
vn 0.2248 0.6326 -0.7412
vn 0.1847 -0.7715 -0.6088
vn 0.2563 0.4696 -0.8448
vn 0.2231 0.8810 -0.4173
vn 0.4162 -0.4696 -0.7786
vn 0.2999 0.7715 -0.5611
vn 0.3651 -0.6326 -0.6831
vn 0.3651 0.6326 -0.6831
vn 0.2999 -0.7715 -0.5611
vn 0.4162 0.4696 -0.7786
vn 0.2230 -0.8810 -0.4173
vn 0.4513 0.2890 -0.8443
vn 0.1374 -0.9565 -0.2571
vn 0.4691 0.0975 -0.8777
vn 0.0464 0.9951 -0.0869
vn 0.0464 -0.9951 -0.0869
vn 0.4691 -0.0975 -0.8777
vn 0.1374 0.9565 -0.2571
vn 0.4513 -0.2890 -0.8443
vn 0.6073 0.2890 -0.7400
vn 0.1850 -0.9565 -0.2254
vn 0.6314 0.0975 -0.7693
vn 0.0625 0.9951 -0.0761
vn 0.0625 -0.9951 -0.0761
vn 0.6314 -0.0975 -0.7693
vn 0.1850 0.9565 -0.2254
vn 0.6073 -0.2890 -0.7400
vn 0.3002 0.8810 -0.3658
vn 0.5601 -0.4696 -0.6825
vn 0.4036 0.7715 -0.4918
vn 0.4913 -0.6326 -0.5987
vn 0.4913 0.6326 -0.5987
vn 0.4036 -0.7715 -0.4918
vn 0.5601 0.4696 -0.6825
vn 0.3002 -0.8810 -0.3658
vn 0.6825 -0.4696 -0.5601
vn 0.4918 0.7715 -0.4036
vn 0.5987 -0.6326 -0.4913
vn 0.5987 0.6326 -0.4913
vn 0.4918 -0.7715 -0.4036
vn 0.6825 0.4696 -0.5601
vn 0.3658 -0.8810 -0.3002
vn 0.7400 0.2890 -0.6073
vn 0.2254 -0.9566 -0.1850
vn 0.7693 0.0975 -0.6314
vn 0.0761 0.9951 -0.0625
vn 0.0761 -0.9951 -0.0625
vn 0.7693 -0.0975 -0.6314
vn 0.2254 0.9565 -0.1850
vn 0.7400 -0.2890 -0.6073
vn 0.3658 0.8810 -0.3002
vn 0.2571 -0.9565 -0.1374
vn 0.8777 0.0975 -0.4691
vn 0.0869 0.9951 -0.0464
vn 0.0869 -0.9951 -0.0464
vn 0.8777 -0.0975 -0.4691
vn 0.2571 0.9565 -0.1374
vn 0.8443 -0.2890 -0.4513
vn 0.4173 0.8810 -0.2230
vn 0.7786 -0.4696 -0.4162
vn 0.5611 0.7715 -0.2999
vn 0.6831 -0.6326 -0.3651
vn 0.6831 0.6326 -0.3651
vn 0.5611 -0.7715 -0.2999
vn 0.7786 0.4696 -0.4162
vn 0.4173 -0.8810 -0.2230
vn 0.8443 0.2890 -0.4513
vn 0.6088 0.7715 -0.1847
vn 0.7412 -0.6326 -0.2248
vn 0.7412 0.6326 -0.2248
vn 0.6088 -0.7715 -0.1847
vn 0.8448 0.4696 -0.2563
vn 0.4528 -0.8810 -0.1374
vn 0.9161 0.2890 -0.2779
vn 0.2790 -0.9565 -0.0846
vn 0.9524 0.0975 -0.2889
vn 0.0942 0.9951 -0.0286
vn 0.0942 -0.9951 -0.0286
vn 0.9524 -0.0975 -0.2889
vn 0.2790 0.9565 -0.0846
vn 0.9161 -0.2890 -0.2779
vn 0.4528 0.8810 -0.1374
vn 0.8448 -0.4696 -0.2563
vn 0.9904 0.0975 -0.0975
vn 0.0980 0.9951 -0.0097
vn 0.0980 -0.9951 -0.0097
vn 0.9904 -0.0975 -0.0975
vn 0.2902 0.9565 -0.0286
vn 0.9527 -0.2890 -0.0938
vn 0.4709 0.8810 -0.0464
vn 0.8786 -0.4696 -0.0865
vn 0.6332 0.7715 -0.0624
vn 0.7708 -0.6326 -0.0759
vn 0.7708 0.6326 -0.0759
vn 0.6332 -0.7715 -0.0624
vn 0.8786 0.4696 -0.0865
vn 0.4709 -0.8810 -0.0464
vn 0.9527 0.2890 -0.0938
vn 0.2902 -0.9565 -0.0286
vn 0.7708 -0.6326 0.0759
vn 0.7708 0.6326 0.0759
vn 0.6332 -0.7715 0.0624
vn 0.8786 0.4696 0.0865
vn 0.4709 -0.8810 0.0464
vn 0.9527 0.2890 0.0938
vn 0.2902 -0.9565 0.0286
vn 0.9904 0.0975 0.0976
vn 0.0980 0.9951 0.0097
vn 0.0980 -0.9951 0.0097
vn 0.9904 -0.0975 0.0976
vn 0.2902 0.9565 0.0286
vn 0.9527 -0.2890 0.0938
vn 0.4709 0.8810 0.0464
vn 0.8786 -0.4696 0.0865
vn 0.6332 0.7715 0.0624
vn 0.0942 -0.9951 0.0286
vn 0.9524 -0.0975 0.2889
vn 0.2790 0.9565 0.0846
vn 0.9161 -0.2890 0.2779
vn 0.4528 0.8810 0.1374
vn 0.8448 -0.4696 0.2563
vn 0.6088 0.7715 0.1847
vn 0.7412 -0.6326 0.2248
vn 0.7412 0.6326 0.2248
vn 0.6088 -0.7715 0.1847
vn 0.8448 0.4696 0.2563
vn 0.4528 -0.8810 0.1374
vn 0.9161 0.2890 0.2779
vn 0.2790 -0.9565 0.0846
vn 0.9524 0.0975 0.2889
vn 0.0942 0.9951 0.0286
vn 0.5611 -0.7715 0.2999
vn 0.7786 0.4696 0.4162
vn 0.4173 -0.8810 0.2230
vn 0.8443 0.2890 0.4513
vn 0.2571 -0.9565 0.1374
vn 0.8777 0.0975 0.4691
vn 0.0869 0.9951 0.0464
vn 0.0869 -0.9951 0.0464
vn 0.8777 -0.0975 0.4691
vn 0.2571 0.9565 0.1374
vn 0.8443 -0.2890 0.4513
vn 0.4173 0.8810 0.2231
vn 0.7786 -0.4696 0.4162
vn 0.5611 0.7715 0.2999
vn 0.6831 -0.6326 0.3651
vn 0.6831 0.6326 0.3651
vn 0.2254 0.9565 0.1850
vn 0.7400 -0.2890 0.6073
vn 0.3658 0.8810 0.3002
vn 0.6825 -0.4696 0.5601
vn 0.4918 0.7715 0.4036
vn 0.5987 -0.6326 0.4913
vn 0.5987 0.6326 0.4913
vn 0.4918 -0.7715 0.4036
vn 0.6825 0.4696 0.5601
vn 0.3658 -0.8810 0.3002
vn 0.7400 0.2890 0.6073
vn 0.2254 -0.9565 0.1850
vn 0.7693 0.0975 0.6314
vn 0.0761 0.9951 0.0625
vn 0.0761 -0.9951 0.0625
vn 0.7693 -0.0975 0.6314
vn 0.5601 0.4696 0.6825
vn 0.3002 -0.8810 0.3658
vn 0.6073 0.2890 0.7400
vn 0.1850 -0.9565 0.2254
vn 0.6314 0.0975 0.7693
vn 0.0625 0.9951 0.0761
vn 0.0625 -0.9951 0.0761
vn 0.6314 -0.0975 0.7693
vn 0.1850 0.9565 0.2254
vn 0.6073 -0.2890 0.7400
vn 0.3002 0.8810 0.3658
vn 0.5601 -0.4696 0.6825
vn 0.4036 0.7715 0.4918
vn 0.4913 -0.6326 0.5987
vn 0.4913 0.6326 0.5987
vn 0.4036 -0.7715 0.4918
vn 0.4513 -0.2890 0.8443
vn 0.2230 0.8810 0.4173
vn 0.4162 -0.4696 0.7786
vn 0.2999 0.7715 0.5611
vn 0.3651 -0.6326 0.6831
vn 0.3651 0.6326 0.6831
vn 0.2999 -0.7715 0.5611
vn 0.4162 0.4696 0.7786
vn 0.2230 -0.8810 0.4173
vn 0.4513 0.2890 0.8443
vn 0.1374 -0.9565 0.2571
vn 0.4691 0.0975 0.8777
vn 0.0464 0.9951 0.0869
vn 0.0464 -0.9951 0.0869
vn 0.4691 -0.0975 0.8777
vn 0.1374 0.9565 0.2571
vn 0.1374 -0.8810 0.4528
vn 0.2779 0.2890 0.9161
vn 0.0846 -0.9565 0.2790
vn 0.2889 0.0975 0.9524
vn 0.0286 0.9951 0.0942
vn 0.0286 -0.9951 0.0942
vn 0.2889 -0.0975 0.9524
vn 0.0846 0.9565 0.2790
vn 0.2779 -0.2890 0.9161
vn 0.1374 0.8810 0.4528
vn 0.2563 -0.4696 0.8448
vn 0.1847 0.7715 0.6088
vn 0.2248 -0.6326 0.7412
vn 0.2248 0.6326 0.7412
vn 0.1847 -0.7715 0.6088
vn 0.2563 0.4696 0.8448
vn 0.0464 0.8810 0.4709
vn 0.0865 -0.4696 0.8786
vn 0.0624 0.7715 0.6332
vn 0.0759 -0.6326 0.7708
vn 0.0759 0.6326 0.7708
vn 0.0624 -0.7715 0.6332
vn 0.0865 0.4696 0.8786
vn 0.0464 -0.8810 0.4709
vn 0.0938 0.2890 0.9527
vn 0.0286 -0.9565 0.2902
vn 0.0975 0.0975 0.9904
vn 0.0097 0.9951 0.0980
vn 0.0097 -0.9951 0.0980
vn 0.0975 -0.0975 0.9904
vn 0.0286 0.9565 0.2902
vn 0.0938 -0.2890 0.9527
vn -0.0938 0.2890 0.9527
vn -0.0286 -0.9565 0.2902
vn -0.0976 0.0975 0.9904
vn -0.0097 0.9951 0.0980
vn -0.0097 -0.9951 0.0980
vn -0.0975 -0.0975 0.9904
vn -0.0286 0.9565 0.2902
vn -0.0938 -0.2890 0.9527
vn -0.0464 0.8810 0.4709
vn -0.0865 -0.4696 0.8786
vn -0.0624 0.7715 0.6332
vn -0.0759 -0.6326 0.7708
vn -0.0759 0.6326 0.7708
vn -0.0624 -0.7715 0.6332
vn -0.0865 0.4696 0.8786
vn -0.0464 -0.8810 0.4709
vn -0.2563 -0.4696 0.8448
vn -0.1847 0.7715 0.6088
vn -0.2248 -0.6326 0.7412
vn -0.2248 0.6326 0.7412
vn -0.1847 -0.7715 0.6088
vn -0.2563 0.4696 0.8448
vn -0.1374 -0.8810 0.4528
vn -0.2779 0.2890 0.9161
vn -0.0846 -0.9565 0.2790
vn -0.2889 0.0975 0.9524
vn -0.0286 0.9951 0.0942
vn -0.0286 -0.9951 0.0942
vn -0.2889 -0.0975 0.9524
vn -0.0846 0.9565 0.2790
vn -0.2779 -0.2890 0.9161
vn -0.1374 0.8810 0.4528
vn -0.1374 -0.9565 0.2571
vn -0.4691 0.0975 0.8777
vn -0.0464 0.9951 0.0869
vn -0.0464 -0.9951 0.0869
vn -0.4691 -0.0975 0.8777
vn -0.1374 0.9565 0.2571
vn -0.4513 -0.2890 0.8443
vn -0.2230 0.8810 0.4173
vn -0.4162 -0.4696 0.7786
vn -0.2999 0.7715 0.5611
vn -0.3651 -0.6326 0.6831
vn -0.3651 0.6326 0.6831
vn -0.2999 -0.7715 0.5611
vn -0.4162 0.4696 0.7786
vn -0.2230 -0.8810 0.4173
vn -0.4513 0.2890 0.8443
vn -0.4913 -0.6326 0.5987
vn -0.4913 0.6326 0.5987
vn -0.4036 -0.7715 0.4918
vn -0.5601 0.4696 0.6825
vn -0.3002 -0.8810 0.3658
vn -0.6073 0.2890 0.7400
vn -0.1850 -0.9565 0.2254
vn -0.6314 0.0975 0.7693
vn -0.0625 0.9951 0.0761
vn -0.0625 -0.9951 0.0761
vn -0.6314 -0.0975 0.7693
vn -0.1850 0.9565 0.2254
vn -0.6073 -0.2890 0.7400
vn -0.3002 0.8810 0.3658
vn -0.5601 -0.4696 0.6825
vn -0.4036 0.7715 0.4918
vn -0.0761 0.9951 0.0625
vn -0.0761 -0.9951 0.0625
vn -0.7693 -0.0975 0.6314
vn -0.2254 0.9565 0.1850
vn -0.7400 -0.2890 0.6073
vn -0.3658 0.8810 0.3002
vn -0.6825 -0.4696 0.5601
vn -0.4918 0.7715 0.4036
vn -0.5987 -0.6326 0.4913
vn -0.5987 0.6326 0.4913
vn -0.4918 -0.7715 0.4036
vn -0.6825 0.4696 0.5601
vn -0.3658 -0.8810 0.3002
vn -0.7400 0.2890 0.6073
vn -0.2254 -0.9566 0.1850
vn -0.7693 0.0975 0.6314
vn -0.6831 0.6326 0.3651
vn -0.5611 -0.7715 0.2999
vn -0.7786 0.4696 0.4162
vn -0.4173 -0.8810 0.2231
vn -0.8443 0.2890 0.4513
vn -0.2571 -0.9565 0.1374
vn -0.8777 0.0975 0.4691
vn -0.0869 0.9951 0.0464
vn -0.0869 -0.9951 0.0464
vn -0.8777 -0.0975 0.4691
vn -0.2571 0.9565 0.1374
vn -0.8443 -0.2890 0.4513
vn -0.4173 0.8810 0.2230
vn -0.7786 -0.4696 0.4162
vn -0.5611 0.7715 0.2999
vn -0.6831 -0.6326 0.3651
vn -0.9524 -0.0975 0.2889
vn -0.2790 0.9565 0.0846
vn -0.9161 -0.2890 0.2779
vn -0.4528 0.8810 0.1374
vn -0.8448 -0.4696 0.2563
vn -0.6088 0.7715 0.1847
vn -0.7412 -0.6326 0.2248
vn -0.7412 0.6326 0.2248
vn -0.6088 -0.7715 0.1847
vn -0.8448 0.4696 0.2563
vn -0.4528 -0.8810 0.1374
vn -0.9161 0.2890 0.2779
vn -0.2790 -0.9565 0.0846
vn -0.9524 0.0975 0.2889
vn -0.0942 0.9951 0.0286
vn -0.0942 -0.9951 0.0286
vn -0.6332 -0.7715 0.0624
vn -0.8786 0.4696 0.0865
vn -0.4709 -0.8810 0.0464
vn -0.9527 0.2890 0.0938
vn -0.2902 -0.9565 0.0286
vn -0.9904 0.0975 0.0975
vn -0.0980 0.9951 0.0097
vn -0.0980 -0.9951 0.0097
vn -0.9904 -0.0975 0.0976
vn -0.2902 0.9565 0.0286
vn -0.9527 -0.2890 0.0938
vn -0.4709 0.8810 0.0464
vn -0.8786 -0.4696 0.0865
vn -0.6332 0.7715 0.0624
vn -0.7708 -0.6326 0.0759
vn -0.7708 0.6326 0.0759
vn -0.2902 0.9565 -0.0286
vn -0.9527 -0.2890 -0.0938
vn -0.4709 0.8810 -0.0464
vn -0.8786 -0.4696 -0.0865
vn -0.6332 0.7715 -0.0624
vn -0.7708 -0.6326 -0.0759
vn -0.7708 0.6326 -0.0759
vn -0.6332 -0.7715 -0.0624
vn -0.8786 0.4696 -0.0865
vn -0.4709 -0.8810 -0.0464
vn -0.9527 0.2890 -0.0938
vn -0.2902 -0.9565 -0.0286
vn -0.9904 0.0975 -0.0975
vn -0.0980 0.9951 -0.0097
vn -0.0980 -0.9951 -0.0097
vn -0.9904 -0.0975 -0.0976
vn -0.8448 0.4696 -0.2563
vn -0.4528 -0.8810 -0.1374
vn -0.9161 0.2890 -0.2779
vn -0.2790 -0.9565 -0.0846
vn -0.9524 0.0975 -0.2889
vn -0.0942 0.9951 -0.0286
vn -0.0942 -0.9951 -0.0286
vn -0.9524 -0.0975 -0.2889
vn -0.2790 0.9565 -0.0846
vn -0.9161 -0.2890 -0.2779
vn -0.4528 0.8810 -0.1374
vn -0.8448 -0.4696 -0.2563
vn -0.6088 0.7715 -0.1847
vn -0.7412 -0.6326 -0.2248
vn -0.7412 0.6326 -0.2248
vn -0.6088 -0.7715 -0.1847
vn -0.8443 -0.2890 -0.4513
vn -0.4173 0.8810 -0.2231
vn -0.7786 -0.4696 -0.4162
vn -0.5611 0.7715 -0.2999
vn -0.6831 -0.6326 -0.3651
vn -0.6831 0.6326 -0.3651
vn -0.5611 -0.7715 -0.2999
vn -0.7786 0.4696 -0.4162
vn -0.4173 -0.8810 -0.2231
vn -0.8443 0.2890 -0.4513
vn -0.2571 -0.9565 -0.1374
vn -0.8777 0.0975 -0.4691
vn -0.0869 0.9951 -0.0464
vn -0.0869 -0.9951 -0.0464
vn -0.8777 -0.0975 -0.4691
vn -0.2571 0.9565 -0.1374
vn -0.3658 -0.8810 -0.3002
vn -0.7400 0.2890 -0.6073
vn -0.2254 -0.9565 -0.1850
vn -0.7693 0.0975 -0.6314
vn -0.0761 0.9951 -0.0625
vn -0.0761 -0.9951 -0.0625
vn -0.7693 -0.0975 -0.6314
vn -0.2254 0.9565 -0.1850
vn -0.7400 -0.2890 -0.6073
vn -0.3658 0.8810 -0.3002
vn -0.6825 -0.4696 -0.5601
vn -0.4918 0.7715 -0.4036
vn -0.5987 -0.6326 -0.4913
vn -0.5987 0.6326 -0.4913
vn -0.4918 -0.7715 -0.4036
vn -0.6825 0.4696 -0.5601
vn -0.5601 -0.4696 -0.6825
vn -0.4036 0.7715 -0.4918
vn -0.4913 -0.6326 -0.5987
vn -0.4913 0.6326 -0.5987
vn -0.4036 -0.7715 -0.4918
vn -0.5601 0.4696 -0.6825
vn -0.3002 -0.8810 -0.3658
vn -0.6073 0.2890 -0.7400
vn -0.1850 -0.9565 -0.2254
vn -0.6314 0.0975 -0.7693
vn -0.0625 0.9951 -0.0761
vn -0.0625 -0.9951 -0.0761
vn -0.6314 -0.0975 -0.7693
vn -0.1850 0.9565 -0.2254
vn -0.6073 -0.2890 -0.7400
vn -0.3002 0.8810 -0.3658
vn -0.1374 -0.9565 -0.2571
vn -0.4691 0.0975 -0.8777
vn -0.0464 0.9951 -0.0869
vn -0.0464 -0.9951 -0.0869
vn -0.4691 -0.0975 -0.8777
vn -0.1374 0.9565 -0.2571
vn -0.4513 -0.2890 -0.8443
vn -0.2230 0.8810 -0.4173
vn -0.4162 -0.4696 -0.7786
vn -0.2999 0.7715 -0.5611
vn -0.3651 -0.6326 -0.6831
vn -0.3651 0.6326 -0.6831
vn -0.2999 -0.7715 -0.5611
vn -0.4162 0.4696 -0.7786
vn -0.2230 -0.8810 -0.4173
vn -0.4513 0.2890 -0.8443
vn -0.1847 0.7715 -0.6088
vn -0.2248 -0.6326 -0.7412
vn -0.2248 0.6326 -0.7412
vn -0.1847 -0.7715 -0.6088
vn -0.2563 0.4696 -0.8448
vn -0.1374 -0.8810 -0.4528
vn -0.2779 0.2890 -0.9161
vn -0.0846 -0.9565 -0.2790
vn -0.2889 0.0975 -0.9524
vn -0.0286 0.9951 -0.0942
vn -0.0286 -0.9951 -0.0942
vn -0.2889 -0.0975 -0.9524
vn -0.0846 0.9565 -0.2790
vn -0.2779 -0.2890 -0.9161
vn -0.1374 0.8810 -0.4528
vn -0.2563 -0.4696 -0.8448
vn -0.0976 0.0975 -0.9904
vn -0.0097 0.9951 -0.0980
vn -0.0097 -0.9951 -0.0980
vn -0.0976 -0.0975 -0.9904
vn -0.0286 0.9565 -0.2902
vn -0.0938 -0.2890 -0.9527
vn -0.0464 0.8810 -0.4709
vn -0.0865 -0.4696 -0.8786
vn -0.0624 0.7715 -0.6332
vn -0.0759 -0.6326 -0.7708
vn -0.0759 0.6326 -0.7708
vn -0.0624 -0.7715 -0.6332
vn -0.0865 0.4696 -0.8786
vn -0.0464 -0.8810 -0.4709
vn -0.0938 0.2890 -0.9527
vn -0.0286 -0.9565 -0.2902
vn 0.0975 0.0976 -0.9904
vn 0.0975 -0.0975 -0.9904
vn 0.2230 0.8810 -0.4173
vn 0.2231 -0.8810 -0.4173
vn 0.2254 -0.9565 -0.1850
vn 0.4173 -0.8810 0.2231
vn 0.4173 0.8810 0.2230
vn 0.2231 -0.8810 0.4173
vn -0.0975 0.0975 0.9904
vn -0.0976 -0.0975 0.9904
vn -0.2231 0.8810 0.4173
vn -0.2231 -0.8810 0.4173
vn -0.2254 -0.9565 0.1850
vn -0.4173 -0.8810 0.2230
vn -0.9904 0.0975 0.0976
vn -0.9904 -0.0975 0.0975
vn -0.9904 0.0975 -0.0976
vn -0.9904 -0.0975 -0.0975
vt 0.750000 0.125000
vt 0.718750 0.062500
vt 0.750000 0.062500
vt 0.750000 0.562500
vt 0.718750 0.500000
vt 0.750000 0.500000
vt 0.750000 0.937500
vt 0.734375 1.000000
vt 0.718750 0.937500
vt 0.734375 0.000000
vt 0.718750 0.437500
vt 0.750000 0.437500
vt 0.750000 0.875000
vt 0.718750 0.875000
vt 0.718750 0.375000
vt 0.750000 0.375000
vt 0.750000 0.812500
vt 0.718750 0.812500
vt 0.718750 0.312500
vt 0.750000 0.312500
vt 0.750000 0.750000
vt 0.718750 0.750000
vt 0.718750 0.250000
vt 0.750000 0.250000
vt 0.750000 0.687500
vt 0.718750 0.687500
vt 0.718750 0.187500
vt 0.750000 0.187500
vt 0.750000 0.625000
vt 0.718750 0.625000
vt 0.718750 0.125000
vt 0.718750 0.562500
vt 0.687500 0.187500
vt 0.687500 0.125000
vt 0.687500 0.625000
vt 0.687500 0.562500
vt 0.687500 0.062500
vt 0.687500 0.500000
vt 0.703125 1.000000
vt 0.687500 0.937500
vt 0.703125 0.000000
vt 0.687500 0.437500
vt 0.687500 0.875000
vt 0.687500 0.375000
vt 0.687500 0.812500
vt 0.687500 0.312500
vt 0.687500 0.750000
vt 0.687500 0.250000
vt 0.687500 0.687500
vt 0.656250 0.812500
vt 0.656250 0.375000
vt 0.656250 0.312500
vt 0.656250 0.750000
vt 0.656250 0.250000
vt 0.656250 0.687500
vt 0.656250 0.187500
vt 0.656250 0.625000
vt 0.656250 0.125000
vt 0.656250 0.562500
vt 0.656250 0.062500
vt 0.656250 0.500000
vt 0.671875 1.000000
vt 0.656250 0.937500
vt 0.671875 0.000000
vt 0.656250 0.437500
vt 0.656250 0.875000
vt 0.625000 0.625000
vt 0.625000 0.562500
vt 0.625000 0.062500
vt 0.625000 0.500000
vt 0.640625 1.000000
vt 0.625000 0.937500
vt 0.640625 0.000000
vt 0.625000 0.437500
vt 0.625000 0.875000
vt 0.625000 0.375000
vt 0.625000 0.812500
vt 0.625000 0.312500
vt 0.625000 0.750000
vt 0.625000 0.250000
vt 0.625000 0.687500
vt 0.625000 0.187500
vt 0.625000 0.125000
vt 0.593750 0.375000
vt 0.593750 0.312500
vt 0.593750 0.750000
vt 0.593750 0.250000
vt 0.593750 0.687500
vt 0.593750 0.187500
vt 0.593750 0.625000
vt 0.593750 0.125000
vt 0.593750 0.562500
vt 0.593750 0.062500
vt 0.593750 0.500000
vt 0.609375 1.000000
vt 0.593750 0.937500
vt 0.609375 0.000000
vt 0.593750 0.437500
vt 0.593750 0.875000
vt 0.593750 0.812500
vt 0.562500 0.125000
vt 0.562500 0.062500
vt 0.562500 0.562500
vt 0.562500 0.500000
vt 0.578125 1.000000
vt 0.562500 0.937500
vt 0.578125 0.000000
vt 0.562500 0.437500
vt 0.562500 0.875000
vt 0.562500 0.375000
vt 0.562500 0.812500
vt 0.562500 0.312500
vt 0.562500 0.750000
vt 0.562500 0.250000
vt 0.562500 0.687500
vt 0.562500 0.187500
vt 0.562500 0.625000
vt 0.531250 0.750000
vt 0.531250 0.250000
vt 0.531250 0.687500
vt 0.531250 0.187500
vt 0.531250 0.625000
vt 0.531250 0.125000
vt 0.531250 0.562500
vt 0.531250 0.062500
vt 0.531250 0.500000
vt 0.546875 1.000000
vt 0.531250 0.937500
vt 0.546875 0.000000
vt 0.531250 0.437500
vt 0.531250 0.875000
vt 0.531250 0.375000
vt 0.531250 0.812500
vt 0.531250 0.312500
vt 0.500000 0.562500
vt 0.500000 0.500000
vt 0.515625 1.000000
vt 0.500000 0.937500
vt 0.515625 0.000000
vt 0.500000 0.062500
vt 0.500000 0.437500
vt 0.500000 0.875000
vt 0.500000 0.375000
vt 0.500000 0.812500
vt 0.500000 0.312500
vt 0.500000 0.750000
vt 0.500000 0.250000
vt 0.500000 0.687500
vt 0.500000 0.187500
vt 0.500000 0.625000
vt 0.500000 0.125000
vt 0.468750 0.250000
vt 0.468750 0.750000
vt 0.468750 0.687500
vt 0.468750 0.187500
vt 0.468750 0.625000
vt 0.468750 0.125000
vt 0.468750 0.562500
vt 0.468750 0.062500
vt 0.468750 0.500000
vt 0.484375 1.000000
vt 0.468750 0.937500
vt 0.484375 0.000000
vt 0.468750 0.437500
vt 0.468750 0.875000
vt 0.468750 0.375000
vt 0.468750 0.812500
vt 0.468750 0.312500
vt 0.453125 0.000000
vt 0.437500 0.062500
vt 0.437500 0.437500
vt 0.437500 0.875000
vt 0.437500 0.375000
vt 0.437500 0.812500
vt 0.437500 0.312500
vt 0.437500 0.750000
vt 0.437500 0.250000
vt 0.437500 0.687500
vt 0.437500 0.187500
vt 0.437500 0.625000
vt 0.437500 0.125000
vt 0.437500 0.562500
vt 0.437500 0.500000
vt 0.453125 1.000000
vt 0.437500 0.937500
vt 0.406250 0.250000
vt 0.406250 0.187500
vt 0.406250 0.625000
vt 0.406250 0.125000
vt 0.406250 0.562500
vt 0.406250 0.062500
vt 0.406250 0.500000
vt 0.421875 1.000000
vt 0.406250 0.937500
vt 0.421875 0.000000
vt 0.406250 0.437500
vt 0.406250 0.875000
vt 0.406250 0.375000
vt 0.406250 0.812500
vt 0.406250 0.312500
vt 0.406250 0.750000
vt 0.406250 0.687500
vt 0.375000 0.875000
vt 0.375000 0.375000
vt 0.375000 0.812500
vt 0.375000 0.312500
vt 0.375000 0.750000
vt 0.375000 0.250000
vt 0.375000 0.687500
vt 0.375000 0.187500
vt 0.375000 0.625000
vt 0.375000 0.125000
vt 0.375000 0.562500
vt 0.375000 0.062500
vt 0.375000 0.500000
vt 0.390625 1.000000
vt 0.375000 0.937500
vt 0.390625 0.000000
vt 0.375000 0.437500
vt 0.343750 0.625000
vt 0.343750 0.125000
vt 0.343750 0.562500
vt 0.343750 0.062500
vt 0.343750 0.500000
vt 0.359375 1.000000
vt 0.343750 0.937500
vt 0.359375 0.000000
vt 0.343750 0.437500
vt 0.343750 0.875000
vt 0.343750 0.375000
vt 0.343750 0.812500
vt 0.343750 0.312500
vt 0.343750 0.750000
vt 0.343750 0.250000
vt 0.343750 0.687500
vt 0.343750 0.187500
vt 0.312500 0.375000
vt 0.312500 0.812500
vt 0.312500 0.312500
vt 0.312500 0.750000
vt 0.312500 0.250000
vt 0.312500 0.687500
vt 0.312500 0.187500
vt 0.312500 0.625000
vt 0.312500 0.125000
vt 0.312500 0.562500
vt 0.312500 0.062500
vt 0.312500 0.500000
vt 0.328125 1.000000
vt 0.312500 0.937500
vt 0.328125 0.000000
vt 0.312500 0.437500
vt 0.312500 0.875000
vt 0.281250 0.125000
vt 0.281250 0.625000
vt 0.281250 0.562500
vt 0.281250 0.062500
vt 0.281250 0.500000
vt 0.296875 1.000000
vt 0.281250 0.937500
vt 0.296875 0.000000
vt 0.281250 0.437500
vt 0.281250 0.875000
vt 0.281250 0.375000
vt 0.281250 0.812500
vt 0.281250 0.312500
vt 0.281250 0.750000
vt 0.281250 0.250000
vt 0.281250 0.687500
vt 0.281250 0.187500
vt 0.250000 0.875000
vt 0.250000 0.812500
vt 0.250000 0.375000
vt 0.250000 0.312500
vt 0.250000 0.750000
vt 0.250000 0.250000
vt 0.250000 0.687500
vt 0.250000 0.187500
vt 0.250000 0.625000
vt 0.250000 0.125000
vt 0.250000 0.562500
vt 0.250000 0.062500
vt 0.250000 0.500000
vt 0.265625 1.000000
vt 0.250000 0.937500
vt 0.265625 0.000000
vt 0.250000 0.437500
vt 0.218750 0.625000
vt 0.218750 0.562500
vt 0.218750 0.062500
vt 0.218750 0.500000
vt 0.234375 1.000000
vt 0.218750 0.937500
vt 0.234375 0.000000
vt 0.218750 0.437500
vt 0.218750 0.875000
vt 0.218750 0.375000
vt 0.218750 0.812500
vt 0.218750 0.312500
vt 0.218750 0.750000
vt 0.218750 0.250000
vt 0.218750 0.687500
vt 0.218750 0.187500
vt 0.218750 0.125000
vt 0.187500 0.375000
vt 0.187500 0.312500
vt 0.187500 0.750000
vt 0.187500 0.250000
vt 0.187500 0.687500
vt 0.187500 0.187500
vt 0.187500 0.625000
vt 0.187500 0.125000
vt 0.187500 0.562500
vt 0.187500 0.062500
vt 0.187500 0.500000
vt 0.203125 1.000000
vt 0.187500 0.937500
vt 0.203125 0.000000
vt 0.187500 0.437500
vt 0.187500 0.875000
vt 0.187500 0.812500
vt 0.156250 0.125000
vt 0.156250 0.062500
vt 0.156250 0.562500
vt 0.156250 0.500000
vt 0.171875 1.000000
vt 0.156250 0.937500
vt 0.171875 0.000000
vt 0.156250 0.437500
vt 0.156250 0.875000
vt 0.156250 0.375000
vt 0.156250 0.812500
vt 0.156250 0.312500
vt 0.156250 0.750000
vt 0.156250 0.250000
vt 0.156250 0.687500
vt 0.156250 0.187500
vt 0.156250 0.625000
vt 0.125000 0.250000
vt 0.125000 0.750000
vt 0.125000 0.687500
vt 0.125000 0.187500
vt 0.125000 0.625000
vt 0.125000 0.125000
vt 0.125000 0.562500
vt 0.125000 0.062500
vt 0.125000 0.500000
vt 0.140625 1.000000
vt 0.125000 0.937500
vt 0.140625 0.000000
vt 0.125000 0.437500
vt 0.125000 0.875000
vt 0.125000 0.375000
vt 0.125000 0.812500
vt 0.125000 0.312500
vt 0.109375 1.000000
vt 0.093750 0.937500
vt 0.109375 0.000000
vt 0.093750 0.062500
vt 0.093750 0.437500
vt 0.093750 0.875000
vt 0.093750 0.375000
vt 0.093750 0.812500
vt 0.093750 0.312500
vt 0.093750 0.750000
vt 0.093750 0.250000
vt 0.093750 0.687500
vt 0.093750 0.187500
vt 0.093750 0.625000
vt 0.093750 0.125000
vt 0.093750 0.562500
vt 0.093750 0.500000
vt 0.062500 0.687500
vt 0.062500 0.250000
vt 0.062500 0.187500
vt 0.062500 0.625000
vt 0.062500 0.125000
vt 0.062500 0.562500
vt 0.062500 0.062500
vt 0.062500 0.500000
vt 0.078125 1.000000
vt 0.062500 0.937500
vt 0.078125 0.000000
vt 0.062500 0.437500
vt 0.062500 0.875000
vt 0.062500 0.375000
vt 0.062500 0.812500
vt 0.062500 0.312500
vt 0.062500 0.750000
vt 0.031250 0.437500
vt 0.031250 0.875000
vt 0.031250 0.375000
vt 0.031250 0.812500
vt 0.031250 0.312500
vt 0.031250 0.750000
vt 0.031250 0.250000
vt 0.031250 0.687500
vt 0.031250 0.187500
vt 0.031250 0.625000
vt 0.031250 0.125000
vt 0.031250 0.562500
vt 0.031250 0.062500
vt 0.031250 0.500000
vt 0.046875 1.000000
vt 0.031250 0.937500
vt 0.046875 0.000000
vt 0.000000 0.250000
vt 0.000000 0.187500
vt 0.000000 0.625000
vt 0.000000 0.125000
vt 0.000000 0.562500
vt 0.000000 0.062500
vt 0.000000 0.500000
vt 0.015625 1.000000
vt 0.000000 0.937500
vt 0.015625 0.000000
vt 0.000000 0.437500
vt 0.000000 0.875000
vt 0.000000 0.375000
vt 0.000000 0.812500
vt 0.000000 0.312500
vt 0.000000 0.750000
vt 0.000000 0.687500
vt 1.000000 0.937500
vt 0.968750 0.875000
vt 1.000000 0.875000
vt 1.000000 0.437500
vt 0.968750 0.375000
vt 1.000000 0.375000
vt 1.000000 0.812500
vt 0.968750 0.812500
vt 1.000000 0.312500
vt 0.968750 0.312500
vt 0.968750 0.750000
vt 1.000000 0.750000
vt 0.968750 0.250000
vt 1.000000 0.250000
vt 1.000000 0.687500
vt 0.968750 0.687500
vt 1.000000 0.187500
vt 0.968750 0.187500
vt 0.968750 0.625000
vt 1.000000 0.625000
vt 0.968750 0.125000
vt 1.000000 0.125000
vt 1.000000 0.562500
vt 0.968750 0.562500
vt 0.968750 0.062500
vt 1.000000 0.062500
vt 1.000000 0.500000
vt 0.968750 0.500000
vt 0.984375 1.000000
vt 0.968750 0.937500
vt 0.984375 0.000000
vt 0.968750 0.437500
vt 0.937500 0.625000
vt 0.937500 0.125000
vt 0.937500 0.562500
vt 0.937500 0.062500
vt 0.937500 0.500000
vt 0.953125 1.000000
vt 0.937500 0.937500
vt 0.953125 0.000000
vt 0.937500 0.437500
vt 0.937500 0.875000
vt 0.937500 0.375000
vt 0.937500 0.812500
vt 0.937500 0.312500
vt 0.937500 0.750000
vt 0.937500 0.250000
vt 0.937500 0.687500
vt 0.937500 0.187500
vt 0.906250 0.375000
vt 0.906250 0.812500
vt 0.906250 0.312500
vt 0.906250 0.750000
vt 0.906250 0.250000
vt 0.906250 0.687500
vt 0.906250 0.187500
vt 0.906250 0.625000
vt 0.906250 0.125000
vt 0.906250 0.562500
vt 0.906250 0.062500
vt 0.906250 0.500000
vt 0.921875 1.000000
vt 0.906250 0.937500
vt 0.921875 0.000000
vt 0.906250 0.437500
vt 0.906250 0.875000
vt 0.875000 0.125000
vt 0.875000 0.625000
vt 0.875000 0.562500
vt 0.875000 0.062500
vt 0.875000 0.500000
vt 0.890625 1.000000
vt 0.875000 0.937500
vt 0.890625 0.000000
vt 0.875000 0.437500
vt 0.875000 0.875000
vt 0.875000 0.375000
vt 0.875000 0.812500
vt 0.875000 0.312500
vt 0.875000 0.750000
vt 0.875000 0.250000
vt 0.875000 0.687500
vt 0.875000 0.187500
vt 0.843750 0.375000
vt 0.843750 0.312500
vt 0.843750 0.750000
vt 0.843750 0.250000
vt 0.843750 0.687500
vt 0.843750 0.187500
vt 0.843750 0.625000
vt 0.843750 0.125000
vt 0.843750 0.562500
vt 0.843750 0.062500
vt 0.843750 0.500000
vt 0.859375 1.000000
vt 0.843750 0.937500
vt 0.859375 0.000000
vt 0.843750 0.437500
vt 0.843750 0.875000
vt 0.843750 0.812500
vt 0.812500 0.062500
vt 0.812500 0.562500
vt 0.812500 0.500000
vt 0.828125 1.000000
vt 0.812500 0.937500
vt 0.828125 0.000000
vt 0.812500 0.437500
vt 0.812500 0.875000
vt 0.812500 0.375000
vt 0.812500 0.812500
vt 0.812500 0.312500
vt 0.812500 0.750000
vt 0.812500 0.250000
vt 0.812500 0.687500
vt 0.812500 0.187500
vt 0.812500 0.625000
vt 0.812500 0.125000
vt 0.781250 0.750000
vt 0.781250 0.250000
vt 0.781250 0.687500
vt 0.781250 0.187500
vt 0.781250 0.625000
vt 0.781250 0.125000
vt 0.781250 0.562500
vt 0.781250 0.062500
vt 0.781250 0.500000
vt 0.796875 1.000000
vt 0.781250 0.937500
vt 0.796875 0.000000
vt 0.781250 0.437500
vt 0.781250 0.875000
vt 0.781250 0.375000
vt 0.781250 0.812500
vt 0.781250 0.312500
vt 0.765625 1.000000
vt 0.765625 0.000000
s 0
f 481/1/1 23/2/1 482/3/1
f 4/4/2 16/5/2 5/6/2
f 474/7/3 1/8/3 9/9/3
f 8/10/4 482/3/4 23/2/4
f 5/6/5 17/11/5 6/12/5
f 475/13/6 9/9/6 10/14/6
f 6/12/7 18/15/7 478/16/7
f 2/17/8 10/14/8 11/18/8
f 478/16/9 19/19/9 7/20/9
f 476/21/10 11/18/10 12/22/10
f 7/20/11 20/23/11 479/24/11
f 3/25/12 12/22/12 13/26/12
f 479/24/13 21/27/13 480/28/13
f 477/29/14 13/26/14 14/30/14
f 480/28/15 22/31/15 481/1/15
f 4/4/16 14/30/16 15/32/16
f 22/31/17 36/33/17 37/34/17
f 15/32/18 29/35/18 30/36/18
f 22/31/19 38/37/19 23/2/19
f 15/32/20 31/38/20 16/5/20
f 9/9/21 1/39/21 24/40/21
f 8/41/22 23/2/22 38/37/22
f 16/5/23 32/42/23 17/11/23
f 9/9/24 25/43/24 10/14/24
f 17/11/25 33/44/25 18/15/25
f 10/14/26 26/45/26 11/18/26
f 18/15/27 34/46/27 19/19/27
f 11/18/28 27/47/28 12/22/28
f 19/19/29 35/48/29 20/23/29
f 12/22/30 28/49/30 13/26/30
f 21/27/31 35/48/31 36/33/31
f 13/26/32 29/35/32 14/30/32
f 25/43/33 41/50/33 26/45/33
f 34/46/34 48/51/34 49/52/34
f 26/45/35 42/53/35 27/47/35
f 35/48/36 49/52/36 50/54/36
f 27/47/37 43/55/37 28/49/37
f 36/33/38 50/54/38 51/56/38
f 28/49/39 44/57/39 29/35/39
f 36/33/40 52/58/40 37/34/40
f 29/35/41 45/59/41 30/36/41
f 37/34/42 53/60/42 38/37/42
f 30/36/43 46/61/43 31/38/43
f 24/40/44 1/62/44 39/63/44
f 8/64/45 38/37/45 53/60/45
f 32/42/46 46/61/46 47/65/46
f 24/40/47 40/66/47 25/43/47
f 32/42/48 48/51/48 33/44/48
f 45/59/49 59/67/49 60/68/49
f 52/58/50 68/69/50 53/60/50
f 46/61/51 60/68/51 61/70/51
f 39/63/52 1/71/52 54/72/52
f 8/73/53 53/60/53 68/69/53
f 46/61/54 62/74/54 47/65/54
f 39/63/55 55/75/55 40/66/55
f 47/65/56 63/76/56 48/51/56
f 40/66/57 56/77/57 41/50/57
f 49/52/58 63/76/58 64/78/58
f 41/50/59 57/79/59 42/53/59
f 49/52/60 65/80/60 50/54/60
f 42/53/61 58/81/61 43/55/61
f 50/54/62 66/82/62 51/56/62
f 43/55/63 59/67/63 44/57/63
f 51/56/64 67/83/64 52/58/64
f 64/78/65 78/84/65 79/85/65
f 56/77/66 72/86/66 57/79/66
f 64/78/67 80/87/67 65/80/67
f 58/81/68 72/86/68 73/88/68
f 65/80/69 81/89/69 66/82/69
f 58/81/70 74/90/70 59/67/70
f 67/83/71 81/89/71 82/91/71
f 60/68/72 74/90/72 75/92/72
f 67/83/73 83/93/73 68/69/73
f 61/70/74 75/92/74 76/94/74
f 54/72/75 1/95/75 69/96/75
f 8/97/76 68/69/76 83/93/76
f 61/70/77 77/98/77 62/74/77
f 54/72/78 70/99/78 55/75/78
f 62/74/79 78/84/79 63/76/79
f 55/75/80 71/100/80 56/77/80
f 83/93/81 97/101/81 98/102/81
f 76/94/82 90/103/82 91/104/82
f 69/96/83 1/105/83 84/106/83
f 8/107/84 83/93/84 98/102/84
f 76/94/85 92/108/85 77/98/85
f 69/96/86 85/109/86 70/99/86
f 77/98/87 93/110/87 78/84/87
f 70/99/88 86/111/88 71/100/88
f 79/85/89 93/110/89 94/112/89
f 71/100/90 87/113/90 72/86/90
f 79/85/91 95/114/91 80/87/91
f 73/88/92 87/113/92 88/115/92
f 80/87/93 96/116/93 81/89/93
f 73/88/94 89/117/94 74/90/94
f 81/89/95 97/101/95 82/91/95
f 75/92/96 89/117/96 90/103/96
f 86/111/97 102/118/97 87/113/97
f 94/112/98 110/119/98 95/114/98
f 88/115/99 102/118/99 103/120/99
f 96/116/100 110/119/100 111/121/100
f 88/115/101 104/122/101 89/117/101
f 97/101/102 111/121/102 112/123/102
f 90/103/103 104/122/103 105/124/103
f 97/101/104 113/125/104 98/102/104
f 91/104/105 105/124/105 106/126/105
f 84/106/106 1/127/106 99/128/106
f 8/129/107 98/102/107 113/125/107
f 91/104/108 107/130/108 92/108/108
f 85/109/109 99/128/109 100/131/109
f 92/108/110 108/132/110 93/110/110
f 85/109/111 101/133/111 86/111/111
f 94/112/112 108/132/112 109/134/112
f 106/126/113 120/135/113 121/136/113
f 99/128/114 1/137/114 114/138/114
f 8/139/115 113/125/115 128/140/115
f 106/126/116 122/141/116 107/130/116
f 100/131/117 114/138/117 115/142/117
f 107/130/118 123/143/118 108/132/118
f 100/131/119 116/144/119 101/133/119
f 109/134/120 123/143/120 124/145/120
f 101/133/121 117/146/121 102/118/121
f 109/134/122 125/147/122 110/119/122
f 103/120/123 117/146/123 118/148/123
f 111/121/124 125/147/124 126/149/124
f 103/120/125 119/150/125 104/122/125
f 111/121/126 127/151/126 112/123/126
f 105/124/127 119/150/127 120/135/127
f 112/123/128 128/140/128 113/125/128
f 124/145/129 140/152/129 125/147/129
f 118/148/130 132/153/130 133/154/130
f 126/149/131 140/152/131 141/155/131
f 118/148/132 134/156/132 119/150/132
f 126/149/133 142/157/133 127/151/133
f 120/135/134 134/156/134 135/158/134
f 127/151/135 143/159/135 128/140/135
f 121/136/136 135/158/136 136/160/136
f 114/138/137 1/161/137 129/162/137
f 8/163/138 128/140/138 143/159/138
f 121/136/139 137/164/139 122/141/139
f 114/138/140 130/165/140 115/142/140
f 122/141/141 138/166/141 123/143/141
f 115/142/142 131/167/142 116/144/142
f 124/145/143 138/166/143 139/168/143
f 116/144/144 132/153/144 117/146/144
f 8/169/145 143/159/145 158/170/145
f 136/160/146 152/171/146 137/164/146
f 129/162/147 145/172/147 130/165/147
f 137/164/148 153/173/148 138/166/148
f 131/167/149 145/172/149 146/174/149
f 139/168/150 153/173/150 154/175/150
f 131/167/151 147/176/151 132/153/151
f 139/168/152 155/177/152 140/152/152
f 133/154/153 147/176/153 148/178/153
f 141/155/154 155/177/154 156/179/154
f 133/154/155 149/180/155 134/156/155
f 141/155/156 157/181/156 142/157/156
f 135/158/157 149/180/157 150/182/157
f 143/159/158 157/181/158 158/170/158
f 136/160/159 150/182/159 151/183/159
f 129/162/160 1/184/160 144/185/160
f 156/179/161 170/186/161 171/187/161
f 148/178/162 164/188/162 149/180/162
f 156/179/163 172/189/163 157/181/163
f 150/182/164 164/188/164 165/190/164
f 157/181/165 173/191/165 158/170/165
f 151/183/166 165/190/166 166/192/166
f 144/185/167 1/193/167 159/194/167
f 8/195/168 158/170/168 173/191/168
f 151/183/169 167/196/169 152/171/169
f 144/185/170 160/197/170 145/172/170
f 152/171/171 168/198/171 153/173/171
f 146/174/172 160/197/172 161/199/172
f 154/175/173 168/198/173 169/200/173
f 146/174/174 162/201/174 147/176/174
f 154/175/175 170/186/175 155/177/175
f 148/178/176 162/201/176 163/202/176
f 159/194/177 175/203/177 160/197/177
f 167/196/178 183/204/178 168/198/178
f 160/197/179 176/205/179 161/199/179
f 169/200/180 183/204/180 184/206/180
f 161/199/181 177/207/181 162/201/181
f 169/200/182 185/208/182 170/186/182
f 163/202/183 177/207/183 178/209/183
f 170/186/184 186/210/184 171/187/184
f 163/202/185 179/211/185 164/188/185
f 172/189/186 186/210/186 187/212/186
f 165/190/187 179/211/187 180/213/187
f 173/191/188 187/212/188 188/214/188
f 166/192/189 180/213/189 181/215/189
f 159/194/190 1/216/190 174/217/190
f 8/218/191 173/191/191 188/214/191
f 166/192/192 182/219/192 167/196/192
f 178/209/193 194/220/193 179/211/193
f 186/210/194 202/221/194 187/212/194
f 180/213/195 194/220/195 195/222/195
f 187/212/196 203/223/196 188/214/196
f 181/215/197 195/222/197 196/224/197
f 174/217/198 1/225/198 189/226/198
f 8/227/199 188/214/199 203/223/199
f 181/215/200 197/228/200 182/219/200
f 175/203/201 189/226/201 190/229/201
f 182/219/202 198/230/202 183/204/202
f 176/205/203 190/229/203 191/231/203
f 184/206/204 198/230/204 199/232/204
f 176/205/205 192/233/205 177/207/205
f 184/206/206 200/234/206 185/208/206
f 178/209/207 192/233/207 193/235/207
f 186/210/208 200/234/208 201/236/208
f 197/228/209 213/237/209 198/230/209
f 190/229/210 206/238/210 191/231/210
f 199/232/211 213/237/211 214/239/211
f 191/231/212 207/240/212 192/233/212
f 199/232/213 215/241/213 200/234/213
f 193/235/214 207/240/214 208/242/214
f 201/236/215 215/241/215 216/243/215
f 193/235/216 209/244/216 194/220/216
f 201/236/217 217/245/217 202/221/217
f 195/222/218 209/244/218 210/246/218
f 202/221/219 218/247/219 203/223/219
f 196/224/220 210/246/220 211/248/220
f 189/226/221 1/249/221 204/250/221
f 8/251/222 203/223/222 218/247/222
f 196/224/223 212/252/223 197/228/223
f 189/226/224 205/253/224 190/229/224
f 216/243/225 232/254/225 217/245/225
f 210/246/226 224/255/226 225/256/226
f 217/245/227 233/257/227 218/247/227
f 211/248/228 225/256/228 226/258/228
f 204/250/229 1/259/229 219/260/229
f 8/261/230 218/247/230 233/257/230
f 211/248/231 227/262/231 212/252/231
f 204/250/232 220/263/232 205/253/232
f 212/252/233 228/264/233 213/237/233
f 205/253/234 221/265/234 206/238/234
f 214/239/235 228/264/235 229/266/235
f 206/238/236 222/267/236 207/240/236
f 214/239/237 230/268/237 215/241/237
f 208/242/238 222/267/238 223/269/238
f 216/243/239 230/268/239 231/270/239
f 208/242/240 224/255/240 209/244/240
f 221/265/241 235/271/241 236/272/241
f 229/266/242 243/273/242 244/274/242
f 221/265/243 237/275/243 222/267/243
f 229/266/244 245/276/244 230/268/244
f 223/269/245 237/275/245 238/277/245
f 231/270/246 245/276/246 246/278/246
f 223/269/247 239/279/247 224/255/247
f 231/270/248 247/280/248 232/254/248
f 225/256/249 239/279/249 240/281/249
f 233/257/250 247/280/250 248/282/250
f 226/258/251 240/281/251 241/283/251
f 219/260/252 1/284/252 234/285/252
f 8/286/253 233/257/253 248/282/253
f 226/258/254 242/287/254 227/262/254
f 219/260/255 235/271/255 220/263/255
f 227/262/256 243/273/256 228/264/256
f 240/281/257 254/288/257 255/289/257
f 247/280/258 263/290/258 248/282/258
f 241/283/259 255/289/259 256/291/259
f 234/285/260 1/292/260 249/293/260
f 8/294/261 248/282/261 263/290/261
f 241/283/262 257/295/262 242/287/262
f 234/285/263 250/296/263 235/271/263
f 242/287/264 258/297/264 243/273/264
f 235/271/265 251/298/265 236/272/265
f 244/274/266 258/297/266 259/299/266
f 236/272/267 252/300/267 237/275/267
f 244/274/268 260/301/268 245/276/268
f 238/277/269 252/300/269 253/302/269
f 246/278/270 260/301/270 261/303/270
f 238/277/271 254/288/271 239/279/271
f 246/278/272 262/304/272 247/280/272
f 259/299/273 273/305/273 274/306/273
f 251/298/274 267/307/274 252/300/274
f 259/299/275 275/308/275 260/301/275
f 253/302/276 267/307/276 268/309/276
f 261/303/277 275/308/277 276/310/277
f 253/302/278 269/311/278 254/288/278
f 261/303/279 277/312/279 262/304/279
f 255/289/280 269/311/280 270/313/280
f 262/304/281 278/314/281 263/290/281
f 256/291/282 270/313/282 271/315/282
f 249/293/283 1/316/283 264/317/283
f 8/318/284 263/290/284 278/314/284
f 256/291/285 272/319/285 257/295/285
f 250/296/286 264/317/286 265/320/286
f 257/295/287 273/305/287 258/297/287
f 250/296/288 266/321/288 251/298/288
f 278/314/289 292/322/289 293/323/289
f 271/315/290 285/324/290 286/325/290
f 264/317/291 1/326/291 279/327/291
f 8/328/292 278/314/292 293/323/292
f 271/315/293 287/329/293 272/319/293
f 265/320/294 279/327/294 280/330/294
f 272/319/295 288/331/295 273/305/295
f 265/320/296 281/332/296 266/321/296
f 274/306/297 288/331/297 289/333/297
f 266/321/298 282/334/298 267/307/298
f 274/306/299 290/335/299 275/308/299
f 268/309/300 282/334/300 283/336/300
f 276/310/301 290/335/301 291/337/301
f 268/309/302 284/338/302 269/311/302
f 276/310/303 292/322/303 277/312/303
f 270/313/304 284/338/304 285/324/304
f 289/333/305 305/339/305 290/335/305
f 283/336/306 297/340/306 298/341/306
f 291/337/307 305/339/307 306/342/307
f 283/336/308 299/343/308 284/338/308
f 291/337/309 307/344/309 292/322/309
f 285/324/310 299/343/310 300/345/310
f 293/323/311 307/344/311 308/346/311
f 286/325/312 300/345/312 301/347/312
f 279/327/313 1/348/313 294/349/313
f 8/350/314 293/323/314 308/346/314
f 286/325/315 302/351/315 287/329/315
f 279/327/316 295/352/316 280/330/316
f 287/329/317 303/353/317 288/331/317
f 280/330/318 296/354/318 281/332/318
f 289/333/319 303/353/319 304/355/319
f 281/332/320 297/340/320 282/334/320
f 294/349/321 1/356/321 309/357/321
f 8/358/322 308/346/322 323/359/322
f 301/347/323 317/360/323 302/351/323
f 294/349/324 310/361/324 295/352/324
f 302/351/325 318/362/325 303/353/325
f 295/352/326 311/363/326 296/354/326
f 304/355/327 318/362/327 319/364/327
f 296/354/328 312/365/328 297/340/328
f 304/355/329 320/366/329 305/339/329
f 298/341/330 312/365/330 313/367/330
f 306/342/331 320/366/331 321/368/331
f 298/341/332 314/369/332 299/343/332
f 306/342/333 322/370/333 307/344/333
f 300/345/334 314/369/334 315/371/334
f 307/344/335 323/359/335 308/346/335
f 301/347/336 315/371/336 316/372/336
f 312/365/337 328/373/337 313/367/337
f 321/368/338 335/374/338 336/375/338
f 313/367/339 329/376/339 314/369/339
f 321/368/340 337/377/340 322/370/340
f 315/371/341 329/376/341 330/378/341
f 322/370/342 338/379/342 323/359/342
f 316/372/343 330/378/343 331/380/343
f 309/357/344 1/381/344 324/382/344
f 8/383/345 323/359/345 338/379/345
f 316/372/346 332/384/346 317/360/346
f 309/357/347 325/385/347 310/361/347
f 317/360/348 333/386/348 318/362/348
f 310/361/349 326/387/349 311/363/349
f 319/364/350 333/386/350 334/388/350
f 311/363/351 327/389/351 312/365/351
f 319/364/352 335/374/352 320/366/352
f 331/380/353 347/390/353 332/384/353
f 324/382/354 340/391/354 325/385/354
f 332/384/355 348/392/355 333/386/355
f 325/385/356 341/393/356 326/387/356
f 334/388/357 348/392/357 349/394/357
f 326/387/358 342/395/358 327/389/358
f 334/388/359 350/396/359 335/374/359
f 328/373/360 342/395/360 343/397/360
f 336/375/361 350/396/361 351/398/361
f 328/373/362 344/399/362 329/376/362
f 336/375/363 352/400/363 337/377/363
f 330/378/364 344/399/364 345/401/364
f 337/377/365 353/402/365 338/379/365
f 331/380/366 345/401/366 346/403/366
f 324/382/367 1/404/367 339/405/367
f 8/406/368 338/379/368 353/402/368
f 351/398/369 365/407/369 366/408/369
f 343/397/370 359/409/370 344/399/370
f 351/398/371 367/410/371 352/400/371
f 345/401/372 359/409/372 360/411/372
f 352/400/373 368/412/373 353/402/373
f 346/403/374 360/411/374 361/413/374
f 339/405/375 1/414/375 354/415/375
f 8/416/376 353/402/376 368/412/376
f 346/403/377 362/417/377 347/390/377
f 339/405/378 355/418/378 340/391/378
f 347/390/379 363/419/379 348/392/379
f 341/393/380 355/418/380 356/420/380
f 349/394/381 363/419/381 364/421/381
f 341/393/382 357/422/382 342/395/382
f 349/394/383 365/407/383 350/396/383
f 343/397/384 357/422/384 358/423/384
f 354/424/385 370/425/385 355/426/385
f 362/427/386 378/428/386 363/429/386
f 356/430/387 370/425/387 371/431/387
f 364/432/388 378/428/388 379/433/388
f 356/430/389 372/434/389 357/435/389
f 364/432/390 380/436/390 365/437/390
f 358/438/391 372/434/391 373/439/391
f 366/440/392 380/436/392 381/441/392
f 358/438/393 374/442/393 359/443/393
f 366/440/394 382/444/394 367/445/394
f 360/446/395 374/442/395 375/447/395
f 367/445/396 383/448/396 368/449/396
f 361/450/397 375/447/397 376/451/397
f 354/424/398 1/452/398 369/453/398
f 8/454/399 368/449/399 383/448/399
f 361/450/400 377/455/400 362/427/400
f 373/439/401 389/456/401 374/442/401
f 381/441/402 397/457/402 382/444/402
f 375/447/403 389/456/403 390/458/403
f 382/444/404 398/459/404 383/448/404
f 376/451/405 390/458/405 391/460/405
f 369/453/406 1/461/406 384/462/406
f 8/463/407 383/448/407 398/459/407
f 376/451/408 392/464/408 377/455/408
f 369/453/409 385/465/409 370/425/409
f 377/455/410 393/466/410 378/428/410
f 371/431/411 385/465/411 386/467/411
f 379/433/412 393/466/412 394/468/412
f 371/431/413 387/469/413 372/434/413
f 379/433/414 395/470/414 380/436/414
f 373/439/415 387/469/415 388/471/415
f 381/441/416 395/470/416 396/472/416
f 392/464/417 408/473/417 393/466/417
f 385/465/418 401/474/418 386/467/418
f 394/468/419 408/473/419 409/475/419
f 386/467/420 402/476/420 387/469/420
f 394/468/421 410/477/421 395/470/421
f 388/471/422 402/476/422 403/478/422
f 396/472/423 410/477/423 411/479/423
f 388/471/424 404/480/424 389/456/424
f 397/457/425 411/479/425 412/481/425
f 390/458/426 404/480/426 405/482/426
f 397/457/427 413/483/427 398/459/427
f 391/460/428 405/482/428 406/484/428
f 384/462/429 1/485/429 399/486/429
f 8/487/430 398/459/430 413/483/430
f 391/460/431 407/488/431 392/464/431
f 385/465/432 399/486/432 400/489/432
f 411/479/433 427/490/433 412/481/433
f 405/482/434 419/491/434 420/492/434
f 412/481/435 428/493/435 413/483/435
f 406/484/436 420/492/436 421/494/436
f 399/486/437 1/495/437 414/496/437
f 8/497/438 413/483/438 428/493/438
f 406/484/439 422/498/439 407/488/439
f 399/486/440 415/499/440 400/489/440
f 407/488/441 423/500/441 408/473/441
f 401/474/442 415/499/442 416/501/442
f 409/475/443 423/500/443 424/502/443
f 401/474/444 417/503/444 402/476/444
f 409/475/445 425/504/445 410/477/445
f 403/478/446 417/503/446 418/505/446
f 411/479/447 425/504/447 426/506/447
f 403/478/448 419/491/448 404/480/448
f 424/502/449 438/507/449 439/508/449
f 416/501/450 432/509/450 417/503/450
f 424/502/451 440/510/451 425/504/451
f 418/505/452 432/509/452 433/511/452
f 426/506/453 440/510/453 441/512/453
f 418/505/454 434/513/454 419/491/454
f 426/506/455 442/514/455 427/490/455
f 420/492/456 434/513/456 435/515/456
f 427/490/457 443/516/457 428/493/457
f 421/494/458 435/515/458 436/517/458
f 414/496/459 1/518/459 429/519/459
f 8/520/460 428/493/460 443/516/460
f 421/494/461 437/521/461 422/498/461
f 414/496/462 430/522/462 415/499/462
f 422/498/463 438/507/463 423/500/463
f 416/501/464 430/522/464 431/523/464
f 442/514/465 458/524/465 443/516/465
f 436/517/466 450/525/466 451/526/466
f 429/519/467 1/527/467 444/528/467
f 8/529/468 443/516/468 458/524/468
f 436/517/469 452/530/469 437/521/469
f 430/522/470 444/528/470 445/531/470
f 437/521/471 453/532/471 438/507/471
f 430/522/472 446/533/472 431/523/472
f 439/508/473 453/532/473 454/534/473
f 431/523/474 447/535/474 432/509/474
f 439/508/475 455/536/475 440/510/475
f 433/511/476 447/535/476 448/537/476
f 441/512/477 455/536/477 456/538/477
f 433/511/478 449/539/478 434/513/478
f 441/512/479 457/540/479 442/514/479
f 435/515/480 449/539/480 450/525/480
f 446/533/481 462/541/481 447/535/481
f 454/534/482 470/542/482 455/536/482
f 448/537/483 462/541/483 463/543/483
f 456/538/484 470/542/484 471/544/484
f 448/537/485 464/545/485 449/539/485
f 456/538/486 472/546/486 457/540/486
f 450/525/487 464/545/487 465/547/487
f 458/524/488 472/546/488 473/548/488
f 451/526/489 465/547/489 466/549/489
f 444/528/490 1/550/490 459/551/490
f 8/552/491 458/524/491 473/548/491
f 451/526/492 467/553/492 452/530/492
f 444/528/493 460/554/493 445/531/493
f 452/530/494 468/555/494 453/532/494
f 446/533/495 460/554/495 461/556/495
f 454/534/496 468/555/496 469/557/496
f 466/549/497 4/4/497 5/6/497
f 459/551/498 1/558/498 474/7/498
f 8/559/499 473/548/499 482/3/499
f 466/549/500 6/12/500 467/553/500
f 460/554/501 474/7/501 475/13/501
f 467/553/502 478/16/502 468/555/502
f 461/556/503 475/13/503 2/17/503
f 468/555/504 7/20/504 469/557/504
f 462/541/505 2/17/505 476/21/505
f 469/557/506 479/24/506 470/542/506
f 463/543/507 476/21/507 3/25/507
f 471/544/508 479/24/508 480/28/508
f 464/545/509 3/25/509 477/29/509
f 471/544/510 481/1/510 472/546/510
f 465/547/511 477/29/511 4/4/511
f 472/546/512 482/3/512 473/548/512
f 481/1/1 22/31/1 23/2/1
f 4/4/513 15/32/513 16/5/513
f 5/6/514 16/5/514 17/11/514
f 475/13/6 474/7/6 9/9/6
f 6/12/7 17/11/7 18/15/7
f 2/17/8 475/13/8 10/14/8
f 478/16/9 18/15/9 19/19/9
f 476/21/10 2/17/10 11/18/10
f 7/20/11 19/19/11 20/23/11
f 3/25/12 476/21/12 12/22/12
f 479/24/13 20/23/13 21/27/13
f 477/29/14 3/25/14 13/26/14
f 480/28/15 21/27/15 22/31/15
f 4/4/16 477/29/16 14/30/16
f 22/31/17 21/27/17 36/33/17
f 15/32/18 14/30/18 29/35/18
f 22/31/19 37/34/19 38/37/19
f 15/32/20 30/36/20 31/38/20
f 16/5/23 31/38/23 32/42/23
f 9/9/24 24/40/24 25/43/24
f 17/11/25 32/42/25 33/44/25
f 10/14/26 25/43/26 26/45/26
f 18/15/27 33/44/27 34/46/27
f 11/18/28 26/45/28 27/47/28
f 19/19/29 34/46/29 35/48/29
f 12/22/30 27/47/30 28/49/30
f 21/27/31 20/23/31 35/48/31
f 13/26/32 28/49/32 29/35/32
f 25/43/515 40/66/515 41/50/515
f 34/46/34 33/44/34 48/51/34
f 26/45/35 41/50/35 42/53/35
f 35/48/36 34/46/36 49/52/36
f 27/47/37 42/53/37 43/55/37
f 36/33/38 35/48/38 50/54/38
f 28/49/39 43/55/39 44/57/39
f 36/33/516 51/56/516 52/58/516
f 29/35/41 44/57/41 45/59/41
f 37/34/42 52/58/42 53/60/42
f 30/36/43 45/59/43 46/61/43
f 32/42/46 31/38/46 46/61/46
f 24/40/47 39/63/47 40/66/47
f 32/42/48 47/65/48 48/51/48
f 45/59/49 44/57/49 59/67/49
f 52/58/50 67/83/50 68/69/50
f 46/61/51 45/59/51 60/68/51
f 46/61/54 61/70/54 62/74/54
f 39/63/55 54/72/55 55/75/55
f 47/65/56 62/74/56 63/76/56
f 40/66/57 55/75/57 56/77/57
f 49/52/58 48/51/58 63/76/58
f 41/50/59 56/77/59 57/79/59
f 49/52/60 64/78/60 65/80/60
f 42/53/61 57/79/61 58/81/61
f 50/54/62 65/80/62 66/82/62
f 43/55/63 58/81/63 59/67/63
f 51/56/64 66/82/64 67/83/64
f 64/78/65 63/76/65 78/84/65
f 56/77/66 71/100/66 72/86/66
f 64/78/67 79/85/67 80/87/67
f 58/81/68 57/79/68 72/86/68
f 65/80/69 80/87/69 81/89/69
f 58/81/70 73/88/70 74/90/70
f 67/83/71 66/82/71 81/89/71
f 60/68/72 59/67/72 74/90/72
f 67/83/517 82/91/517 83/93/517
f 61/70/74 60/68/74 75/92/74
f 61/70/77 76/94/77 77/98/77
f 54/72/78 69/96/78 70/99/78
f 62/74/79 77/98/79 78/84/79
f 55/75/80 70/99/80 71/100/80
f 83/93/81 82/91/81 97/101/81
f 76/94/82 75/92/82 90/103/82
f 76/94/85 91/104/85 92/108/85
f 69/96/86 84/106/86 85/109/86
f 77/98/87 92/108/87 93/110/87
f 70/99/88 85/109/88 86/111/88
f 79/85/89 78/84/89 93/110/89
f 71/100/90 86/111/90 87/113/90
f 79/85/91 94/112/91 95/114/91
f 73/88/92 72/86/92 87/113/92
f 80/87/93 95/114/93 96/116/93
f 73/88/94 88/115/94 89/117/94
f 81/89/95 96/116/95 97/101/95
f 75/92/96 74/90/96 89/117/96
f 86/111/97 101/133/97 102/118/97
f 94/112/98 109/134/98 110/119/98
f 88/115/99 87/113/99 102/118/99
f 96/116/100 95/114/100 110/119/100
f 88/115/101 103/120/101 104/122/101
f 97/101/102 96/116/102 111/121/102
f 90/103/103 89/117/103 104/122/103
f 97/101/104 112/123/104 113/125/104
f 91/104/105 90/103/105 105/124/105
f 91/104/108 106/126/108 107/130/108
f 85/109/109 84/106/109 99/128/109
f 92/108/110 107/130/110 108/132/110
f 85/109/111 100/131/111 101/133/111
f 94/112/112 93/110/112 108/132/112
f 106/126/113 105/124/113 120/135/113
f 106/126/116 121/136/116 122/141/116
f 100/131/117 99/128/117 114/138/117
f 107/130/118 122/141/118 123/143/118
f 100/131/119 115/142/119 116/144/119
f 109/134/120 108/132/120 123/143/120
f 101/133/121 116/144/121 117/146/121
f 109/134/122 124/145/122 125/147/122
f 103/120/123 102/118/123 117/146/123
f 111/121/124 110/119/124 125/147/124
f 103/120/125 118/148/125 119/150/125
f 111/121/126 126/149/126 127/151/126
f 105/124/127 104/122/127 119/150/127
f 112/123/128 127/151/128 128/140/128
f 124/145/129 139/168/129 140/152/129
f 118/148/130 117/146/130 132/153/130
f 126/149/131 125/147/131 140/152/131
f 118/148/132 133/154/132 134/156/132
f 126/149/133 141/155/133 142/157/133
f 120/135/134 119/150/134 134/156/134
f 127/151/135 142/157/135 143/159/135
f 121/136/136 120/135/136 135/158/136
f 121/136/139 136/160/139 137/164/139
f 114/138/140 129/162/140 130/165/140
f 122/141/141 137/164/141 138/166/141
f 115/142/142 130/165/142 131/167/142
f 124/145/143 123/143/143 138/166/143
f 116/144/144 131/167/144 132/153/144
f 136/160/146 151/183/146 152/171/146
f 129/162/147 144/185/147 145/172/147
f 137/164/148 152/171/148 153/173/148
f 131/167/149 130/165/149 145/172/149
f 139/168/150 138/166/150 153/173/150
f 131/167/151 146/174/151 147/176/151
f 139/168/152 154/175/152 155/177/152
f 133/154/153 132/153/153 147/176/153
f 141/155/154 140/152/154 155/177/154
f 133/154/155 148/178/155 149/180/155
f 141/155/156 156/179/156 157/181/156
f 135/158/157 134/156/157 149/180/157
f 143/159/158 142/157/158 157/181/158
f 136/160/159 135/158/159 150/182/159
f 156/179/161 155/177/161 170/186/161
f 148/178/162 163/202/162 164/188/162
f 156/179/518 171/187/518 172/189/518
f 150/182/164 149/180/164 164/188/164
f 157/181/165 172/189/165 173/191/165
f 151/183/166 150/182/166 165/190/166
f 151/183/169 166/192/169 167/196/169
f 144/185/170 159/194/170 160/197/170
f 152/171/171 167/196/171 168/198/171
f 146/174/519 145/172/519 160/197/519
f 154/175/173 153/173/173 168/198/173
f 146/174/174 161/199/174 162/201/174
f 154/175/175 169/200/175 170/186/175
f 148/178/176 147/176/176 162/201/176
f 159/194/177 174/217/177 175/203/177
f 167/196/178 182/219/178 183/204/178
f 160/197/179 175/203/179 176/205/179
f 169/200/180 168/198/180 183/204/180
f 161/199/181 176/205/181 177/207/181
f 169/200/182 184/206/182 185/208/182
f 163/202/183 162/201/183 177/207/183
f 170/186/184 185/208/184 186/210/184
f 163/202/185 178/209/185 179/211/185
f 172/189/186 171/187/186 186/210/186
f 165/190/187 164/188/187 179/211/187
f 173/191/188 172/189/188 187/212/188
f 166/192/189 165/190/189 180/213/189
f 166/192/192 181/215/192 182/219/192
f 178/209/193 193/235/193 194/220/193
f 186/210/194 201/236/194 202/221/194
f 180/213/195 179/211/195 194/220/195
f 187/212/196 202/221/196 203/223/196
f 181/215/197 180/213/197 195/222/197
f 181/215/200 196/224/200 197/228/200
f 175/203/201 174/217/201 189/226/201
f 182/219/202 197/228/202 198/230/202
f 176/205/203 175/203/203 190/229/203
f 184/206/204 183/204/204 198/230/204
f 176/205/205 191/231/205 192/233/205
f 184/206/206 199/232/206 200/234/206
f 178/209/207 177/207/207 192/233/207
f 186/210/208 185/208/208 200/234/208
f 197/228/209 212/252/209 213/237/209
f 190/229/210 205/253/210 206/238/210
f 199/232/211 198/230/211 213/237/211
f 191/231/212 206/238/212 207/240/212
f 199/232/213 214/239/213 215/241/213
f 193/235/214 192/233/214 207/240/214
f 201/236/215 200/234/215 215/241/215
f 193/235/216 208/242/216 209/244/216
f 201/236/520 216/243/520 217/245/520
f 195/222/218 194/220/218 209/244/218
f 202/221/219 217/245/219 218/247/219
f 196/224/220 195/222/220 210/246/220
f 196/224/223 211/248/223 212/252/223
f 189/226/224 204/250/224 205/253/224
f 216/243/225 231/270/225 232/254/225
f 210/246/226 209/244/226 224/255/226
f 217/245/227 232/254/227 233/257/227
f 211/248/228 210/246/228 225/256/228
f 211/248/231 226/258/231 227/262/231
f 204/250/232 219/260/232 220/263/232
f 212/252/233 227/262/233 228/264/233
f 205/253/234 220/263/234 221/265/234
f 214/239/235 213/237/235 228/264/235
f 206/238/236 221/265/236 222/267/236
f 214/239/237 229/266/237 230/268/237
f 208/242/238 207/240/238 222/267/238
f 216/243/239 215/241/239 230/268/239
f 208/242/240 223/269/240 224/255/240
f 221/265/241 220/263/241 235/271/241
f 229/266/242 228/264/242 243/273/242
f 221/265/243 236/272/243 237/275/243
f 229/266/244 244/274/244 245/276/244
f 223/269/245 222/267/245 237/275/245
f 231/270/246 230/268/246 245/276/246
f 223/269/247 238/277/247 239/279/247
f 231/270/248 246/278/248 247/280/248
f 225/256/249 224/255/249 239/279/249
f 233/257/250 232/254/250 247/280/250
f 226/258/251 225/256/251 240/281/251
f 226/258/254 241/283/254 242/287/254
f 219/260/255 234/285/255 235/271/255
f 227/262/256 242/287/256 243/273/256
f 240/281/257 239/279/257 254/288/257
f 247/280/258 262/304/258 263/290/258
f 241/283/521 240/281/521 255/289/521
f 241/283/522 256/291/522 257/295/522
f 234/285/263 249/293/263 250/296/263
f 242/287/264 257/295/264 258/297/264
f 235/271/265 250/296/265 251/298/265
f 244/274/266 243/273/266 258/297/266
f 236/272/267 251/298/267 252/300/267
f 244/274/268 259/299/268 260/301/268
f 238/277/269 237/275/269 252/300/269
f 246/278/270 245/276/270 260/301/270
f 238/277/271 253/302/271 254/288/271
f 246/278/272 261/303/272 262/304/272
f 259/299/273 258/297/273 273/305/273
f 251/298/274 266/321/274 267/307/274
f 259/299/275 274/306/275 275/308/275
f 253/302/276 252/300/276 267/307/276
f 261/303/277 260/301/277 275/308/277
f 253/302/278 268/309/278 269/311/278
f 261/303/279 276/310/279 277/312/279
f 255/289/280 254/288/280 269/311/280
f 262/304/281 277/312/281 278/314/281
f 256/291/282 255/289/282 270/313/282
f 256/291/285 271/315/285 272/319/285
f 250/296/286 249/293/286 264/317/286
f 257/295/287 272/319/287 273/305/287
f 250/296/288 265/320/288 266/321/288
f 278/314/289 277/312/289 292/322/289
f 271/315/290 270/313/290 285/324/290
f 271/315/293 286/325/293 287/329/293
f 265/320/294 264/317/294 279/327/294
f 272/319/295 287/329/295 288/331/295
f 265/320/523 280/330/523 281/332/523
f 274/306/297 273/305/297 288/331/297
f 266/321/298 281/332/298 282/334/298
f 274/306/299 289/333/299 290/335/299
f 268/309/300 267/307/300 282/334/300
f 276/310/301 275/308/301 290/335/301
f 268/309/302 283/336/302 284/338/302
f 276/310/524 291/337/524 292/322/524
f 270/313/304 269/311/304 284/338/304
f 289/333/305 304/355/305 305/339/305
f 283/336/306 282/334/306 297/340/306
f 291/337/307 290/335/307 305/339/307
f 283/336/308 298/341/308 299/343/308
f 291/337/309 306/342/309 307/344/309
f 285/324/310 284/338/310 299/343/310
f 293/323/311 292/322/311 307/344/311
f 286/325/312 285/324/312 300/345/312
f 286/325/315 301/347/315 302/351/315
f 279/327/316 294/349/316 295/352/316
f 287/329/317 302/351/317 303/353/317
f 280/330/318 295/352/318 296/354/318
f 289/333/319 288/331/319 303/353/319
f 281/332/320 296/354/320 297/340/320
f 301/347/323 316/372/323 317/360/323
f 294/349/324 309/357/324 310/361/324
f 302/351/325 317/360/325 318/362/325
f 295/352/326 310/361/326 311/363/326
f 304/355/327 303/353/327 318/362/327
f 296/354/328 311/363/328 312/365/328
f 304/355/329 319/364/329 320/366/329
f 298/341/330 297/340/330 312/365/330
f 306/342/331 305/339/331 320/366/331
f 298/341/332 313/367/332 314/369/332
f 306/342/333 321/368/333 322/370/333
f 300/345/334 299/343/334 314/369/334
f 307/344/525 322/370/525 323/359/525
f 301/347/336 300/345/336 315/371/336
f 312/365/337 327/389/337 328/373/337
f 321/368/338 320/366/338 335/374/338
f 313/367/339 328/373/339 329/376/339
f 321/368/526 336/375/526 337/377/526
f 315/371/341 314/369/341 329/376/341
f 322/370/342 337/377/342 338/379/342
f 316/372/343 315/371/343 330/378/343
f 316/372/346 331/380/346 332/384/346
f 309/357/347 324/382/347 325/385/347
f 317/360/348 332/384/348 333/386/348
f 310/361/349 325/385/349 326/387/349
f 319/364/350 318/362/350 333/386/350
f 311/363/351 326/387/351 327/389/351
f 319/364/352 334/388/352 335/374/352
f 331/380/353 346/403/353 347/390/353
f 324/382/354 339/405/354 340/391/354
f 332/384/355 347/390/355 348/392/355
f 325/385/356 340/391/356 341/393/356
f 334/388/357 333/386/357 348/392/357
f 326/387/358 341/393/358 342/395/358
f 334/388/359 349/394/359 350/396/359
f 328/373/360 327/389/360 342/395/360
f 336/375/361 335/374/361 350/396/361
f 328/373/362 343/397/362 344/399/362
f 336/375/363 351/398/363 352/400/363
f 330/378/364 329/376/364 344/399/364
f 337/377/365 352/400/365 353/402/365
f 331/380/366 330/378/366 345/401/366
f 351/398/369 350/396/369 365/407/369
f 343/397/370 358/423/370 359/409/370
f 351/398/371 366/408/371 367/410/371
f 345/401/372 344/399/372 359/409/372
f 352/400/373 367/410/373 368/412/373
f 346/403/527 345/401/527 360/411/527
f 346/403/528 361/413/528 362/417/528
f 339/405/378 354/415/378 355/418/378
f 347/390/379 362/417/379 363/419/379
f 341/393/380 340/391/380 355/418/380
f 349/394/381 348/392/381 363/419/381
f 341/393/382 356/420/382 357/422/382
f 349/394/383 364/421/383 365/407/383
f 343/397/384 342/395/384 357/422/384
f 354/424/385 369/453/385 370/425/385
f 362/427/386 377/455/386 378/428/386
f 356/430/387 355/426/387 370/425/387
f 364/432/388 363/429/388 378/428/388
f 356/430/389 371/431/389 372/434/389
f 364/432/390 379/433/390 380/436/390
f 358/438/391 357/435/391 372/434/391
f 366/440/392 365/437/392 380/436/392
f 358/438/393 373/439/393 374/442/393
f 366/440/394 381/441/394 382/444/394
f 360/446/395 359/443/395 374/442/395
f 367/445/396 382/444/396 383/448/396
f 361/450/529 360/446/529 375/447/529
f 361/450/530 376/451/530 377/455/530
f 373/439/401 388/471/401 389/456/401
f 381/441/402 396/472/402 397/457/402
f 375/447/403 374/442/403 389/456/403
f 382/444/404 397/457/404 398/459/404
f 376/451/405 375/447/405 390/458/405
f 376/451/408 391/460/408 392/464/408
f 369/453/409 384/462/409 385/465/409
f 377/455/410 392/464/410 393/466/410
f 371/431/411 370/425/411 385/465/411
f 379/433/412 378/428/412 393/466/412
f 371/431/413 386/467/413 387/469/413
f 379/433/414 394/468/414 395/470/414
f 373/439/415 372/434/415 387/469/415
f 381/441/416 380/436/416 395/470/416
f 392/464/417 407/488/417 408/473/417
f 385/465/418 400/489/418 401/474/418
f 394/468/419 393/466/419 408/473/419
f 386/467/420 401/474/420 402/476/420
f 394/468/421 409/475/421 410/477/421
f 388/471/422 387/469/422 402/476/422
f 396/472/423 395/470/423 410/477/423
f 388/471/424 403/478/424 404/480/424
f 397/457/425 396/472/425 411/479/425
f 390/458/426 389/456/426 404/480/426
f 397/457/427 412/481/427 413/483/427
f 391/460/428 390/458/428 405/482/428
f 391/460/431 406/484/431 407/488/431
f 385/465/432 384/462/432 399/486/432
f 411/479/433 426/506/433 427/490/433
f 405/482/434 404/480/434 419/491/434
f 412/481/435 427/490/435 428/493/435
f 406/484/436 405/482/436 420/492/436
f 406/484/439 421/494/439 422/498/439
f 399/486/440 414/496/440 415/499/440
f 407/488/441 422/498/441 423/500/441
f 401/474/442 400/489/442 415/499/442
f 409/475/443 408/473/443 423/500/443
f 401/474/444 416/501/444 417/503/444
f 409/475/445 424/502/445 425/504/445
f 403/478/446 402/476/446 417/503/446
f 411/479/447 410/477/447 425/504/447
f 403/478/448 418/505/448 419/491/448
f 424/502/449 423/500/449 438/507/449
f 416/501/450 431/523/450 432/509/450
f 424/502/451 439/508/451 440/510/451
f 418/505/452 417/503/452 432/509/452
f 426/506/453 425/504/453 440/510/453
f 418/505/454 433/511/454 434/513/454
f 426/506/455 441/512/455 442/514/455
f 420/492/456 419/491/456 434/513/456
f 427/490/457 442/514/457 443/516/457
f 421/494/458 420/492/458 435/515/458
f 421/494/461 436/517/461 437/521/461
f 414/496/462 429/519/462 430/522/462
f 422/498/463 437/521/463 438/507/463
f 416/501/464 415/499/464 430/522/464
f 442/514/465 457/540/465 458/524/465
f 436/517/466 435/515/466 450/525/466
f 436/517/469 451/526/469 452/530/469
f 430/522/470 429/519/470 444/528/470
f 437/521/471 452/530/471 453/532/471
f 430/522/472 445/531/472 446/533/472
f 439/508/473 438/507/473 453/532/473
f 431/523/474 446/533/474 447/535/474
f 439/508/475 454/534/475 455/536/475
f 433/511/476 432/509/476 447/535/476
f 441/512/477 440/510/477 455/536/477
f 433/511/478 448/537/478 449/539/478
f 441/512/479 456/538/479 457/540/479
f 435/515/480 434/513/480 449/539/480
f 446/533/481 461/556/481 462/541/481
f 454/534/482 469/557/482 470/542/482
f 448/537/483 447/535/483 462/541/483
f 456/538/484 455/536/484 470/542/484
f 448/537/485 463/543/485 464/545/485
f 456/538/486 471/544/486 472/546/486
f 450/525/487 449/539/487 464/545/487
f 458/524/488 457/540/488 472/546/488
f 451/526/489 450/525/489 465/547/489
f 451/526/492 466/549/492 467/553/492
f 444/528/493 459/551/493 460/554/493
f 452/530/494 467/553/494 468/555/494
f 446/533/495 445/531/495 460/554/495
f 454/534/496 453/532/496 468/555/496
f 466/549/497 465/547/497 4/4/497
f 466/549/500 5/6/500 6/12/500
f 460/554/501 459/551/501 474/7/501
f 467/553/502 6/12/502 478/16/502
f 461/556/503 460/554/503 475/13/503
f 468/555/504 478/16/504 7/20/504
f 462/541/505 461/556/505 2/17/505
f 469/557/506 7/20/506 479/24/506
f 463/543/507 462/541/507 476/21/507
f 471/544/508 470/542/508 479/24/508
f 464/545/509 463/543/509 3/25/509
f 471/544/510 480/28/510 481/1/510
f 465/547/511 464/545/511 477/29/511
f 472/546/512 481/1/512 482/3/512
