# Blender 4.0.2
# www.blender.org
mtllib testplatform.mtl
o Cube.001
v -1.543738 -0.500821 7.258962
v -1.543738 0.525846 7.322694
v -0.126545 -0.446810 6.317373
v -0.126545 0.579856 6.381105
v -0.043111 -0.640087 9.502395
v -0.043111 0.386580 9.566128
v 1.374082 -0.586076 8.560806
v 1.374082 0.440590 8.624538
v -0.115005 0.393252 9.458646
v 1.302188 -0.579404 8.453324
v -0.115005 -0.633415 9.394913
v 1.302188 0.447262 8.517056
v -1.403435 0.512825 7.532446
v 0.013758 -0.459831 6.527125
v -1.403435 -0.513842 7.468714
v 0.013758 0.566836 6.590858
v -1.543738 0.894529 7.345581
v -0.126545 0.948540 6.403992
v -1.403435 0.881508 7.555333
v 0.013758 0.935519 6.613744
v -0.043111 1.101176 9.610487
v 1.374082 1.155187 8.668899
v -0.115005 1.107848 9.503006
v 1.302188 1.161859 8.561417
v -0.069648 -0.122579 5.397203
v -0.886751 -0.177879 5.048882
v -0.069648 1.012842 5.216943
v 0.098193 -0.183551 5.013158
v -0.718911 -0.238851 4.664837
v 0.098193 0.951870 4.832897
v 0.098193 -0.183551 5.013158
v -0.718911 -0.238851 4.664837
v 0.098193 0.519837 4.901487
v 0.846902 -0.455536 3.299996
v 0.846902 -0.455536 3.299996
v 0.846902 0.247852 3.188324
v 0.029799 -0.510836 2.951674
v 0.029799 -0.510836 2.951674
v 0.029799 -0.510836 2.951674
v 0.029799 -0.510836 2.951674
v 0.221787 -0.580580 2.512375
v 0.221787 -0.580580 2.512375
v 1.038890 -0.525279 2.860697
v 0.221787 0.554841 2.332113
v 1.038890 0.610141 2.680435
v 0.221787 0.554841 2.332113
v 0.029799 0.624585 2.771412
v 0.846902 0.679885 3.119734
v 0.029799 0.624585 2.771412
v 0.029799 0.192552 2.840003
v 0.029799 0.624585 2.771412
v -0.718911 0.464537 4.553165
v -0.718911 0.896570 4.484575
v -0.718911 0.896570 4.484575
v -0.718911 0.896570 4.484575
v -0.886751 0.957542 4.868620
v -0.886751 0.957542 4.868620
v -1.126869 0.941291 4.766261
v -0.886751 -0.177879 5.048882
v -1.126869 -0.194130 4.946523
v -0.718911 -0.238851 4.664837
v -0.959028 -0.255102 4.562477
v -0.718911 -0.238851 4.664837
v -0.959028 -0.255102 4.562477
v -0.210319 -0.527086 2.849315
v -0.959028 0.880319 4.382215
v -0.959028 0.880319 4.382215
v -0.210319 0.608334 2.669053
v -0.210319 0.608334 2.669053
v -0.018331 0.538590 2.229753
v -0.210319 -0.527086 2.849315
v -0.018331 -0.596830 2.410015
v 0.167648 -0.110444 1.422461
v -0.614737 -0.455651 0.257912
v 0.052504 0.667457 1.269225
v 0.897210 -0.099639 0.929112
v 0.114826 -0.444846 -0.235436
v 0.782067 0.678262 0.775876
v -0.000318 0.333055 -0.388673
v -0.729880 0.322249 0.104677
v -0.691775 -0.665029 -1.834740
v -0.691775 -0.016784 -3.726770
v -0.691775 -0.202778 -1.676364
v 0.691775 -0.665029 -1.834740
v 0.691774 -0.016784 -3.726771
v 0.691775 -0.202778 -1.676365
v 0.691774 0.445467 -3.568396
v -0.691776 0.445467 -3.568396
v 0.044273 0.141289 -4.720498
v 0.044273 0.141289 -5.190780
v 0.044273 0.611570 -4.720498
v 0.514554 0.141289 -4.720498
v 0.514554 0.141289 -5.190779
v 0.514554 0.611570 -4.720498
v 0.514555 0.611570 -5.190780
v 0.044273 0.611570 -5.190780
v -0.519600 0.070031 -6.323824
v -0.519602 0.070031 -6.721000
v -0.519601 0.467206 -6.323823
v -0.122426 0.070031 -6.323824
v -0.122426 0.070031 -6.721000
v -0.122425 0.467206 -6.323824
v -0.122425 0.467206 -6.721000
v -0.519601 0.467206 -6.721000
v 0.001620 -0.557501 -7.652310
v 0.001621 -0.557501 -7.789754
v 0.001621 0.347430 -7.652311
v 0.139065 -0.557501 -7.652309
v 0.139065 -0.557501 -7.789752
v 0.139065 0.347430 -7.652309
v 0.139065 0.347430 -7.789752
v 0.001622 0.347430 -7.789754
vn 0.8317 0.0344 -0.5542
vn 0.5540 -0.0516 0.8309
vn -0.5540 0.0516 -0.8309
vn 0.0022 0.9982 0.0605
vn -0.8317 -0.0344 0.5542
vn -0.0022 -0.9982 -0.0605
vn 0.3963 -0.1440 -0.9068
vn -0.0000 0.9876 -0.1568
vn -0.9181 -0.0621 -0.3914
vn -0.0000 0.9981 0.0620
vn 0.9174 -0.0247 0.3971
vn -0.3765 0.0923 -0.9218
vn -0.3963 0.1440 0.9068
vn -0.0000 -0.9876 0.1568
vn 0.9181 0.0621 0.3914
vn -0.1437 0.9710 -0.1913
vn 0.8283 0.0123 -0.5601
vn -0.5415 -0.2389 -0.8060
vn -0.8283 -0.0123 0.5601
vn 0.1437 -0.9710 0.1913
vn 0.5415 0.2389 0.8060
vn -0.0000 0.9460 0.3241
vn 1.0000 -0.0000 -0.0000
vn -0.0000 0.3241 -0.9460
vn -1.0000 -0.0000 -0.0000
vn -0.0000 -0.9460 -0.3241
vn -0.0000 -0.3241 0.9460
vn -0.0000 1.0000 -0.0000
vn -0.0000 -0.0000 -1.0000
vn -0.0000 -1.0000 -0.0000
vn -0.0000 -0.0000 1.0000
vt 0.375000 0.228559
vt 0.375000 0.250000
vt 0.625000 0.250000
vt 0.625000 0.228559
vt 0.375000 0.500000
vt 0.625000 0.500000
vt 0.625000 0.020671
vt 0.625000 0.729329
vt 0.375000 0.729329
vt 0.375000 0.020671
vt 0.625000 0.031658
vt 0.125000 0.718342
vt 0.125000 0.729329
vt 0.375000 0.718342
vt 0.625000 0.718342
vt 0.375000 0.521441
vt 0.625000 0.521441
vt 0.125000 0.521441
vt 0.875000 0.718342
vt 0.875000 0.521441
vt 0.375000 0.031658
vt 0.125000 0.500000
vt 0.875000 0.500000
vt 0.875000 0.729329
vt 0.375000 0.000000
vt 0.375000 0.193220
vt 0.625000 0.193220
vt 0.625000 0.000000
vt 0.125000 0.556780
vt 0.125000 0.750000
vt 0.162852 0.750000
vt 0.162852 0.556780
vt 0.375000 0.962148
vt 0.375000 1.000000
vt 0.625000 1.000000
vt 0.625000 0.962148
vt 0.331702 0.750000
vt 0.331702 0.556780
vt 0.375000 0.793298
vt 0.625000 0.793298
vt 0.375000 0.750000
vt 0.375000 0.556780
vt 0.375000 0.556780
vt 0.625000 0.556780
vt 0.625000 0.750000
vt 0.668298 0.750000
vt 0.668298 0.556780
vt 0.837148 0.750000
vt 0.837148 0.556780
vt 0.875000 0.750000
vt 0.875000 0.556780
vt 0.837148 0.500000
vt 0.162852 0.500000
vt 0.331702 0.500000
vt 0.375000 0.287852
vt 0.625000 0.287852
vt 0.375000 0.456702
vt 0.625000 0.456702
vt 0.668298 0.500000
s 0
f 15/1/1 1/2/1 2/3/1 13/4/1
f 1/2/2 3/5/2 4/6/2 2/3/2
f 6/7/3 8/8/3 7/9/3 5/10/3
f 9/11/1 23/11/1 21/7/1 6/7/1
f 11/12/4 5/13/4 7/9/4 10/14/4
f 10/14/5 7/9/5 8/8/5 12/15/5
f 14/16/5 10/14/5 12/15/5 16/17/5
f 15/18/4 11/12/4 10/14/4 14/16/4
f 16/17/6 12/15/6 9/19/6 13/20/6
f 5/10/1 11/21/1 9/11/1 6/7/1
f 16/17/5 20/17/5 18/6/5 4/6/5
f 1/22/4 15/18/4 14/16/4 3/5/4
f 3/5/5 14/16/5 16/17/5 4/6/5
f 11/21/1 15/1/1 13/4/1 9/11/1
f 18/6/6 20/17/6 19/20/6 17/23/6
f 4/6/2 18/6/2 17/3/2 2/3/2
f 13/20/3 19/20/3 20/17/3 16/17/3
f 2/3/1 17/3/1 19/4/1 13/4/1
f 24/15/6 22/8/6 21/24/6 23/19/6
f 6/24/3 21/24/3 22/8/3 8/8/3
f 8/8/5 22/8/5 24/15/5 12/15/5
f 12/15/2 24/15/2 23/19/2 9/19/2
f 25/25/7 26/26/7 56/27/7 27/28/7
f 26/29/8 25/30/8 28/31/8 29/32/8
f 28/33/9 25/34/9 27/35/9 30/36/9
f 29/32/10 28/31/10 31/31/10 32/32/10
f 31/33/11 28/33/11 30/36/11 33/36/11
f 32/32/8 31/31/8 34/37/8 37/38/8
f 34/39/9 31/33/9 33/36/9 36/40/9
f 35/39/12 34/39/12 36/40/12 48/40/12
f 37/38/10 34/37/10 35/37/10 39/38/10
f 38/38/10 37/38/10 39/38/10 40/38/10
f 63/32/10 32/32/10 37/38/10 38/38/10
f 39/38/8 35/37/8 43/41/8 41/42/8
f 40/38/10 39/38/10 41/42/10 42/43/10
f 42/43/10 41/42/10 44/44/10 46/44/10
f 41/42/13 43/41/13 45/45/13 44/44/13
f 44/44/14 45/45/14 48/46/14 47/47/14
f 46/44/10 44/44/10 47/47/10 49/47/10
f 47/47/7 48/46/7 36/46/7 50/47/7
f 49/47/10 47/47/10 50/47/10 51/47/10
f 50/47/14 36/46/14 33/48/14 52/49/14
f 51/47/9 50/47/9 52/49/9 53/49/9
f 52/49/13 33/48/13 30/48/13 54/49/13
f 53/49/10 52/49/10 54/49/10 55/49/10
f 54/49/14 30/48/14 27/50/14 56/51/14
f 55/49/10 54/49/10 56/51/10 57/51/10
f 26/26/10 59/26/10 57/27/10 56/27/10
f 67/52/14 55/49/14 57/51/14 58/23/14
f 59/26/7 60/2/7 58/3/7 57/27/7
f 60/22/8 59/29/8 61/32/8 62/53/8
f 59/29/10 26/29/10 29/32/10 61/32/10
f 62/53/10 61/32/10 63/32/10 64/53/10
f 61/32/10 29/32/10 32/32/10 63/32/10
f 64/53/8 63/32/8 38/38/8 65/54/8
f 62/55/10 64/55/10 66/56/10 67/56/10
f 64/55/15 65/57/15 68/58/15 66/56/15
f 66/52/10 53/49/10 55/49/10 67/52/10
f 68/59/14 51/47/14 53/49/14 66/52/14
f 69/59/10 49/47/10 51/47/10 68/59/10
f 65/57/10 71/57/10 69/58/10 68/58/10
f 70/6/14 46/44/14 49/47/14 69/59/14
f 71/57/15 72/5/15 70/6/15 69/58/15
f 71/54/8 40/38/8 42/43/8 72/5/8
f 65/54/10 38/38/10 40/38/10 71/54/10
f 72/5/13 42/43/13 46/44/13 70/6/13
f 60/2/15 62/55/15 67/56/15 58/3/15
f 43/41/9 35/39/9 48/40/9 45/45/9
f 74/22/16 73/30/16 76/41/16 77/5/16
f 73/25/17 74/2/17 80/3/17 75/28/17
f 76/41/18 73/34/18 75/35/18 78/45/18
f 77/5/19 76/41/19 78/45/19 79/6/19
f 79/6/20 78/45/20 75/50/20 80/23/20
f 74/2/21 77/5/21 79/6/21 80/3/21
f 82/22/22 81/30/22 84/41/22 85/5/22
f 81/25/23 82/2/23 88/3/23 83/28/23
f 84/41/24 81/34/24 83/35/24 86/45/24
f 85/5/25 84/41/25 86/45/25 87/6/25
f 87/6/26 86/45/26 83/50/26 88/23/26
f 82/2/27 85/5/27 87/6/27 88/3/27
f 90/22/28 89/30/28 92/41/28 93/5/28
f 89/25/23 90/2/23 96/3/23 91/28/23
f 92/41/29 89/34/29 91/35/29 94/45/29
f 93/5/25 92/41/25 94/45/25 95/6/25
f 95/6/30 94/45/30 91/50/30 96/23/30
f 90/2/31 93/5/31 95/6/31 96/3/31
f 98/22/28 97/30/28 100/41/28 101/5/28
f 97/25/23 98/2/23 104/3/23 99/28/23
f 100/41/29 97/34/29 99/35/29 102/45/29
f 101/5/25 100/41/25 102/45/25 103/6/25
f 103/6/30 102/45/30 99/50/30 104/23/30
f 98/2/31 101/5/31 103/6/31 104/3/31
f 106/22/28 105/30/28 108/41/28 109/5/28
f 105/25/23 106/2/23 112/3/23 107/28/23
f 108/41/29 105/34/29 107/35/29 110/45/29
f 109/5/25 108/41/25 110/45/25 111/6/25
f 111/6/30 110/45/30 107/50/30 112/23/30
f 106/2/31 109/5/31 111/6/31 112/3/31
