# Blender 4.0.2
# www.blender.org
mtllib level3.mtl
o Box_Pizza.019
v -9.010345 14.711064 37.971638
v -9.010345 14.711063 36.590889
v -9.010345 16.244699 37.971634
v -7.499361 14.711064 37.971638
v -7.499361 14.711063 36.590889
v -7.499361 16.244699 37.971634
v -7.499361 16.244699 36.590889
v -9.010345 16.244699 36.590889
v -8.199812 16.157522 33.818249
v -8.199812 15.962450 33.951130
v -8.263386 9.196319 23.688192
v -8.196072 16.157522 33.818249
v -8.196072 15.962450 33.951130
v -8.132496 9.196319 23.688192
v -8.132496 7.774703 24.656576
v -8.263386 7.774703 24.656576
v -9.114904 14.407075 37.556305
v -9.114904 14.407075 33.821110
v -9.114904 16.152966 37.556301
v -7.394799 14.407075 37.556305
v -7.394799 14.407075 33.821110
v -7.394799 16.152966 37.556301
v -7.394799 16.152966 33.821106
v -9.114904 16.152966 33.821106
v -9.213858 7.904142 24.720371
v -9.213858 7.904142 23.000265
v -9.213858 9.650033 24.720371
v -7.493752 7.904142 24.720371
v -7.493752 7.904142 23.000265
v -7.493752 9.650033 24.720371
v -7.493752 9.650033 23.000265
v -9.213858 9.650033 23.000265
v -12.318224 7.308912 24.720371
v -12.318224 7.308912 23.000265
v -12.318224 9.054803 24.720371
v -10.598118 7.308912 24.720371
v -10.598118 7.308912 23.000265
v -10.598118 9.054803 24.720371
v -10.598118 9.054802 23.000265
v -12.318224 9.054802 23.000265
v -11.485754 7.426399 21.785070
v -11.485754 7.426399 19.636927
v -11.485754 8.278740 21.785070
v -11.430589 7.426399 21.785070
v -11.430589 7.426399 19.636927
v -11.430589 8.278740 21.785070
v -11.430589 8.278740 19.636927
v -11.485754 8.278740 19.636927
v -11.539869 6.004570 18.726908
v -11.539869 6.004570 17.006802
v -11.539869 7.750462 18.726908
v -11.376472 6.004570 18.726908
v -11.376472 6.004570 17.006802
v -11.376472 7.750462 18.726908
v -11.376472 7.750461 17.006802
v -11.539869 7.750461 17.006802
v -3.331705 -1.430392 -0.407897
v -3.331705 -1.430393 -2.128003
v -3.331705 1.027506 -0.407897
v -1.611599 -1.430392 -0.407897
v -1.611599 -1.430393 -2.128003
v -1.611599 1.027506 -0.407897
v -1.611599 1.027505 -2.128003
v -3.331705 1.027505 -2.128003
v -11.489162 7.823449 14.244964
v -11.489162 6.401832 15.213347
v -11.489162 0.851030 4.009229
v -11.427181 7.823449 14.244964
v -11.427181 6.401832 15.213347
v -11.427181 0.851030 4.009229
v -11.427181 -0.570588 4.977609
v -11.489162 -0.570588 4.977609
v -12.318224 -4.527941 15.878183
v -12.318224 -4.527940 14.158077
v -12.318224 7.856928 15.878183
v -10.598118 -4.527941 15.878183
v -10.598118 -4.527940 14.158077
v -10.598118 7.856928 15.878183
v -10.598118 7.856928 14.158077
v -12.318224 7.856928 14.158077
v -12.318224 -2.336022 4.996391
v -12.318224 -2.336023 3.276286
v -12.318224 1.549219 4.996390
v -10.598118 -2.336022 4.996391
v -10.598118 -2.336023 3.276286
v -10.598118 1.549219 4.996390
v -10.598118 1.549218 3.276285
v -12.318224 1.549218 3.276285
v -12.318224 -0.683342 -0.407897
v -12.318224 -0.683343 -2.128003
v -12.318224 2.578788 -0.407898
v -10.598118 -0.683342 -0.407897
v -10.598118 -0.683343 -2.128003
v -10.598118 2.578788 -0.407898
v -10.598118 2.578789 -2.128004
v -12.318224 2.578789 -2.128004
v -9.308064 -0.143178 -0.407897
v -9.308064 -0.143179 -2.128003
v -9.308064 2.114631 -0.407898
v -7.587958 -0.143178 -0.407897
v -7.587958 -0.143179 -2.128003
v -7.587958 2.114631 -0.407898
v -7.587958 2.114631 -2.128004
v -9.308064 2.114631 -2.128004
v -6.192323 -0.763206 -0.407897
v -6.192323 -0.763206 -2.128003
v -6.192323 1.622041 -0.407898
v -4.472218 -0.763206 -0.407897
v -4.472218 -0.763206 -2.128003
v -4.472218 1.622041 -0.407898
v -4.472218 1.622040 -2.128004
v -6.192323 1.622040 -2.128004
v -0.808947 -2.519863 -0.407897
v -0.808947 -2.519864 -2.128003
v -0.808947 0.487715 -0.407897
v 0.911160 -2.519863 -0.407897
v 0.911160 -2.519864 -2.128003
v 0.911160 0.487715 -0.407897
v 0.911160 0.487714 -2.128003
v -0.808947 0.487714 -2.128003
vn -0.0000 -1.0000 -0.0000
vn -1.0000 -0.0000 -0.0000
vn -0.0000 -0.0000 1.0000
vn 1.0000 -0.0000 -0.0000
vn -0.0000 1.0000 -0.0000
vn -0.0000 -0.0000 -1.0000
vn -0.0000 0.5630 0.8265
vn -1.0000 0.0029 0.0043
vn -0.0000 0.8242 -0.5664
vn 1.0000 0.0029 0.0043
vn -0.0000 -0.5630 -0.8265
vn -0.0000 -0.7504 0.6610
vn -0.0000 0.8265 -0.5630
vn -0.0000 -0.8265 0.5630
vt 0.190503 0.628003
vt 0.246997 0.684497
vt 0.246997 0.628003
vt 0.440503 0.628003
vt 0.496997 0.684497
vt 0.496997 0.628003
vt 0.378003 0.565503
vt 0.434497 0.621997
vt 0.434497 0.565503
vt 0.440503 0.565503
vt 0.496997 0.621997
vt 0.496997 0.565503
vt 0.128003 0.628003
vt 0.184497 0.684497
vt 0.184497 0.628003
vt 0.378003 0.628003
vt 0.434497 0.684497
vt 0.434497 0.628003
vt 0.706128 0.190503
vt 0.715747 0.246997
vt 0.715747 0.190503
vt 0.684497 0.496997
vt 0.628003 0.253003
vt 0.628003 0.496997
vt 0.496997 0.965747
vt 0.253003 0.956128
vt 0.253003 0.965747
vt 0.684497 0.003003
vt 0.628003 0.246997
vt 0.684497 0.246997
vt 0.690503 0.190503
vt 0.700122 0.246997
vt 0.700122 0.190503
vt 0.496997 0.950122
vt 0.253003 0.940503
vt 0.253003 0.950122
vt 0.315503 0.253003
vt 0.371997 0.496997
vt 0.371997 0.253003
vt 0.253003 0.253003
vt 0.309497 0.496997
vt 0.309497 0.253003
vt 0.128003 0.565503
vt 0.184497 0.621997
vt 0.184497 0.565503
vt 0.246997 0.559497
vt 0.003003 0.503003
vt 0.003003 0.559497
vt 0.496997 0.503003
vt 0.253003 0.559497
vt 0.496997 0.559497
vt 0.190503 0.565503
vt 0.246997 0.621997
vt 0.246997 0.565503
vt 0.940503 0.378003
vt 0.996997 0.496997
vt 0.996997 0.378003
vt 0.815503 0.628003
vt 0.871997 0.746997
vt 0.871997 0.628003
vt 0.378003 0.315503
vt 0.434497 0.371997
vt 0.434497 0.315503
vt 0.496997 0.815503
vt 0.378003 0.871997
vt 0.496997 0.871997
vt 0.746997 0.753003
vt 0.628003 0.809497
vt 0.746997 0.809497
vt 0.440503 0.315503
vt 0.496997 0.371997
vt 0.496997 0.315503
vt 0.878003 0.753003
vt 0.934497 0.871997
vt 0.934497 0.753003
vt 0.940503 0.253003
vt 0.996997 0.371997
vt 0.996997 0.253003
vt 0.378003 0.253003
vt 0.434497 0.309497
vt 0.434497 0.253003
vt 0.246997 0.940503
vt 0.128003 0.996997
vt 0.246997 0.996997
vt 0.621997 0.753003
vt 0.503003 0.809497
vt 0.621997 0.809497
vt 0.440503 0.253003
vt 0.496997 0.309497
vt 0.496997 0.253003
vt 0.940503 0.628003
vt 0.950122 0.746997
vt 0.950122 0.628003
vt 0.878003 0.378003
vt 0.934497 0.496997
vt 0.934497 0.378003
vt 0.731372 0.190503
vt 0.721753 0.246997
vt 0.731372 0.246997
vt 0.371997 0.934497
vt 0.253003 0.878003
vt 0.253003 0.934497
vt 0.934497 0.940503
vt 0.815503 0.950122
vt 0.934497 0.950122
vt 0.746997 0.190503
vt 0.737378 0.246997
vt 0.746997 0.246997
vt 0.940503 0.503003
vt 0.950122 0.621997
vt 0.950122 0.503003
vt 0.815503 0.753003
vt 0.871997 0.871997
vt 0.871997 0.753003
vt 0.762622 0.128003
vt 0.753003 0.184497
vt 0.762622 0.184497
vt 0.746997 0.815503
vt 0.628003 0.871997
vt 0.746997 0.871997
vt 0.934497 0.956128
vt 0.815503 0.965747
vt 0.934497 0.965747
vt 0.778247 0.128003
vt 0.768628 0.184497
vt 0.778247 0.184497
vt 0.815503 0.253003
vt 0.871997 0.371997
vt 0.871997 0.253003
vt 0.628003 0.503003
vt 0.746997 0.621997
vt 0.746997 0.503003
vt 0.371997 0.871997
vt 0.253003 0.815503
vt 0.253003 0.871997
vt 0.690503 0.003003
vt 0.809497 0.121997
vt 0.809497 0.003003
vt 0.121997 0.815503
vt 0.003003 0.871997
vt 0.121997 0.871997
vt 0.871997 0.503003
vt 0.815503 0.621997
vt 0.871997 0.621997
vt 0.799878 0.128003
vt 0.809497 0.184497
vt 0.809497 0.128003
vt 0.809497 0.746997
vt 0.753003 0.503003
vt 0.753003 0.746997
vt 0.809497 0.965747
vt 0.565503 0.956128
vt 0.565503 0.965747
vt 0.871997 0.246997
vt 0.815503 0.003003
vt 0.815503 0.246997
vt 0.784253 0.128003
vt 0.793872 0.184497
vt 0.793872 0.128003
vt 0.809497 0.950122
vt 0.565503 0.940503
vt 0.565503 0.950122
vt 0.815503 0.378003
vt 0.871997 0.496997
vt 0.871997 0.378003
vt 0.246997 0.253003
vt 0.128003 0.496997
vt 0.246997 0.496997
vt 0.246997 0.809497
vt 0.003003 0.753003
vt 0.003003 0.809497
vt 0.246997 0.003003
vt 0.128003 0.246997
vt 0.246997 0.246997
vt 0.246997 0.815503
vt 0.128003 0.871997
vt 0.246997 0.871997
vt 0.496997 0.809497
vt 0.253003 0.753003
vt 0.253003 0.809497
vt 0.753003 0.753003
vt 0.809497 0.871997
vt 0.809497 0.753003
vt 0.121997 0.003003
vt 0.003003 0.246997
vt 0.121997 0.246997
vt 0.746997 0.684497
vt 0.503003 0.628003
vt 0.503003 0.684497
vt 0.371997 0.003003
vt 0.253003 0.246997
vt 0.371997 0.246997
vt 0.621997 0.815503
vt 0.503003 0.871997
vt 0.621997 0.871997
vt 0.746997 0.746997
vt 0.503003 0.690503
vt 0.503003 0.746997
vt 0.878003 0.128003
vt 0.934497 0.246997
vt 0.934497 0.128003
vt 0.121997 0.253003
vt 0.003003 0.496997
vt 0.121997 0.496997
vt 0.246997 0.746997
vt 0.003003 0.690503
vt 0.003003 0.746997
vt 0.496997 0.246997
vt 0.378003 0.003003
vt 0.378003 0.246997
vt 0.246997 0.878003
vt 0.128003 0.934497
vt 0.246997 0.934497
vt 0.496997 0.746997
vt 0.253003 0.690503
vt 0.253003 0.746997
vt 0.878003 0.503003
vt 0.934497 0.621997
vt 0.934497 0.503003
vt 0.253003 0.565503
vt 0.371997 0.684497
vt 0.371997 0.565503
vt 0.496997 0.934497
vt 0.378003 0.878003
vt 0.378003 0.934497
vt 0.690503 0.378003
vt 0.809497 0.496997
vt 0.809497 0.378003
vt 0.621997 0.878003
vt 0.503003 0.934497
vt 0.621997 0.934497
vt 0.934497 0.253003
vt 0.878003 0.371997
vt 0.934497 0.371997
vt 0.940503 0.003003
vt 0.996997 0.121997
vt 0.996997 0.003003
vt 0.003003 0.565503
vt 0.121997 0.684497
vt 0.121997 0.565503
vt 0.871997 0.934497
vt 0.753003 0.878003
vt 0.753003 0.934497
vt 0.503003 0.503003
vt 0.621997 0.621997
vt 0.621997 0.503003
vt 0.121997 0.940503
vt 0.003003 0.996997
vt 0.121997 0.996997
vt 0.934497 0.628003
vt 0.878003 0.746997
vt 0.934497 0.746997
vt 0.878003 0.003003
vt 0.934497 0.121997
vt 0.934497 0.003003
vt 0.503003 0.378003
vt 0.621997 0.496997
vt 0.621997 0.378003
vt 0.746997 0.934497
vt 0.628003 0.878003
vt 0.628003 0.934497
vt 0.503003 0.253003
vt 0.621997 0.371997
vt 0.621997 0.253003
vt 0.121997 0.878003
vt 0.003003 0.934497
vt 0.121997 0.934497
vt 0.996997 0.128003
vt 0.940503 0.246997
vt 0.996997 0.246997
vt 0.190503 0.684497
vt 0.440503 0.684497
vt 0.378003 0.621997
vt 0.440503 0.621997
vt 0.128003 0.684497
vt 0.378003 0.684497
vt 0.706128 0.246997
vt 0.684497 0.253003
vt 0.496997 0.956128
vt 0.628003 0.003003
vt 0.690503 0.246997
vt 0.496997 0.940503
vt 0.315503 0.496997
vt 0.253003 0.496997
vt 0.128003 0.621997
vt 0.246997 0.503003
vt 0.253003 0.503003
vt 0.190503 0.621997
vt 0.940503 0.496997
vt 0.815503 0.746997
vt 0.378003 0.371997
vt 0.378003 0.815503
vt 0.628003 0.753003
vt 0.440503 0.371997
vt 0.878003 0.871997
vt 0.940503 0.371997
vt 0.378003 0.309497
vt 0.128003 0.940503
vt 0.503003 0.753003
vt 0.440503 0.309497
vt 0.940503 0.746997
vt 0.878003 0.496997
vt 0.721753 0.190503
vt 0.371997 0.878003
vt 0.815503 0.940503
vt 0.737378 0.190503
vt 0.940503 0.621997
vt 0.815503 0.871997
vt 0.753003 0.128003
vt 0.628003 0.815503
vt 0.815503 0.956128
vt 0.768628 0.128003
vt 0.815503 0.371997
vt 0.628003 0.621997
vt 0.371997 0.815503
vt 0.690503 0.121997
vt 0.003003 0.815503
vt 0.815503 0.503003
vt 0.799878 0.184497
vt 0.809497 0.503003
vt 0.809497 0.956128
vt 0.871997 0.003003
vt 0.784253 0.184497
vt 0.809497 0.940503
vt 0.815503 0.496997
vt 0.128003 0.253003
vt 0.246997 0.753003
vt 0.128003 0.003003
vt 0.128003 0.815503
vt 0.496997 0.753003
vt 0.753003 0.871997
vt 0.003003 0.003003
vt 0.746997 0.628003
vt 0.253003 0.003003
vt 0.503003 0.815503
vt 0.746997 0.690503
vt 0.878003 0.246997
vt 0.003003 0.253003
vt 0.246997 0.690503
vt 0.496997 0.003003
vt 0.128003 0.878003
vt 0.496997 0.690503
vt 0.878003 0.621997
vt 0.253003 0.684497
vt 0.496997 0.878003
vt 0.690503 0.496997
vt 0.503003 0.878003
vt 0.878003 0.253003
vt 0.940503 0.121997
vt 0.003003 0.684497
vt 0.871997 0.878003
vt 0.503003 0.621997
vt 0.003003 0.940503
vt 0.878003 0.628003
vt 0.878003 0.121997
vt 0.503003 0.496997
vt 0.746997 0.878003
vt 0.503003 0.371997
vt 0.003003 0.878003
vt 0.940503 0.128003
s 0
usemtl Material.003
f 5/1/1 1/2/1 2/3/1
f 3/4/2 2/5/2 1/6/2
f 6/7/3 1/8/3 4/9/3
f 7/10/4 4/11/4 5/12/4
f 8/13/5 6/14/5 7/15/5
f 8/16/6 5/17/6 2/18/6
f 13/19/7 9/20/7 10/21/7
f 9/22/8 16/23/8 10/24/8
f 14/25/9 9/26/9 12/27/9
f 15/28/10 12/29/10 13/30/10
f 16/31/11 14/32/11 15/33/11
f 16/34/12 13/35/12 10/36/12
f 21/37/1 17/38/1 18/39/1
f 19/40/2 18/41/2 17/42/2
f 22/43/3 17/44/3 20/45/3
f 21/46/4 22/47/4 20/48/4
f 24/49/5 22/50/5 23/51/5
f 24/52/6 21/53/6 18/54/6
f 29/55/1 25/56/1 26/57/1
f 27/58/2 26/59/2 25/60/2
f 30/61/3 25/62/3 28/63/3
f 31/64/4 28/65/4 29/66/4
f 32/67/5 30/68/5 31/69/5
f 32/70/6 29/71/6 26/72/6
f 37/73/1 33/74/1 34/75/1
f 35/76/2 34/77/2 33/78/2
f 38/79/3 33/80/3 36/81/3
f 39/82/4 36/83/4 37/84/4
f 40/85/5 38/86/5 39/87/5
f 40/88/6 37/89/6 34/90/6
f 45/91/1 41/92/1 42/93/1
f 43/94/2 42/95/2 41/96/2
f 46/97/3 41/98/3 44/99/3
f 45/100/4 46/101/4 44/102/4
f 48/103/5 46/104/5 47/105/5
f 48/106/6 45/107/6 42/108/6
f 53/109/1 49/110/1 50/111/1
f 51/112/2 50/113/2 49/114/2
f 54/115/3 49/116/3 52/117/3
f 55/118/4 52/119/4 53/120/4
f 56/121/5 54/122/5 55/123/5
f 56/124/6 53/125/6 50/126/6
f 61/127/1 57/128/1 58/129/1
f 59/130/2 58/131/2 57/132/2
f 62/133/3 57/134/3 60/135/3
f 63/136/4 60/137/4 61/138/4
f 64/139/5 62/140/5 63/141/5
f 64/142/6 61/143/6 58/144/6
f 69/145/7 65/146/7 66/147/7
f 65/148/2 72/149/2 66/150/2
f 70/151/13 65/152/13 68/153/13
f 69/154/4 70/155/4 68/156/4
f 72/157/11 70/158/11 71/159/11
f 72/160/14 69/161/14 66/162/14
f 77/163/1 73/164/1 74/165/1
f 75/166/2 74/167/2 73/168/2
f 78/169/3 73/170/3 76/171/3
f 79/172/4 76/173/4 77/174/4
f 80/175/5 78/176/5 79/177/5
f 80/178/6 77/179/6 74/180/6
f 85/181/1 81/182/1 82/183/1
f 83/184/2 82/185/2 81/186/2
f 86/187/3 81/188/3 84/189/3
f 87/190/4 84/191/4 85/192/4
f 88/193/5 86/194/5 87/195/5
f 88/196/6 85/197/6 82/198/6
f 93/199/1 89/200/1 90/201/1
f 91/202/2 90/203/2 89/204/2
f 94/205/3 89/206/3 92/207/3
f 93/208/4 94/209/4 92/210/4
f 96/211/5 94/212/5 95/213/5
f 96/214/6 93/215/6 90/216/6
f 101/217/1 97/218/1 98/219/1
f 99/220/2 98/221/2 97/222/2
f 102/223/3 97/224/3 100/225/3
f 103/226/4 100/227/4 101/228/4
f 104/229/5 102/230/5 103/231/5
f 104/232/6 101/233/6 98/234/6
f 109/235/1 105/236/1 106/237/1
f 107/238/2 106/239/2 105/240/2
f 110/241/3 105/242/3 108/243/3
f 111/244/4 108/245/4 109/246/4
f 112/247/5 110/248/5 111/249/5
f 112/250/6 109/251/6 106/252/6
f 117/253/1 113/254/1 114/255/1
f 115/256/2 114/257/2 113/258/2
f 118/259/3 113/260/3 116/261/3
f 119/262/4 116/263/4 117/264/4
f 120/265/5 118/266/5 119/267/5
f 120/268/6 117/269/6 114/270/6
f 5/1/1 4/271/1 1/2/1
f 3/4/2 8/272/2 2/5/2
f 6/7/3 3/273/3 1/8/3
f 7/10/4 6/274/4 4/11/4
f 8/13/5 3/275/5 6/14/5
f 8/16/6 7/276/6 5/17/6
f 13/19/7 12/277/7 9/20/7
f 9/22/8 11/278/8 16/23/8
f 14/25/9 11/279/9 9/26/9
f 15/28/10 14/280/10 12/29/10
f 16/31/11 11/281/11 14/32/11
f 16/34/12 15/282/12 13/35/12
f 21/37/1 20/283/1 17/38/1
f 19/40/2 24/284/2 18/41/2
f 22/43/3 19/285/3 17/44/3
f 21/46/4 23/286/4 22/47/4
f 24/49/5 19/287/5 22/50/5
f 24/52/6 23/288/6 21/53/6
f 29/55/1 28/289/1 25/56/1
f 27/58/2 32/290/2 26/59/2
f 30/61/3 27/291/3 25/62/3
f 31/64/4 30/292/4 28/65/4
f 32/67/5 27/293/5 30/68/5
f 32/70/6 31/294/6 29/71/6
f 37/73/1 36/295/1 33/74/1
f 35/76/2 40/296/2 34/77/2
f 38/79/3 35/297/3 33/80/3
f 39/82/4 38/298/4 36/83/4
f 40/85/5 35/299/5 38/86/5
f 40/88/6 39/300/6 37/89/6
f 45/91/1 44/301/1 41/92/1
f 43/94/2 48/302/2 42/95/2
f 46/97/3 43/303/3 41/98/3
f 45/100/4 47/304/4 46/101/4
f 48/103/5 43/305/5 46/104/5
f 48/106/6 47/306/6 45/107/6
f 53/109/1 52/307/1 49/110/1
f 51/112/2 56/308/2 50/113/2
f 54/115/3 51/309/3 49/116/3
f 55/118/4 54/310/4 52/119/4
f 56/121/5 51/311/5 54/122/5
f 56/124/6 55/312/6 53/125/6
f 61/127/1 60/313/1 57/128/1
f 59/130/2 64/314/2 58/131/2
f 62/133/3 59/315/3 57/134/3
f 63/136/4 62/316/4 60/137/4
f 64/139/5 59/317/5 62/140/5
f 64/142/6 63/318/6 61/143/6
f 69/145/7 68/319/7 65/146/7
f 65/148/2 67/320/2 72/149/2
f 70/151/13 67/321/13 65/152/13
f 69/154/4 71/322/4 70/155/4
f 72/157/11 67/323/11 70/158/11
f 72/160/14 71/324/14 69/161/14
f 77/163/1 76/325/1 73/164/1
f 75/166/2 80/326/2 74/167/2
f 78/169/3 75/327/3 73/170/3
f 79/172/4 78/328/4 76/173/4
f 80/175/5 75/329/5 78/176/5
f 80/178/6 79/330/6 77/179/6
f 85/181/1 84/331/1 81/182/1
f 83/184/2 88/332/2 82/185/2
f 86/187/3 83/333/3 81/188/3
f 87/190/4 86/334/4 84/191/4
f 88/193/5 83/335/5 86/194/5
f 88/196/6 87/336/6 85/197/6
f 93/199/1 92/337/1 89/200/1
f 91/202/2 96/338/2 90/203/2
f 94/205/3 91/339/3 89/206/3
f 93/208/4 95/340/4 94/209/4
f 96/211/5 91/341/5 94/212/5
f 96/214/6 95/342/6 93/215/6
f 101/217/1 100/343/1 97/218/1
f 99/220/2 104/344/2 98/221/2
f 102/223/3 99/345/3 97/224/3
f 103/226/4 102/346/4 100/227/4
f 104/229/5 99/347/5 102/230/5
f 104/232/6 103/348/6 101/233/6
f 109/235/1 108/349/1 105/236/1
f 107/238/2 112/350/2 106/239/2
f 110/241/3 107/351/3 105/242/3
f 111/244/4 110/352/4 108/245/4
f 112/247/5 107/353/5 110/248/5
f 112/250/6 111/354/6 109/251/6
f 117/253/1 116/355/1 113/254/1
f 115/256/2 120/356/2 114/257/2
f 118/259/3 115/357/3 113/260/3
f 119/262/4 118/358/4 116/263/4
f 120/265/5 115/359/5 118/266/5
f 120/268/6 119/360/6 117/269/6
o Box_Pizza.002
v -8.287433 16.539072 37.186867
v -8.287433 16.648304 37.186867
v -8.214144 16.539072 37.206505
v -8.360722 16.539072 37.206505
v -8.287433 16.540241 37.200008
v -8.220710 16.540325 37.217880
v -8.287433 16.649475 37.200008
v -8.354156 16.540325 37.217880
v -8.402993 16.540241 37.266727
v -8.371557 16.795614 37.187737
v -8.402993 16.649475 37.266727
v -8.378123 16.794359 37.176361
v -8.414372 16.648304 37.260155
v -8.468815 16.794359 37.333447
v -8.414372 16.539072 37.260155
v -8.434010 16.539072 37.333447
v -8.414372 16.539072 37.406738
v -8.420878 16.540325 37.333447
v -8.402993 16.540241 37.400166
v -8.455683 16.795614 37.333447
v -8.402993 16.649475 37.400166
v -8.371557 16.795614 37.479156
v -8.414372 16.648304 37.406738
v -8.378123 16.794359 37.490532
v -8.287433 16.648304 37.480026
v -8.360722 16.539072 37.460388
v -8.287433 16.539072 37.480026
v -8.354156 16.540325 37.449013
v -8.287433 16.540241 37.466885
v -8.220710 16.540325 37.449013
v -8.287433 16.649475 37.466885
v -8.203307 16.795614 37.479156
v -8.171872 16.649475 37.400166
v -8.196741 16.794359 37.490532
v -8.160493 16.648304 37.406738
v -8.214144 16.539072 37.460388
v -8.160493 16.539072 37.406738
v -8.140855 16.539072 37.333447
v -8.171872 16.540241 37.400166
v -8.153987 16.540325 37.333447
v -8.171872 16.540241 37.266727
v -8.119183 16.795614 37.333447
v -8.171872 16.649475 37.266727
v -8.106050 16.794359 37.333447
v -8.160493 16.648304 37.260155
v -8.196741 16.794359 37.176361
v -8.160493 16.539072 37.260155
v -8.203307 16.795614 37.187737
vn -0.1334 -0.0880 -0.9872
vn -0.1333 -0.0880 -0.9872
vn 0.1334 -0.0880 -0.9872
vn 0.1333 -0.0880 -0.9872
vn -0.0240 -0.9955 0.0920
vn -0.0241 -0.9955 0.0919
vn -0.0240 -0.9955 0.0919
vn 0.0240 -0.9955 0.0920
vn 0.0241 -0.9955 0.0919
vn -0.1216 0.0876 0.9887
vn -0.1216 0.0875 0.9887
vn 0.1216 0.0876 0.9887
vn 0.1216 0.0875 0.9887
vn 0.0676 -0.9955 0.0668
vn 0.0677 -0.9955 0.0668
vn 0.7955 0.0876 0.5996
vn 0.7955 0.0875 0.5997
vn -0.6523 0.4785 0.5877
vn -0.6524 0.4785 0.5877
vn 0.8352 0.4786 -0.2710
vn 0.8352 0.4784 -0.2711
vn 0.8351 0.4786 -0.2710
vn -0.7882 -0.0880 -0.6091
vn 0.1828 0.4785 -0.8588
vn 0.1828 0.4786 -0.8588
vn -0.9216 -0.0880 -0.3781
vn 0.0916 -0.9955 0.0251
vn 0.0917 -0.9955 0.0251
vn -0.9216 -0.0880 0.3781
vn 0.0917 -0.9955 -0.0252
vn 0.0916 -0.9955 -0.0251
vn 0.9170 0.0876 -0.3891
vn 0.9170 0.0875 -0.3891
vn 0.9170 0.0876 0.3891
vn 0.1830 0.4786 0.8588
vn 0.1828 0.4786 0.8588
vn 0.7955 0.0876 -0.5996
vn 0.7955 0.0875 -0.5996
vn -0.6524 0.4786 -0.5877
vn -0.6524 0.4785 -0.5877
vn -0.6524 0.4786 -0.5876
vn -0.7882 -0.0880 0.6091
vn 0.8352 0.4785 0.2711
vn 0.8352 0.4785 0.2710
vn -0.1334 -0.0880 0.9872
vn 0.0240 -0.9955 -0.0919
vn 0.0241 -0.9955 -0.0920
vn 0.0675 -0.9955 -0.0668
vn 0.0676 -0.9955 -0.0668
vn 0.1216 0.0876 -0.9887
vn -0.0240 -0.9955 -0.0920
vn -0.0241 -0.9955 -0.0919
vn -0.0240 -0.9955 -0.0919
vn -0.1216 0.0876 -0.9887
vn -0.8352 0.4785 0.2711
vn -0.7955 0.0876 -0.5996
vn -0.7955 0.0875 -0.5996
vn 0.6524 0.4786 -0.5877
vn 0.6524 0.4785 -0.5877
vn 0.7882 -0.0880 0.6091
vn 0.1334 -0.0880 0.9872
vn 0.1333 -0.0880 0.9872
vn -0.0676 -0.9955 -0.0668
vn 0.9216 -0.0880 0.3781
vn -0.0917 -0.9955 -0.0252
vn -0.0916 -0.9955 -0.0251
vn -0.9170 0.0876 -0.3891
vn -0.0917 -0.9955 0.0252
vn -0.0916 -0.9955 0.0251
vn -0.9170 0.0876 0.3891
vn -0.9170 0.0875 0.3891
vn -0.1828 0.4786 -0.8588
vn -0.1830 0.4786 0.8588
vn -0.1828 0.4786 0.8588
vn 0.9216 -0.0880 -0.3781
vn 0.6524 0.4785 0.5878
vn 0.6524 0.4786 0.5877
vn 0.6524 0.4785 0.5877
vn 0.7882 -0.0880 -0.6091
vn -0.0676 -0.9955 0.0668
vn -0.8352 0.4785 -0.2711
vn -0.8352 0.4785 -0.2710
vn -0.7955 0.0876 0.5996
vn -0.7955 0.0876 0.5997
vn 0.0240 -0.9955 0.0919
vn 0.0675 -0.9955 0.0668
vn 0.7955 0.0875 0.5996
vn -0.6524 0.4786 0.5877
vn -0.1333 -0.0880 0.9872
vn 0.0240 -0.9955 -0.0920
vn 0.6524 0.4786 -0.5876
vt 0.590747 0.059497
vt 0.565503 0.003003
vt 0.565503 0.059497
vt 0.559497 0.128003
vt 0.534253 0.184497
vt 0.559497 0.184497
vt 0.940503 0.815503
vt 0.950122 0.825122
vt 0.950122 0.815503
vt 0.700122 0.174878
vt 0.690503 0.184497
vt 0.700122 0.184497
vt 0.534253 0.065503
vt 0.559497 0.121997
vt 0.559497 0.065503
vt 0.465747 0.440503
vt 0.440503 0.496997
vt 0.465747 0.496997
vt 0.706128 0.174878
vt 0.715747 0.184497
vt 0.715747 0.174878
vt 0.471753 0.440503
vt 0.496997 0.496997
vt 0.496997 0.440503
vt 0.809497 0.190503
vt 0.799878 0.246997
vt 0.809497 0.246997
vt 0.793872 0.246997
vt 0.784253 0.190503
vt 0.784253 0.246997
vt 0.621997 0.003003
vt 0.596753 0.059497
vt 0.621997 0.059497
vt 0.762622 0.246997
vt 0.753003 0.190503
vt 0.753003 0.246997
vt 0.528247 0.059497
vt 0.503003 0.003003
vt 0.503003 0.059497
vt 0.731372 0.128003
vt 0.721753 0.137622
vt 0.731372 0.137622
vt 0.559497 0.003003
vt 0.534253 0.059497
vt 0.559497 0.059497
vt 0.737378 0.128003
vt 0.746997 0.137622
vt 0.746997 0.128003
vt 0.409253 0.440503
vt 0.434497 0.496997
vt 0.434497 0.440503
vt 0.403247 0.440503
vt 0.378003 0.496997
vt 0.403247 0.496997
vt 0.778247 0.190503
vt 0.768628 0.246997
vt 0.778247 0.246997
vt 0.465747 0.378003
vt 0.440503 0.434497
vt 0.465747 0.434497
vt 0.543872 0.996997
vt 0.534253 0.940503
vt 0.534253 0.996997
vt 0.590747 0.246997
vt 0.565503 0.190503
vt 0.565503 0.246997
vt 0.559497 0.940503
vt 0.549878 0.996997
vt 0.559497 0.996997
vt 0.621997 0.190503
vt 0.596753 0.246997
vt 0.621997 0.246997
vt 0.746997 0.143628
vt 0.737378 0.153247
vt 0.746997 0.153247
vt 0.721753 0.143628
vt 0.731372 0.153247
vt 0.731372 0.143628
vt 0.471753 0.378003
vt 0.496997 0.434497
vt 0.496997 0.378003
vt 0.700122 0.128003
vt 0.690503 0.137622
vt 0.700122 0.137622
vt 0.403247 0.378003
vt 0.378003 0.434497
vt 0.403247 0.434497
vt 0.512622 0.996997
vt 0.503003 0.940503
vt 0.503003 0.996997
vt 0.409253 0.378003
vt 0.434497 0.434497
vt 0.434497 0.378003
vt 0.528247 0.940503
vt 0.518628 0.996997
vt 0.528247 0.996997
vt 0.559497 0.190503
vt 0.534253 0.246997
vt 0.559497 0.246997
vt 0.528247 0.246997
vt 0.503003 0.190503
vt 0.503003 0.246997
vt 0.706128 0.128003
vt 0.715747 0.137622
vt 0.715747 0.128003
vt 0.590747 0.184497
vt 0.565503 0.128003
vt 0.565503 0.184497
vt 0.700122 0.143628
vt 0.690503 0.153247
vt 0.700122 0.153247
vt 0.590747 0.065503
vt 0.565503 0.121997
vt 0.590747 0.121997
vt 0.706128 0.143628
vt 0.715747 0.153247
vt 0.715747 0.143628
vt 0.596753 0.065503
vt 0.621997 0.121997
vt 0.621997 0.065503
vt 0.934497 0.878003
vt 0.924878 0.934497
vt 0.934497 0.934497
vt 0.918872 0.934497
vt 0.909253 0.878003
vt 0.909253 0.934497
vt 0.621997 0.128003
vt 0.596753 0.184497
vt 0.621997 0.184497
vt 0.887622 0.934497
vt 0.878003 0.878003
vt 0.878003 0.934497
vt 0.528247 0.184497
vt 0.503003 0.128003
vt 0.503003 0.184497
vt 0.950122 0.831128
vt 0.940503 0.840747
vt 0.950122 0.840747
vt 0.903247 0.878003
vt 0.893628 0.934497
vt 0.903247 0.934497
vt 0.528247 0.065503
vt 0.503003 0.121997
vt 0.528247 0.121997
vt 0.590747 0.003003
vt 0.534253 0.128003
vt 0.940503 0.825122
vt 0.690503 0.174878
vt 0.534253 0.121997
vt 0.440503 0.440503
vt 0.706128 0.184497
vt 0.471753 0.496997
vt 0.799878 0.190503
vt 0.793872 0.190503
vt 0.596753 0.003003
vt 0.762622 0.190503
vt 0.528247 0.003003
vt 0.721753 0.128003
vt 0.534253 0.003003
vt 0.737378 0.137622
vt 0.409253 0.496997
vt 0.378003 0.440503
vt 0.768628 0.190503
vt 0.440503 0.378003
vt 0.543872 0.940503
vt 0.590747 0.190503
vt 0.549878 0.940503
vt 0.596753 0.190503
vt 0.737378 0.143628
vt 0.721753 0.153247
vt 0.471753 0.434497
vt 0.690503 0.128003
vt 0.378003 0.378003
vt 0.512622 0.940503
vt 0.409253 0.434497
vt 0.518628 0.940503
vt 0.534253 0.190503
vt 0.528247 0.190503
vt 0.706128 0.137622
vt 0.590747 0.128003
vt 0.690503 0.143628
vt 0.565503 0.065503
vt 0.706128 0.153247
vt 0.596753 0.121997
vt 0.924878 0.878003
vt 0.918872 0.878003
vt 0.596753 0.128003
vt 0.887622 0.878003
vt 0.528247 0.128003
vt 0.940503 0.831128
vt 0.893628 0.878003
vt 0.503003 0.065503
s 1
usemtl CrownMat
f 124/361/15 122/362/15 121/363/16
f 122/364/17 123/365/17 121/366/18
f 123/367/19 125/368/20 121/369/21
f 124/370/22 125/371/23 128/372/22
f 126/373/24 127/374/25 125/375/24
f 128/376/26 127/377/27 130/378/27
f 124/379/28 129/380/29 135/381/28
f 128/382/30 131/383/31 129/384/30
f 133/385/32 130/386/33 132/387/33
f 122/388/34 130/389/35 127/390/36
f 133/391/37 124/392/37 135/393/37
f 133/394/38 140/395/39 131/396/38
f 136/397/40 133/398/40 135/399/40
f 136/400/41 129/401/41 138/402/42
f 143/403/43 136/404/43 137/405/43
f 136/406/44 139/407/45 137/408/45
f 138/409/46 141/410/47 139/411/46
f 138/412/48 131/413/48 140/414/48
f 143/415/49 140/416/50 134/417/50
f 148/418/51 141/419/52 142/420/52
f 143/421/53 142/422/54 141/423/55
f 146/424/56 143/425/56 137/426/56
f 145/427/57 142/428/58 144/429/57
f 145/430/59 146/431/59 147/432/59
f 147/433/60 148/434/61 149/435/60
f 137/436/62 148/437/63 146/438/63
f 148/439/64 151/440/64 149/441/64
f 156/442/65 149/443/66 150/444/67
f 150/445/68 151/446/68 152/447/68
f 145/448/69 152/449/69 151/450/69
f 150/451/70 153/452/71 159/453/70
f 155/454/72 152/455/73 154/456/73
f 155/457/74 156/458/74 157/459/74
f 156/460/75 145/461/75 147/462/76
f 156/463/77 159/464/77 157/465/77
f 158/466/78 155/467/78 157/468/78
f 158/469/79 159/470/80 160/471/79
f 160/472/81 153/473/81 162/474/81
f 158/475/82 161/476/83 167/477/83
f 160/478/84 163/479/85 161/480/84
f 165/481/86 162/482/86 164/483/86
f 155/484/87 162/485/88 153/486/87
f 165/487/89 158/488/89 167/489/89
f 165/490/90 168/491/91 163/492/92
f 123/493/93 165/494/93 167/495/93
f 123/496/94 161/497/94 126/498/94
f 122/499/95 168/500/96 166/501/95
f 126/502/97 163/503/98 168/504/97
f 124/361/15 132/505/16 122/362/15
f 122/364/17 166/506/18 123/365/17
f 123/367/19 126/507/21 125/368/20
f 124/370/22 121/508/99 125/371/23
f 126/373/24 168/509/25 127/374/25
f 128/376/26 125/510/26 127/377/27
f 124/379/28 128/511/100 129/380/29
f 128/382/30 130/512/101 131/383/31
f 133/385/32 131/513/102 130/386/33
f 122/388/34 132/514/35 130/389/35
f 133/391/37 132/515/37 124/392/37
f 133/394/38 134/516/39 140/395/39
f 136/397/40 134/517/40 133/398/40
f 136/400/41 135/518/41 129/401/41
f 143/403/43 134/519/43 136/404/43
f 136/406/44 138/520/44 139/407/45
f 138/409/46 140/521/47 141/410/47
f 138/412/48 129/522/48 131/413/48
f 143/415/49 141/523/49 140/416/50
f 148/418/51 139/524/51 141/419/52
f 143/421/53 144/525/54 142/422/54
f 146/424/56 144/526/56 143/425/56
f 145/427/57 151/527/58 142/428/58
f 145/430/59 144/528/103 146/431/59
f 147/433/60 146/529/104 148/434/61
f 137/436/62 139/530/62 148/437/63
f 148/439/64 142/531/64 151/440/64
f 156/442/65 147/532/67 149/443/66
f 150/445/68 149/533/68 151/446/68
f 145/448/69 154/534/69 152/449/69
f 150/451/70 152/535/71 153/452/71
f 155/454/72 153/536/105 152/455/73
f 155/457/74 154/537/74 156/458/74
f 156/460/75 154/538/76 145/461/75
f 156/463/77 150/539/77 159/464/77
f 158/466/78 164/540/78 155/467/78
f 158/469/79 157/541/80 159/470/80
f 160/472/81 159/542/81 153/473/81
f 158/475/82 160/543/82 161/476/83
f 160/478/84 162/544/85 163/479/85
f 165/481/86 163/545/86 162/482/86
f 155/484/87 164/546/88 162/485/88
f 165/487/89 164/547/89 158/488/89
f 165/490/90 166/548/91 168/491/91
f 123/493/93 166/549/93 165/494/93
f 123/496/94 167/550/94 161/497/94
f 122/499/95 127/551/95 168/500/96
f 126/502/97 161/552/97 163/503/98
o Box_Pizza.003
v -28.894711 -1.340536 5.520687
v -28.220108 -0.863518 5.521773
v -28.894711 2.387736 5.520687
v -28.220108 2.387736 5.521772
v -6.378985 -1.340541 -16.922668
v -6.380072 -0.863523 -16.248066
v -6.380071 2.387731 -16.248066
v -6.378984 2.387731 -16.922668
v -6.451354 -1.340535 28.036411
v -6.450268 -0.863517 27.361809
v -6.450268 2.387736 27.361807
v -6.451354 2.387736 28.036411
v 16.064373 -1.340540 5.593055
v 15.389768 -0.863524 5.591969
v 15.389768 2.387731 5.591968
v 16.064373 2.387731 5.593055
v -28.894897 2.387855 5.520724
v -28.518932 2.152064 5.447367
v -6.378947 2.387849 -16.922859
v -13.077365 22.672092 21.389259
v -26.043941 2.722636 8.380877
v -25.818672 2.722636 8.156332
v -13.377970 18.965336 21.087685
v -13.152702 18.965336 20.863140
v -12.862069 22.230253 21.154711
v -10.332178 20.451313 21.074036
v 9.203349 22.230247 -0.839787
v 9.438588 22.672089 -1.054328
v -6.453514 2.152059 -16.547131
v 8.912717 18.965332 -1.131356
v 8.856290 20.451309 1.947240
v 9.017316 20.672981 2.108786
v -10.171152 20.672985 21.235580
v -3.753254 2.722631 -13.838164
v 9.137982 18.965332 -1.355900
v -3.527987 2.722631 -14.062707
v 3.953099 -0.916988 -4.778073
v 2.511396 0.143841 -3.341002
v 8.224216 -0.916987 5.580435
v -6.391604 -0.916989 -9.082513
v -16.750114 -0.916987 -4.811399
v -6.394881 0.143844 -7.046910
v -15.313044 0.143844 -3.369693
v -19.018951 0.143846 5.536582
v -15.341735 0.143847 14.454745
v -21.054550 -0.916986 5.533308
v -16.783440 -0.916985 15.891816
v -6.438733 -0.916985 20.196255
v 3.919775 -0.916986 15.925141
v -6.435456 0.143845 18.160652
v 2.482705 0.143844 14.483437
v 6.188612 0.143843 5.577159
vn -0.0000 1.0000 -0.0000
vn -0.7060 -0.0000 -0.7082
vn 0.7060 -0.0000 0.7082
vn 0.7082 -0.0000 -0.7060
vn -0.7082 -0.0000 0.7060
vn -0.0000 -1.0000 -0.0000
vn -0.1920 -0.9203 0.3410
vn -0.1920 -0.9203 0.3409
vn -0.5234 -0.6711 -0.5250
vn -0.5233 -0.6711 -0.5250
vn -0.4738 0.7413 -0.4753
vn 0.4738 -0.7413 0.4753
vn 0.6567 -0.1191 0.7447
vn 0.6566 -0.1190 0.7447
vn -0.3165 -0.5052 0.8029
vn -0.5063 -0.6969 -0.5079
vn 0.8300 -0.5132 -0.2187
vn 0.8300 -0.5131 -0.2186
vn 0.7426 -0.1191 0.6591
vn 0.7426 -0.1190 0.6591
vn 0.4920 -0.7171 0.4936
vn 0.5063 0.6969 0.5079
vn 0.3416 -0.9203 -0.1909
vn 0.0005 0.9564 -0.2922
vn 0.3273 0.8868 -0.3263
vn 0.0007 0.8868 -0.4621
vn 0.2070 0.9564 -0.2063
vn 0.4621 0.8868 0.0007
vn -0.2063 0.9564 -0.2070
vn -0.3263 0.8868 -0.3273
vn -0.2070 0.9564 0.2063
vn 0.2063 0.9564 0.2070
vn -0.2922 0.9564 -0.0005
vn -0.4621 0.8868 -0.0007
vn -0.3273 0.8868 0.3263
vn -0.0005 0.9564 0.2922
vn -0.0007 0.8868 0.4621
vn 0.3263 0.8868 0.3273
vn 0.2922 0.9564 0.0005
vn 0.6567 -0.1190 0.7447
vn 0.7426 -0.1190 0.6590
vt 0.778247 0.346753
vt 0.768628 0.371997
vt 0.778247 0.371997
vt 0.762622 0.346753
vt 0.753003 0.371997
vt 0.762622 0.371997
vt 0.809497 0.346753
vt 0.799878 0.371997
vt 0.809497 0.371997
vt 0.793872 0.371997
vt 0.784253 0.346753
vt 0.784253 0.371997
vt 0.715747 0.315503
vt 0.706128 0.340747
vt 0.715747 0.340747
vt 0.690503 0.315503
vt 0.700122 0.340747
vt 0.700122 0.315503
vt 0.746997 0.315503
vt 0.737378 0.340747
vt 0.746997 0.340747
vt 0.731372 0.315503
vt 0.721753 0.340747
vt 0.731372 0.340747
vt 0.715747 0.371997
vt 0.706128 0.346753
vt 0.706128 0.371997
vt 0.690503 0.346753
vt 0.700122 0.371997
vt 0.700122 0.346753
vt 0.746997 0.371997
vt 0.737378 0.346753
vt 0.737378 0.371997
vt 0.721753 0.346753
vt 0.731372 0.371997
vt 0.731372 0.346753
vt 0.940503 0.753003
vt 0.965747 0.778247
vt 0.965747 0.753003
vt 0.940503 0.784253
vt 0.965747 0.809497
vt 0.965747 0.784253
vt 0.700122 0.159253
vt 0.690503 0.168872
vt 0.700122 0.168872
vt 0.778247 0.278247
vt 0.768628 0.253003
vt 0.768628 0.278247
vt 0.721753 0.284253
vt 0.746997 0.309497
vt 0.746997 0.284253
vt 0.768628 0.284253
vt 0.778247 0.309497
vt 0.778247 0.284253
vt 0.809497 0.253003
vt 0.799878 0.278247
vt 0.809497 0.278247
vt 0.706128 0.159253
vt 0.715747 0.168872
vt 0.715747 0.159253
vt 0.762622 0.284253
vt 0.753003 0.309497
vt 0.762622 0.309497
vt 0.731372 0.159253
vt 0.721753 0.168872
vt 0.731372 0.168872
vt 0.700122 0.278247
vt 0.690503 0.253003
vt 0.690503 0.278247
vt 0.690503 0.284253
vt 0.715747 0.309497
vt 0.715747 0.284253
vt 0.737378 0.159253
vt 0.746997 0.168872
vt 0.746997 0.159253
vt 0.731372 0.174878
vt 0.721753 0.184497
vt 0.731372 0.184497
vt 0.793872 0.309497
vt 0.784253 0.284253
vt 0.784253 0.309497
vt 0.793872 0.253003
vt 0.784253 0.278247
vt 0.793872 0.278247
vt 0.715747 0.253003
vt 0.706128 0.278247
vt 0.715747 0.278247
vt 0.762622 0.253003
vt 0.753003 0.278247
vt 0.762622 0.278247
vt 0.809497 0.284253
vt 0.799878 0.309497
vt 0.809497 0.309497
vt 0.737378 0.174878
vt 0.746997 0.184497
vt 0.746997 0.174878
vt 0.784253 0.315503
vt 0.793872 0.325122
vt 0.793872 0.315503
vt 0.768628 0.331128
vt 0.778247 0.340747
vt 0.778247 0.331128
vt 0.799878 0.315503
vt 0.809497 0.325122
vt 0.809497 0.315503
vt 0.739603 0.253003
vt 0.746997 0.270853
vt 0.729147 0.278247
vt 0.784253 0.331128
vt 0.793872 0.340747
vt 0.793872 0.331128
vt 0.799878 0.331128
vt 0.809497 0.340747
vt 0.809497 0.331128
vt 0.753003 0.315503
vt 0.762622 0.325122
vt 0.762622 0.315503
vt 0.768628 0.315503
vt 0.778247 0.325122
vt 0.778247 0.315503
vt 0.753003 0.331128
vt 0.762622 0.340747
vt 0.762622 0.331128
vt 0.768628 0.346753
vt 0.753003 0.346753
vt 0.799878 0.346753
vt 0.793872 0.346753
vt 0.706128 0.315503
vt 0.690503 0.340747
vt 0.737378 0.315503
vt 0.721753 0.315503
vt 0.715747 0.346753
vt 0.690503 0.371997
vt 0.746997 0.346753
vt 0.721753 0.371997
vt 0.940503 0.778247
vt 0.940503 0.809497
vt 0.690503 0.159253
vt 0.778247 0.253003
vt 0.721753 0.309497
vt 0.768628 0.309497
vt 0.799878 0.253003
vt 0.706128 0.168872
vt 0.753003 0.284253
vt 0.721753 0.159253
vt 0.700122 0.253003
vt 0.690503 0.309497
vt 0.737378 0.168872
vt 0.721753 0.174878
vt 0.793872 0.284253
vt 0.784253 0.253003
vt 0.706128 0.253003
vt 0.753003 0.253003
vt 0.799878 0.284253
vt 0.737378 0.184497
vt 0.784253 0.325122
vt 0.768628 0.340747
vt 0.799878 0.325122
vt 0.721753 0.270853
vt 0.721753 0.260397
vt 0.729147 0.253003
vt 0.746997 0.260397
vt 0.739603 0.278247
vt 0.784253 0.340747
vt 0.799878 0.340747
vt 0.753003 0.325122
vt 0.768628 0.325122
vt 0.753003 0.340747
s 1
usemtl Box_Pizza.002
f 175/553/106 171/554/106 172/555/106
f 183/556/106 176/557/106 175/558/106
f 179/559/106 184/560/106 183/561/106
f 179/562/106 171/563/106 180/564/106
f 169/565/107 176/566/107 173/567/107
f 175/568/108 170/569/108 174/570/108
f 173/571/109 184/572/109 181/573/109
f 182/574/110 175/575/110 174/576/110
f 177/577/108 184/578/108 180/579/108
f 179/580/107 182/581/107 178/582/107
f 169/583/110 180/584/110 171/585/110
f 172/586/109 178/587/109 170/588/109
f 173/589/111 177/590/111 169/591/111
f 178/592/106 174/593/106 170/594/106
f 186/595/112 189/596/112 185/597/113
f 185/598/114 197/599/115 186/600/114
f 187/601/116 188/602/116 196/603/116
f 188/604/110 189/605/110 191/606/110
f 192/607/117 189/608/117 190/609/117
f 193/610/118 191/611/118 192/612/119
f 190/613/109 193/614/109 192/615/109
f 193/616/120 201/617/120 188/618/120
f 199/619/121 193/620/121 195/621/121
f 193/622/117 197/623/117 195/624/117
f 195/625/122 200/626/123 199/627/122
f 195/628/124 203/629/124 196/630/125
f 202/631/110 195/632/110 197/633/110
f 199/634/126 201/635/126 194/636/126
f 200/637/127 188/638/127 201/639/127
f 202/640/117 203/641/117 198/642/117
f 204/643/109 196/644/109 203/645/109
f 197/646/128 204/647/128 202/648/128
f 210/649/129 205/650/130 208/651/131
f 206/652/132 207/653/133 205/654/130
f 211/655/134 208/656/131 209/657/135
f 211/658/134 213/659/136 219/660/137
f 212/661/138 209/662/135 214/663/139
f 213/664/136 214/665/139 215/666/140
f 218/667/141 215/668/140 216/669/142
f 219/670/137 216/671/142 217/672/143
f 220/673/144 217/674/143 207/675/133
f 175/553/106 176/676/106 171/554/106
f 183/556/106 184/677/106 176/557/106
f 179/559/106 180/678/106 184/560/106
f 179/562/106 172/679/106 171/563/106
f 169/565/107 171/680/107 176/566/107
f 175/568/108 172/681/108 170/569/108
f 173/571/109 176/682/109 184/572/109
f 182/574/110 183/683/110 175/575/110
f 177/577/108 181/684/108 184/578/108
f 179/580/107 183/685/107 182/581/107
f 169/583/110 177/686/110 180/584/110
f 172/586/109 179/687/109 178/587/109
f 173/589/111 181/688/111 177/590/111
f 178/592/106 182/689/106 174/593/106
f 186/595/112 190/690/112 189/596/112
f 185/598/114 187/691/115 197/599/115
f 187/601/116 185/692/116 188/602/116
f 188/604/110 185/693/110 189/605/110
f 192/607/117 191/694/117 189/608/117
f 193/610/118 188/695/145 191/611/118
f 190/613/109 186/696/109 193/614/109
f 193/616/120 194/697/120 201/617/120
f 199/619/121 194/698/121 193/620/121
f 193/622/117 186/699/117 197/623/117
f 195/625/122 196/700/123 200/626/123
f 195/628/124 198/701/146 203/629/124
f 202/631/110 198/702/110 195/632/110
f 199/634/126 200/703/126 201/635/126
f 200/637/127 196/704/127 188/638/127
f 202/640/117 204/705/117 203/641/117
f 204/643/109 187/706/109 196/644/109
f 197/646/128 187/707/128 204/647/128
f 210/649/129 206/708/132 205/650/130
f 206/652/132 220/709/144 207/653/133
f 211/655/134 210/710/129 208/656/131
f 219/660/137 220/711/144 206/712/132
f 206/712/132 210/713/129 211/658/134
f 211/658/134 212/714/138 213/659/136
f 213/659/136 218/715/141 219/660/137
f 219/660/137 206/712/132 211/658/134
f 212/661/138 211/716/134 209/662/135
f 213/664/136 212/717/138 214/665/139
f 218/667/141 213/718/136 215/668/140
f 219/670/137 218/719/141 216/671/142
f 220/673/144 219/720/137 217/674/143
