# Blender 4.0.2
# www.blender.org
mtllib chair.mtl
o Chair.001
v -0.119561 -0.145946 -7.619014
v -0.283737 -0.020489 -7.524063
v -0.225409 -0.132768 -7.535249
v -0.343597 0.345044 -7.595939
v -0.220512 0.470501 -7.740228
v -0.322043 0.457323 -7.651280
v 0.199193 -0.020489 -7.926263
v 0.076108 -0.145946 -7.781974
v 0.177639 -0.132768 -7.870921
v -0.024843 0.470501 -7.903187
v 0.139332 0.345044 -7.998138
v 0.081004 0.457323 -7.986952
v -0.080727 0.122653 -7.518407
v -0.251706 0.056833 -7.479485
v -0.171573 0.088106 -7.467970
v -0.007863 0.046509 -7.553734
v -0.074791 -0.128044 -7.565258
v -0.030643 -0.059166 -7.536297
v -0.054220 0.068811 -7.522552
v -0.187348 -0.073894 -7.489549
v -0.120305 -0.016031 -7.475987
v -0.059222 0.360132 -7.615403
v -0.175742 0.488403 -7.686471
v -0.114394 0.452252 -7.636858
v -0.107148 0.283988 -7.550131
v -0.292105 0.303526 -7.527992
v -0.207088 0.304979 -7.510615
v -0.098276 0.337830 -7.575450
v -0.270563 0.434254 -7.589468
v -0.189929 0.409117 -7.559586
v 0.120104 0.046509 -7.660309
v 0.120878 -0.128044 -7.728217
v 0.141374 -0.059166 -7.679558
v 0.168029 0.122653 -7.725580
v 0.237241 0.056833 -7.886696
v 0.234069 0.088106 -7.805802
v 0.159157 0.068811 -7.700261
v 0.215700 -0.073894 -7.825221
v 0.216909 -0.016031 -7.756831
v 0.141608 0.283988 -7.757304
v 0.196842 0.303526 -7.935204
v 0.198553 0.304979 -7.848446
v 0.068744 0.360132 -7.721977
v 0.019928 0.488403 -7.849431
v 0.057623 0.452252 -7.780120
v 0.115102 0.337830 -7.753159
v 0.132484 0.434254 -7.925139
v 0.147286 0.409117 -7.840429
v -0.182634 -0.103287 -7.580691
v -0.113771 -0.108259 -7.636387
v -0.229394 -0.004036 -7.574800
v -0.202378 0.432814 -7.742780
v -0.269613 0.427842 -7.685129
v -0.283866 0.328591 -7.640206
v 0.084989 0.328591 -7.947401
v 0.038230 0.427842 -7.941510
v -0.030633 0.432814 -7.885814
v 0.057974 -0.108259 -7.779422
v 0.125209 -0.103287 -7.837073
v 0.139461 -0.004036 -7.881995
v -0.337469 -0.087683 -7.585037
v -0.308129 -0.137343 -7.592935
v -0.398519 0.414616 -7.701468
v -0.411595 0.364956 -7.674041
v 0.074820 0.364956 -8.079144
v 0.045480 0.414616 -8.071245
v 0.135870 -0.137343 -7.962712
v 0.148946 -0.087683 -7.990139
v -0.298828 -0.079025 -7.620102
v -0.275374 -0.121206 -7.625588
v -0.360479 0.398480 -7.727776
v -0.370117 0.356299 -7.705701
v 0.036179 0.356299 -8.044078
v 0.012725 0.398480 -8.038592
v 0.097830 -0.121206 -7.936405
v 0.107468 -0.079025 -7.958479
v -0.527125 -0.153289 -7.863241
v -0.500780 -0.197880 -7.870333
v -0.583313 0.306105 -7.969433
v -0.595054 0.261514 -7.944805
v -0.158287 0.261514 -8.308559
v -0.184633 0.306105 -8.301468
v -0.102099 -0.197880 -8.202368
v -0.090358 -0.153289 -8.226995
v -0.512951 -0.144242 -7.876647
v -0.490220 -0.181877 -7.883045
v -0.567598 0.290624 -7.975954
v -0.578003 0.252990 -7.954755
v -0.171158 0.252990 -8.293590
v -0.193889 0.290624 -8.287190
v -0.116512 -0.181877 -8.194282
v -0.106106 -0.144242 -8.215481
v -0.102254 0.445650 -7.493729
v -0.108905 0.486265 -7.501715
v 0.196195 0.445650 -7.742287
v 0.189543 0.486265 -7.750273
v 0.421763 0.609068 -7.097772
v 0.092311 0.547353 -7.137256
v 0.252736 0.590992 -7.048929
v 0.085582 0.588444 -7.145336
v 0.415034 0.650159 -7.105852
v 0.246006 0.632083 -7.057009
v 0.511587 0.547353 -7.486443
v 0.490818 0.609068 -7.155284
v 0.569434 0.590992 -7.312686
v 0.484089 0.650159 -7.163363
v 0.504858 0.588444 -7.494523
v 0.562705 0.632083 -7.320766
v 0.016331 0.476673 -7.654797
v 0.022982 0.436058 -7.646811
v -0.048540 0.486701 -7.550920
v -0.041819 0.445662 -7.542850
v 0.136951 0.445662 -7.691736
v 0.130230 0.486701 -7.699805
v -0.284397 0.436441 -7.605441
v -0.277957 0.397119 -7.597709
v -0.228284 0.436429 -7.653345
v 0.125715 0.397119 -7.933901
v 0.119276 0.436441 -7.941633
v 0.068518 0.396697 -7.887300
v -0.221777 0.396697 -7.645533
v 0.062011 0.436429 -7.895113
v 0.007494 0.501486 -7.300525
v 0.000804 0.542339 -7.308558
v -0.011449 0.490632 -7.340267
v -0.018120 0.531366 -7.348276
v 0.366356 0.501486 -7.599397
v 0.359666 0.542339 -7.607430
v 0.324026 0.531366 -7.633227
v 0.330697 0.490632 -7.625217
v -0.040098 0.425594 -7.236003
v -0.066048 0.447150 -7.221570
v -0.055896 0.414884 -7.277636
v -0.080782 0.436322 -7.264049
v 0.400336 0.414884 -7.657600
v 0.438423 0.425594 -7.634532
v 0.457313 0.447150 -7.657443
v 0.418201 0.436322 -7.679618
v -0.004609 0.033512 -7.157259
v -0.028030 0.029452 -7.136402
v -0.022684 0.041763 -7.203309
v -0.044964 0.037586 -7.183363
v 0.467428 0.041763 -7.611491
v 0.509448 0.033512 -7.585383
v 0.534198 0.029452 -7.604644
v 0.491076 0.037586 -7.629795
v 0.002177 -0.000456 -7.149111
v -0.021244 -0.004515 -7.128253
v -0.012793 -0.011166 -7.191432
v -0.035072 -0.015343 -7.171486
v 0.477320 -0.011166 -7.599614
v 0.516234 -0.000456 -7.577235
v 0.540984 -0.004515 -7.596496
v 0.500967 -0.015343 -7.617918
v -0.204518 -0.034953 -7.523574
v -0.220675 -0.039520 -7.509971
v 0.201644 -0.039520 -7.861693
v 0.185342 -0.034953 -7.848263
v -0.199947 -0.091911 -7.518085
v -0.223745 -0.098745 -7.526572
v 0.185873 -0.098745 -7.867715
v 0.189914 -0.091911 -7.842774
v -0.135554 0.036048 -7.301973
v -0.128323 -0.018896 -7.293290
v -0.115526 0.040419 -7.319422
v -0.108294 -0.014524 -7.310739
v 0.390811 0.036048 -7.740348
v 0.370026 0.040419 -7.723806
v 0.377258 -0.014524 -7.715124
v 0.398042 -0.018896 -7.731665
vn -0.0054 0.9763 0.2163
vn -0.4711 0.7226 0.5059
vn -0.2910 0.7130 0.6380
vn 0.7724 0.3559 -0.5260
vn 0.6801 0.7130 -0.1707
vn 0.9059 0.2215 -0.3608
vn 0.2819 -0.7782 0.5613
vn -0.2558 -0.5919 0.7643
vn 0.1482 -0.9177 0.3687
vn 0.7249 0.2201 0.6527
vn 0.5108 0.2201 0.8311
vn 0.6559 0.1104 0.7468
vn -0.6570 0.3559 0.6645
vn -0.5188 0.2215 0.8257
vn 0.5011 -0.7781 0.3788
vn 0.3358 -0.9177 0.2124
vn -0.4745 -0.0490 0.8789
vn -0.5547 -0.2689 0.7874
vn 0.0239 0.9865 -0.1620
vn -0.1637 0.9865 -0.0058
vn 0.7980 -0.5919 -0.1133
vn 0.8753 -0.4793 0.0637
vn 0.5827 0.7226 -0.3718
vn 0.2137 0.9763 0.0338
vn 0.8748 -0.2689 -0.4031
vn 0.9502 -0.0490 -0.3076
vn -0.7214 0.4492 0.5271
vn 0.5503 0.1451 0.8223
vn 0.5200 -0.3235 0.7906
vn 0.6158 0.1104 0.7801
vn 0.2746 -0.1758 0.9453
vn 0.1120 0.1029 0.9884
vn -0.0957 -0.4793 0.8724
vn 0.5175 0.3454 0.7829
vn 0.3466 0.7354 0.5824
vn 0.1496 0.5875 0.7953
vn 0.0782 0.3090 0.9478
vn 0.5025 0.2707 0.8211
vn 0.6764 0.3454 0.6506
vn 0.9181 0.3090 0.2484
vn 0.7551 0.5875 0.2910
vn 0.5100 0.7354 0.4462
vn 0.6117 0.3804 0.6937
vn 0.7092 0.1451 0.6900
vn 0.6834 -0.3235 0.6544
vn 0.8801 -0.1758 0.4411
vn 0.9518 0.1029 0.2889
vn 0.5716 0.3804 0.7270
vn -0.6200 -0.2479 -0.7444
vn -0.5975 0.7937 -0.1143
vn -0.5691 0.8221 -0.0187
vn -0.9497 0.2498 0.1887
vn -0.8717 0.3529 0.3399
vn -0.8728 0.3518 0.3383
vn 0.0138 -0.9636 -0.2671
vn 0.1817 -0.9760 -0.1203
vn 0.1966 -0.9747 -0.1066
vn -0.7399 -0.4520 0.4982
vn -0.5891 -0.4416 0.6767
vn -0.5890 -0.4416 0.6767
vn 0.3671 -0.9028 -0.2239
vn 0.4719 -0.8664 -0.1632
vn 0.6238 -0.4520 -0.6376
vn 0.7721 -0.4416 -0.4569
vn 0.6223 -0.4520 -0.6391
vn -0.4531 0.8675 -0.2055
vn -0.3139 0.9494 0.0048
vn -0.4435 0.8759 -0.1898
vn -0.0043 0.7937 -0.6083
vn 0.0846 0.8221 -0.5631
vn 0.0970 0.8254 -0.5562
vn 0.3574 0.2498 -0.8999
vn 0.4920 0.3529 -0.7959
vn 0.6489 0.4492 -0.6141
vn 0.6479 0.4491 -0.6152
vn 0.4706 -0.4414 -0.7640
vn -0.5459 0.7508 -0.3718
vn -0.8365 -0.4414 0.3246
vn 0.2766 -0.9220 -0.2710
vn 0.7915 -0.4212 -0.4429
vn -0.3166 -0.9220 0.2230
vn -0.2866 -0.9028 0.3205
vn -0.2821 -0.8994 0.3339
vn -0.2651 -0.9636 -0.0347
vn -0.1512 -0.9760 0.1570
vn -0.2670 0.7508 -0.6042
vn -0.1201 0.8675 -0.4828
vn -0.5788 -0.4212 0.6983
vn -0.5797 -0.4218 0.6972
vn -0.6555 -0.2252 -0.7208
vn -0.6553 -0.2254 -0.7209
vn -0.6556 -0.2251 -0.7208
vn -0.6482 -0.2701 -0.7120
vn -0.5902 -0.2249 -0.7753
vn -0.5905 -0.2254 -0.7749
vn -0.5904 -0.2253 -0.7750
vn -0.5828 -0.2703 -0.7663
vn -0.5832 -0.2698 -0.7662
vn -0.5829 -0.2702 -0.7663
vn -0.0066 -0.9275 0.3738
vn -0.0065 -0.9275 0.3738
vn -0.7361 0.4560 0.5002
vn -0.6659 -0.4837 0.5680
vn 0.1917 0.8447 -0.4997
vn -0.2459 -0.8664 0.4346
vn -0.8154 0.4292 0.3885
vn 0.0615 0.9494 -0.3079
vn 0.0614 0.9494 -0.3079
vn 0.5296 0.4292 -0.7316
vn 0.3688 -0.9275 0.0612
vn 0.6791 -0.4837 -0.5521
vn -0.5261 0.8447 0.0981
vn 0.6251 0.4560 -0.6334
vn 0.6251 0.4561 -0.6334
vn 0.4440 0.2423 0.8626
vn 0.7681 0.2423 0.5927
vn 0.6232 -0.0514 -0.7804
vn 0.8137 0.0190 -0.5809
vn -0.7185 0.0190 0.6952
vn -0.8802 -0.0514 0.4717
vn 0.8201 0.0219 -0.5718
vn 0.9286 0.0809 -0.3621
vn -0.0246 0.9246 -0.3803
vn -0.1585 0.9686 -0.1917
vn -0.1599 0.9686 -0.1906
vn -0.1356 0.1697 0.9761
vn 0.9845 0.1697 0.0432
vn 0.3789 -0.9217 0.0834
vn 0.1574 -0.9690 0.1904
vn 0.1587 -0.9690 0.1893
vn -0.8345 -0.2347 -0.4985
vn 0.1566 -0.9691 0.1905
vn 0.1550 -0.9694 0.1906
vn -0.3393 -0.2347 -0.9109
vn -0.7108 0.0219 0.7031
vn -0.5241 0.0809 0.8478
vn -0.1583 0.9684 -0.1926
vn -0.1579 0.9682 -0.1941
vn 0.5111 -0.0845 -0.8554
vn 0.1589 -0.9691 0.1885
vn 0.1594 -0.9694 0.1869
vn -0.1607 0.9684 -0.1905
vn -0.1623 0.9682 -0.1904
vn -0.9337 -0.0845 0.3479
vn 0.4104 -0.9095 0.0666
vn 0.9003 -0.3376 -0.2746
vn -0.8550 -0.0383 0.5172
vn -0.6216 -0.2489 -0.7428
vn -0.6196 -0.2325 -0.7497
vn -0.6216 -0.2488 -0.7428
vn 0.6633 -0.0383 -0.7474
vn -0.6187 -0.2255 -0.7526
vn -0.6162 -0.2077 -0.7597
vn 0.6292 0.2261 0.7437
vn 0.6251 0.2587 0.7364
vn 0.6273 0.2316 0.7436
vn 0.6218 0.2470 0.7432
vn -0.0087 -0.9095 0.4157
vn -0.4330 -0.3376 0.8358
vn -0.4480 -0.2947 0.8441
vn -0.4008 0.9129 -0.0771
vn -0.9011 0.3568 0.2463
vn -0.9159 0.3041 0.2618
vn 0.6185 0.2469 0.7460
vn 0.6178 0.2316 0.7514
vn 0.6176 0.2261 0.7533
vn -0.6181 -0.2489 -0.7457
vn -0.6253 -0.2325 -0.7450
vn -0.6283 -0.2255 -0.7446
vn -0.0034 0.9129 -0.4081
vn 0.4052 0.3568 -0.8417
vn 0.6162 0.2980 0.7290
vn -0.0077 0.9627 -0.2703
vn -0.1042 0.9104 -0.4005
vn 0.9112 -0.2947 -0.2879
vn 0.8860 0.0292 -0.4628
vn 0.4232 0.3041 -0.8535
vn 0.5948 -0.0354 -0.8031
vn -0.6154 0.0293 0.7877
vn -0.5177 0.0660 0.8530
vn -0.8976 -0.0356 0.4394
vn -0.9418 -0.0730 0.3280
vn 0.6112 0.2587 0.7480
vn 0.6123 0.2496 0.7502
vn -0.6357 -0.2077 -0.7434
vn 0.2944 -0.9455 0.1390
vn 0.2261 -0.9730 0.0459
vn 0.2043 -0.9788 0.0171
vn 0.0042 -0.9730 0.2306
vn 0.0834 -0.9455 0.3147
vn -0.0202 -0.9787 0.2041
vn -0.8607 -0.0354 0.5079
vn -0.9161 -0.0609 0.3963
vn -0.9161 -0.0608 0.3963
vn 0.9326 0.0660 -0.3549
vn 0.8752 0.0568 -0.4803
vn 0.4930 -0.0730 -0.8669
vn 0.6108 -0.0638 -0.7892
vn -0.6308 0.0569 0.7739
vn -0.5137 0.0979 0.8524
vn -0.8867 -0.0638 0.4579
vn -0.9402 -0.1058 0.3238
vn 0.6055 0.2980 0.7379
vn -0.6706 0.0240 0.7414
vn -0.5726 0.0433 0.8187
vn -0.2644 0.9628 -0.0565
vn -0.3750 0.9104 -0.1750
vn -0.2405 0.9701 -0.0316
vn 0.0167 -0.9778 0.2090
vn 0.1590 -0.9351 0.3167
vn 0.2025 -0.9778 0.0542
vn 0.2828 -0.9351 0.2136
vn 0.2167 -0.9728 0.0815
vn 0.8505 0.0240 -0.5254
vn 0.9088 0.0433 -0.4150
vn 0.8528 0.0247 -0.5216
vn 0.6552 -0.0353 -0.7546
vn 0.5555 -0.0609 -0.8293
vn 0.6514 -0.0364 -0.7579
vn -0.1245 0.9886 0.0852
vn 0.1063 0.9886 -0.1070
vn 0.0124 0.9702 -0.2422
vn 0.7167 0.2707 0.6427
vn -0.7223 0.4491 0.5259
vn -0.5646 0.8254 -0.0052
vn 0.0138 -0.9636 -0.2670
vn -0.7412 -0.4520 0.4964
vn 0.3794 -0.8994 -0.2171
vn -0.3139 0.9494 0.0047
vn 0.4906 0.3519 -0.7972
vn 0.7906 -0.4218 -0.4440
vn -0.1404 -0.9747 0.1741
vn -0.1064 0.8760 -0.4705
vn -0.6481 -0.2700 -0.7121
vn -0.5903 -0.2250 -0.7752
vn -0.5831 -0.2700 -0.7663
vn -0.7361 0.4561 0.5002
vn -0.3695 0.9245 -0.0930
vn -0.1587 0.9688 -0.1905
vn -0.1588 0.9687 -0.1907
vn 0.0135 -0.9217 0.3877
vn 0.1586 -0.9688 0.1905
vn 0.1587 -0.9688 0.1905
vn 0.1584 -0.9689 0.1902
vn 0.1585 -0.9688 0.1903
vn 0.6271 0.2496 0.7379
vn -0.6181 -0.2488 -0.7457
vn -0.8632 -0.0364 0.5035
vn 0.9313 0.0979 -0.3510
vn 0.4886 -0.1058 -0.8661
vn -0.6673 0.0247 0.7444
vn 0.0410 -0.9728 0.2279
vt 0.212187 0.813130
vt 0.205535 0.819782
vt 0.212187 0.819782
vt 0.243509 0.825788
vt 0.250162 0.832440
vt 0.250162 0.825788
vt 0.230851 0.825788
vt 0.237503 0.832440
vt 0.237503 0.825788
vt 0.650537 0.022313
vt 0.650537 0.003003
vt 0.655225 0.017625
vt 0.250162 0.813130
vt 0.243509 0.819782
vt 0.250162 0.819782
vt 0.484016 0.610598
vt 0.490668 0.629908
vt 0.490668 0.610598
vt 0.471357 0.635914
vt 0.478010 0.655225
vt 0.478010 0.635914
vt 0.458699 0.635914
vt 0.465351 0.655225
vt 0.465351 0.635914
vt 0.237503 0.813130
vt 0.230851 0.819782
vt 0.237503 0.819782
vt 0.218193 0.851104
vt 0.224845 0.857756
vt 0.224845 0.851104
vt 0.212187 0.851104
vt 0.205535 0.857756
vt 0.212187 0.857756
vt 0.496674 0.635914
vt 0.503326 0.655225
vt 0.503326 0.635914
vt 0.218193 0.838446
vt 0.224845 0.845098
vt 0.224845 0.838446
vt 0.205535 0.838446
vt 0.212187 0.845098
vt 0.212187 0.838446
vt 0.243509 0.851104
vt 0.250162 0.857756
vt 0.250162 0.851104
vt 0.237503 0.851104
vt 0.230851 0.857756
vt 0.237503 0.857756
vt 0.250162 0.838446
vt 0.243509 0.845098
vt 0.250162 0.845098
vt 0.237503 0.838446
vt 0.230851 0.845098
vt 0.237503 0.845098
vt 0.275478 0.775155
vt 0.268826 0.781807
vt 0.275478 0.781807
vt 0.256168 0.775155
vt 0.262820 0.781807
vt 0.262820 0.775155
vt 0.268826 0.762497
vt 0.275478 0.769149
vt 0.275478 0.762497
vt 0.262820 0.762497
vt 0.256168 0.769149
vt 0.262820 0.769149
vt 0.300794 0.775155
vt 0.294142 0.781807
vt 0.300794 0.781807
vt 0.281484 0.775155
vt 0.288136 0.781807
vt 0.288136 0.775155
vt 0.294142 0.762497
vt 0.300794 0.769149
vt 0.300794 0.762497
vt 0.288136 0.762497
vt 0.281484 0.769149
vt 0.288136 0.769149
vt 0.275478 0.800471
vt 0.268826 0.807124
vt 0.275478 0.807124
vt 0.256168 0.800471
vt 0.262820 0.807124
vt 0.262820 0.800471
vt 0.268826 0.787813
vt 0.275478 0.794465
vt 0.275478 0.787813
vt 0.490668 0.635914
vt 0.484016 0.655225
vt 0.490668 0.655225
vt 0.427377 0.610598
vt 0.420725 0.629908
vt 0.427377 0.629908
vt 0.414719 0.610598
vt 0.408066 0.629908
vt 0.414719 0.629908
vt 0.452693 0.610598
vt 0.446041 0.629908
vt 0.452693 0.629908
vt 0.440035 0.610598
vt 0.433383 0.629908
vt 0.440035 0.629908
vt 0.427377 0.635914
vt 0.420725 0.655225
vt 0.427377 0.655225
vt 0.414719 0.655225
vt 0.408066 0.635914
vt 0.408066 0.655225
vt 0.452693 0.655225
vt 0.446041 0.635914
vt 0.446041 0.655225
vt 0.256168 0.787813
vt 0.262820 0.794465
vt 0.262820 0.787813
vt 0.098263 0.697262
vt 0.065560 0.705858
vt 0.053636 0.697262
vt 0.294142 0.800471
vt 0.300794 0.807124
vt 0.300794 0.800471
vt 0.440035 0.635914
vt 0.433383 0.655225
vt 0.440035 0.655225
vt 0.288136 0.800471
vt 0.281484 0.807124
vt 0.288136 0.807124
vt 0.680541 0.154902
vt 0.673889 0.174212
vt 0.680541 0.174212
vt 0.300794 0.787813
vt 0.294142 0.794465
vt 0.300794 0.794465
vt 0.281484 0.787813
vt 0.288136 0.794465
vt 0.288136 0.787813
vt 0.667883 0.174212
vt 0.661231 0.154902
vt 0.661231 0.174212
vt 0.218193 0.775155
vt 0.224845 0.781807
vt 0.224845 0.775155
vt 0.212187 0.775155
vt 0.205535 0.781807
vt 0.212187 0.781807
vt 0.705858 0.154902
vt 0.699206 0.174212
vt 0.705858 0.174212
vt 0.224845 0.762497
vt 0.218193 0.769149
vt 0.224845 0.769149
vt 0.693200 0.154902
vt 0.686547 0.174212
vt 0.693200 0.174212
vt 0.680541 0.180218
vt 0.673889 0.199529
vt 0.680541 0.199529
vt 0.661231 0.180218
vt 0.667883 0.199529
vt 0.667883 0.180218
vt 0.699206 0.180218
vt 0.705858 0.199529
vt 0.705858 0.180218
vt 0.212187 0.762497
vt 0.205535 0.769149
vt 0.212187 0.769149
vt 0.243509 0.775155
vt 0.250162 0.781807
vt 0.250162 0.775155
vt 0.237503 0.775155
vt 0.230851 0.781807
vt 0.237503 0.781807
vt 0.250162 0.762497
vt 0.243509 0.769149
vt 0.250162 0.769149
vt 0.237503 0.762497
vt 0.230851 0.769149
vt 0.237503 0.769149
vt 0.218193 0.800471
vt 0.224845 0.807124
vt 0.224845 0.800471
vt 0.205535 0.800471
vt 0.212187 0.807124
vt 0.212187 0.800471
vt 0.218193 0.787813
vt 0.224845 0.794465
vt 0.224845 0.787813
vt 0.212187 0.787813
vt 0.205535 0.794465
vt 0.212187 0.794465
vt 0.243509 0.800471
vt 0.250162 0.807124
vt 0.250162 0.800471
vt 0.230851 0.800471
vt 0.237503 0.807124
vt 0.237503 0.800471
vt 0.250162 0.787813
vt 0.243509 0.794465
vt 0.250162 0.794465
vt 0.237503 0.787813
vt 0.230851 0.794465
vt 0.237503 0.794465
vt 0.825788 0.167560
vt 0.832440 0.174212
vt 0.832440 0.167560
vt 0.813130 0.167560
vt 0.819782 0.174212
vt 0.819782 0.167560
vt 0.832440 0.154902
vt 0.825788 0.161554
vt 0.832440 0.161554
vt 0.693200 0.180218
vt 0.686547 0.199529
vt 0.693200 0.199529
vt 0.623256 0.154902
vt 0.629908 0.174212
vt 0.629908 0.154902
vt 0.610598 0.154902
vt 0.617250 0.174212
vt 0.617250 0.154902
vt 0.648573 0.154902
vt 0.655225 0.174212
vt 0.655225 0.154902
vt 0.635914 0.154902
vt 0.642567 0.174212
vt 0.642567 0.154902
vt 0.629908 0.180218
vt 0.623256 0.199529
vt 0.629908 0.199529
vt 0.617250 0.180218
vt 0.610598 0.199529
vt 0.617250 0.199529
vt 0.648573 0.180218
vt 0.655225 0.199529
vt 0.655225 0.180218
vt 0.635914 0.180218
vt 0.642567 0.199529
vt 0.642567 0.180218
vt 0.680541 0.104269
vt 0.673889 0.123579
vt 0.680541 0.123579
vt 0.667883 0.104269
vt 0.661231 0.123579
vt 0.667883 0.123579
vt 0.705858 0.104269
vt 0.699206 0.123579
vt 0.705858 0.123579
vt 0.813130 0.154902
vt 0.819782 0.161554
vt 0.819782 0.154902
vt 0.693200 0.123579
vt 0.686547 0.104269
vt 0.686547 0.123579
vt 0.680541 0.129585
vt 0.673889 0.148896
vt 0.680541 0.148896
vt 0.661231 0.129585
vt 0.667883 0.148896
vt 0.667883 0.129585
vt 0.010697 0.672448
vt 0.022219 0.662326
vt 0.041247 0.665132
vt 0.851104 0.167560
vt 0.857756 0.174212
vt 0.857756 0.167560
vt 0.838446 0.167560
vt 0.845098 0.174212
vt 0.845098 0.167560
vt 0.851104 0.154902
vt 0.857756 0.161554
vt 0.857756 0.154902
vt 0.838446 0.154902
vt 0.845098 0.161554
vt 0.845098 0.154902
vt 0.097747 0.638637
vt 0.091880 0.651324
vt 0.072852 0.654130
vt 0.825788 0.192876
vt 0.832440 0.199529
vt 0.832440 0.192876
vt 0.699206 0.129585
vt 0.705858 0.148896
vt 0.705858 0.129585
vt 0.813130 0.192876
vt 0.819782 0.199529
vt 0.819782 0.192876
vt 0.693200 0.129585
vt 0.686547 0.148896
vt 0.693200 0.148896
vt 0.623256 0.104269
vt 0.629908 0.123579
vt 0.629908 0.104269
vt 0.610598 0.104269
vt 0.617250 0.123579
vt 0.617250 0.104269
vt 0.655225 0.104269
vt 0.648573 0.123579
vt 0.655225 0.123579
vt 0.642567 0.104269
vt 0.635914 0.123579
vt 0.642567 0.123579
vt 0.623256 0.129585
vt 0.629908 0.148896
vt 0.629908 0.129585
vt 0.825788 0.180218
vt 0.832440 0.186870
vt 0.832440 0.180218
vt 0.813130 0.180218
vt 0.819782 0.186870
vt 0.819782 0.180218
vt 0.851104 0.192876
vt 0.857756 0.199529
vt 0.857756 0.192876
vt 0.838446 0.192876
vt 0.845098 0.199529
vt 0.845098 0.192876
vt 0.192876 0.661231
vt 0.199529 0.705858
vt 0.199529 0.661231
vt 0.180218 0.661231
vt 0.186870 0.705858
vt 0.186870 0.661231
vt 0.851104 0.180218
vt 0.857756 0.186870
vt 0.857756 0.180218
vt 0.845098 0.180218
vt 0.838446 0.186870
vt 0.845098 0.186870
vt 0.781807 0.167560
vt 0.775155 0.174212
vt 0.781807 0.174212
vt 0.769149 0.167560
vt 0.762497 0.174212
vt 0.769149 0.174212
vt 0.781807 0.154902
vt 0.775155 0.161554
vt 0.781807 0.161554
vt 0.762497 0.154902
vt 0.769149 0.161554
vt 0.769149 0.154902
vt 0.807124 0.167560
vt 0.800471 0.174212
vt 0.807124 0.174212
vt 0.617250 0.129585
vt 0.610598 0.148896
vt 0.617250 0.148896
vt 0.116927 0.661231
vt 0.123579 0.705858
vt 0.123579 0.661231
vt 0.104269 0.661231
vt 0.110921 0.705858
vt 0.110921 0.661231
vt 0.148896 0.661231
vt 0.142244 0.705858
vt 0.148896 0.705858
vt 0.136238 0.661231
vt 0.129585 0.705858
vt 0.136238 0.705858
vt 0.174212 0.610598
vt 0.167560 0.655225
vt 0.174212 0.655225
vt 0.161554 0.610598
vt 0.154902 0.655225
vt 0.161554 0.655225
vt 0.787813 0.167560
vt 0.794465 0.174212
vt 0.794465 0.167560
vt 0.807124 0.154902
vt 0.800471 0.161554
vt 0.807124 0.161554
vt 0.655225 0.129585
vt 0.648573 0.148896
vt 0.655225 0.148896
vt 0.787813 0.154902
vt 0.794465 0.161554
vt 0.794465 0.154902
vt 0.775155 0.192876
vt 0.781807 0.199529
vt 0.781807 0.192876
vt 0.769149 0.192876
vt 0.762497 0.199529
vt 0.769149 0.199529
vt 0.781807 0.180218
vt 0.775155 0.186870
vt 0.781807 0.186870
vt 0.762497 0.180218
vt 0.769149 0.186870
vt 0.769149 0.180218
vt 0.642567 0.129585
vt 0.635914 0.148896
vt 0.642567 0.148896
vt 0.673889 0.053636
vt 0.680541 0.072946
vt 0.680541 0.053636
vt 0.667883 0.053636
vt 0.661231 0.072946
vt 0.667883 0.072946
vt 0.699206 0.053636
vt 0.705858 0.072946
vt 0.705858 0.053636
vt 0.686547 0.053636
vt 0.693200 0.072946
vt 0.693200 0.053636
vt 0.673889 0.078952
vt 0.680541 0.098263
vt 0.680541 0.078952
vt 0.807124 0.192876
vt 0.800471 0.199529
vt 0.807124 0.199529
vt 0.794465 0.192876
vt 0.787813 0.199529
vt 0.794465 0.199529
vt 0.800471 0.180218
vt 0.807124 0.186870
vt 0.807124 0.180218
vt 0.787813 0.180218
vt 0.794465 0.186870
vt 0.794465 0.180218
vt 0.832440 0.116927
vt 0.825788 0.123579
vt 0.832440 0.123579
vt 0.813130 0.116927
vt 0.819782 0.123579
vt 0.819782 0.116927
vt 0.825788 0.104269
vt 0.832440 0.110921
vt 0.832440 0.104269
vt 0.819782 0.104269
vt 0.813130 0.110921
vt 0.819782 0.110921
vt 0.205535 0.813130
vt 0.243509 0.832440
vt 0.230851 0.832440
vt 0.640603 0.022313
vt 0.635914 0.007691
vt 0.637288 0.020940
vt 0.635914 0.017625
vt 0.637288 0.004376
vt 0.640603 0.003003
vt 0.653852 0.004376
vt 0.655225 0.007691
vt 0.653852 0.020940
vt 0.243509 0.813130
vt 0.484016 0.629908
vt 0.471357 0.655225
vt 0.458699 0.655225
vt 0.230851 0.813130
vt 0.218193 0.857756
vt 0.205535 0.851104
vt 0.496674 0.655225
vt 0.218193 0.845098
vt 0.205535 0.845098
vt 0.243509 0.857756
vt 0.230851 0.851104
vt 0.243509 0.838446
vt 0.230851 0.838446
vt 0.268826 0.775155
vt 0.256168 0.781807
vt 0.268826 0.769149
vt 0.256168 0.762497
vt 0.294142 0.775155
vt 0.281484 0.781807
vt 0.294142 0.769149
vt 0.281484 0.762497
vt 0.268826 0.800471
vt 0.256168 0.807124
vt 0.268826 0.794465
vt 0.484016 0.635914
vt 0.420725 0.610598
vt 0.408066 0.610598
vt 0.446041 0.610598
vt 0.433383 0.610598
vt 0.420725 0.635914
vt 0.414719 0.635914
vt 0.452693 0.635914
vt 0.256168 0.794465
vt 0.098263 0.669827
vt 0.094572 0.705448
vt 0.086339 0.705858
vt 0.057327 0.705448
vt 0.053636 0.669827
vt 0.057327 0.661641
vt 0.065560 0.661231
vt 0.086339 0.661231
vt 0.094572 0.661641
vt 0.294142 0.807124
vt 0.433383 0.635914
vt 0.281484 0.800471
vt 0.673889 0.154902
vt 0.294142 0.787813
vt 0.281484 0.794465
vt 0.667883 0.154902
vt 0.218193 0.781807
vt 0.205535 0.775155
vt 0.699206 0.154902
vt 0.218193 0.762497
vt 0.686547 0.154902
vt 0.673889 0.180218
vt 0.661231 0.199529
vt 0.699206 0.199529
vt 0.205535 0.762497
vt 0.243509 0.781807
vt 0.230851 0.775155
vt 0.243509 0.762497
vt 0.230851 0.762497
vt 0.218193 0.807124
vt 0.205535 0.807124
vt 0.218193 0.794465
vt 0.205535 0.787813
vt 0.243509 0.807124
vt 0.230851 0.807124
vt 0.243509 0.787813
vt 0.230851 0.787813
vt 0.825788 0.174212
vt 0.813130 0.174212
vt 0.825788 0.154902
vt 0.686547 0.180218
vt 0.623256 0.174212
vt 0.610598 0.174212
vt 0.648573 0.174212
vt 0.635914 0.174212
vt 0.623256 0.180218
vt 0.610598 0.180218
vt 0.648573 0.199529
vt 0.635914 0.199529
vt 0.673889 0.104269
vt 0.661231 0.104269
vt 0.699206 0.104269
vt 0.813130 0.161554
vt 0.693200 0.104269
vt 0.673889 0.129585
vt 0.661231 0.148896
vt 0.047630 0.666014
vt 0.047114 0.677818
vt 0.047315 0.680726
vt 0.047630 0.692902
vt 0.009119 0.675094
vt 0.039418 0.703202
vt 0.025099 0.705858
vt 0.017748 0.704774
vt 0.003003 0.686321
vt 0.005709 0.698231
vt 0.015864 0.661329
vt 0.032352 0.661231
vt 0.851104 0.174212
vt 0.838446 0.174212
vt 0.851104 0.161554
vt 0.838446 0.161554
vt 0.066497 0.655126
vt 0.061330 0.644008
vt 0.059752 0.641362
vt 0.053636 0.630135
vt 0.097948 0.635729
vt 0.056342 0.618225
vt 0.068381 0.611682
vt 0.075731 0.610598
vt 0.098263 0.623554
vt 0.090051 0.613254
vt 0.098263 0.650442
vt 0.082985 0.655225
vt 0.825788 0.199529
vt 0.699206 0.148896
vt 0.813130 0.199529
vt 0.686547 0.129585
vt 0.623256 0.123579
vt 0.610598 0.123579
vt 0.648573 0.104269
vt 0.635914 0.104269
vt 0.623256 0.148896
vt 0.825788 0.186870
vt 0.813130 0.186870
vt 0.851104 0.199529
vt 0.838446 0.199529
vt 0.192876 0.705858
vt 0.180218 0.705858
vt 0.851104 0.186870
vt 0.838446 0.180218
vt 0.775155 0.167560
vt 0.762497 0.167560
vt 0.775155 0.154902
vt 0.762497 0.161554
vt 0.800471 0.167560
vt 0.610598 0.129585
vt 0.116927 0.705858
vt 0.104269 0.705858
vt 0.142244 0.661231
vt 0.129585 0.661231
vt 0.167560 0.610598
vt 0.154902 0.610598
vt 0.787813 0.174212
vt 0.800471 0.154902
vt 0.648573 0.129585
vt 0.787813 0.161554
vt 0.775155 0.199529
vt 0.762497 0.192876
vt 0.775155 0.180218
vt 0.762497 0.186870
vt 0.635914 0.129585
vt 0.673889 0.072946
vt 0.661231 0.053636
vt 0.699206 0.072946
vt 0.686547 0.072946
vt 0.673889 0.098263
vt 0.800471 0.192876
vt 0.787813 0.192876
vt 0.800471 0.186870
vt 0.787813 0.186870
vt 0.825788 0.116927
vt 0.813130 0.123579
vt 0.825788 0.110921
vt 0.813130 0.104269
s 1
usemtl Chair.001
f 23/1/1 6/2/2 29/3/3
f 11/4/4 47/5/5 41/6/6
f 17/7/7 3/8/8 1/9/9
f 34/10/10 13/11/11 31/12/12
f 29/13/3 4/14/13 26/15/14
f 32/16/15 1/17/9 8/18/16
f 14/19/17 4/20/13 2/21/18
f 23/22/1 10/23/19 5/24/20
f 32/25/15 9/26/21 38/27/22
f 12/28/23 44/29/24 47/30/5
f 38/31/22 7/32/25 35/33/26
f 41/34/6 7/35/25 11/36/4
f 6/37/2 64/38/27 4/39/13
f 19/40/28 18/41/29 16/42/30
f 21/43/31 17/44/7 18/45/29
f 19/46/28 15/47/32 21/48/31
f 21/49/31 14/50/17 20/51/33
f 28/52/34 24/53/35 30/54/36
f 30/55/36 23/56/1 29/57/3
f 28/58/34 27/59/37 25/60/38
f 30/61/36 26/62/14 27/63/37
f 46/64/39 42/65/40 48/66/41
f 48/67/41 41/68/6 47/69/5
f 46/70/39 45/71/42 43/72/43
f 48/73/41 44/74/24 45/75/42
f 37/76/44 33/77/45 39/78/46
f 39/79/46 32/80/15 38/81/22
f 37/82/44 36/83/47 34/84/10
f 39/85/46 35/86/26 36/87/47
f 25/88/38 15/89/32 13/90/11
f 27/91/37 14/92/17 15/93/32
f 16/94/30 33/95/45 31/96/12
f 18/97/29 32/98/15 33/99/45
f 41/100/6 36/101/47 35/102/26
f 42/103/40 34/104/10 36/105/47
f 44/106/24 24/107/35 45/108/42
f 45/109/42 22/110/48 43/111/43
f 20/112/33 2/113/18 3/114/8
f 54/115/49 57/116/49 55/117/49
f 12/118/50 74/119/51 56/120/50
f 1/121/49 58/122/49 8/123/49
f 59/124/52 76/125/53 75/126/54
f 4/127/49 51/128/49 2/129/49
f 10/130/49 56/131/49 57/132/49
f 5/133/49 53/134/49 6/135/49
f 5/136/49 57/137/49 52/138/49
f 8/139/49 59/140/49 9/141/49
f 11/142/55 73/143/56 65/144/57
f 7/145/49 55/146/49 11/147/49
f 1/148/49 49/149/49 50/150/49
f 73/151/58 90/152/59 89/153/60
f 70/154/61 78/155/62 86/156/62
f 72/157/63 87/158/64 71/159/65
f 69/160/66 77/161/67 61/162/68
f 6/163/69 71/164/70 63/165/71
f 49/166/72 69/167/73 51/168/72
f 12/169/23 65/170/74 66/171/75
f 53/172/76 72/173/63 71/174/65
f 2/175/77 69/176/66 61/177/68
f 56/178/78 73/179/58 55/180/78
f 3/181/79 70/182/61 49/183/79
f 9/184/21 68/185/80 7/186/25
f 9/187/81 75/188/82 67/189/83
f 4/190/84 72/191/85 54/192/84
f 7/193/86 76/194/87 60/195/86
f 3/196/8 61/197/88 62/198/89
f 84/199/90 91/200/91 92/201/92
f 81/202/93 90/203/93 82/204/93
f 77/205/94 86/206/95 78/207/96
f 80/208/97 87/209/98 88/210/99
f 72/211/85 80/212/100 88/213/101
f 76/214/53 91/215/102 75/216/54
f 61/217/88 78/218/103 62/219/89
f 71/220/70 79/221/104 63/222/71
f 75/223/82 83/224/105 67/225/83
f 64/226/27 79/227/106 80/228/106
f 76/229/87 84/230/107 92/231/108
f 65/232/74 82/233/109 66/234/75
f 73/235/56 81/236/110 65/237/57
f 68/238/80 83/239/111 84/240/111
f 74/241/51 82/242/112 90/243/112
f 69/244/73 86/245/113 85/246/114
f 101/247/115 104/248/116 106/249/116
f 128/250/117 103/251/118 127/252/117
f 98/253/119 124/254/120 123/255/120
f 95/256/121 119/257/122 96/258/121
f 129/259/123 114/260/124 111/261/125
f 101/262/115 99/263/126 97/264/115
f 102/265/126 98/266/119 99/267/126
f 104/268/116 108/269/127 106/270/116
f 105/271/127 107/272/118 108/273/127
f 125/274/128 112/275/129 113/276/130
f 109/277/49 112/278/131 111/279/131
f 93/280/132 121/281/133 112/282/129
f 114/283/134 110/284/49 109/285/49
f 93/286/135 115/287/136 116/288/136
f 96/289/137 122/290/138 114/291/124
f 112/292/139 117/293/139 111/294/139
f 95/295/140 120/296/141 118/297/141
f 94/298/142 117/299/143 115/300/143
f 114/301/144 120/302/144 113/303/144
f 123/304/145 133/305/146 125/306/128
f 125/307/147 94/308/135 93/309/135
f 125/310/148 134/311/149 126/312/150
f 129/313/151 95/314/121 96/315/121
f 133/316/152 142/317/153 134/318/149
f 136/319/154 145/320/155 137/321/156
f 127/322/157 137/323/156 128/324/157
f 127/325/158 135/326/159 136/327/160
f 124/328/161 134/329/162 132/330/163
f 123/331/164 132/332/165 131/333/166
f 130/334/167 138/335/168 135/336/169
f 128/337/170 138/338/171 129/339/123
f 145/340/155 152/341/172 153/342/172
f 168/343/173 157/344/174 158/345/174
f 131/346/175 141/347/176 133/348/146
f 137/349/177 146/350/178 138/351/171
f 136/352/160 143/353/179 144/354/180
f 132/355/163 142/356/181 140/357/182
f 131/358/166 140/359/183 139/360/184
f 135/361/169 146/362/185 143/363/185
f 147/364/186 150/365/187 149/366/188
f 154/367/189 152/368/190 151/369/191
f 164/370/192 156/371/193 160/372/194
f 139/373/195 149/374/196 141/375/176
f 145/376/197 154/377/198 146/378/178
f 144/379/180 151/380/199 152/381/200
f 140/382/182 150/383/201 148/384/202
f 140/385/183 147/386/203 139/387/184
f 169/388/204 158/389/205 162/390/205
f 165/391/206 156/392/207 163/393/208
f 170/394/209 162/395/210 161/396/210
f 164/397/211 159/398/212 166/399/213
f 166/400/214 155/401/215 165/402/216
f 170/403/217 157/404/218 167/405/219
f 141/406/176 166/407/214 165/408/216
f 149/409/188 164/410/211 166/411/213
f 141/412/220 163/413/208 142/414/220
f 142/415/181 164/416/192 150/417/201
f 146/418/178 170/419/217 167/420/219
f 151/421/191 170/422/209 154/423/189
f 143/424/179 169/425/204 151/426/199
f 143/427/221 167/428/222 168/429/173
f 23/1/1 5/430/20 6/2/2
f 11/4/4 12/431/23 47/5/5
f 17/7/7 20/432/33 3/8/8
f 34/10/10 40/433/223 22/434/48
f 40/433/223 46/435/39 43/436/43
f 22/434/48 40/433/223 43/436/43
f 22/434/48 28/437/34 25/438/38
f 25/438/38 13/11/11 22/434/48
f 13/11/11 19/439/28 16/440/30
f 22/434/48 13/11/11 34/10/10
f 16/440/30 31/12/12 13/11/11
f 31/12/12 37/441/44 34/10/10
f 29/13/3 6/442/2 4/14/13
f 32/16/15 17/443/7 1/17/9
f 14/19/17 26/444/14 4/20/13
f 23/22/1 44/445/24 10/23/19
f 32/25/15 8/446/16 9/26/21
f 12/28/23 10/447/19 44/29/24
f 38/31/22 9/448/21 7/32/25
f 41/34/6 35/449/26 7/35/25
f 6/37/2 63/450/224 64/38/27
f 19/40/28 21/451/31 18/41/29
f 21/43/31 20/452/33 17/44/7
f 19/46/28 13/453/11 15/47/32
f 21/49/31 15/454/32 14/50/17
f 28/52/34 22/455/48 24/53/35
f 30/55/36 24/456/35 23/56/1
f 28/58/34 30/457/36 27/59/37
f 30/61/36 29/458/3 26/62/14
f 46/64/39 40/459/223 42/65/40
f 48/67/41 42/460/40 41/68/6
f 46/70/39 48/461/41 45/71/42
f 48/73/41 47/462/5 44/74/24
f 37/76/44 31/463/12 33/77/45
f 39/79/46 33/464/45 32/80/15
f 37/82/44 39/465/46 36/83/47
f 39/85/46 38/466/22 35/86/26
f 25/88/38 27/467/37 15/89/32
f 27/91/37 26/468/14 14/92/17
f 16/94/30 18/469/29 33/95/45
f 18/97/29 17/470/7 32/98/15
f 41/100/6 42/471/40 36/101/47
f 42/103/40 40/472/223 34/104/10
f 44/106/24 23/473/1 24/107/35
f 45/109/42 24/474/35 22/110/48
f 20/112/33 14/475/17 2/113/18
f 51/476/49 54/115/49 55/117/49
f 54/115/49 53/477/49 52/478/49
f 57/116/49 54/115/49 52/478/49
f 57/116/49 56/479/49 55/117/49
f 55/117/49 60/480/49 51/476/49
f 60/480/49 59/481/49 58/482/49
f 51/476/49 60/480/49 50/483/49
f 58/482/49 50/483/49 60/480/49
f 50/483/49 49/484/49 51/476/49
f 12/118/50 66/485/225 74/119/51
f 1/121/49 50/486/49 58/122/49
f 59/124/52 60/487/52 76/125/53
f 4/127/49 54/488/49 51/128/49
f 10/130/49 12/489/49 56/131/49
f 5/133/49 52/490/49 53/134/49
f 5/136/49 10/491/49 57/137/49
f 8/139/49 58/492/49 59/140/49
f 11/142/55 55/493/226 73/143/56
f 7/145/49 60/494/49 55/146/49
f 1/148/49 3/495/49 49/149/49
f 73/151/58 74/496/227 90/152/59
f 70/154/61 62/497/228 78/155/62
f 72/157/63 88/498/64 87/158/64
f 69/160/66 85/499/229 77/161/67
f 6/163/69 53/500/69 71/164/70
f 49/166/72 70/501/230 69/167/73
f 12/169/23 11/502/4 65/170/74
f 53/172/76 54/503/76 72/173/63
f 2/175/77 51/504/77 69/176/66
f 56/178/78 74/505/227 73/179/58
f 3/181/79 62/506/228 70/182/61
f 9/184/21 67/507/231 68/185/80
f 9/187/81 59/508/81 75/188/82
f 4/190/84 64/509/232 72/191/85
f 7/193/86 68/510/233 76/194/87
f 3/196/8 2/511/18 61/197/88
f 84/199/90 83/512/90 91/200/91
f 81/202/93 89/513/234 90/203/93
f 77/205/94 85/514/235 86/206/95
f 80/208/97 79/515/236 87/209/98
f 72/211/85 64/516/232 80/212/100
f 76/214/53 92/517/237 91/215/102
f 61/217/88 77/518/103 78/218/103
f 71/220/70 87/519/104 79/221/104
f 75/223/82 91/520/105 83/224/105
f 64/226/27 63/521/224 79/227/106
f 76/229/87 68/522/233 84/230/107
f 65/232/74 81/523/109 82/233/109
f 73/235/56 89/524/110 81/236/110
f 68/238/80 67/525/231 83/239/111
f 74/241/51 66/526/225 82/242/112
f 69/244/73 70/527/230 86/245/113
f 101/247/115 97/528/115 104/248/116
f 128/250/117 107/529/118 103/251/118
f 98/253/119 100/530/119 124/254/120
f 95/256/121 118/531/122 119/257/122
f 111/261/125 94/532/142 126/533/238
f 126/533/238 124/534/161 129/259/123
f 124/534/161 100/535/239 128/536/170
f 129/259/123 124/534/161 128/536/170
f 100/535/239 102/537/239 101/538/239
f 101/538/239 106/539/239 107/540/239
f 106/539/239 108/541/239 107/540/239
f 107/540/239 128/536/170 100/535/239
f 129/259/123 96/542/137 114/260/124
f 107/540/239 100/535/239 101/538/239
f 111/261/125 126/533/238 129/259/123
f 114/260/124 109/543/240 111/261/125
f 101/262/115 102/544/126 99/263/126
f 102/265/126 100/545/119 98/266/119
f 104/268/116 105/546/127 108/269/127
f 105/271/127 103/547/118 107/272/118
f 113/276/130 95/548/140 130/549/241
f 130/549/241 127/550/158 125/274/128
f 127/550/158 103/551/242 123/552/145
f 125/274/128 127/550/158 123/552/145
f 103/551/242 105/553/243 104/554/243
f 104/554/243 97/555/243 98/556/244
f 97/555/243 99/557/243 98/556/244
f 98/556/244 123/552/145 103/551/242
f 125/274/128 93/558/132 112/275/129
f 98/556/244 103/551/242 104/554/243
f 113/276/130 130/549/241 125/274/128
f 112/275/129 110/559/245 113/276/130
f 109/277/49 110/560/49 112/278/131
f 93/280/132 116/561/133 121/281/133
f 114/283/134 113/562/134 110/284/49
f 93/286/135 94/563/135 115/287/136
f 96/289/137 119/564/138 122/290/138
f 112/292/139 121/565/139 117/293/139
f 95/295/140 113/566/130 120/296/141
f 94/298/142 111/567/125 117/299/143
f 114/301/144 122/568/144 120/302/144
f 123/304/145 131/569/175 133/305/146
f 125/307/147 126/570/147 94/308/135
f 125/310/148 133/571/152 134/311/149
f 129/313/151 130/572/151 95/314/121
f 133/316/152 141/573/153 142/317/153
f 136/319/154 144/574/246 145/320/155
f 127/322/157 136/575/154 137/323/156
f 127/325/158 130/576/241 135/326/159
f 124/328/161 126/577/238 134/329/162
f 123/331/164 124/578/164 132/332/165
f 130/334/167 129/579/247 138/335/168
f 128/337/170 137/580/177 138/338/171
f 145/340/155 144/581/246 152/341/172
f 168/343/173 167/582/222 157/344/174
f 131/346/175 139/583/195 141/347/176
f 137/349/177 145/584/197 146/350/178
f 136/352/160 135/585/159 143/353/179
f 132/355/163 134/586/162 142/356/181
f 131/358/166 132/587/165 140/359/183
f 135/361/169 138/588/168 146/362/185
f 147/364/186 148/589/186 150/365/187
f 154/367/189 153/590/190 152/368/190
f 164/370/192 163/591/248 156/371/193
f 139/373/195 147/592/249 149/374/196
f 145/376/197 153/593/250 154/377/198
f 144/379/180 143/594/179 151/380/199
f 140/382/182 142/595/181 150/383/201
f 140/385/183 148/596/203 147/386/203
f 169/388/204 168/597/251 158/389/205
f 165/391/206 155/598/207 156/392/207
f 170/394/209 169/599/252 162/395/210
f 164/397/211 160/600/212 159/398/212
f 166/400/214 159/601/215 155/401/215
f 170/403/217 161/602/218 157/404/218
f 141/406/176 149/603/196 166/407/214
f 149/409/188 150/604/187 164/410/211
f 141/412/220 165/605/206 163/413/208
f 142/415/181 163/606/248 164/416/192
f 146/418/178 154/607/198 170/419/217
f 151/421/191 169/608/252 170/422/209
f 143/424/179 168/609/251 169/425/204
f 143/427/221 146/610/221 167/428/222
